<?xml version="1.0" encoding="UTF-8"?>
<svg xmlns="http://www.w3.org/2000/svg" xmlns:xlink="http://www.w3.org/1999/xlink" width="560.197998" height="147.283722" viewBox="0 0 560.197998 147.283722">
<path fill-rule="nonzero" fill="rgb(0%, 0%, 0%)" fill-opacity="1" d="M 23.914062 28.957031 C 23.914062 28.722656 23.789062 28.722656 23.429688 28.722656 C 22.382812 28.722656 22.382812 28.578125 22.382812 28.417969 C 22.382812 28.417969 22.382812 28.273438 22.457031 28.003906 L 24.886719 18.265625 C 25.03125 17.6875 25.175781 17.546875 26.308594 17.546875 C 26.6875 17.546875 26.847656 17.546875 26.847656 17.222656 C 26.847656 16.988281 26.703125 16.988281 26.398438 16.988281 L 24.09375 16.988281 C 23.699219 16.988281 23.644531 16.988281 23.445312 17.3125 L 17.328125 27.480469 L 16.320312 17.382812 C 16.28125 16.988281 16.246094 16.988281 15.816406 16.988281 L 13.421875 16.988281 C 13.132812 16.988281 12.933594 16.988281 12.933594 17.328125 C 12.933594 17.546875 13.078125 17.546875 13.421875 17.546875 C 13.976562 17.546875 14.464844 17.546875 14.464844 17.851562 C 14.464844 17.90625 14.464844 17.941406 14.390625 18.191406 L 12.089844 27.464844 C 11.835938 28.472656 11.152344 28.6875 10.34375 28.722656 C 10.199219 28.722656 10 28.742188 10 29.066406 C 10 29.226562 10.109375 29.28125 10.234375 29.28125 C 10.773438 29.28125 11.386719 29.226562 11.945312 29.226562 C 12.519531 29.226562 13.152344 29.28125 13.707031 29.28125 C 13.816406 29.28125 14.03125 29.28125 14.03125 28.957031 C 14.03125 28.742188 13.90625 28.722656 13.691406 28.722656 C 12.664062 28.6875 12.628906 28.21875 12.628906 27.949219 C 12.628906 27.894531 12.628906 27.789062 12.699219 27.5 L 15.09375 17.941406 L 15.113281 17.941406 L 16.210938 28.847656 C 16.246094 29.15625 16.246094 29.28125 16.515625 29.28125 C 16.75 29.28125 16.839844 29.15625 16.949219 28.957031 L 23.664062 17.777344 L 23.679688 17.777344 L 21.140625 27.96875 C 21 28.578125 20.890625 28.722656 19.667969 28.722656 C 19.378906 28.722656 19.179688 28.722656 19.179688 29.066406 C 19.179688 29.28125 19.378906 29.28125 19.433594 29.28125 C 20.097656 29.28125 20.800781 29.226562 21.484375 29.226562 C 22.167969 29.226562 22.90625 29.28125 23.574219 29.28125 C 23.699219 29.28125 23.914062 29.28125 23.914062 28.957031 Z M 8.8125 9.03125 "/>
<path fill-rule="nonzero" fill="rgb(0%, 0%, 0%)" fill-opacity="1" d="M 39.789062 29.011719 C 39.933594 28.886719 39.933594 28.652344 39.789062 28.507812 L 36.066406 24.78125 L 39.789062 21.054688 C 39.933594 20.910156 39.933594 20.675781 39.789062 20.550781 C 39.664062 20.40625 39.429688 20.40625 39.285156 20.550781 L 35.5625 24.277344 L 31.835938 20.550781 C 31.691406 20.40625 31.457031 20.40625 31.332031 20.550781 C 31.1875 20.675781 31.1875 20.910156 31.332031 21.054688 L 35.054688 24.78125 L 31.332031 28.507812 C 31.1875 28.652344 31.1875 28.886719 31.332031 29.011719 C 31.457031 29.15625 31.691406 29.15625 31.835938 29.011719 L 35.5625 25.285156 L 39.285156 29.011719 C 39.429688 29.15625 39.664062 29.15625 39.789062 29.011719 Z M 28.558594 14.773438 "/>
<path fill-rule="nonzero" fill="rgb(0%, 0%, 0%)" fill-opacity="1" d="M 61.261719 28.957031 C 61.261719 28.722656 61.136719 28.722656 60.777344 28.722656 C 59.730469 28.722656 59.730469 28.578125 59.730469 28.417969 C 59.730469 28.417969 59.730469 28.273438 59.804688 28.003906 L 62.234375 18.265625 C 62.378906 17.6875 62.523438 17.546875 63.65625 17.546875 C 64.035156 17.546875 64.195312 17.546875 64.195312 17.222656 C 64.195312 16.988281 64.050781 16.988281 63.746094 16.988281 L 61.441406 16.988281 C 61.046875 16.988281 60.992188 16.988281 60.792969 17.3125 L 54.675781 27.480469 L 53.667969 17.382812 C 53.628906 16.988281 53.59375 16.988281 53.164062 16.988281 L 50.769531 16.988281 C 50.480469 16.988281 50.28125 16.988281 50.28125 17.328125 C 50.28125 17.546875 50.425781 17.546875 50.769531 17.546875 C 51.324219 17.546875 51.8125 17.546875 51.8125 17.851562 C 51.8125 17.90625 51.8125 17.941406 51.738281 18.191406 L 49.4375 27.464844 C 49.183594 28.472656 48.5 28.6875 47.691406 28.722656 C 47.546875 28.722656 47.347656 28.742188 47.347656 29.066406 C 47.347656 29.226562 47.457031 29.28125 47.582031 29.28125 C 48.121094 29.28125 48.734375 29.226562 49.292969 29.226562 C 49.867188 29.226562 50.5 29.28125 51.054688 29.28125 C 51.164062 29.28125 51.378906 29.28125 51.378906 28.957031 C 51.378906 28.742188 51.253906 28.722656 51.039062 28.722656 C 50.011719 28.6875 49.976562 28.21875 49.976562 27.949219 C 49.976562 27.894531 49.976562 27.789062 50.046875 27.5 L 52.441406 17.941406 L 52.460938 17.941406 L 53.558594 28.847656 C 53.59375 29.15625 53.59375 29.28125 53.863281 29.28125 C 54.097656 29.28125 54.1875 29.15625 54.296875 28.957031 L 61.011719 17.777344 L 61.027344 17.777344 L 58.488281 27.96875 C 58.347656 28.578125 58.238281 28.722656 57.015625 28.722656 C 56.726562 28.722656 56.527344 28.722656 56.527344 29.066406 C 56.527344 29.28125 56.726562 29.28125 56.78125 29.28125 C 57.445312 29.28125 58.148438 29.226562 58.832031 29.226562 C 59.515625 29.226562 60.253906 29.28125 60.921875 29.28125 C 61.046875 29.28125 61.261719 29.28125 61.261719 28.957031 Z M 46.160156 9.03125 "/>
<path fill-rule="nonzero" fill="rgb(0%, 0%, 0%)" fill-opacity="1" d="M 77.136719 29.011719 C 77.28125 28.886719 77.28125 28.652344 77.136719 28.507812 L 73.414062 24.78125 L 77.136719 21.054688 C 77.28125 20.910156 77.28125 20.675781 77.136719 20.550781 C 77.011719 20.40625 76.777344 20.40625 76.632812 20.550781 L 72.910156 24.277344 L 69.183594 20.550781 C 69.039062 20.40625 68.804688 20.40625 68.679688 20.550781 C 68.535156 20.675781 68.535156 20.910156 68.679688 21.054688 L 72.402344 24.78125 L 68.679688 28.507812 C 68.535156 28.652344 68.535156 28.886719 68.679688 29.011719 C 68.804688 29.15625 69.039062 29.15625 69.183594 29.011719 L 72.910156 25.285156 L 76.632812 29.011719 C 76.777344 29.15625 77.011719 29.15625 77.136719 29.011719 Z M 65.90625 14.773438 "/>
<path fill-rule="nonzero" fill="rgb(0%, 0%, 0%)" fill-opacity="1" d="M 98.613281 28.957031 C 98.613281 28.722656 98.488281 28.722656 98.128906 28.722656 C 97.082031 28.722656 97.082031 28.578125 97.082031 28.417969 C 97.082031 28.417969 97.082031 28.273438 97.15625 28.003906 L 99.585938 18.265625 C 99.730469 17.6875 99.875 17.546875 101.007812 17.546875 C 101.386719 17.546875 101.546875 17.546875 101.546875 17.222656 C 101.546875 16.988281 101.402344 16.988281 101.097656 16.988281 L 98.792969 16.988281 C 98.398438 16.988281 98.34375 16.988281 98.144531 17.3125 L 92.027344 27.480469 L 91.019531 17.382812 C 90.980469 16.988281 90.945312 16.988281 90.515625 16.988281 L 88.121094 16.988281 C 87.832031 16.988281 87.632812 16.988281 87.632812 17.328125 C 87.632812 17.546875 87.777344 17.546875 88.121094 17.546875 C 88.675781 17.546875 89.164062 17.546875 89.164062 17.851562 C 89.164062 17.90625 89.164062 17.941406 89.089844 18.191406 L 86.789062 27.464844 C 86.535156 28.472656 85.851562 28.6875 85.042969 28.722656 C 84.898438 28.722656 84.699219 28.742188 84.699219 29.066406 C 84.699219 29.226562 84.808594 29.28125 84.933594 29.28125 C 85.472656 29.28125 86.085938 29.226562 86.644531 29.226562 C 87.21875 29.226562 87.851562 29.28125 88.40625 29.28125 C 88.515625 29.28125 88.730469 29.28125 88.730469 28.957031 C 88.730469 28.742188 88.605469 28.722656 88.390625 28.722656 C 87.363281 28.6875 87.328125 28.21875 87.328125 27.949219 C 87.328125 27.894531 87.328125 27.789062 87.398438 27.5 L 89.792969 17.941406 L 89.8125 17.941406 L 90.910156 28.847656 C 90.945312 29.15625 90.945312 29.28125 91.214844 29.28125 C 91.449219 29.28125 91.539062 29.15625 91.648438 28.957031 L 98.363281 17.777344 L 98.378906 17.777344 L 95.839844 27.96875 C 95.699219 28.578125 95.589844 28.722656 94.367188 28.722656 C 94.078125 28.722656 93.878906 28.722656 93.878906 29.066406 C 93.878906 29.28125 94.078125 29.28125 94.132812 29.28125 C 94.796875 29.28125 95.5 29.226562 96.183594 29.226562 C 96.867188 29.226562 97.605469 29.28125 98.273438 29.28125 C 98.398438 29.28125 98.613281 29.28125 98.613281 28.957031 Z M 83.511719 9.03125 "/>
<path fill-rule="nonzero" fill="rgb(0%, 0%, 0%)" fill-opacity="1" d="M 204.589844 28.957031 C 204.589844 28.722656 204.464844 28.722656 204.105469 28.722656 C 203.058594 28.722656 203.058594 28.578125 203.058594 28.417969 C 203.058594 28.417969 203.058594 28.273438 203.132812 28.003906 L 205.5625 18.265625 C 205.707031 17.6875 205.851562 17.546875 206.984375 17.546875 C 207.363281 17.546875 207.523438 17.546875 207.523438 17.222656 C 207.523438 16.988281 207.378906 16.988281 207.074219 16.988281 L 204.769531 16.988281 C 204.375 16.988281 204.320312 16.988281 204.121094 17.3125 L 198.003906 27.480469 L 196.996094 17.382812 C 196.957031 16.988281 196.921875 16.988281 196.492188 16.988281 L 194.097656 16.988281 C 193.808594 16.988281 193.609375 16.988281 193.609375 17.328125 C 193.609375 17.546875 193.753906 17.546875 194.097656 17.546875 C 194.652344 17.546875 195.140625 17.546875 195.140625 17.851562 C 195.140625 17.90625 195.140625 17.941406 195.066406 18.191406 L 192.765625 27.464844 C 192.511719 28.472656 191.828125 28.6875 191.019531 28.722656 C 190.875 28.722656 190.675781 28.742188 190.675781 29.066406 C 190.675781 29.226562 190.785156 29.28125 190.910156 29.28125 C 191.449219 29.28125 192.0625 29.226562 192.621094 29.226562 C 193.195312 29.226562 193.828125 29.28125 194.382812 29.28125 C 194.492188 29.28125 194.707031 29.28125 194.707031 28.957031 C 194.707031 28.742188 194.582031 28.722656 194.367188 28.722656 C 193.339844 28.6875 193.304688 28.21875 193.304688 27.949219 C 193.304688 27.894531 193.304688 27.789062 193.375 27.5 L 195.769531 17.941406 L 195.789062 17.941406 L 196.886719 28.847656 C 196.921875 29.15625 196.921875 29.28125 197.191406 29.28125 C 197.425781 29.28125 197.515625 29.15625 197.625 28.957031 L 204.339844 17.777344 L 204.355469 17.777344 L 201.816406 27.96875 C 201.675781 28.578125 201.566406 28.722656 200.34375 28.722656 C 200.054688 28.722656 199.855469 28.722656 199.855469 29.066406 C 199.855469 29.28125 200.054688 29.28125 200.109375 29.28125 C 200.773438 29.28125 201.476562 29.226562 202.160156 29.226562 C 202.84375 29.226562 203.582031 29.28125 204.25 29.28125 C 204.375 29.28125 204.589844 29.28125 204.589844 28.957031 Z M 189.488281 9.03125 "/>
<path fill-rule="nonzero" fill="rgb(0%, 0%, 0%)" fill-opacity="1" d="M 220.464844 29.011719 C 220.609375 28.886719 220.609375 28.652344 220.464844 28.507812 L 216.742188 24.78125 L 220.464844 21.054688 C 220.609375 20.910156 220.609375 20.675781 220.464844 20.550781 C 220.339844 20.40625 220.105469 20.40625 219.960938 20.550781 L 216.238281 24.277344 L 212.511719 20.550781 C 212.367188 20.40625 212.132812 20.40625 212.007812 20.550781 C 211.863281 20.675781 211.863281 20.910156 212.007812 21.054688 L 215.730469 24.78125 L 212.007812 28.507812 C 211.863281 28.652344 211.863281 28.886719 212.007812 29.011719 C 212.132812 29.15625 212.367188 29.15625 212.511719 29.011719 L 216.238281 25.285156 L 219.960938 29.011719 C 220.105469 29.15625 220.339844 29.15625 220.464844 29.011719 Z M 209.234375 14.773438 "/>
<path fill-rule="nonzero" fill="rgb(0%, 0%, 0%)" fill-opacity="1" d="M 241.9375 28.957031 C 241.9375 28.722656 241.8125 28.722656 241.453125 28.722656 C 240.40625 28.722656 240.40625 28.578125 240.40625 28.417969 C 240.40625 28.417969 240.40625 28.273438 240.480469 28.003906 L 242.910156 18.265625 C 243.054688 17.6875 243.199219 17.546875 244.332031 17.546875 C 244.710938 17.546875 244.871094 17.546875 244.871094 17.222656 C 244.871094 16.988281 244.726562 16.988281 244.421875 16.988281 L 242.117188 16.988281 C 241.722656 16.988281 241.667969 16.988281 241.46875 17.3125 L 235.351562 27.480469 L 234.34375 17.382812 C 234.304688 16.988281 234.269531 16.988281 233.839844 16.988281 L 231.445312 16.988281 C 231.15625 16.988281 230.957031 16.988281 230.957031 17.328125 C 230.957031 17.546875 231.101562 17.546875 231.445312 17.546875 C 232 17.546875 232.488281 17.546875 232.488281 17.851562 C 232.488281 17.90625 232.488281 17.941406 232.414062 18.191406 L 230.113281 27.464844 C 229.859375 28.472656 229.175781 28.6875 228.367188 28.722656 C 228.222656 28.722656 228.023438 28.742188 228.023438 29.066406 C 228.023438 29.226562 228.132812 29.28125 228.257812 29.28125 C 228.796875 29.28125 229.410156 29.226562 229.96875 29.226562 C 230.542969 29.226562 231.175781 29.28125 231.730469 29.28125 C 231.839844 29.28125 232.054688 29.28125 232.054688 28.957031 C 232.054688 28.742188 231.929688 28.722656 231.714844 28.722656 C 230.6875 28.6875 230.652344 28.21875 230.652344 27.949219 C 230.652344 27.894531 230.652344 27.789062 230.722656 27.5 L 233.117188 17.941406 L 233.136719 17.941406 L 234.234375 28.847656 C 234.269531 29.15625 234.269531 29.28125 234.539062 29.28125 C 234.773438 29.28125 234.863281 29.15625 234.972656 28.957031 L 241.6875 17.777344 L 241.703125 17.777344 L 239.164062 27.96875 C 239.023438 28.578125 238.914062 28.722656 237.691406 28.722656 C 237.402344 28.722656 237.203125 28.722656 237.203125 29.066406 C 237.203125 29.28125 237.402344 29.28125 237.457031 29.28125 C 238.121094 29.28125 238.824219 29.226562 239.507812 29.226562 C 240.191406 29.226562 240.929688 29.28125 241.597656 29.28125 C 241.722656 29.28125 241.9375 29.28125 241.9375 28.957031 Z M 226.835938 9.03125 "/>
<path fill-rule="nonzero" fill="rgb(0%, 0%, 0%)" fill-opacity="1" d="M 42.589844 136.957031 C 42.589844 136.722656 42.464844 136.722656 42.105469 136.722656 C 41.058594 136.722656 41.058594 136.578125 41.058594 136.417969 C 41.058594 136.417969 41.058594 136.273438 41.132812 136.003906 L 43.5625 126.265625 C 43.707031 125.6875 43.851562 125.546875 44.984375 125.546875 C 45.363281 125.546875 45.523438 125.546875 45.523438 125.222656 C 45.523438 124.988281 45.378906 124.988281 45.074219 124.988281 L 42.769531 124.988281 C 42.375 124.988281 42.320312 124.988281 42.121094 125.3125 L 36.003906 135.480469 L 34.996094 125.382812 C 34.957031 124.988281 34.921875 124.988281 34.492188 124.988281 L 32.097656 124.988281 C 31.808594 124.988281 31.609375 124.988281 31.609375 125.328125 C 31.609375 125.546875 31.753906 125.546875 32.097656 125.546875 C 32.652344 125.546875 33.140625 125.546875 33.140625 125.851562 C 33.140625 125.90625 33.140625 125.941406 33.066406 126.191406 L 30.765625 135.464844 C 30.511719 136.472656 29.828125 136.6875 29.019531 136.722656 C 28.875 136.722656 28.675781 136.742188 28.675781 137.066406 C 28.675781 137.226562 28.785156 137.28125 28.910156 137.28125 C 29.449219 137.28125 30.0625 137.226562 30.621094 137.226562 C 31.195312 137.226562 31.828125 137.28125 32.382812 137.28125 C 32.492188 137.28125 32.707031 137.28125 32.707031 136.957031 C 32.707031 136.742188 32.582031 136.722656 32.367188 136.722656 C 31.339844 136.6875 31.304688 136.21875 31.304688 135.949219 C 31.304688 135.894531 31.304688 135.789062 31.375 135.5 L 33.769531 125.941406 L 33.789062 125.941406 L 34.886719 136.847656 C 34.921875 137.15625 34.921875 137.28125 35.191406 137.28125 C 35.425781 137.28125 35.515625 137.15625 35.625 136.957031 L 42.339844 125.777344 L 42.355469 125.777344 L 39.816406 135.96875 C 39.675781 136.578125 39.566406 136.722656 38.34375 136.722656 C 38.054688 136.722656 37.855469 136.722656 37.855469 137.066406 C 37.855469 137.28125 38.054688 137.28125 38.109375 137.28125 C 38.773438 137.28125 39.476562 137.226562 40.160156 137.226562 C 40.84375 137.226562 41.582031 137.28125 42.25 137.28125 C 42.375 137.28125 42.589844 137.28125 42.589844 136.957031 Z M 27.488281 117.03125 "/>
<path fill-rule="nonzero" fill="rgb(0%, 0%, 0%)" fill-opacity="1" d="M 58.464844 137.011719 C 58.609375 136.886719 58.609375 136.652344 58.464844 136.507812 L 54.742188 132.78125 L 58.464844 129.054688 C 58.609375 128.910156 58.609375 128.675781 58.464844 128.550781 C 58.339844 128.40625 58.105469 128.40625 57.960938 128.550781 L 54.238281 132.277344 L 50.511719 128.550781 C 50.367188 128.40625 50.132812 128.40625 50.007812 128.550781 C 49.863281 128.675781 49.863281 128.910156 50.007812 129.054688 L 53.730469 132.78125 L 50.007812 136.507812 C 49.863281 136.652344 49.863281 136.886719 50.007812 137.011719 C 50.132812 137.15625 50.367188 137.15625 50.511719 137.011719 L 54.238281 133.285156 L 57.960938 137.011719 C 58.105469 137.15625 58.339844 137.15625 58.464844 137.011719 Z M 47.234375 122.773438 "/>
<path fill-rule="nonzero" fill="rgb(0%, 0%, 0%)" fill-opacity="1" d="M 79.9375 136.957031 C 79.9375 136.722656 79.8125 136.722656 79.453125 136.722656 C 78.40625 136.722656 78.40625 136.578125 78.40625 136.417969 C 78.40625 136.417969 78.40625 136.273438 78.480469 136.003906 L 80.910156 126.265625 C 81.054688 125.6875 81.199219 125.546875 82.332031 125.546875 C 82.710938 125.546875 82.871094 125.546875 82.871094 125.222656 C 82.871094 124.988281 82.726562 124.988281 82.421875 124.988281 L 80.117188 124.988281 C 79.722656 124.988281 79.667969 124.988281 79.46875 125.3125 L 73.351562 135.480469 L 72.34375 125.382812 C 72.304688 124.988281 72.269531 124.988281 71.839844 124.988281 L 69.445312 124.988281 C 69.15625 124.988281 68.957031 124.988281 68.957031 125.328125 C 68.957031 125.546875 69.101562 125.546875 69.445312 125.546875 C 70 125.546875 70.488281 125.546875 70.488281 125.851562 C 70.488281 125.90625 70.488281 125.941406 70.414062 126.191406 L 68.113281 135.464844 C 67.859375 136.472656 67.175781 136.6875 66.367188 136.722656 C 66.222656 136.722656 66.023438 136.742188 66.023438 137.066406 C 66.023438 137.226562 66.132812 137.28125 66.257812 137.28125 C 66.796875 137.28125 67.410156 137.226562 67.96875 137.226562 C 68.542969 137.226562 69.175781 137.28125 69.730469 137.28125 C 69.839844 137.28125 70.054688 137.28125 70.054688 136.957031 C 70.054688 136.742188 69.929688 136.722656 69.714844 136.722656 C 68.6875 136.6875 68.652344 136.21875 68.652344 135.949219 C 68.652344 135.894531 68.652344 135.789062 68.722656 135.5 L 71.117188 125.941406 L 71.136719 125.941406 L 72.234375 136.847656 C 72.269531 137.15625 72.269531 137.28125 72.539062 137.28125 C 72.773438 137.28125 72.863281 137.15625 72.972656 136.957031 L 79.6875 125.777344 L 79.703125 125.777344 L 77.164062 135.96875 C 77.023438 136.578125 76.914062 136.722656 75.691406 136.722656 C 75.402344 136.722656 75.203125 136.722656 75.203125 137.066406 C 75.203125 137.28125 75.402344 137.28125 75.457031 137.28125 C 76.121094 137.28125 76.824219 137.226562 77.507812 137.226562 C 78.191406 137.226562 78.929688 137.28125 79.597656 137.28125 C 79.722656 137.28125 79.9375 137.28125 79.9375 136.957031 Z M 64.835938 117.03125 "/>
<path fill-rule="nonzero" fill="rgb(0%, 0%, 0%)" fill-opacity="1" d="M 223.261719 136.957031 C 223.261719 136.722656 223.136719 136.722656 222.777344 136.722656 C 221.730469 136.722656 221.730469 136.578125 221.730469 136.417969 C 221.730469 136.417969 221.730469 136.273438 221.804688 136.003906 L 224.234375 126.265625 C 224.378906 125.6875 224.523438 125.546875 225.65625 125.546875 C 226.035156 125.546875 226.195312 125.546875 226.195312 125.222656 C 226.195312 124.988281 226.050781 124.988281 225.746094 124.988281 L 223.441406 124.988281 C 223.046875 124.988281 222.992188 124.988281 222.792969 125.3125 L 216.675781 135.480469 L 215.667969 125.382812 C 215.628906 124.988281 215.59375 124.988281 215.164062 124.988281 L 212.769531 124.988281 C 212.480469 124.988281 212.28125 124.988281 212.28125 125.328125 C 212.28125 125.546875 212.425781 125.546875 212.769531 125.546875 C 213.324219 125.546875 213.8125 125.546875 213.8125 125.851562 C 213.8125 125.90625 213.8125 125.941406 213.738281 126.191406 L 211.4375 135.464844 C 211.183594 136.472656 210.5 136.6875 209.691406 136.722656 C 209.546875 136.722656 209.347656 136.742188 209.347656 137.066406 C 209.347656 137.226562 209.457031 137.28125 209.582031 137.28125 C 210.121094 137.28125 210.734375 137.226562 211.292969 137.226562 C 211.867188 137.226562 212.5 137.28125 213.054688 137.28125 C 213.164062 137.28125 213.378906 137.28125 213.378906 136.957031 C 213.378906 136.742188 213.253906 136.722656 213.039062 136.722656 C 212.011719 136.6875 211.976562 136.21875 211.976562 135.949219 C 211.976562 135.894531 211.976562 135.789062 212.046875 135.5 L 214.441406 125.941406 L 214.460938 125.941406 L 215.558594 136.847656 C 215.59375 137.15625 215.59375 137.28125 215.863281 137.28125 C 216.097656 137.28125 216.1875 137.15625 216.296875 136.957031 L 223.011719 125.777344 L 223.027344 125.777344 L 220.488281 135.96875 C 220.347656 136.578125 220.238281 136.722656 219.015625 136.722656 C 218.726562 136.722656 218.527344 136.722656 218.527344 137.066406 C 218.527344 137.28125 218.726562 137.28125 218.78125 137.28125 C 219.445312 137.28125 220.148438 137.226562 220.832031 137.226562 C 221.515625 137.226562 222.253906 137.28125 222.921875 137.28125 C 223.046875 137.28125 223.261719 137.28125 223.261719 136.957031 Z M 208.160156 117.03125 "/>
<path fill="none" stroke-width="1.012" stroke-linecap="round" stroke-linejoin="miter" stroke="rgb(0%, 0%, 0%)" stroke-opacity="1" stroke-miterlimit="4" d="M 110.546875 -23.136719 C 134.257812 -23.136719 157.964844 -23.136719 181.675781 -23.136719 " transform="matrix(1, 0, 0, -1, 0, 0)"/>
<path fill="none" stroke-width="1.012" stroke-linecap="round" stroke-linejoin="miter" stroke="rgb(0%, 0%, 0%)" stroke-opacity="1" stroke-miterlimit="4" d="M 176.273438 -28.535156 C 176.273438 -23.136719 181.675781 -23.136719 181.675781 -23.136719 " transform="matrix(1, 0, 0, -1, 0, 0)"/>
<path fill="none" stroke-width="1.012" stroke-linecap="round" stroke-linejoin="miter" stroke="rgb(0%, 0%, 0%)" stroke-opacity="1" stroke-miterlimit="4" d="M 176.273438 -17.738281 C 176.273438 -23.136719 181.675781 -23.136719 181.675781 -23.136719 " transform="matrix(1, 0, 0, -1, 0, 0)"/>
<path fill-rule="nonzero" fill="rgb(100%, 100%, 100%)" fill-opacity="1" d="M 128.585938 21.230469 L 165.527344 21.230469 L 165.527344 10 L 128.585938 10 Z M 128.585938 21.230469 "/>
<path fill-rule="nonzero" fill="rgb(0%, 0%, 0%)" fill-opacity="1" d="M 131.785156 16.921875 C 131.785156 16.800781 131.6875 16.800781 131.605469 16.800781 C 131.449219 16.800781 131.449219 16.824219 131.402344 17.003906 C 131.304688 17.351562 130.980469 18.503906 130.285156 18.503906 C 130.1875 18.503906 130.019531 18.492188 130.019531 18.167969 C 130.019531 17.855469 130.175781 17.460938 130.332031 17.015625 L 131.101562 14.964844 C 131.21875 14.617188 131.246094 14.519531 131.246094 14.292969 C 131.246094 13.632812 130.789062 13.332031 130.34375 13.332031 C 129.214844 13.332031 128.808594 15.121094 128.808594 15.179688 C 128.808594 15.300781 128.929688 15.300781 128.988281 15.300781 C 129.144531 15.300781 129.15625 15.277344 129.203125 15.109375 C 129.3125 14.710938 129.625 13.597656 130.320312 13.597656 C 130.453125 13.597656 130.585938 13.65625 130.585938 13.933594 C 130.585938 14.222656 130.453125 14.570312 130.367188 14.796875 L 130.007812 15.792969 L 129.566406 16.980469 C 129.398438 17.4375 129.347656 17.570312 129.347656 17.808594 C 129.347656 18.277344 129.636719 18.769531 130.261719 18.769531 C 131.386719 18.769531 131.785156 16.96875 131.785156 16.921875 Z M 132.109375 11.304688 C 132.109375 11.050781 131.929688 10.789062 131.570312 10.789062 C 131.183594 10.789062 130.800781 11.160156 130.800781 11.542969 C 130.800781 11.808594 130.992188 12.0625 131.339844 12.0625 C 131.722656 12.0625 132.109375 11.6875 132.109375 11.304688 Z M 127.8125 5.136719 "/>
<path fill-rule="nonzero" fill="rgb(0%, 0%, 0%)" fill-opacity="1" d="M 137.917969 16.921875 C 137.917969 16.800781 137.820312 16.800781 137.734375 16.800781 C 137.59375 16.800781 137.582031 16.8125 137.507812 17.078125 C 137.339844 17.75 137.113281 18.503906 136.703125 18.503906 C 136.390625 18.503906 136.390625 18.179688 136.390625 18.011719 C 136.390625 17.929688 136.390625 17.75 136.464844 17.460938 L 138.179688 10.609375 C 138.191406 10.574219 138.214844 10.453125 138.214844 10.453125 C 138.214844 10.34375 138.144531 10.308594 138.046875 10.308594 C 138.011719 10.308594 137.890625 10.320312 137.855469 10.332031 L 136.667969 10.429688 C 136.523438 10.441406 136.390625 10.453125 136.390625 10.679688 C 136.390625 10.8125 136.511719 10.8125 136.679688 10.8125 C 137.257812 10.8125 137.28125 10.898438 137.28125 11.015625 C 137.28125 11.050781 137.242188 11.222656 137.242188 11.222656 L 136.546875 14.027344 C 136.367188 13.65625 136.042969 13.332031 135.539062 13.332031 C 134.207031 13.332031 132.792969 15.15625 132.792969 16.910156 C 132.792969 17.929688 133.34375 18.769531 134.242188 18.769531 C 134.675781 18.769531 135.203125 18.515625 135.683594 17.929688 C 135.816406 18.515625 136.261719 18.769531 136.679688 18.769531 C 137.125 18.769531 137.375 18.46875 137.554688 18.097656 C 137.773438 17.640625 137.917969 16.921875 137.917969 16.921875 Z M 135.757812 17.171875 C 135.660156 17.542969 134.929688 18.503906 134.269531 18.503906 C 133.703125 18.503906 133.609375 17.796875 133.609375 17.4375 C 133.609375 16.835938 133.980469 15.433594 134.195312 14.929688 C 134.496094 14.195312 135.046875 13.597656 135.539062 13.597656 C 135.636719 13.597656 135.910156 13.609375 136.128906 13.945312 C 136.25 14.136719 136.367188 14.484375 136.367188 14.710938 C 136.367188 14.75 136.355469 14.796875 136.332031 14.867188 Z M 131.496094 5.136719 "/>
<path fill-rule="nonzero" fill="rgb(0%, 0%, 0%)" fill-opacity="1" d="M 143.984375 20.910156 C 143.984375 20.816406 143.9375 20.816406 143.792969 20.816406 C 143.375 20.816406 143.375 20.757812 143.375 20.695312 C 143.375 20.695312 143.375 20.636719 143.402344 20.527344 L 144.375 16.632812 C 144.433594 16.402344 144.492188 16.34375 144.945312 16.34375 C 145.09375 16.34375 145.160156 16.34375 145.160156 16.214844 C 145.160156 16.121094 145.101562 16.121094 144.980469 16.121094 L 144.058594 16.121094 C 143.898438 16.121094 143.878906 16.121094 143.800781 16.25 L 141.351562 20.320312 L 140.949219 16.28125 C 140.933594 16.121094 140.917969 16.121094 140.746094 16.121094 L 139.789062 16.121094 C 139.671875 16.121094 139.59375 16.121094 139.59375 16.257812 C 139.59375 16.34375 139.652344 16.34375 139.789062 16.34375 C 140.011719 16.34375 140.207031 16.34375 140.207031 16.46875 C 140.207031 16.488281 140.207031 16.503906 140.175781 16.605469 L 139.253906 20.3125 C 139.15625 20.714844 138.882812 20.800781 138.558594 20.816406 C 138.5 20.816406 138.421875 20.824219 138.421875 20.953125 C 138.421875 21.015625 138.464844 21.039062 138.515625 21.039062 C 138.730469 21.039062 138.976562 21.015625 139.199219 21.015625 C 139.429688 21.015625 139.679688 21.039062 139.902344 21.039062 C 139.945312 21.039062 140.035156 21.039062 140.035156 20.910156 C 140.035156 20.824219 139.984375 20.816406 139.898438 20.816406 C 139.484375 20.800781 139.472656 20.613281 139.472656 20.507812 C 139.472656 20.484375 139.472656 20.441406 139.5 20.328125 L 140.457031 16.503906 L 140.464844 16.503906 L 140.90625 20.867188 C 140.917969 20.988281 140.917969 21.039062 141.027344 21.039062 C 141.121094 21.039062 141.15625 20.988281 141.199219 20.910156 L 143.886719 16.4375 L 143.894531 16.4375 L 142.878906 20.511719 C 142.820312 20.757812 142.777344 20.816406 142.285156 20.816406 C 142.171875 20.816406 142.09375 20.816406 142.09375 20.953125 C 142.09375 21.039062 142.171875 21.039062 142.195312 21.039062 C 142.460938 21.039062 142.742188 21.015625 143.015625 21.015625 C 143.289062 21.015625 143.582031 21.039062 143.847656 21.039062 C 143.898438 21.039062 143.984375 21.039062 143.984375 20.910156 Z M 137.945312 12.9375 "/>
<path fill-rule="nonzero" fill="rgb(0%, 0%, 0%)" fill-opacity="1" d="M 154.292969 18.457031 C 154.390625 18.371094 154.390625 18.214844 154.292969 18.121094 L 151.808594 15.636719 L 154.292969 13.152344 C 154.390625 13.058594 154.390625 12.902344 154.292969 12.816406 C 154.207031 12.722656 154.050781 12.722656 153.957031 12.816406 L 151.472656 15.300781 L 148.988281 12.816406 C 148.894531 12.722656 148.738281 12.722656 148.652344 12.816406 C 148.558594 12.902344 148.558594 13.058594 148.652344 13.152344 L 151.136719 15.636719 L 148.652344 18.121094 C 148.558594 18.214844 148.558594 18.371094 148.652344 18.457031 C 148.738281 18.550781 148.894531 18.550781 148.988281 18.457031 L 151.472656 15.972656 L 153.957031 18.457031 C 154.050781 18.550781 154.207031 18.550781 154.292969 18.457031 Z M 146.804688 8.964844 "/>
<path fill-rule="nonzero" fill="rgb(0%, 0%, 0%)" fill-opacity="1" d="M 164.84375 16.921875 C 164.820312 16.800781 164.710938 16.800781 164.675781 16.800781 C 164.554688 16.800781 164.554688 16.847656 164.554688 17.015625 C 164.554688 17.796875 164.507812 18.503906 164.015625 18.503906 C 163.691406 18.503906 163.582031 18.191406 163.523438 17.953125 C 163.449219 17.6875 163.464844 17.125 163.449219 16.703125 L 163.464844 15.410156 C 163.449219 15.230469 163.464844 14.773438 163.464844 14.59375 C 163.449219 14.316406 163.464844 13.859375 163.4375 13.789062 C 163.390625 13.574219 163.1875 13.464844 163.007812 13.464844 C 162.945312 13.464844 162.648438 13.476562 162.648438 13.882812 L 162.648438 16.128906 L 162.636719 17.351562 C 162.648438 17.414062 162.335938 18.503906 161.363281 18.503906 C 160.761719 18.503906 160.378906 18.109375 160.222656 17.460938 C 160.128906 17.113281 160.128906 16.777344 160.128906 16.441406 L 160.128906 14.425781 C 160.128906 14.171875 160.140625 13.714844 160.113281 13.65625 C 160.066406 13.453125 159.898438 13.332031 159.695312 13.332031 C 159.660156 13.332031 159.324219 13.34375 159.324219 13.765625 L 159.324219 20.710938 C 159.324219 20.855469 159.335938 20.90625 159.335938 20.90625 C 159.382812 21.085938 159.550781 21.230469 159.753906 21.230469 C 160.007812 21.230469 160.089844 21.011719 160.113281 20.976562 C 160.128906 20.867188 160.128906 20.246094 160.128906 18.398438 C 160.59375 18.722656 161.148438 18.769531 161.386719 18.769531 C 162.226562 18.769531 162.5625 18.230469 162.765625 17.894531 C 163.007812 18.433594 163.535156 18.769531 164.0625 18.769531 C 164.484375 18.769531 164.6875 18.492188 164.78125 18.109375 C 164.878906 17.675781 164.84375 16.921875 164.84375 16.921875 Z M 158.542969 8.964844 "/>
<path fill="none" stroke-width="1.012" stroke-linecap="round" stroke-linejoin="miter" stroke="rgb(0%, 0%, 0%)" stroke-opacity="1" stroke-miterlimit="4" d="M 57.285156 -38.285156 C 57.285156 -63.980469 57.285156 -89.675781 57.285156 -115.371094 " transform="matrix(1, 0, 0, -1, 0, 0)"/>
<path fill="none" stroke-width="1.012" stroke-linecap="round" stroke-linejoin="miter" stroke="rgb(0%, 0%, 0%)" stroke-opacity="1" stroke-miterlimit="4" d="M 51.886719 -109.972656 C 57.285156 -109.972656 57.285156 -115.371094 57.285156 -115.371094 " transform="matrix(1, 0, 0, -1, 0, 0)"/>
<path fill="none" stroke-width="1.012" stroke-linecap="round" stroke-linejoin="miter" stroke="rgb(0%, 0%, 0%)" stroke-opacity="1" stroke-miterlimit="4" d="M 62.6875 -109.972656 C 57.285156 -109.972656 57.285156 -115.371094 57.285156 -115.371094 " transform="matrix(1, 0, 0, -1, 0, 0)"/>
<path fill-rule="nonzero" fill="rgb(100%, 100%, 100%)" fill-opacity="1" d="M 12.644531 79.421875 L 55.816406 79.421875 L 55.816406 68.191406 L 12.644531 68.191406 Z M 12.644531 79.421875 "/>
<path fill-rule="nonzero" fill="rgb(0%, 0%, 0%)" fill-opacity="1" d="M 18.585938 75.113281 C 18.5625 74.992188 18.453125 74.992188 18.417969 74.992188 C 18.296875 74.992188 18.296875 75.039062 18.296875 75.207031 C 18.296875 75.988281 18.25 76.695312 17.757812 76.695312 C 17.433594 76.695312 17.324219 76.382812 17.265625 76.144531 C 17.191406 75.878906 17.207031 75.316406 17.191406 74.894531 L 17.207031 73.601562 C 17.191406 73.421875 17.207031 72.964844 17.207031 72.785156 C 17.191406 72.507812 17.207031 72.050781 17.179688 71.980469 C 17.132812 71.765625 16.929688 71.65625 16.75 71.65625 C 16.6875 71.65625 16.390625 71.667969 16.390625 72.074219 L 16.390625 74.320312 L 16.378906 75.542969 C 16.390625 75.605469 16.078125 76.695312 15.105469 76.695312 C 14.503906 76.695312 14.121094 76.300781 13.964844 75.652344 C 13.871094 75.304688 13.871094 74.96875 13.871094 74.632812 L 13.871094 72.617188 C 13.871094 72.363281 13.882812 71.90625 13.855469 71.847656 C 13.808594 71.644531 13.640625 71.523438 13.4375 71.523438 C 13.402344 71.523438 13.066406 71.535156 13.066406 71.957031 L 13.066406 78.902344 C 13.066406 79.046875 13.078125 79.097656 13.078125 79.097656 C 13.125 79.277344 13.292969 79.421875 13.496094 79.421875 C 13.75 79.421875 13.832031 79.203125 13.855469 79.167969 C 13.871094 79.058594 13.871094 78.4375 13.871094 76.589844 C 14.335938 76.914062 14.890625 76.960938 15.128906 76.960938 C 15.96875 76.960938 16.304688 76.421875 16.507812 76.085938 C 16.75 76.625 17.277344 76.960938 17.804688 76.960938 C 18.226562 76.960938 18.429688 76.683594 18.523438 76.300781 C 18.621094 75.867188 18.585938 75.113281 18.585938 75.113281 Z M 12.285156 67.15625 "/>
<path fill-rule="nonzero" fill="rgb(0%, 0%, 0%)" fill-opacity="1" d="M 29.410156 76.648438 C 29.507812 76.5625 29.507812 76.40625 29.410156 76.3125 L 26.925781 73.828125 L 29.410156 71.34375 C 29.507812 71.25 29.507812 71.09375 29.410156 71.007812 C 29.324219 70.914062 29.167969 70.914062 29.074219 71.007812 L 26.589844 73.492188 L 24.105469 71.007812 C 24.011719 70.914062 23.855469 70.914062 23.769531 71.007812 C 23.675781 71.09375 23.675781 71.25 23.769531 71.34375 L 26.253906 73.828125 L 23.769531 76.3125 C 23.675781 76.40625 23.675781 76.5625 23.769531 76.648438 C 23.855469 76.742188 24.011719 76.742188 24.105469 76.648438 L 26.589844 74.164062 L 29.074219 76.648438 C 29.167969 76.742188 29.324219 76.742188 29.410156 76.648438 Z M 21.921875 67.15625 "/>
<path fill-rule="nonzero" fill="rgb(0%, 0%, 0%)" fill-opacity="1" d="M 37.628906 75.113281 C 37.628906 74.992188 37.53125 74.992188 37.449219 74.992188 C 37.292969 74.992188 37.292969 75.015625 37.246094 75.195312 C 37.148438 75.542969 36.824219 76.695312 36.128906 76.695312 C 36.03125 76.695312 35.863281 76.683594 35.863281 76.359375 C 35.863281 76.046875 36.019531 75.652344 36.175781 75.207031 L 36.945312 73.15625 C 37.0625 72.808594 37.089844 72.710938 37.089844 72.484375 C 37.089844 71.824219 36.632812 71.523438 36.1875 71.523438 C 35.058594 71.523438 34.652344 73.3125 34.652344 73.371094 C 34.652344 73.492188 34.773438 73.492188 34.832031 73.492188 C 34.988281 73.492188 35 73.46875 35.046875 73.300781 C 35.15625 72.902344 35.46875 71.789062 36.164062 71.789062 C 36.296875 71.789062 36.429688 71.847656 36.429688 72.125 C 36.429688 72.414062 36.296875 72.761719 36.210938 72.988281 L 35.851562 73.984375 L 35.410156 75.171875 C 35.242188 75.628906 35.191406 75.761719 35.191406 76 C 35.191406 76.46875 35.480469 76.960938 36.105469 76.960938 C 37.230469 76.960938 37.628906 75.160156 37.628906 75.113281 Z M 37.953125 69.496094 C 37.953125 69.242188 37.773438 68.980469 37.414062 68.980469 C 37.027344 68.980469 36.644531 69.351562 36.644531 69.734375 C 36.644531 70 36.835938 70.253906 37.183594 70.253906 C 37.566406 70.253906 37.953125 69.878906 37.953125 69.496094 Z M 33.65625 63.328125 "/>
<path fill-rule="nonzero" fill="rgb(0%, 0%, 0%)" fill-opacity="1" d="M 43.765625 75.113281 C 43.765625 74.992188 43.667969 74.992188 43.582031 74.992188 C 43.441406 74.992188 43.429688 75.003906 43.355469 75.269531 C 43.1875 75.941406 42.960938 76.695312 42.550781 76.695312 C 42.238281 76.695312 42.238281 76.371094 42.238281 76.203125 C 42.238281 76.121094 42.238281 75.941406 42.3125 75.652344 L 44.027344 68.800781 C 44.039062 68.765625 44.0625 68.644531 44.0625 68.644531 C 44.0625 68.535156 43.992188 68.5 43.894531 68.5 C 43.859375 68.5 43.738281 68.511719 43.703125 68.523438 L 42.515625 68.621094 C 42.371094 68.632812 42.238281 68.644531 42.238281 68.871094 C 42.238281 69.003906 42.359375 69.003906 42.527344 69.003906 C 43.105469 69.003906 43.128906 69.089844 43.128906 69.207031 C 43.128906 69.242188 43.089844 69.414062 43.089844 69.414062 L 42.394531 72.21875 C 42.214844 71.847656 41.890625 71.523438 41.386719 71.523438 C 40.054688 71.523438 38.640625 73.347656 38.640625 75.101562 C 38.640625 76.121094 39.191406 76.960938 40.089844 76.960938 C 40.523438 76.960938 41.050781 76.707031 41.53125 76.121094 C 41.664062 76.707031 42.109375 76.960938 42.527344 76.960938 C 42.972656 76.960938 43.222656 76.660156 43.402344 76.289062 C 43.621094 75.832031 43.765625 75.113281 43.765625 75.113281 Z M 41.605469 75.363281 C 41.507812 75.734375 40.777344 76.695312 40.117188 76.695312 C 39.550781 76.695312 39.457031 75.988281 39.457031 75.628906 C 39.457031 75.027344 39.828125 73.625 40.042969 73.121094 C 40.34375 72.386719 40.894531 71.789062 41.386719 71.789062 C 41.484375 71.789062 41.757812 71.800781 41.976562 72.136719 C 42.097656 72.328125 42.214844 72.675781 42.214844 72.902344 C 42.214844 72.941406 42.203125 72.988281 42.179688 73.058594 Z M 37.34375 63.328125 "/>
<path fill-rule="nonzero" fill="rgb(0%, 0%, 0%)" fill-opacity="1" d="M 49.828125 79.101562 C 49.828125 79.007812 49.78125 79.007812 49.636719 79.007812 C 49.21875 79.007812 49.21875 78.949219 49.21875 78.886719 C 49.21875 78.886719 49.21875 78.828125 49.246094 78.71875 L 50.21875 74.824219 C 50.277344 74.59375 50.335938 74.535156 50.789062 74.535156 C 50.9375 74.535156 51.003906 74.535156 51.003906 74.40625 C 51.003906 74.3125 50.945312 74.3125 50.824219 74.3125 L 49.902344 74.3125 C 49.742188 74.3125 49.722656 74.3125 49.644531 74.441406 L 47.195312 78.511719 L 46.792969 74.472656 C 46.777344 74.3125 46.761719 74.3125 46.589844 74.3125 L 45.632812 74.3125 C 45.515625 74.3125 45.4375 74.3125 45.4375 74.449219 C 45.4375 74.535156 45.496094 74.535156 45.632812 74.535156 C 45.855469 74.535156 46.050781 74.535156 46.050781 74.660156 C 46.050781 74.679688 46.050781 74.695312 46.019531 74.796875 L 45.097656 78.503906 C 45 78.90625 44.726562 78.992188 44.402344 79.007812 C 44.34375 79.007812 44.265625 79.015625 44.265625 79.144531 C 44.265625 79.207031 44.308594 79.230469 44.359375 79.230469 C 44.574219 79.230469 44.820312 79.207031 45.042969 79.207031 C 45.273438 79.207031 45.523438 79.230469 45.746094 79.230469 C 45.789062 79.230469 45.878906 79.230469 45.878906 79.101562 C 45.878906 79.015625 45.828125 79.007812 45.742188 79.007812 C 45.328125 78.992188 45.316406 78.804688 45.316406 78.699219 C 45.316406 78.675781 45.316406 78.632812 45.34375 78.519531 L 46.300781 74.695312 L 46.308594 74.695312 L 46.75 79.058594 C 46.761719 79.179688 46.761719 79.230469 46.871094 79.230469 C 46.964844 79.230469 47 79.179688 47.042969 79.101562 L 49.730469 74.628906 L 49.738281 74.628906 L 48.722656 78.703125 C 48.664062 78.949219 48.621094 79.007812 48.128906 79.007812 C 48.015625 79.007812 47.9375 79.007812 47.9375 79.144531 C 47.9375 79.230469 48.015625 79.230469 48.039062 79.230469 C 48.304688 79.230469 48.585938 79.207031 48.859375 79.207031 C 49.132812 79.207031 49.425781 79.230469 49.691406 79.230469 C 49.742188 79.230469 49.828125 79.230469 49.828125 79.101562 Z M 43.789062 71.128906 "/>
<path fill="none" stroke-width="1.012" stroke-linecap="round" stroke-linejoin="miter" stroke="rgb(0%, 0%, 0%)" stroke-opacity="1" stroke-miterlimit="4" d="M 219.285156 -38.285156 C 219.285156 -63.980469 219.285156 -89.675781 219.285156 -115.371094 " transform="matrix(1, 0, 0, -1, 0, 0)"/>
<path fill="none" stroke-width="1.012" stroke-linecap="round" stroke-linejoin="miter" stroke="rgb(0%, 0%, 0%)" stroke-opacity="1" stroke-miterlimit="4" d="M 213.886719 -109.972656 C 219.285156 -109.972656 219.285156 -115.371094 219.285156 -115.371094 " transform="matrix(1, 0, 0, -1, 0, 0)"/>
<path fill="none" stroke-width="1.012" stroke-linecap="round" stroke-linejoin="miter" stroke="rgb(0%, 0%, 0%)" stroke-opacity="1" stroke-miterlimit="4" d="M 224.6875 -109.972656 C 219.285156 -109.972656 219.285156 -115.371094 219.285156 -115.371094 " transform="matrix(1, 0, 0, -1, 0, 0)"/>
<path fill-rule="nonzero" fill="rgb(100%, 100%, 100%)" fill-opacity="1" d="M 224.207031 79.421875 L 230.832031 79.421875 L 230.832031 70.589844 L 224.207031 70.589844 Z M 224.207031 79.421875 "/>
<path fill-rule="nonzero" fill="rgb(0%, 0%, 0%)" fill-opacity="1" d="M 230.148438 75.113281 C 230.125 74.992188 230.015625 74.992188 229.980469 74.992188 C 229.859375 74.992188 229.859375 75.039062 229.859375 75.207031 C 229.859375 75.988281 229.8125 76.695312 229.320312 76.695312 C 228.996094 76.695312 228.886719 76.382812 228.828125 76.144531 C 228.753906 75.878906 228.769531 75.316406 228.753906 74.894531 L 228.769531 73.601562 C 228.753906 73.421875 228.769531 72.964844 228.769531 72.785156 C 228.753906 72.507812 228.769531 72.050781 228.742188 71.980469 C 228.695312 71.765625 228.492188 71.65625 228.3125 71.65625 C 228.25 71.65625 227.953125 71.667969 227.953125 72.074219 L 227.953125 74.320312 L 227.941406 75.542969 C 227.953125 75.605469 227.640625 76.695312 226.667969 76.695312 C 226.066406 76.695312 225.683594 76.300781 225.527344 75.652344 C 225.433594 75.304688 225.433594 74.96875 225.433594 74.632812 L 225.433594 72.617188 C 225.433594 72.363281 225.445312 71.90625 225.417969 71.847656 C 225.371094 71.644531 225.203125 71.523438 225 71.523438 C 224.964844 71.523438 224.628906 71.535156 224.628906 71.957031 L 224.628906 78.902344 C 224.628906 79.046875 224.640625 79.097656 224.640625 79.097656 C 224.6875 79.277344 224.855469 79.421875 225.058594 79.421875 C 225.3125 79.421875 225.394531 79.203125 225.417969 79.167969 C 225.433594 79.058594 225.433594 78.4375 225.433594 76.589844 C 225.898438 76.914062 226.453125 76.960938 226.691406 76.960938 C 227.53125 76.960938 227.867188 76.421875 228.070312 76.085938 C 228.3125 76.625 228.839844 76.960938 229.367188 76.960938 C 229.789062 76.960938 229.992188 76.683594 230.085938 76.300781 C 230.183594 75.867188 230.148438 75.113281 230.148438 75.113281 Z M 223.847656 67.15625 "/>
<path fill="none" stroke-width="1.012" stroke-linecap="round" stroke-linejoin="miter" stroke="rgb(0%, 0%, 0%)" stroke-opacity="1" stroke-miterlimit="4" d="M 91.871094 -131.136719 C 128.03125 -131.136719 164.191406 -131.136719 200.351562 -131.136719 " transform="matrix(1, 0, 0, -1, 0, 0)"/>
<path fill="none" stroke-width="1.012" stroke-linecap="round" stroke-linejoin="miter" stroke="rgb(0%, 0%, 0%)" stroke-opacity="1" stroke-miterlimit="4" d="M 194.949219 -136.535156 C 194.949219 -131.136719 200.351562 -131.136719 200.351562 -131.136719 " transform="matrix(1, 0, 0, -1, 0, 0)"/>
<path fill="none" stroke-width="1.012" stroke-linecap="round" stroke-linejoin="miter" stroke="rgb(0%, 0%, 0%)" stroke-opacity="1" stroke-miterlimit="4" d="M 194.949219 -125.738281 C 194.949219 -131.136719 200.351562 -131.136719 200.351562 -131.136719 " transform="matrix(1, 0, 0, -1, 0, 0)"/>
<path fill-rule="nonzero" fill="rgb(100%, 100%, 100%)" fill-opacity="1" d="M 143.21875 129.230469 L 149.84375 129.230469 L 149.84375 120.398438 L 143.21875 120.398438 Z M 143.21875 129.230469 "/>
<path fill-rule="nonzero" fill="rgb(0%, 0%, 0%)" fill-opacity="1" d="M 149.160156 124.921875 C 149.136719 124.800781 149.027344 124.800781 148.992188 124.800781 C 148.871094 124.800781 148.871094 124.847656 148.871094 125.015625 C 148.871094 125.796875 148.824219 126.503906 148.332031 126.503906 C 148.007812 126.503906 147.898438 126.191406 147.839844 125.953125 C 147.765625 125.6875 147.78125 125.125 147.765625 124.703125 L 147.78125 123.410156 C 147.765625 123.230469 147.78125 122.773438 147.78125 122.59375 C 147.765625 122.316406 147.78125 121.859375 147.753906 121.789062 C 147.707031 121.574219 147.503906 121.464844 147.324219 121.464844 C 147.261719 121.464844 146.964844 121.476562 146.964844 121.882812 L 146.964844 124.128906 L 146.953125 125.351562 C 146.964844 125.414062 146.652344 126.503906 145.679688 126.503906 C 145.078125 126.503906 144.695312 126.109375 144.539062 125.460938 C 144.445312 125.113281 144.445312 124.777344 144.445312 124.441406 L 144.445312 122.425781 C 144.445312 122.171875 144.457031 121.714844 144.429688 121.65625 C 144.382812 121.453125 144.214844 121.332031 144.011719 121.332031 C 143.976562 121.332031 143.640625 121.34375 143.640625 121.765625 L 143.640625 128.710938 C 143.640625 128.855469 143.652344 128.90625 143.652344 128.90625 C 143.699219 129.085938 143.867188 129.230469 144.070312 129.230469 C 144.324219 129.230469 144.40625 129.011719 144.429688 128.976562 C 144.445312 128.867188 144.445312 128.246094 144.445312 126.398438 C 144.910156 126.722656 145.464844 126.769531 145.703125 126.769531 C 146.542969 126.769531 146.878906 126.230469 147.082031 125.894531 C 147.324219 126.433594 147.851562 126.769531 148.378906 126.769531 C 148.800781 126.769531 149.003906 126.492188 149.097656 126.109375 C 149.195312 125.675781 149.160156 124.921875 149.160156 124.921875 Z M 142.859375 116.964844 "/>
<path fill-rule="nonzero" fill="rgb(0%, 0%, 0%)" fill-opacity="1" d="M 420.589844 28.957031 C 420.589844 28.722656 420.464844 28.722656 420.105469 28.722656 C 419.058594 28.722656 419.058594 28.578125 419.058594 28.417969 C 419.058594 28.417969 419.058594 28.273438 419.132812 28.003906 L 421.5625 18.265625 C 421.707031 17.6875 421.851562 17.546875 422.984375 17.546875 C 423.363281 17.546875 423.523438 17.546875 423.523438 17.222656 C 423.523438 16.988281 423.378906 16.988281 423.074219 16.988281 L 420.769531 16.988281 C 420.375 16.988281 420.320312 16.988281 420.121094 17.3125 L 414.003906 27.480469 L 412.996094 17.382812 C 412.957031 16.988281 412.921875 16.988281 412.492188 16.988281 L 410.097656 16.988281 C 409.808594 16.988281 409.609375 16.988281 409.609375 17.328125 C 409.609375 17.546875 409.753906 17.546875 410.097656 17.546875 C 410.652344 17.546875 411.140625 17.546875 411.140625 17.851562 C 411.140625 17.90625 411.140625 17.941406 411.066406 18.191406 L 408.765625 27.464844 C 408.511719 28.472656 407.828125 28.6875 407.019531 28.722656 C 406.875 28.722656 406.675781 28.742188 406.675781 29.066406 C 406.675781 29.226562 406.785156 29.28125 406.910156 29.28125 C 407.449219 29.28125 408.0625 29.226562 408.621094 29.226562 C 409.195312 29.226562 409.828125 29.28125 410.382812 29.28125 C 410.492188 29.28125 410.707031 29.28125 410.707031 28.957031 C 410.707031 28.742188 410.582031 28.722656 410.367188 28.722656 C 409.339844 28.6875 409.304688 28.21875 409.304688 27.949219 C 409.304688 27.894531 409.304688 27.789062 409.375 27.5 L 411.769531 17.941406 L 411.789062 17.941406 L 412.886719 28.847656 C 412.921875 29.15625 412.921875 29.28125 413.191406 29.28125 C 413.425781 29.28125 413.515625 29.15625 413.625 28.957031 L 420.339844 17.777344 L 420.355469 17.777344 L 417.816406 27.96875 C 417.675781 28.578125 417.566406 28.722656 416.34375 28.722656 C 416.054688 28.722656 415.855469 28.722656 415.855469 29.066406 C 415.855469 29.28125 416.054688 29.28125 416.109375 29.28125 C 416.773438 29.28125 417.476562 29.226562 418.160156 29.226562 C 418.84375 29.226562 419.582031 29.28125 420.25 29.28125 C 420.375 29.28125 420.589844 29.28125 420.589844 28.957031 Z M 405.488281 9.03125 "/>
<path fill-rule="nonzero" fill="rgb(0%, 0%, 0%)" fill-opacity="1" d="M 436.464844 29.011719 C 436.609375 28.886719 436.609375 28.652344 436.464844 28.507812 L 432.742188 24.78125 L 436.464844 21.054688 C 436.609375 20.910156 436.609375 20.675781 436.464844 20.550781 C 436.339844 20.40625 436.105469 20.40625 435.960938 20.550781 L 432.238281 24.277344 L 428.511719 20.550781 C 428.367188 20.40625 428.132812 20.40625 428.007812 20.550781 C 427.863281 20.675781 427.863281 20.910156 428.007812 21.054688 L 431.730469 24.78125 L 428.007812 28.507812 C 427.863281 28.652344 427.863281 28.886719 428.007812 29.011719 C 428.132812 29.15625 428.367188 29.15625 428.511719 29.011719 L 432.238281 25.285156 L 435.960938 29.011719 C 436.105469 29.15625 436.339844 29.15625 436.464844 29.011719 Z M 425.234375 14.773438 "/>
<path fill-rule="nonzero" fill="rgb(0%, 0%, 0%)" fill-opacity="1" d="M 457.9375 28.957031 C 457.9375 28.722656 457.8125 28.722656 457.453125 28.722656 C 456.40625 28.722656 456.40625 28.578125 456.40625 28.417969 C 456.40625 28.417969 456.40625 28.273438 456.480469 28.003906 L 458.910156 18.265625 C 459.054688 17.6875 459.199219 17.546875 460.332031 17.546875 C 460.710938 17.546875 460.871094 17.546875 460.871094 17.222656 C 460.871094 16.988281 460.726562 16.988281 460.421875 16.988281 L 458.117188 16.988281 C 457.722656 16.988281 457.667969 16.988281 457.46875 17.3125 L 451.351562 27.480469 L 450.34375 17.382812 C 450.304688 16.988281 450.269531 16.988281 449.839844 16.988281 L 447.445312 16.988281 C 447.15625 16.988281 446.957031 16.988281 446.957031 17.328125 C 446.957031 17.546875 447.101562 17.546875 447.445312 17.546875 C 448 17.546875 448.488281 17.546875 448.488281 17.851562 C 448.488281 17.90625 448.488281 17.941406 448.414062 18.191406 L 446.113281 27.464844 C 445.859375 28.472656 445.175781 28.6875 444.367188 28.722656 C 444.222656 28.722656 444.023438 28.742188 444.023438 29.066406 C 444.023438 29.226562 444.132812 29.28125 444.257812 29.28125 C 444.796875 29.28125 445.410156 29.226562 445.96875 29.226562 C 446.542969 29.226562 447.175781 29.28125 447.730469 29.28125 C 447.839844 29.28125 448.054688 29.28125 448.054688 28.957031 C 448.054688 28.742188 447.929688 28.722656 447.714844 28.722656 C 446.6875 28.6875 446.652344 28.21875 446.652344 27.949219 C 446.652344 27.894531 446.652344 27.789062 446.722656 27.5 L 449.117188 17.941406 L 449.136719 17.941406 L 450.234375 28.847656 C 450.269531 29.15625 450.269531 29.28125 450.539062 29.28125 C 450.773438 29.28125 450.863281 29.15625 450.972656 28.957031 L 457.6875 17.777344 L 457.703125 17.777344 L 455.164062 27.96875 C 455.023438 28.578125 454.914062 28.722656 453.691406 28.722656 C 453.402344 28.722656 453.203125 28.722656 453.203125 29.066406 C 453.203125 29.28125 453.402344 29.28125 453.457031 29.28125 C 454.121094 29.28125 454.824219 29.226562 455.507812 29.226562 C 456.191406 29.226562 456.929688 29.28125 457.597656 29.28125 C 457.722656 29.28125 457.9375 29.28125 457.9375 28.957031 Z M 442.835938 9.03125 "/>
<path fill-rule="nonzero" fill="rgb(0%, 0%, 0%)" fill-opacity="1" d="M 331.261719 28.957031 C 331.261719 28.722656 331.136719 28.722656 330.777344 28.722656 C 329.730469 28.722656 329.730469 28.578125 329.730469 28.417969 C 329.730469 28.417969 329.730469 28.273438 329.804688 28.003906 L 332.234375 18.265625 C 332.378906 17.6875 332.523438 17.546875 333.65625 17.546875 C 334.035156 17.546875 334.195312 17.546875 334.195312 17.222656 C 334.195312 16.988281 334.050781 16.988281 333.746094 16.988281 L 331.441406 16.988281 C 331.046875 16.988281 330.992188 16.988281 330.792969 17.3125 L 324.675781 27.480469 L 323.667969 17.382812 C 323.628906 16.988281 323.59375 16.988281 323.164062 16.988281 L 320.769531 16.988281 C 320.480469 16.988281 320.28125 16.988281 320.28125 17.328125 C 320.28125 17.546875 320.425781 17.546875 320.769531 17.546875 C 321.324219 17.546875 321.8125 17.546875 321.8125 17.851562 C 321.8125 17.90625 321.8125 17.941406 321.738281 18.191406 L 319.4375 27.464844 C 319.183594 28.472656 318.5 28.6875 317.691406 28.722656 C 317.546875 28.722656 317.347656 28.742188 317.347656 29.066406 C 317.347656 29.226562 317.457031 29.28125 317.582031 29.28125 C 318.121094 29.28125 318.734375 29.226562 319.292969 29.226562 C 319.867188 29.226562 320.5 29.28125 321.054688 29.28125 C 321.164062 29.28125 321.378906 29.28125 321.378906 28.957031 C 321.378906 28.742188 321.253906 28.722656 321.039062 28.722656 C 320.011719 28.6875 319.976562 28.21875 319.976562 27.949219 C 319.976562 27.894531 319.976562 27.789062 320.046875 27.5 L 322.441406 17.941406 L 322.460938 17.941406 L 323.558594 28.847656 C 323.59375 29.15625 323.59375 29.28125 323.863281 29.28125 C 324.097656 29.28125 324.1875 29.15625 324.296875 28.957031 L 331.011719 17.777344 L 331.027344 17.777344 L 328.488281 27.96875 C 328.347656 28.578125 328.238281 28.722656 327.015625 28.722656 C 326.726562 28.722656 326.527344 28.722656 326.527344 29.066406 C 326.527344 29.28125 326.726562 29.28125 326.78125 29.28125 C 327.445312 29.28125 328.148438 29.226562 328.832031 29.226562 C 329.515625 29.226562 330.253906 29.28125 330.921875 29.28125 C 331.046875 29.28125 331.261719 29.28125 331.261719 28.957031 Z M 316.160156 9.03125 "/>
<path fill-rule="nonzero" fill="rgb(0%, 0%, 0%)" fill-opacity="1" d="M 547.261719 28.957031 C 547.261719 28.722656 547.136719 28.722656 546.777344 28.722656 C 545.730469 28.722656 545.730469 28.578125 545.730469 28.417969 C 545.730469 28.417969 545.730469 28.273438 545.804688 28.003906 L 548.234375 18.265625 C 548.378906 17.6875 548.523438 17.546875 549.65625 17.546875 C 550.035156 17.546875 550.195312 17.546875 550.195312 17.222656 C 550.195312 16.988281 550.050781 16.988281 549.746094 16.988281 L 547.441406 16.988281 C 547.046875 16.988281 546.992188 16.988281 546.792969 17.3125 L 540.675781 27.480469 L 539.667969 17.382812 C 539.628906 16.988281 539.59375 16.988281 539.164062 16.988281 L 536.769531 16.988281 C 536.480469 16.988281 536.28125 16.988281 536.28125 17.328125 C 536.28125 17.546875 536.425781 17.546875 536.769531 17.546875 C 537.324219 17.546875 537.8125 17.546875 537.8125 17.851562 C 537.8125 17.90625 537.8125 17.941406 537.738281 18.191406 L 535.4375 27.464844 C 535.183594 28.472656 534.5 28.6875 533.691406 28.722656 C 533.546875 28.722656 533.347656 28.742188 533.347656 29.066406 C 533.347656 29.226562 533.457031 29.28125 533.582031 29.28125 C 534.121094 29.28125 534.734375 29.226562 535.292969 29.226562 C 535.867188 29.226562 536.5 29.28125 537.054688 29.28125 C 537.164062 29.28125 537.378906 29.28125 537.378906 28.957031 C 537.378906 28.742188 537.253906 28.722656 537.039062 28.722656 C 536.011719 28.6875 535.976562 28.21875 535.976562 27.949219 C 535.976562 27.894531 535.976562 27.789062 536.046875 27.5 L 538.441406 17.941406 L 538.460938 17.941406 L 539.558594 28.847656 C 539.59375 29.15625 539.59375 29.28125 539.863281 29.28125 C 540.097656 29.28125 540.1875 29.15625 540.296875 28.957031 L 547.011719 17.777344 L 547.027344 17.777344 L 544.488281 27.96875 C 544.347656 28.578125 544.238281 28.722656 543.015625 28.722656 C 542.726562 28.722656 542.527344 28.722656 542.527344 29.066406 C 542.527344 29.28125 542.726562 29.28125 542.78125 29.28125 C 543.445312 29.28125 544.148438 29.226562 544.832031 29.226562 C 545.515625 29.226562 546.253906 29.28125 546.921875 29.28125 C 547.046875 29.28125 547.261719 29.28125 547.261719 28.957031 Z M 532.160156 9.03125 "/>
<path fill-rule="nonzero" fill="rgb(0%, 0%, 0%)" fill-opacity="1" d="M 439.261719 136.957031 C 439.261719 136.722656 439.136719 136.722656 438.777344 136.722656 C 437.730469 136.722656 437.730469 136.578125 437.730469 136.417969 C 437.730469 136.417969 437.730469 136.273438 437.804688 136.003906 L 440.234375 126.265625 C 440.378906 125.6875 440.523438 125.546875 441.65625 125.546875 C 442.035156 125.546875 442.195312 125.546875 442.195312 125.222656 C 442.195312 124.988281 442.050781 124.988281 441.746094 124.988281 L 439.441406 124.988281 C 439.046875 124.988281 438.992188 124.988281 438.792969 125.3125 L 432.675781 135.480469 L 431.667969 125.382812 C 431.628906 124.988281 431.59375 124.988281 431.164062 124.988281 L 428.769531 124.988281 C 428.480469 124.988281 428.28125 124.988281 428.28125 125.328125 C 428.28125 125.546875 428.425781 125.546875 428.769531 125.546875 C 429.324219 125.546875 429.8125 125.546875 429.8125 125.851562 C 429.8125 125.90625 429.8125 125.941406 429.738281 126.191406 L 427.4375 135.464844 C 427.183594 136.472656 426.5 136.6875 425.691406 136.722656 C 425.546875 136.722656 425.347656 136.742188 425.347656 137.066406 C 425.347656 137.226562 425.457031 137.28125 425.582031 137.28125 C 426.121094 137.28125 426.734375 137.226562 427.292969 137.226562 C 427.867188 137.226562 428.5 137.28125 429.054688 137.28125 C 429.164062 137.28125 429.378906 137.28125 429.378906 136.957031 C 429.378906 136.742188 429.253906 136.722656 429.039062 136.722656 C 428.011719 136.6875 427.976562 136.21875 427.976562 135.949219 C 427.976562 135.894531 427.976562 135.789062 428.046875 135.5 L 430.441406 125.941406 L 430.460938 125.941406 L 431.558594 136.847656 C 431.59375 137.15625 431.59375 137.28125 431.863281 137.28125 C 432.097656 137.28125 432.1875 137.15625 432.296875 136.957031 L 439.011719 125.777344 L 439.027344 125.777344 L 436.488281 135.96875 C 436.347656 136.578125 436.238281 136.722656 435.015625 136.722656 C 434.726562 136.722656 434.527344 136.722656 434.527344 137.066406 C 434.527344 137.28125 434.726562 137.28125 434.78125 137.28125 C 435.445312 137.28125 436.148438 137.226562 436.832031 137.226562 C 437.515625 137.226562 438.253906 137.28125 438.921875 137.28125 C 439.046875 137.28125 439.261719 137.28125 439.261719 136.957031 Z M 424.160156 117.03125 "/>
<path fill="none" stroke-width="1.012" stroke-linecap="round" stroke-linejoin="miter" stroke="rgb(0%, 0%, 0%)" stroke-opacity="1" stroke-miterlimit="4" d="M 343.199219 -23.136719 C 361.355469 -23.136719 379.515625 -23.136719 397.675781 -23.136719 " transform="matrix(1, 0, 0, -1, 0, 0)"/>
<path fill="none" stroke-width="1.012" stroke-linecap="round" stroke-linejoin="miter" stroke="rgb(0%, 0%, 0%)" stroke-opacity="1" stroke-miterlimit="4" d="M 392.273438 -28.535156 C 392.273438 -23.136719 397.675781 -23.136719 397.675781 -23.136719 " transform="matrix(1, 0, 0, -1, 0, 0)"/>
<path fill="none" stroke-width="1.012" stroke-linecap="round" stroke-linejoin="miter" stroke="rgb(0%, 0%, 0%)" stroke-opacity="1" stroke-miterlimit="4" d="M 392.273438 -17.738281 C 392.273438 -23.136719 397.675781 -23.136719 397.675781 -23.136719 " transform="matrix(1, 0, 0, -1, 0, 0)"/>
<path fill-rule="nonzero" fill="rgb(100%, 100%, 100%)" fill-opacity="1" d="M 349.828125 21.230469 L 391.738281 21.230469 L 391.738281 10 L 349.828125 10 Z M 349.828125 21.230469 "/>
<path fill-rule="nonzero" fill="rgb(0%, 0%, 0%)" fill-opacity="1" d="M 355.058594 15.3125 C 355.058594 15.097656 355.058594 14.941406 354.976562 14.617188 C 354.785156 13.835938 354.183594 13.332031 353.285156 13.332031 C 352.335938 13.332031 351.867188 13.957031 351.675781 14.375 C 351.449219 13.691406 350.859375 13.332031 350.320312 13.332031 C 349.769531 13.332031 349.648438 13.800781 349.601562 14.015625 C 349.480469 14.425781 349.503906 15.144531 349.515625 15.179688 C 349.550781 15.300781 349.695312 15.300781 349.695312 15.300781 C 349.816406 15.300781 349.816406 15.289062 349.828125 15.023438 C 349.816406 14.171875 349.914062 13.597656 350.34375 13.597656 C 350.546875 13.597656 350.742188 13.691406 350.859375 14.148438 C 350.921875 14.402344 350.921875 14.53125 350.921875 15.15625 L 350.910156 17.929688 C 350.921875 18.109375 350.921875 18.382812 350.933594 18.445312 C 350.992188 18.660156 351.183594 18.769531 351.363281 18.769531 C 351.507812 18.769531 351.699219 18.671875 351.722656 18.433594 C 351.722656 18.433594 351.738281 17.84375 351.722656 17.542969 L 351.722656 16.464844 C 351.722656 16.199219 351.738281 15.9375 351.722656 15.660156 C 351.738281 15.589844 351.722656 15.191406 351.722656 15.121094 C 351.738281 15.011719 351.941406 14.339844 352.265625 14.015625 C 352.480469 13.824219 352.792969 13.597656 353.308594 13.597656 C 353.824219 13.597656 354.066406 14.003906 354.171875 14.4375 C 354.183594 14.496094 354.234375 14.710938 354.234375 15.191406 L 354.246094 20.710938 C 354.246094 20.855469 354.257812 20.90625 354.257812 20.90625 C 354.304688 21.085938 354.472656 21.230469 354.675781 21.230469 C 355.046875 21.230469 355.046875 20.878906 355.046875 20.75 Z M 349.480469 8.964844 "/>
<path fill-rule="nonzero" fill="rgb(0%, 0%, 0%)" fill-opacity="1" d="M 365.335938 18.457031 C 365.433594 18.371094 365.433594 18.214844 365.335938 18.121094 L 362.851562 15.636719 L 365.335938 13.152344 C 365.433594 13.058594 365.433594 12.902344 365.335938 12.816406 C 365.25 12.722656 365.09375 12.722656 365 12.816406 L 362.515625 15.300781 L 360.03125 12.816406 C 359.9375 12.722656 359.78125 12.722656 359.695312 12.816406 C 359.601562 12.902344 359.601562 13.058594 359.695312 13.152344 L 362.179688 15.636719 L 359.695312 18.121094 C 359.601562 18.214844 359.601562 18.371094 359.695312 18.457031 C 359.78125 18.550781 359.9375 18.550781 360.03125 18.457031 L 362.515625 15.972656 L 365 18.457031 C 365.09375 18.550781 365.25 18.550781 365.335938 18.457031 Z M 357.847656 8.964844 "/>
<path fill-rule="nonzero" fill="rgb(0%, 0%, 0%)" fill-opacity="1" d="M 373.554688 16.921875 C 373.554688 16.800781 373.457031 16.800781 373.375 16.800781 C 373.21875 16.800781 373.21875 16.824219 373.171875 17.003906 C 373.074219 17.351562 372.75 18.503906 372.054688 18.503906 C 371.957031 18.503906 371.789062 18.492188 371.789062 18.167969 C 371.789062 17.855469 371.945312 17.460938 372.101562 17.015625 L 372.871094 14.964844 C 372.988281 14.617188 373.015625 14.519531 373.015625 14.292969 C 373.015625 13.632812 372.558594 13.332031 372.113281 13.332031 C 370.984375 13.332031 370.578125 15.121094 370.578125 15.179688 C 370.578125 15.300781 370.699219 15.300781 370.757812 15.300781 C 370.914062 15.300781 370.925781 15.277344 370.972656 15.109375 C 371.082031 14.710938 371.394531 13.597656 372.089844 13.597656 C 372.222656 13.597656 372.355469 13.65625 372.355469 13.933594 C 372.355469 14.222656 372.222656 14.570312 372.136719 14.796875 L 371.777344 15.792969 L 371.335938 16.980469 C 371.167969 17.4375 371.117188 17.570312 371.117188 17.808594 C 371.117188 18.277344 371.40625 18.769531 372.03125 18.769531 C 373.15625 18.769531 373.554688 16.96875 373.554688 16.921875 Z M 373.878906 11.304688 C 373.878906 11.050781 373.699219 10.789062 373.339844 10.789062 C 372.953125 10.789062 372.570312 11.160156 372.570312 11.542969 C 372.570312 11.808594 372.761719 12.0625 373.109375 12.0625 C 373.492188 12.0625 373.878906 11.6875 373.878906 11.304688 Z M 369.582031 5.136719 "/>
<path fill-rule="nonzero" fill="rgb(0%, 0%, 0%)" fill-opacity="1" d="M 379.6875 16.921875 C 379.6875 16.800781 379.589844 16.800781 379.503906 16.800781 C 379.363281 16.800781 379.351562 16.8125 379.277344 17.078125 C 379.109375 17.75 378.882812 18.503906 378.472656 18.503906 C 378.160156 18.503906 378.160156 18.179688 378.160156 18.011719 C 378.160156 17.929688 378.160156 17.75 378.234375 17.460938 L 379.949219 10.609375 C 379.960938 10.574219 379.984375 10.453125 379.984375 10.453125 C 379.984375 10.34375 379.914062 10.308594 379.816406 10.308594 C 379.78125 10.308594 379.660156 10.320312 379.625 10.332031 L 378.4375 10.429688 C 378.292969 10.441406 378.160156 10.453125 378.160156 10.679688 C 378.160156 10.8125 378.28125 10.8125 378.449219 10.8125 C 379.027344 10.8125 379.050781 10.898438 379.050781 11.015625 C 379.050781 11.050781 379.011719 11.222656 379.011719 11.222656 L 378.316406 14.027344 C 378.136719 13.65625 377.8125 13.332031 377.308594 13.332031 C 375.976562 13.332031 374.5625 15.15625 374.5625 16.910156 C 374.5625 17.929688 375.113281 18.769531 376.011719 18.769531 C 376.445312 18.769531 376.972656 18.515625 377.453125 17.929688 C 377.585938 18.515625 378.03125 18.769531 378.449219 18.769531 C 378.894531 18.769531 379.144531 18.46875 379.324219 18.097656 C 379.542969 17.640625 379.6875 16.921875 379.6875 16.921875 Z M 377.527344 17.171875 C 377.429688 17.542969 376.699219 18.503906 376.039062 18.503906 C 375.472656 18.503906 375.378906 17.796875 375.378906 17.4375 C 375.378906 16.835938 375.75 15.433594 375.964844 14.929688 C 376.265625 14.195312 376.816406 13.597656 377.308594 13.597656 C 377.40625 13.597656 377.679688 13.609375 377.898438 13.945312 C 378.019531 14.136719 378.136719 14.484375 378.136719 14.710938 C 378.136719 14.75 378.125 14.796875 378.101562 14.867188 Z M 373.265625 5.136719 "/>
<path fill-rule="nonzero" fill="rgb(0%, 0%, 0%)" fill-opacity="1" d="M 385.753906 20.910156 C 385.753906 20.816406 385.707031 20.816406 385.5625 20.816406 C 385.144531 20.816406 385.144531 20.757812 385.144531 20.695312 C 385.144531 20.695312 385.144531 20.636719 385.171875 20.527344 L 386.144531 16.632812 C 386.203125 16.402344 386.261719 16.34375 386.714844 16.34375 C 386.863281 16.34375 386.929688 16.34375 386.929688 16.214844 C 386.929688 16.121094 386.871094 16.121094 386.75 16.121094 L 385.828125 16.121094 C 385.667969 16.121094 385.648438 16.121094 385.570312 16.25 L 383.121094 20.320312 L 382.71875 16.28125 C 382.703125 16.121094 382.6875 16.121094 382.515625 16.121094 L 381.558594 16.121094 C 381.441406 16.121094 381.363281 16.121094 381.363281 16.257812 C 381.363281 16.34375 381.421875 16.34375 381.558594 16.34375 C 381.78125 16.34375 381.976562 16.34375 381.976562 16.46875 C 381.976562 16.488281 381.976562 16.503906 381.945312 16.605469 L 381.023438 20.3125 C 380.925781 20.714844 380.652344 20.800781 380.328125 20.816406 C 380.269531 20.816406 380.191406 20.824219 380.191406 20.953125 C 380.191406 21.015625 380.234375 21.039062 380.285156 21.039062 C 380.5 21.039062 380.746094 21.015625 380.96875 21.015625 C 381.199219 21.015625 381.449219 21.039062 381.671875 21.039062 C 381.714844 21.039062 381.804688 21.039062 381.804688 20.910156 C 381.804688 20.824219 381.753906 20.816406 381.667969 20.816406 C 381.253906 20.800781 381.242188 20.613281 381.242188 20.507812 C 381.242188 20.484375 381.242188 20.441406 381.269531 20.328125 L 382.226562 16.503906 L 382.234375 16.503906 L 382.675781 20.867188 C 382.6875 20.988281 382.6875 21.039062 382.796875 21.039062 C 382.890625 21.039062 382.925781 20.988281 382.96875 20.910156 L 385.65625 16.4375 L 385.664062 16.4375 L 384.648438 20.511719 C 384.589844 20.757812 384.546875 20.816406 384.054688 20.816406 C 383.941406 20.816406 383.863281 20.816406 383.863281 20.953125 C 383.863281 21.039062 383.941406 21.039062 383.964844 21.039062 C 384.230469 21.039062 384.511719 21.015625 384.785156 21.015625 C 385.058594 21.015625 385.351562 21.039062 385.617188 21.039062 C 385.667969 21.039062 385.753906 21.039062 385.753906 20.910156 Z M 379.714844 12.9375 "/>
<path fill="none" stroke-width="1.012" stroke-linecap="round" stroke-linejoin="miter" stroke="rgb(0%, 0%, 0%)" stroke-opacity="1" stroke-miterlimit="4" d="M 524.351562 -23.136719 C 506.191406 -23.136719 488.03125 -23.136719 469.871094 -23.136719 " transform="matrix(1, 0, 0, -1, 0, 0)"/>
<path fill="none" stroke-width="1.012" stroke-linecap="round" stroke-linejoin="miter" stroke="rgb(0%, 0%, 0%)" stroke-opacity="1" stroke-miterlimit="4" d="M 475.273438 -17.738281 C 475.273438 -23.136719 469.871094 -23.136719 469.871094 -23.136719 " transform="matrix(1, 0, 0, -1, 0, 0)"/>
<path fill="none" stroke-width="1.012" stroke-linecap="round" stroke-linejoin="miter" stroke="rgb(0%, 0%, 0%)" stroke-opacity="1" stroke-miterlimit="4" d="M 475.273438 -28.535156 C 475.273438 -23.136719 469.871094 -23.136719 469.871094 -23.136719 " transform="matrix(1, 0, 0, -1, 0, 0)"/>
<path fill-rule="nonzero" fill="rgb(100%, 100%, 100%)" fill-opacity="1" d="M 480.042969 21.230469 L 516.25 21.230469 L 516.25 10 L 480.042969 10 Z M 480.042969 21.230469 "/>
<path fill-rule="nonzero" fill="rgb(0%, 0%, 0%)" fill-opacity="1" d="M 483.242188 16.921875 C 483.242188 16.800781 483.144531 16.800781 483.0625 16.800781 C 482.90625 16.800781 482.90625 16.824219 482.859375 17.003906 C 482.761719 17.351562 482.4375 18.503906 481.742188 18.503906 C 481.644531 18.503906 481.476562 18.492188 481.476562 18.167969 C 481.476562 17.855469 481.632812 17.460938 481.789062 17.015625 L 482.558594 14.964844 C 482.675781 14.617188 482.703125 14.519531 482.703125 14.292969 C 482.703125 13.632812 482.246094 13.332031 481.800781 13.332031 C 480.671875 13.332031 480.265625 15.121094 480.265625 15.179688 C 480.265625 15.300781 480.386719 15.300781 480.445312 15.300781 C 480.601562 15.300781 480.613281 15.277344 480.660156 15.109375 C 480.769531 14.710938 481.082031 13.597656 481.777344 13.597656 C 481.910156 13.597656 482.042969 13.65625 482.042969 13.933594 C 482.042969 14.222656 481.910156 14.570312 481.824219 14.796875 L 481.464844 15.792969 L 481.023438 16.980469 C 480.855469 17.4375 480.804688 17.570312 480.804688 17.808594 C 480.804688 18.277344 481.09375 18.769531 481.71875 18.769531 C 482.84375 18.769531 483.242188 16.96875 483.242188 16.921875 Z M 483.566406 11.304688 C 483.566406 11.050781 483.386719 10.789062 483.027344 10.789062 C 482.640625 10.789062 482.257812 11.160156 482.257812 11.542969 C 482.257812 11.808594 482.449219 12.0625 482.796875 12.0625 C 483.179688 12.0625 483.566406 11.6875 483.566406 11.304688 Z M 479.269531 5.136719 "/>
<path fill-rule="nonzero" fill="rgb(0%, 0%, 0%)" fill-opacity="1" d="M 489.375 16.921875 C 489.375 16.800781 489.277344 16.800781 489.191406 16.800781 C 489.050781 16.800781 489.039062 16.8125 488.964844 17.078125 C 488.796875 17.75 488.570312 18.503906 488.160156 18.503906 C 487.847656 18.503906 487.847656 18.179688 487.847656 18.011719 C 487.847656 17.929688 487.847656 17.75 487.921875 17.460938 L 489.636719 10.609375 C 489.648438 10.574219 489.671875 10.453125 489.671875 10.453125 C 489.671875 10.34375 489.601562 10.308594 489.503906 10.308594 C 489.46875 10.308594 489.347656 10.320312 489.3125 10.332031 L 488.125 10.429688 C 487.980469 10.441406 487.847656 10.453125 487.847656 10.679688 C 487.847656 10.8125 487.96875 10.8125 488.136719 10.8125 C 488.714844 10.8125 488.738281 10.898438 488.738281 11.015625 C 488.738281 11.050781 488.699219 11.222656 488.699219 11.222656 L 488.003906 14.027344 C 487.824219 13.65625 487.5 13.332031 486.996094 13.332031 C 485.664062 13.332031 484.25 15.15625 484.25 16.910156 C 484.25 17.929688 484.800781 18.769531 485.699219 18.769531 C 486.132812 18.769531 486.660156 18.515625 487.140625 17.929688 C 487.273438 18.515625 487.71875 18.769531 488.136719 18.769531 C 488.582031 18.769531 488.832031 18.46875 489.011719 18.097656 C 489.230469 17.640625 489.375 16.921875 489.375 16.921875 Z M 487.214844 17.171875 C 487.117188 17.542969 486.386719 18.503906 485.726562 18.503906 C 485.160156 18.503906 485.066406 17.796875 485.066406 17.4375 C 485.066406 16.835938 485.4375 15.433594 485.652344 14.929688 C 485.953125 14.195312 486.503906 13.597656 486.996094 13.597656 C 487.09375 13.597656 487.367188 13.609375 487.585938 13.945312 C 487.707031 14.136719 487.824219 14.484375 487.824219 14.710938 C 487.824219 14.75 487.8125 14.796875 487.789062 14.867188 Z M 482.953125 5.136719 "/>
<path fill-rule="nonzero" fill="rgb(0%, 0%, 0%)" fill-opacity="1" d="M 495.441406 20.910156 C 495.441406 20.816406 495.394531 20.816406 495.25 20.816406 C 494.832031 20.816406 494.832031 20.757812 494.832031 20.695312 C 494.832031 20.695312 494.832031 20.636719 494.859375 20.527344 L 495.832031 16.632812 C 495.890625 16.402344 495.949219 16.34375 496.402344 16.34375 C 496.550781 16.34375 496.617188 16.34375 496.617188 16.214844 C 496.617188 16.121094 496.558594 16.121094 496.4375 16.121094 L 495.515625 16.121094 C 495.355469 16.121094 495.335938 16.121094 495.257812 16.25 L 492.808594 20.320312 L 492.40625 16.28125 C 492.390625 16.121094 492.375 16.121094 492.203125 16.121094 L 491.246094 16.121094 C 491.128906 16.121094 491.050781 16.121094 491.050781 16.257812 C 491.050781 16.34375 491.109375 16.34375 491.246094 16.34375 C 491.46875 16.34375 491.664062 16.34375 491.664062 16.46875 C 491.664062 16.488281 491.664062 16.503906 491.632812 16.605469 L 490.710938 20.3125 C 490.613281 20.714844 490.339844 20.800781 490.015625 20.816406 C 489.957031 20.816406 489.878906 20.824219 489.878906 20.953125 C 489.878906 21.015625 489.921875 21.039062 489.972656 21.039062 C 490.1875 21.039062 490.433594 21.015625 490.65625 21.015625 C 490.886719 21.015625 491.136719 21.039062 491.359375 21.039062 C 491.402344 21.039062 491.492188 21.039062 491.492188 20.910156 C 491.492188 20.824219 491.441406 20.816406 491.355469 20.816406 C 490.941406 20.800781 490.929688 20.613281 490.929688 20.507812 C 490.929688 20.484375 490.929688 20.441406 490.957031 20.328125 L 491.914062 16.503906 L 491.921875 16.503906 L 492.363281 20.867188 C 492.375 20.988281 492.375 21.039062 492.484375 21.039062 C 492.578125 21.039062 492.613281 20.988281 492.65625 20.910156 L 495.34375 16.4375 L 495.351562 16.4375 L 494.335938 20.511719 C 494.277344 20.757812 494.234375 20.816406 493.742188 20.816406 C 493.628906 20.816406 493.550781 20.816406 493.550781 20.953125 C 493.550781 21.039062 493.628906 21.039062 493.652344 21.039062 C 493.917969 21.039062 494.199219 21.015625 494.472656 21.015625 C 494.746094 21.015625 495.039062 21.039062 495.304688 21.039062 C 495.355469 21.039062 495.441406 21.039062 495.441406 20.910156 Z M 489.402344 12.9375 "/>
<path fill-rule="nonzero" fill="rgb(0%, 0%, 0%)" fill-opacity="1" d="M 505.75 18.457031 C 505.847656 18.371094 505.847656 18.214844 505.75 18.121094 L 503.265625 15.636719 L 505.75 13.152344 C 505.847656 13.058594 505.847656 12.902344 505.75 12.816406 C 505.664062 12.722656 505.507812 12.722656 505.414062 12.816406 L 502.929688 15.300781 L 500.445312 12.816406 C 500.351562 12.722656 500.195312 12.722656 500.109375 12.816406 C 500.015625 12.902344 500.015625 13.058594 500.109375 13.152344 L 502.59375 15.636719 L 500.109375 18.121094 C 500.015625 18.214844 500.015625 18.371094 500.109375 18.457031 C 500.195312 18.550781 500.351562 18.550781 500.445312 18.457031 L 502.929688 15.972656 L 505.414062 18.457031 C 505.507812 18.550781 505.664062 18.550781 505.75 18.457031 Z M 498.261719 8.964844 "/>
<path fill-rule="nonzero" fill="rgb(0%, 0%, 0%)" fill-opacity="1" d="M 515.574219 15.3125 C 515.574219 15.097656 515.574219 14.941406 515.492188 14.617188 C 515.300781 13.835938 514.699219 13.332031 513.800781 13.332031 C 512.851562 13.332031 512.382812 13.957031 512.191406 14.375 C 511.964844 13.691406 511.375 13.332031 510.835938 13.332031 C 510.285156 13.332031 510.164062 13.800781 510.117188 14.015625 C 509.996094 14.425781 510.019531 15.144531 510.03125 15.179688 C 510.066406 15.300781 510.210938 15.300781 510.210938 15.300781 C 510.332031 15.300781 510.332031 15.289062 510.34375 15.023438 C 510.332031 14.171875 510.429688 13.597656 510.859375 13.597656 C 511.0625 13.597656 511.257812 13.691406 511.375 14.148438 C 511.4375 14.402344 511.4375 14.53125 511.4375 15.15625 L 511.425781 17.929688 C 511.4375 18.109375 511.4375 18.382812 511.449219 18.445312 C 511.507812 18.660156 511.699219 18.769531 511.878906 18.769531 C 512.023438 18.769531 512.214844 18.671875 512.238281 18.433594 C 512.238281 18.433594 512.253906 17.84375 512.238281 17.542969 L 512.238281 16.464844 C 512.238281 16.199219 512.253906 15.9375 512.238281 15.660156 C 512.253906 15.589844 512.238281 15.191406 512.238281 15.121094 C 512.253906 15.011719 512.457031 14.339844 512.78125 14.015625 C 512.996094 13.824219 513.308594 13.597656 513.824219 13.597656 C 514.339844 13.597656 514.582031 14.003906 514.6875 14.4375 C 514.699219 14.496094 514.75 14.710938 514.75 15.191406 L 514.761719 20.710938 C 514.761719 20.855469 514.773438 20.90625 514.773438 20.90625 C 514.820312 21.085938 514.988281 21.230469 515.191406 21.230469 C 515.5625 21.230469 515.5625 20.878906 515.5625 20.75 Z M 509.996094 8.964844 "/>
<path fill="none" stroke-width="1.012" stroke-linecap="round" stroke-linejoin="miter" stroke="rgb(0%, 0%, 0%)" stroke-opacity="1" stroke-miterlimit="4" d="M 435.285156 -38.285156 C 435.285156 -63.980469 435.285156 -89.675781 435.285156 -115.371094 " transform="matrix(1, 0, 0, -1, 0, 0)"/>
<path fill="none" stroke-width="1.012" stroke-linecap="round" stroke-linejoin="miter" stroke="rgb(0%, 0%, 0%)" stroke-opacity="1" stroke-miterlimit="4" d="M 429.886719 -109.972656 C 435.285156 -109.972656 435.285156 -115.371094 435.285156 -115.371094 " transform="matrix(1, 0, 0, -1, 0, 0)"/>
<path fill="none" stroke-width="1.012" stroke-linecap="round" stroke-linejoin="miter" stroke="rgb(0%, 0%, 0%)" stroke-opacity="1" stroke-miterlimit="4" d="M 440.6875 -109.972656 C 435.285156 -109.972656 435.285156 -115.371094 435.285156 -115.371094 " transform="matrix(1, 0, 0, -1, 0, 0)"/>
<path fill-rule="nonzero" fill="rgb(100%, 100%, 100%)" fill-opacity="1" d="M 440.207031 79.421875 L 446.832031 79.421875 L 446.832031 70.589844 L 440.207031 70.589844 Z M 440.207031 79.421875 "/>
<path fill-rule="nonzero" fill="rgb(0%, 0%, 0%)" fill-opacity="1" d="M 446.148438 75.113281 C 446.125 74.992188 446.015625 74.992188 445.980469 74.992188 C 445.859375 74.992188 445.859375 75.039062 445.859375 75.207031 C 445.859375 75.988281 445.8125 76.695312 445.320312 76.695312 C 444.996094 76.695312 444.886719 76.382812 444.828125 76.144531 C 444.753906 75.878906 444.769531 75.316406 444.753906 74.894531 L 444.769531 73.601562 C 444.753906 73.421875 444.769531 72.964844 444.769531 72.785156 C 444.753906 72.507812 444.769531 72.050781 444.742188 71.980469 C 444.695312 71.765625 444.492188 71.65625 444.3125 71.65625 C 444.25 71.65625 443.953125 71.667969 443.953125 72.074219 L 443.953125 74.320312 L 443.941406 75.542969 C 443.953125 75.605469 443.640625 76.695312 442.667969 76.695312 C 442.066406 76.695312 441.683594 76.300781 441.527344 75.652344 C 441.433594 75.304688 441.433594 74.96875 441.433594 74.632812 L 441.433594 72.617188 C 441.433594 72.363281 441.445312 71.90625 441.417969 71.847656 C 441.371094 71.644531 441.203125 71.523438 441 71.523438 C 440.964844 71.523438 440.628906 71.535156 440.628906 71.957031 L 440.628906 78.902344 C 440.628906 79.046875 440.640625 79.097656 440.640625 79.097656 C 440.6875 79.277344 440.855469 79.421875 441.058594 79.421875 C 441.3125 79.421875 441.394531 79.203125 441.417969 79.167969 C 441.433594 79.058594 441.433594 78.4375 441.433594 76.589844 C 441.898438 76.914062 442.453125 76.960938 442.691406 76.960938 C 443.53125 76.960938 443.867188 76.421875 444.070312 76.085938 C 444.3125 76.625 444.839844 76.960938 445.367188 76.960938 C 445.789062 76.960938 445.992188 76.683594 446.085938 76.300781 C 446.183594 75.867188 446.148438 75.113281 446.148438 75.113281 Z M 439.847656 67.15625 "/>
<path fill="none" stroke-width="1.012" stroke-linecap="round" stroke-linejoin="miter" stroke="rgb(0%, 0%, 0%)" stroke-opacity="1" stroke-miterlimit="4" d="M 343.199219 -38.285156 C 367.582031 -63.980469 391.964844 -89.675781 416.351562 -115.371094 " transform="matrix(1, 0, 0, -1, 0, 0)"/>
<path fill="none" stroke-width="1.012" stroke-linecap="round" stroke-linejoin="miter" stroke="rgb(0%, 0%, 0%)" stroke-opacity="1" stroke-miterlimit="4" d="M 408.714844 -115.171875 C 412.632812 -111.457031 416.351562 -115.371094 416.351562 -115.371094 " transform="matrix(1, 0, 0, -1, 0, 0)"/>
<path fill="none" stroke-width="1.012" stroke-linecap="round" stroke-linejoin="miter" stroke="rgb(0%, 0%, 0%)" stroke-opacity="1" stroke-miterlimit="4" d="M 416.550781 -107.738281 C 412.632812 -111.457031 416.351562 -115.371094 416.351562 -115.371094 " transform="matrix(1, 0, 0, -1, 0, 0)"/>
<path fill-rule="nonzero" fill="rgb(100%, 100%, 100%)" fill-opacity="1" d="M 353.988281 85.128906 L 375.371094 85.128906 L 375.371094 74.09375 L 353.988281 74.09375 Z M 353.988281 85.128906 "/>
<path fill-rule="nonzero" fill="rgb(0%, 0%, 0%)" fill-opacity="1" d="M 357.1875 81.015625 C 357.1875 80.894531 357.089844 80.894531 357.007812 80.894531 C 356.851562 80.894531 356.851562 80.917969 356.804688 81.097656 C 356.707031 81.445312 356.382812 82.597656 355.6875 82.597656 C 355.589844 82.597656 355.421875 82.585938 355.421875 82.261719 C 355.421875 81.949219 355.578125 81.554688 355.734375 81.109375 L 356.503906 79.058594 C 356.621094 78.710938 356.648438 78.613281 356.648438 78.386719 C 356.648438 77.726562 356.191406 77.425781 355.746094 77.425781 C 354.617188 77.425781 354.210938 79.214844 354.210938 79.273438 C 354.210938 79.394531 354.332031 79.394531 354.390625 79.394531 C 354.546875 79.394531 354.558594 79.371094 354.605469 79.203125 C 354.714844 78.804688 355.027344 77.691406 355.722656 77.691406 C 355.855469 77.691406 355.988281 77.75 355.988281 78.027344 C 355.988281 78.316406 355.855469 78.664062 355.769531 78.890625 L 355.410156 79.886719 L 354.96875 81.074219 C 354.800781 81.53125 354.75 81.664062 354.75 81.902344 C 354.75 82.371094 355.039062 82.863281 355.664062 82.863281 C 356.789062 82.863281 357.1875 81.0625 357.1875 81.015625 Z M 357.511719 75.398438 C 357.511719 75.144531 357.332031 74.882812 356.972656 74.882812 C 356.585938 74.882812 356.203125 75.253906 356.203125 75.636719 C 356.203125 75.902344 356.394531 76.15625 356.742188 76.15625 C 357.125 76.15625 357.511719 75.78125 357.511719 75.398438 Z M 353.214844 69.230469 "/>
<path fill-rule="nonzero" fill="rgb(0%, 0%, 0%)" fill-opacity="1" d="M 363.320312 81.015625 C 363.320312 80.894531 363.222656 80.894531 363.136719 80.894531 C 362.996094 80.894531 362.984375 80.90625 362.910156 81.171875 C 362.742188 81.84375 362.515625 82.597656 362.105469 82.597656 C 361.792969 82.597656 361.792969 82.273438 361.792969 82.105469 C 361.792969 82.023438 361.792969 81.84375 361.867188 81.554688 L 363.582031 74.703125 C 363.59375 74.667969 363.617188 74.546875 363.617188 74.546875 C 363.617188 74.4375 363.546875 74.402344 363.449219 74.402344 C 363.414062 74.402344 363.292969 74.414062 363.257812 74.425781 L 362.070312 74.523438 C 361.925781 74.535156 361.792969 74.546875 361.792969 74.773438 C 361.792969 74.90625 361.914062 74.90625 362.082031 74.90625 C 362.660156 74.90625 362.683594 74.992188 362.683594 75.109375 C 362.683594 75.144531 362.644531 75.316406 362.644531 75.316406 L 361.949219 78.121094 C 361.769531 77.75 361.445312 77.425781 360.941406 77.425781 C 359.609375 77.425781 358.195312 79.25 358.195312 81.003906 C 358.195312 82.023438 358.746094 82.863281 359.644531 82.863281 C 360.078125 82.863281 360.605469 82.609375 361.085938 82.023438 C 361.21875 82.609375 361.664062 82.863281 362.082031 82.863281 C 362.527344 82.863281 362.777344 82.5625 362.957031 82.191406 C 363.175781 81.734375 363.320312 81.015625 363.320312 81.015625 Z M 361.160156 81.265625 C 361.0625 81.636719 360.332031 82.597656 359.671875 82.597656 C 359.105469 82.597656 359.011719 81.890625 359.011719 81.53125 C 359.011719 80.929688 359.382812 79.527344 359.597656 79.023438 C 359.898438 78.289062 360.449219 77.691406 360.941406 77.691406 C 361.039062 77.691406 361.3125 77.703125 361.53125 78.039062 C 361.652344 78.230469 361.769531 78.578125 361.769531 78.804688 C 361.769531 78.84375 361.757812 78.890625 361.734375 78.960938 Z M 356.898438 69.230469 "/>
<path fill-rule="nonzero" fill="rgb(0%, 0%, 0%)" fill-opacity="1" d="M 369.386719 85.003906 C 369.386719 84.910156 369.339844 84.910156 369.195312 84.910156 C 368.777344 84.910156 368.777344 84.851562 368.777344 84.789062 C 368.777344 84.789062 368.777344 84.730469 368.804688 84.621094 L 369.777344 80.726562 C 369.835938 80.496094 369.894531 80.4375 370.347656 80.4375 C 370.496094 80.4375 370.5625 80.4375 370.5625 80.308594 C 370.5625 80.214844 370.503906 80.214844 370.382812 80.214844 L 369.460938 80.214844 C 369.300781 80.214844 369.28125 80.214844 369.203125 80.34375 L 366.753906 84.414062 L 366.351562 80.375 C 366.335938 80.214844 366.320312 80.214844 366.148438 80.214844 L 365.191406 80.214844 C 365.074219 80.214844 364.996094 80.214844 364.996094 80.351562 C 364.996094 80.4375 365.054688 80.4375 365.191406 80.4375 C 365.414062 80.4375 365.609375 80.4375 365.609375 80.5625 C 365.609375 80.582031 365.609375 80.597656 365.578125 80.699219 L 364.65625 84.40625 C 364.558594 84.808594 364.285156 84.894531 363.960938 84.910156 C 363.902344 84.910156 363.824219 84.917969 363.824219 85.046875 C 363.824219 85.109375 363.867188 85.132812 363.917969 85.132812 C 364.132812 85.132812 364.378906 85.109375 364.601562 85.109375 C 364.832031 85.109375 365.082031 85.132812 365.304688 85.132812 C 365.347656 85.132812 365.4375 85.132812 365.4375 85.003906 C 365.4375 84.917969 365.386719 84.910156 365.300781 84.910156 C 364.886719 84.894531 364.875 84.707031 364.875 84.601562 C 364.875 84.578125 364.875 84.535156 364.902344 84.421875 L 365.859375 80.597656 L 365.867188 80.597656 L 366.308594 84.960938 C 366.320312 85.082031 366.320312 85.132812 366.429688 85.132812 C 366.523438 85.132812 366.558594 85.082031 366.601562 85.003906 L 369.289062 80.53125 L 369.296875 80.53125 L 368.28125 84.605469 C 368.222656 84.851562 368.179688 84.910156 367.6875 84.910156 C 367.574219 84.910156 367.496094 84.910156 367.496094 85.046875 C 367.496094 85.132812 367.574219 85.132812 367.597656 85.132812 C 367.863281 85.132812 368.144531 85.109375 368.417969 85.109375 C 368.691406 85.109375 368.984375 85.132812 369.25 85.132812 C 369.300781 85.132812 369.386719 85.132812 369.386719 85.003906 Z M 363.347656 77.03125 "/>
<path fill="none" stroke-width="1.012" stroke-linecap="round" stroke-linejoin="miter" stroke="rgb(0%, 0%, 0%)" stroke-opacity="1" stroke-miterlimit="4" d="M 524.351562 -38.285156 C 499.964844 -63.980469 475.582031 -89.675781 451.199219 -115.371094 " transform="matrix(1, 0, 0, -1, 0, 0)"/>
<path fill="none" stroke-width="1.012" stroke-linecap="round" stroke-linejoin="miter" stroke="rgb(0%, 0%, 0%)" stroke-opacity="1" stroke-miterlimit="4" d="M 450.996094 -107.738281 C 454.914062 -111.457031 451.199219 -115.371094 451.199219 -115.371094 " transform="matrix(1, 0, 0, -1, 0, 0)"/>
<path fill="none" stroke-width="1.012" stroke-linecap="round" stroke-linejoin="miter" stroke="rgb(0%, 0%, 0%)" stroke-opacity="1" stroke-miterlimit="4" d="M 458.832031 -115.171875 C 454.914062 -111.457031 451.199219 -115.371094 451.199219 -115.371094 " transform="matrix(1, 0, 0, -1, 0, 0)"/>
<path fill-rule="nonzero" fill="rgb(100%, 100%, 100%)" fill-opacity="1" d="M 497.988281 85.128906 L 519.371094 85.128906 L 519.371094 74.09375 L 497.988281 74.09375 Z M 497.988281 85.128906 "/>
<path fill-rule="nonzero" fill="rgb(0%, 0%, 0%)" fill-opacity="1" d="M 501.1875 81.015625 C 501.1875 80.894531 501.089844 80.894531 501.007812 80.894531 C 500.851562 80.894531 500.851562 80.917969 500.804688 81.097656 C 500.707031 81.445312 500.382812 82.597656 499.6875 82.597656 C 499.589844 82.597656 499.421875 82.585938 499.421875 82.261719 C 499.421875 81.949219 499.578125 81.554688 499.734375 81.109375 L 500.503906 79.058594 C 500.621094 78.710938 500.648438 78.613281 500.648438 78.386719 C 500.648438 77.726562 500.191406 77.425781 499.746094 77.425781 C 498.617188 77.425781 498.210938 79.214844 498.210938 79.273438 C 498.210938 79.394531 498.332031 79.394531 498.390625 79.394531 C 498.546875 79.394531 498.558594 79.371094 498.605469 79.203125 C 498.714844 78.804688 499.027344 77.691406 499.722656 77.691406 C 499.855469 77.691406 499.988281 77.75 499.988281 78.027344 C 499.988281 78.316406 499.855469 78.664062 499.769531 78.890625 L 499.410156 79.886719 L 498.96875 81.074219 C 498.800781 81.53125 498.75 81.664062 498.75 81.902344 C 498.75 82.371094 499.039062 82.863281 499.664062 82.863281 C 500.789062 82.863281 501.1875 81.0625 501.1875 81.015625 Z M 501.511719 75.398438 C 501.511719 75.144531 501.332031 74.882812 500.972656 74.882812 C 500.585938 74.882812 500.203125 75.253906 500.203125 75.636719 C 500.203125 75.902344 500.394531 76.15625 500.742188 76.15625 C 501.125 76.15625 501.511719 75.78125 501.511719 75.398438 Z M 497.214844 69.230469 "/>
<path fill-rule="nonzero" fill="rgb(0%, 0%, 0%)" fill-opacity="1" d="M 507.320312 81.015625 C 507.320312 80.894531 507.222656 80.894531 507.136719 80.894531 C 506.996094 80.894531 506.984375 80.90625 506.910156 81.171875 C 506.742188 81.84375 506.515625 82.597656 506.105469 82.597656 C 505.792969 82.597656 505.792969 82.273438 505.792969 82.105469 C 505.792969 82.023438 505.792969 81.84375 505.867188 81.554688 L 507.582031 74.703125 C 507.59375 74.667969 507.617188 74.546875 507.617188 74.546875 C 507.617188 74.4375 507.546875 74.402344 507.449219 74.402344 C 507.414062 74.402344 507.292969 74.414062 507.257812 74.425781 L 506.070312 74.523438 C 505.925781 74.535156 505.792969 74.546875 505.792969 74.773438 C 505.792969 74.90625 505.914062 74.90625 506.082031 74.90625 C 506.660156 74.90625 506.683594 74.992188 506.683594 75.109375 C 506.683594 75.144531 506.644531 75.316406 506.644531 75.316406 L 505.949219 78.121094 C 505.769531 77.75 505.445312 77.425781 504.941406 77.425781 C 503.609375 77.425781 502.195312 79.25 502.195312 81.003906 C 502.195312 82.023438 502.746094 82.863281 503.644531 82.863281 C 504.078125 82.863281 504.605469 82.609375 505.085938 82.023438 C 505.21875 82.609375 505.664062 82.863281 506.082031 82.863281 C 506.527344 82.863281 506.777344 82.5625 506.957031 82.191406 C 507.175781 81.734375 507.320312 81.015625 507.320312 81.015625 Z M 505.160156 81.265625 C 505.0625 81.636719 504.332031 82.597656 503.671875 82.597656 C 503.105469 82.597656 503.011719 81.890625 503.011719 81.53125 C 503.011719 80.929688 503.382812 79.527344 503.597656 79.023438 C 503.898438 78.289062 504.449219 77.691406 504.941406 77.691406 C 505.039062 77.691406 505.3125 77.703125 505.53125 78.039062 C 505.652344 78.230469 505.769531 78.578125 505.769531 78.804688 C 505.769531 78.84375 505.757812 78.890625 505.734375 78.960938 Z M 500.898438 69.230469 "/>
<path fill-rule="nonzero" fill="rgb(0%, 0%, 0%)" fill-opacity="1" d="M 513.386719 85.003906 C 513.386719 84.910156 513.339844 84.910156 513.195312 84.910156 C 512.777344 84.910156 512.777344 84.851562 512.777344 84.789062 C 512.777344 84.789062 512.777344 84.730469 512.804688 84.621094 L 513.777344 80.726562 C 513.835938 80.496094 513.894531 80.4375 514.347656 80.4375 C 514.496094 80.4375 514.5625 80.4375 514.5625 80.308594 C 514.5625 80.214844 514.503906 80.214844 514.382812 80.214844 L 513.460938 80.214844 C 513.300781 80.214844 513.28125 80.214844 513.203125 80.34375 L 510.753906 84.414062 L 510.351562 80.375 C 510.335938 80.214844 510.320312 80.214844 510.148438 80.214844 L 509.191406 80.214844 C 509.074219 80.214844 508.996094 80.214844 508.996094 80.351562 C 508.996094 80.4375 509.054688 80.4375 509.191406 80.4375 C 509.414062 80.4375 509.609375 80.4375 509.609375 80.5625 C 509.609375 80.582031 509.609375 80.597656 509.578125 80.699219 L 508.65625 84.40625 C 508.558594 84.808594 508.285156 84.894531 507.960938 84.910156 C 507.902344 84.910156 507.824219 84.917969 507.824219 85.046875 C 507.824219 85.109375 507.867188 85.132812 507.917969 85.132812 C 508.132812 85.132812 508.378906 85.109375 508.601562 85.109375 C 508.832031 85.109375 509.082031 85.132812 509.304688 85.132812 C 509.347656 85.132812 509.4375 85.132812 509.4375 85.003906 C 509.4375 84.917969 509.386719 84.910156 509.300781 84.910156 C 508.886719 84.894531 508.875 84.707031 508.875 84.601562 C 508.875 84.578125 508.875 84.535156 508.902344 84.421875 L 509.859375 80.597656 L 509.867188 80.597656 L 510.308594 84.960938 C 510.320312 85.082031 510.320312 85.132812 510.429688 85.132812 C 510.523438 85.132812 510.558594 85.082031 510.601562 85.003906 L 513.289062 80.53125 L 513.296875 80.53125 L 512.28125 84.605469 C 512.222656 84.851562 512.179688 84.910156 511.6875 84.910156 C 511.574219 84.910156 511.496094 84.910156 511.496094 85.046875 C 511.496094 85.132812 511.574219 85.132812 511.597656 85.132812 C 511.863281 85.132812 512.144531 85.109375 512.417969 85.109375 C 512.691406 85.109375 512.984375 85.132812 513.25 85.132812 C 513.300781 85.132812 513.386719 85.132812 513.386719 85.003906 Z M 507.347656 77.03125 "/>
</svg>
