<?xml version="1.0" encoding="UTF-8" standalone="no"?>
<!DOCTYPE svg PUBLIC "-//W3C//DTD SVG 1.1//EN" "http://www.w3.org/Graphics/SVG/1.1/DTD/svg11.dtd">
<!-- Created with Vectornator (http://vectornator.io/) -->
<svg height="100%" stroke-miterlimit="10" style="fill-rule:nonzero;clip-rule:evenodd;stroke-linecap:round;stroke-linejoin:round;" version="1.1" viewBox="0 0 375 63.9395" width="100%" xml:space="preserve" xmlns="http://www.w3.org/2000/svg" xmlns:vectornator="http://vectornator.io" xmlns:xlink="http://www.w3.org/1999/xlink">
<defs/>
<g id="Untitled" vectornator:layerName="Untitled">
<g opacity="1" vectornator:layerName="g">
<path d="M192.379 56.4414L192.379 56.0229L192.136 56.0229C191.326 56.0229 191.137 55.9284 190.988 55.4829L188.072 47.0454C188.005 46.8699 187.978 46.7754 187.762 46.7754C187.546 46.7754 187.505 46.8564 187.438 47.0454L184.643 55.1184C184.4 55.8069 183.86 56.0094 183.131 56.0229L183.131 56.4414L184.508 56.4009L186.061 56.4414L186.061 56.0229C185.386 56.0229 185.048 55.6854 185.048 55.3344C185.048 55.2939 185.062 55.1589 185.075 55.1319L185.696 53.3634L189.031 53.3634L189.746 55.4289C189.76 55.4829 189.787 55.5639 189.787 55.6179C189.787 56.0229 189.031 56.0229 188.666 56.0229L188.666 56.4414C189.152 56.4009 190.097 56.4009 190.61 56.4009L192.379 56.4414ZM188.882 52.9449L185.845 52.9449L187.357 48.5574L188.882 52.9449Z" fill="#000000" opacity="1" stroke="none" vectornator:layerName="tspan"/>
<path d="M194.25 44.855C214.5 11.105 160.5 11.105 180.75 44.855" fill="none" opacity="1" stroke="#000000" stroke-linecap="round" stroke-linejoin="miter" stroke-width="0.759" vectornator:layerName="path"/>
<path d="M193.09 40.227C195.984 41.961 194.25 44.855 194.25 44.855" fill="none" opacity="1" stroke="#000000" stroke-linecap="round" stroke-linejoin="miter" stroke-width="0.759" vectornator:layerName="path"/>
<path d="M198.879 43.699C195.984 41.961 194.25 44.855 194.25 44.855" fill="none" opacity="1" stroke="#000000" stroke-linecap="round" stroke-linejoin="miter" stroke-width="0.759" vectornator:layerName="path"/>
<g fill="#000000" opacity="1" stroke="none" vectornator:layerName="tspan">
<path d="M186.719 13.9766L186.719 13.6976C186.125 13.6976 186.089 13.6526 186.089 13.3016L186.089 9.99856L184.829 10.0976L184.829 10.3766C185.414 10.3766 185.495 10.4306 185.495 10.8716L185.495 13.2926C185.495 13.6976 185.396 13.6976 184.793 13.6976L184.793 13.9766L185.783 13.9496C186.098 13.9496 186.413 13.9676 186.719 13.9766ZM186.224 8.54056C186.224 8.29756 186.017 8.06356 185.747 8.06356C185.441 8.06356 185.261 8.31556 185.261 8.54056C185.261 8.78356 185.468 9.01756 185.738 9.01756C186.044 9.01756 186.224 8.76556 186.224 8.54056Z"/>
<path d="M191.741 13.9766L191.741 13.6976C191.111 13.6976 191.039 13.6346 191.039 13.1936L191.039 7.73056L189.743 7.82956L189.743 8.10856C190.373 8.10856 190.445 8.17156 190.445 8.61256L190.445 10.5566C190.184 10.2326 189.797 9.99856 189.311 9.99856C188.249 9.99856 187.304 10.8806 187.304 12.0416C187.304 13.1846 188.186 14.0756 189.212 14.0756C189.788 14.0756 190.193 13.7696 190.418 13.4816L190.418 14.0756L191.741 13.9766ZM190.418 12.9146C190.418 13.0766 190.418 13.0946 190.319 13.2476C190.049 13.6796 189.644 13.8776 189.257 13.8776C188.852 13.8776 188.528 13.6436 188.312 13.3016C188.078 12.9326 188.051 12.4196 188.051 12.0506C188.051 11.7176 188.069 11.1776 188.33 10.7726C188.519 10.4936 188.861 10.1966 189.347 10.1966C189.662 10.1966 190.04 10.3316 190.319 10.7366C190.418 10.8896 190.418 10.9076 190.418 11.0696L190.418 12.9146Z"/>
</g>
<path d="M195.942 15.7786L195.942 15.6112L195.845 15.6112C195.521 15.6112 195.446 15.5733 195.386 15.3951L194.22 12.0199C194.193 11.9497 194.182 11.9119 194.095 11.9119C194.009 11.9119 193.993 11.9443 193.966 12.0199L192.848 15.2493C192.751 15.5247 192.535 15.6058 192.243 15.6112L192.243 15.7786L192.794 15.7624L193.415 15.7786L193.415 15.6112C193.145 15.6112 193.01 15.4761 193.01 15.3357C193.01 15.3195 193.015 15.2655 193.021 15.2547L193.269 14.5473L194.603 14.5473L194.889 15.3735C194.895 15.3951 194.906 15.4275 194.906 15.4491C194.906 15.6112 194.603 15.6112 194.457 15.6112L194.457 15.7786C194.652 15.7624 195.03 15.7624 195.235 15.7624L195.942 15.7786ZM194.544 14.3799L193.329 14.3799L193.933 12.6247L194.544 14.3799Z" fill="#000000" opacity="1" stroke="none" vectornator:layerName="tspan"/>
</g>
</g>
</svg>
