<?xml version="1.0" encoding="UTF-8" standalone="no"?>
<!DOCTYPE svg PUBLIC "-//W3C//DTD SVG 1.1//EN" "http://www.w3.org/Graphics/SVG/1.1/DTD/svg11.dtd">
<!-- Created with Vectornator (http://vectornator.io/) -->
<svg height="100%" stroke-miterlimit="10" style="fill-rule:nonzero;clip-rule:evenodd;stroke-linecap:round;stroke-linejoin:round;" version="1.1" viewBox="0 0 375 63.9395" width="100%" xml:space="preserve" xmlns="http://www.w3.org/2000/svg" xmlns:vectornator="http://vectornator.io" xmlns:xlink="http://www.w3.org/1999/xlink">
<defs/>
<g id="Untitled" vectornator:layerName="Untitled">
<g opacity="1" vectornator:layerName="g">
<path d="M151.879 56.4414L151.879 56.0229L151.636 56.0229C150.826 56.0229 150.637 55.9284 150.488 55.4829L147.572 47.0454C147.505 46.8699 147.478 46.7754 147.262 46.7754C147.046 46.7754 147.005 46.8564 146.938 47.0454L144.143 55.1184C143.9 55.8069 143.36 56.0094 142.631 56.0229L142.631 56.4414L144.008 56.4009L145.561 56.4414L145.561 56.0229C144.886 56.0229 144.548 55.6854 144.548 55.3344C144.548 55.2939 144.562 55.1589 144.575 55.1319L145.196 53.3634L148.531 53.3634L149.246 55.4289C149.26 55.4829 149.287 55.5639 149.287 55.6179C149.287 56.0229 148.531 56.0229 148.166 56.0229L148.166 56.4414C148.652 56.4009 149.597 56.4009 150.11 56.4009L151.879 56.4414ZM148.382 52.9449L145.345 52.9449L146.857 48.5574L148.382 52.9449Z" fill="#000000" opacity="1" stroke="none" vectornator:layerName="tspan"/>
<path d="M231.746 53.7443C231.746 52.5698 230.639 51.5573 229.14 51.3953C230.45 51.1388 231.381 50.2748 231.381 49.2758C231.381 48.1013 230.139 46.9943 228.384 46.9943L223.443 46.9943L223.443 47.4128L223.767 47.4128C224.807 47.4128 224.834 47.5613 224.834 48.0473L224.834 55.1618C224.834 55.6478 224.807 55.7963 223.767 55.7963L223.443 55.7963L223.443 56.2148L228.735 56.2148C230.531 56.2148 231.746 55.0133 231.746 53.7443ZM230.072 49.2758C230.072 50.1398 229.41 51.2738 227.912 51.2738L225.954 51.2738L225.954 47.9528C225.954 47.5073 225.981 47.4128 226.616 47.4128L228.29 47.4128C229.599 47.4128 230.072 48.5603 230.072 49.2758ZM230.396 53.7308C230.396 54.6893 229.694 55.7963 228.303 55.7963L226.616 55.7963C225.981 55.7963 225.954 55.7018 225.954 55.2563L225.954 51.5708L228.492 51.5708C229.829 51.5708 230.396 52.8263 230.396 53.7308Z" fill="#000000" opacity="1" stroke="none" vectornator:layerName="tspan"/>
<path d="M156.793 51.605C176.391 51.605 195.988 51.605 215.586 51.605" fill="none" opacity="1" stroke="#000000" stroke-linecap="round" stroke-linejoin="miter" stroke-width="0.759" vectornator:layerName="path"/>
<path d="M211.535 55.656C211.535 51.605 215.586 51.605 215.586 51.605" fill="none" opacity="1" stroke="#000000" stroke-linecap="round" stroke-linejoin="miter" stroke-width="0.759" vectornator:layerName="path"/>
<path d="M211.535 47.555C211.535 51.605 215.586 51.605 215.586 51.605" fill="none" opacity="1" stroke="#000000" stroke-linecap="round" stroke-linejoin="miter" stroke-width="0.759" vectornator:layerName="path"/>
<path d="M183.816 41.684L188.109 41.684L188.109 50.079L183.816 50.079L183.816 41.684Z" fill="#ffffff" fill-rule="nonzero" opacity="1" stroke="none" vectornator:layerName="path"/>
<path d="M188.756 42.5155C188.756 42.1825 188.423 41.8855 187.946 41.8855C187.316 41.8855 186.551 42.3625 186.551 43.3165L186.551 44.3515L185.84 44.3515L185.84 44.6305L186.551 44.6305L186.551 47.5465C186.551 47.9515 186.452 47.9515 185.849 47.9515L185.849 48.2305L186.875 48.2035C187.235 48.2035 187.658 48.2035 188.018 48.2305L188.018 47.9515L187.829 47.9515C187.163 47.9515 187.145 47.8525 187.145 47.5285L187.145 44.6305L188.171 44.6305L188.171 44.3515L187.118 44.3515L187.118 43.3075C187.118 42.5155 187.55 42.0835 187.946 42.0835C187.973 42.0835 188.108 42.0835 188.243 42.1465C188.135 42.1825 187.973 42.2995 187.973 42.5245C187.973 42.7315 188.117 42.9115 188.36 42.9115C188.621 42.9115 188.756 42.7315 188.756 42.5155Z" fill="#000000" opacity="1" stroke="none" vectornator:layerName="tspan"/>
<path d="M153.75 44.855C174 11.105 120 11.105 140.25 44.855" fill="none" opacity="1" stroke="#000000" stroke-linecap="round" stroke-linejoin="miter" stroke-width="0.759" vectornator:layerName="path"/>
<path d="M152.59 40.227C155.484 41.961 153.75 44.855 153.75 44.855" fill="none" opacity="1" stroke="#000000" stroke-linecap="round" stroke-linejoin="miter" stroke-width="0.759" vectornator:layerName="path"/>
<path d="M158.379 43.699C155.484 41.961 153.75 44.855 153.75 44.855" fill="none" opacity="1" stroke="#000000" stroke-linecap="round" stroke-linejoin="miter" stroke-width="0.759" vectornator:layerName="path"/>
<g fill="#000000" opacity="1" stroke="none" vectornator:layerName="tspan">
<path d="M146.219 13.9766L146.219 13.6976C145.625 13.6976 145.589 13.6526 145.589 13.3016L145.589 9.99856L144.329 10.0976L144.329 10.3766C144.914 10.3766 144.995 10.4306 144.995 10.8716L144.995 13.2926C144.995 13.6976 144.896 13.6976 144.293 13.6976L144.293 13.9766L145.283 13.9496C145.598 13.9496 145.913 13.9676 146.219 13.9766ZM145.724 8.54056C145.724 8.29756 145.517 8.06356 145.247 8.06356C144.941 8.06356 144.761 8.31556 144.761 8.54056C144.761 8.78356 144.968 9.01756 145.238 9.01756C145.544 9.01756 145.724 8.76556 145.724 8.54056Z"/>
<path d="M151.241 13.9766L151.241 13.6976C150.611 13.6976 150.539 13.6346 150.539 13.1936L150.539 7.73056L149.243 7.82956L149.243 8.10856C149.873 8.10856 149.945 8.17156 149.945 8.61256L149.945 10.5566C149.684 10.2326 149.297 9.99856 148.811 9.99856C147.749 9.99856 146.804 10.8806 146.804 12.0416C146.804 13.1846 147.686 14.0756 148.712 14.0756C149.288 14.0756 149.693 13.7696 149.918 13.4816L149.918 14.0756L151.241 13.9766ZM149.918 12.9146C149.918 13.0766 149.918 13.0946 149.819 13.2476C149.549 13.6796 149.144 13.8776 148.757 13.8776C148.352 13.8776 148.028 13.6436 147.812 13.3016C147.578 12.9326 147.551 12.4196 147.551 12.0506C147.551 11.7176 147.569 11.1776 147.83 10.7726C148.019 10.4936 148.361 10.1966 148.847 10.1966C149.162 10.1966 149.54 10.3316 149.819 10.7366C149.918 10.8896 149.918 10.9076 149.918 11.0696L149.918 12.9146Z"/>
</g>
<path d="M155.442 15.7786L155.442 15.6112L155.345 15.6112C155.021 15.6112 154.946 15.5733 154.886 15.3951L153.72 12.0199C153.693 11.9497 153.682 11.9119 153.595 11.9119C153.509 11.9119 153.493 11.9443 153.466 12.0199L152.348 15.2493C152.251 15.5247 152.035 15.6058 151.743 15.6112L151.743 15.7786L152.294 15.7624L152.915 15.7786L152.915 15.6112C152.645 15.6112 152.51 15.4761 152.51 15.3357C152.51 15.3195 152.515 15.2655 152.521 15.2547L152.769 14.5473L154.103 14.5473L154.389 15.3735C154.395 15.3951 154.406 15.4275 154.406 15.4491C154.406 15.6112 154.103 15.6112 153.957 15.6112L153.957 15.7786C154.152 15.7624 154.53 15.7624 154.735 15.7624L155.442 15.7786ZM154.044 14.3799L152.829 14.3799L153.433 12.6247L154.044 14.3799Z" fill="#000000" opacity="1" stroke="none" vectornator:layerName="tspan"/>
<path d="M234.75 44.855C255 11.105 201 11.105 221.25 44.855" fill="none" opacity="1" stroke="#000000" stroke-linecap="round" stroke-linejoin="miter" stroke-width="0.759" vectornator:layerName="path"/>
<path d="M233.59 40.227C236.484 41.961 234.75 44.855 234.75 44.855" fill="none" opacity="1" stroke="#000000" stroke-linecap="round" stroke-linejoin="miter" stroke-width="0.759" vectornator:layerName="path"/>
<path d="M239.379 43.699C236.484 41.961 234.75 44.855 234.75 44.855" fill="none" opacity="1" stroke="#000000" stroke-linecap="round" stroke-linejoin="miter" stroke-width="0.759" vectornator:layerName="path"/>
<g fill="#000000" opacity="1" stroke="none" vectornator:layerName="tspan">
<path d="M227.02 13.9766L227.02 13.6976C226.426 13.6976 226.39 13.6526 226.39 13.3016L226.39 9.99856L225.13 10.0976L225.13 10.3766C225.715 10.3766 225.796 10.4306 225.796 10.8716L225.796 13.2926C225.796 13.6976 225.697 13.6976 225.094 13.6976L225.094 13.9766L226.084 13.9496C226.399 13.9496 226.714 13.9676 227.02 13.9766ZM226.525 8.54056C226.525 8.29756 226.318 8.06356 226.048 8.06356C225.742 8.06356 225.562 8.31556 225.562 8.54056C225.562 8.78356 225.769 9.01756 226.039 9.01756C226.345 9.01756 226.525 8.76556 226.525 8.54056Z"/>
<path d="M232.042 13.9766L232.042 13.6976C231.412 13.6976 231.34 13.6346 231.34 13.1936L231.34 7.73056L230.044 7.82956L230.044 8.10856C230.674 8.10856 230.746 8.17156 230.746 8.61256L230.746 10.5566C230.485 10.2326 230.098 9.99856 229.612 9.99856C228.55 9.99856 227.605 10.8806 227.605 12.0416C227.605 13.1846 228.487 14.0756 229.513 14.0756C230.089 14.0756 230.494 13.7696 230.719 13.4816L230.719 14.0756L232.042 13.9766ZM230.719 12.9146C230.719 13.0766 230.719 13.0946 230.62 13.2476C230.35 13.6796 229.945 13.8776 229.558 13.8776C229.153 13.8776 228.829 13.6436 228.613 13.3016C228.379 12.9326 228.352 12.4196 228.352 12.0506C228.352 11.7176 228.37 11.1776 228.631 10.7726C228.82 10.4936 229.162 10.1966 229.648 10.1966C229.963 10.1966 230.341 10.3316 230.62 10.7366C230.719 10.8896 230.719 10.9076 230.719 11.0696L230.719 12.9146Z"/>
</g>
<path d="M235.906 14.7903C235.906 14.3205 235.463 13.9154 234.864 13.8506C235.388 13.748 235.76 13.4024 235.76 13.0028C235.76 12.5329 235.264 12.0901 234.562 12.0901L232.585 12.0901L232.585 12.2575L232.715 12.2575C233.13 12.2575 233.141 12.3169 233.141 12.5113L233.141 15.3573C233.141 15.5517 233.13 15.6112 232.715 15.6112L232.585 15.6112L232.585 15.7786L234.702 15.7786C235.42 15.7786 235.906 15.2979 235.906 14.7903ZM235.237 13.0028C235.237 13.3484 234.972 13.802 234.373 13.802L233.59 13.802L233.59 12.4735C233.59 12.2953 233.6 12.2575 233.854 12.2575L234.524 12.2575C235.048 12.2575 235.237 12.7165 235.237 13.0028ZM235.366 14.7849C235.366 15.1683 235.085 15.6112 234.529 15.6112L233.854 15.6112C233.6 15.6112 233.59 15.5733 233.59 15.3951L233.59 13.9208L234.605 13.9208C235.139 13.9208 235.366 14.4231 235.366 14.7849Z" fill="#000000" opacity="1" stroke="none" vectornator:layerName="tspan"/>
</g>
</g>
</svg>
