<svg height="300" viewBox="-411.31160068511963 -247.68956915537518 822.6232013702394 495.3791383107504" width="504.7838750222155" preserveAspectRatio="xMidYMid meet" xmlns="http://www.w3.org/2000/svg" version="1.1"><text x="-284.4622395833333" style="font-family: Courier New; text-anchor: middle; vector-effect: non-scaling-stroke; font-size: 20.0pt; " transform="translate(0 -450.7272911071778) rotate(-0.0, -284.4622395833333, 225.3636455535889)" y="225.3636455535889">&#43;</text><polyline points="-304.4622395833333 226.23604138692224 -344.4622395833333 186.23604138692224 " style="vector-effect: non-scaling-stroke; stroke: black; fill: none; " transform="scale(1,-1)" /><polygon points="-348.7048802704526 181.99340069980295 -342.01274984055016 183.78655164413908 -346.91172932611653 188.68553112970537 " style="vector-effect: non-scaling-stroke; " transform="scale(1,-1)" /><polyline points="-264.4622395833333 226.23604138692224 -224.46223958333331 186.2360413869222 " style="vector-effect: non-scaling-stroke; stroke: black; fill: none; " transform="scale(1,-1)" /><polygon points="-220.21959889621405 181.99340069980292 -222.01274984055016 188.68553112970537 -226.9117293261165 183.78655164413902 " style="vector-effect: non-scaling-stroke; " transform="scale(1,-1)" /><text x="-204.46223958333331" style="font-family: Courier New; text-anchor: middle; vector-effect: non-scaling-stroke; font-size: 16.0pt; " transform="translate(0 -294.7272911071778) rotate(-0.0, -204.46223958333331, 147.3636455535889)" y="147.3636455535889">&#91;p3&#93;</text><text x="-364.4622395833333" style="font-family: Courier New; text-anchor: middle; vector-effect: non-scaling-stroke; font-size: 16.0pt; " transform="translate(0 -294.7272911071778) rotate(-0.0, -364.4622395833333, 147.3636455535889)" y="147.3636455535889">&#91;p1,p2&#93;</text><text x="-126.42708333333329" style="font-family: Courier New; text-anchor: middle; vector-effect: non-scaling-stroke; font-size: 60.0pt; " transform="translate(0 -337.4173952738445) rotate(-0.0, -126.42708333333329, 168.70869763692224)" y="168.70869763692224">&#43;</text><text x="-48.391927083333286" style="font-family: Courier New; text-anchor: middle; vector-effect: non-scaling-stroke; font-size: 20.0pt; " transform="translate(0 -450.7272911071778) rotate(-0.0, -48.391927083333286, 225.3636455535889)" y="225.3636455535889">g</text><polyline points="-48.391927083333286 202.33760388692224 -48.391927083333286 186.33760388692224 " style="vector-effect: non-scaling-stroke; stroke: black; fill: none; " transform="scale(1,-1)" /><polygon points="-48.391927083333286 180.33760388692224 -44.927825468195486 186.3376038869222 -51.856028698471 186.33760388692227 " style="vector-effect: non-scaling-stroke; " transform="scale(1,-1)" /><text x="-48.3919270833333" style="font-family: Courier New; text-anchor: middle; vector-effect: non-scaling-stroke; font-size: 16.00000000000003pt; " transform="translate(0 -294.5293744405111) rotate(-0.0, -48.3919270833333, 147.26468722025555)" y="147.26468722025555">&#91;p4&#93;</text><text x="38.03515625000006" style="font-family: Courier New; text-anchor: middle; vector-effect: non-scaling-stroke; font-size: 80.0pt; " transform="translate(0 -321.8965619405111) rotate(-0.0, 38.03515625000006, 160.94828097025555)" y="160.94828097025555">&#61;</text><text x="303.6653645833334" style="font-family: Courier New; text-anchor: middle; vector-effect: non-scaling-stroke; font-size: 20.0pt; " transform="translate(0 -450.7272911071778) rotate(-0.0, 303.6653645833334, 225.3636455535889)" y="225.3636455535889">&#43;</text><polyline points="283.6653645833334 226.23604138692224 243.66536458333343 186.23604138692224 " style="vector-effect: non-scaling-stroke; stroke: black; fill: none; " transform="scale(1,-1)" /><polygon points="239.42272389621422 181.99340069980295 246.11485432611673 183.78655164413897 241.21587484055044 188.6855311297054 " style="vector-effect: non-scaling-stroke; " transform="scale(1,-1)" /><polyline points="323.6653645833334 226.23604138692224 363.6653645833334 186.2360413869222 " style="vector-effect: non-scaling-stroke; stroke: black; fill: none; " transform="scale(1,-1)" /><polygon points="367.90800527045275 181.99340069980292 366.1148543261167 188.6855311297054 361.2158748405503 183.78655164413908 " style="vector-effect: non-scaling-stroke; " transform="scale(1,-1)" /><text x="383.6653645833334" style="font-family: Courier New; text-anchor: middle; vector-effect: non-scaling-stroke; font-size: 20.0pt; " transform="translate(0 -290.7272911071778) rotate(-0.0, 383.6653645833334, 145.3636455535889)" y="145.3636455535889">g</text><polyline points="383.6653645833334 122.33760388692222 383.6653645833334 106.33760388692224 " style="vector-effect: non-scaling-stroke; stroke: black; fill: none; " transform="scale(1,-1)" /><polygon points="383.6653645833334 100.33760388692221 387.1294661984713 106.33760388692221 380.20126296819575 106.33760388692231 " style="vector-effect: non-scaling-stroke; " transform="scale(1,-1)" /><text x="383.6653645833334" style="font-family: Courier New; text-anchor: middle; vector-effect: non-scaling-stroke; font-size: 16.0pt; " transform="translate(0 -134.52937444051105) rotate(-0.0, 383.6653645833334, 67.26468722025552)" y="67.26468722025552">&#91;p4&#93;</text><text x="223.66536458333343" style="font-family: Courier New; text-anchor: middle; vector-effect: non-scaling-stroke; font-size: 20.0pt; " transform="translate(0 -290.7272911071778) rotate(-0.0, 223.66536458333343, 145.3636455535889)" y="145.3636455535889">&#43;</text><polyline points="203.66536458333343 146.23604138692224 163.66536458333343 106.23604138692221 " style="vector-effect: non-scaling-stroke; stroke: black; fill: none; " transform="scale(1,-1)" /><polygon points="159.42272389621417 101.99340069980295 166.11485432611676 103.78655164413888 161.21587484055047 108.68553112970544 " style="vector-effect: non-scaling-stroke; " transform="scale(1,-1)" /><polyline points="243.66536458333343 146.23604138692224 283.6653645833334 106.23604138692221 " style="vector-effect: non-scaling-stroke; stroke: black; fill: none; " transform="scale(1,-1)" /><polygon points="287.90800527045275 101.99340069980295 286.11485432611664 108.68553112970548 281.2158748405502 103.7865516441391 " style="vector-effect: non-scaling-stroke; " transform="scale(1,-1)" /><text x="303.6653645833334" style="font-family: Courier New; text-anchor: middle; vector-effect: non-scaling-stroke; font-size: 16.0pt; " transform="translate(0 -134.7272911071778) rotate(-0.0, 303.6653645833334, 67.3636455535889)" y="67.3636455535889">&#91;p3&#93;</text><text x="143.66536458333346" style="font-family: Courier New; text-anchor: middle; vector-effect: non-scaling-stroke; font-size: 15.999999999999943pt; " transform="translate(0 -134.7272911071778) rotate(-0.0, 143.66536458333346, 67.3636455535889)" y="67.3636455535889">&#91;p1,p2&#93;</text><text x="-364.4622395833333" style="font-family: Courier New; text-anchor: middle; vector-effect: non-scaling-stroke; font-size: 32.0pt; " transform="translate(0 242.68562444051105) rotate(-0.0, -364.4622395833333, -121.34281222025552)" y="-121.34281222025552">h</text><text x="-324.3722388744354" style="font-family: Didot; text-anchor: middle; vector-effect: non-scaling-stroke; font-size: 80.0pt; " transform="translate(0 266.68562444051094) rotate(-0.0, -324.3722388744354, -133.34281222025547)" y="-133.34281222025547">&#40;</text><text x="-176.33952983220416" style="font-family: Courier New; text-anchor: middle; vector-effect: non-scaling-stroke; font-size: 20.0pt; " transform="translate(0 166.68562444051105) rotate(-0.0, -176.33952983220416, -83.34281222025552)" y="-83.34281222025552">&#43;</text><polyline points="-196.33952983220416 -82.47041638692221 -236.33952983220416 -122.47041638692221 " style="vector-effect: non-scaling-stroke; stroke: black; fill: none; " transform="scale(1,-1)" /><polygon points="-240.58217051932343 -126.71305707404147 -233.89004008942095 -124.91990612970541 -238.78901957498726 -120.02092664413902 " style="vector-effect: non-scaling-stroke; " transform="scale(1,-1)" /><polyline points="-156.33952983220416 -82.47041638692221 -116.33952983220416 -122.47041638692221 " style="vector-effect: non-scaling-stroke; stroke: black; fill: none; " transform="scale(1,-1)" /><polygon points="-112.09688914508487 -126.71305707404147 -113.890040089421 -120.02092664413904 -118.78901957498734 -124.9199061297054 " style="vector-effect: non-scaling-stroke; " transform="scale(1,-1)" /><text x="-96.33952983220415" style="font-family: Courier New; text-anchor: middle; vector-effect: non-scaling-stroke; font-size: 16.00000000000003pt; " transform="translate(0 322.68562444051105) rotate(-0.0, -96.33952983220415, -161.34281222025552)" y="-161.34281222025552">&#91;p3&#93;</text><text x="-256.33952983220416" style="font-family: Courier New; text-anchor: middle; vector-effect: non-scaling-stroke; font-size: 16.00000000000003pt; " transform="translate(0 322.68562444051105) rotate(-0.0, -256.33952983220416, -161.34281222025552)" y="-161.34281222025552">&#91;p1,p2&#93;</text><text x="-31.243279933929372" style="font-family: Didot; text-anchor: middle; vector-effect: non-scaling-stroke; font-size: 79.99999999999997pt; " transform="translate(0 266.68562444051094) rotate(-0.0, -31.243279933929372, -133.34281222025547)" y="-133.34281222025547"> &#41;</text><text x="40.967553297678705" style="font-family: Courier New; text-anchor: middle; vector-effect: non-scaling-stroke; font-size: 80.0pt; " transform="translate(0 295.5163536071778) rotate(-0.0, 40.967553297678705, -147.7581768035889)" y="-147.7581768035889">&#61;</text><text x="206.59776163101208" style="font-family: Courier New; text-anchor: middle; vector-effect: non-scaling-stroke; font-size: 20.0pt; " transform="translate(0 166.68562444051105) rotate(-0.0, 206.59776163101208, -83.34281222025552)" y="-83.34281222025552">h</text><polyline points="206.59776163101208 -101.34281222025552 206.59776163101208 -117.34281222025558 " style="vector-effect: non-scaling-stroke; stroke: black; fill: none; " transform="scale(1,-1)" /><polygon points="206.59776163101208 -123.34281222025547 210.0618632461498 -117.34281222025551 203.13366001587434 -117.34281222025551 " style="vector-effect: non-scaling-stroke; " transform="scale(1,-1)" /><text x="206.59776163101208" style="font-family: Courier New; text-anchor: middle; vector-effect: non-scaling-stroke; font-size: 20.0pt; " transform="translate(0 315.35749944051094) rotate(-0.0, 206.59776163101208, -157.67874972025547)" y="-157.67874972025547">&#43;</text><polyline points="186.59776163101208 -156.8063538869222 146.59776163101208 -196.8063538869222 " style="vector-effect: non-scaling-stroke; stroke: black; fill: none; " transform="scale(1,-1)" /><polygon points="142.3551209438928 -201.04899457404147 149.04725137379515 -199.25584362970537 144.14827188822886 -194.3568641441391 " style="vector-effect: non-scaling-stroke; " transform="scale(1,-1)" /><polyline points="226.59776163101208 -156.8063538869222 266.59776163101213 -196.8063538869222 " style="vector-effect: non-scaling-stroke; stroke: black; fill: none; " transform="scale(1,-1)" /><polygon points="270.84040231813134 -201.04899457404147 269.04725137379535 -194.35686414413914 264.14827188822903 -199.25584362970534 " style="vector-effect: non-scaling-stroke; " transform="scale(1,-1)" /><text x="286.597761631012" style="font-family: Courier New; text-anchor: middle; vector-effect: non-scaling-stroke; font-size: 16.000000000000227pt; " transform="translate(0 471.35749944051105) rotate(-0.0, 286.597761631012, -235.67874972025552)" y="-235.67874972025552">&#91;p3&#93;</text><text x="126.59776163101208" style="font-family: Courier New; text-anchor: middle; vector-effect: non-scaling-stroke; font-size: 16.000000000000114pt; " transform="translate(0 471.35749944051105) rotate(-0.0, 126.59776163101208, -235.67874972025552)" y="-235.67874972025552">&#91;p1,p2&#93;</text></svg>