<svg height="410" viewBox="0 0 1960.4132231404951 410" width="1960.4132231404951" xmlns="http://www.w3.org/2000/svg" version="1.1"><text x="38.057851239669475" style="font-family: monospace; text-anchor: start; font-size: 13.223140495867767pt; " transform="rotate(-0.0, 38.057851239669475, 87.6446280991737)" y="87.6446280991737">struct Petal &#60;: Mark</text><text x="64.50413223140502" style="font-family: monospace; text-anchor: start; font-size: 13.223140495867796pt; " transform="rotate(-0.0, 64.50413223140502, 110.12396694214885)" y="110.12396694214885">    height::Real</text><text x="64.50413223140502" style="font-family: monospace; text-anchor: start; font-size: 13.223140495867796pt; " transform="rotate(-0.0, 64.50413223140502, 132.60330578512406)" y="132.60330578512406">    width::Real</text><text x="64.50413223140502" style="font-family: monospace; text-anchor: start; font-size: 13.223140495867796pt; " transform="rotate(-0.0, 64.50413223140502, 155.08264462809925)" y="155.08264462809925">    color::String</text><text x="38.057851239669475" style="font-family: monospace; text-anchor: start; font-size: 13.223140495867767pt; " transform="rotate(-0.0, 38.057851239669475, 177.56198347107443)" y="177.56198347107443">end</text><text x="44.66942148760339" style="font-family: monospace; text-anchor: start; font-size: 13.223140495867767pt; " transform="rotate(-0.0, 44.66942148760339, 200.04132231404964)" y="200.04132231404964"> </text><text x="38.057851239669475" style="font-family: monospace; text-anchor: start; font-size: 13.223140495867767pt; " transform="rotate(-0.0, 38.057851239669475, 222.52066115702485)" y="222.52066115702485">function θ&#40;p::Petal&#41;</text><text x="64.50413223140502" style="font-family: monospace; text-anchor: start; font-size: 13.223140495867796pt; " transform="rotate(-0.0, 64.50413223140502, 245.00000000000003)" y="245.00000000000003">    return η&#40;&#91;Prim&#40;</text><text x="90.95041322314052" style="font-family: monospace; text-anchor: start; font-size: 13.223140495867767pt; " transform="rotate(-0.0, 90.95041322314052, 267.47933884297527)" y="267.47933884297527">        BezierPolygon&#40;...&#41;,</text><text x="90.95041322314052" style="font-family: monospace; text-anchor: start; font-size: 13.223140495867767pt; " transform="rotate(-0.0, 90.95041322314052, 289.9586776859504)" y="289.9586776859504">        Dict&#40;:fill&#61;&#62;p.color&#41;</text><text x="64.50413223140502" style="font-family: monospace; text-anchor: start; font-size: 13.223140495867796pt; " transform="rotate(-0.0, 64.50413223140502, 312.43801652892563)" y="312.43801652892563">    &#41;&#93;&#41;</text><text x="38.057851239669475" style="font-family: monospace; text-anchor: start; font-size: 13.223140495867767pt; " transform="rotate(-0.0, 38.057851239669475, 334.91735537190084)" y="334.91735537190084">end</text><text x="38.057851239669475" style="font-family: monospace; text-anchor: start; font-size: 13.223140495867767pt; " transform="rotate(-0.0, 38.057851239669475, 87.6446280991737)" y="87.6446280991737"></text><path style="stroke: nothing; fill: steelblue; opacity: 0.5; " d="M484.3388429752065 388.4710743801653 C 319.0495867768595 124.00826446281002 484.3388429752065 57.89256198347118 484.3388429752065 57.89256198347118 484.3388429752065 57.89256198347118 649.6280991735536 124.00826446281002 484.3388429752065 388.4710743801653  Z" /><polygon points="5.0 405.0 633.0991735537189 405.0 633.0991735537189 41.36363636363649 5.0 41.36363636363649 " style="stroke: grey; fill-opacity: 0; " /><polygon points="5.000000000000028 405.0 335.5785123966941 405.0 335.5785123966941 41.36363636363649 5.000000000000028 41.36363636363649 " style="opacity: 0.2; fill: grey; " /><text x="319.04958677685954" style="font-family: monospace; text-anchor: middle; font-size: 26.446280991735534pt; " transform="rotate(-0.0, 319.04958677685954, 31.446280991735648)" y="31.446280991735648">Petal</text><text x="699.2148760330577" style="font-family: monospace; text-anchor: start; font-size: 13.22314049586771pt; " transform="rotate(-0.0, 699.2148760330577, 87.6446280991737)" y="87.6446280991737">struct Flower &#60;: Mark</text><text x="725.6611570247933" style="font-family: monospace; text-anchor: start; font-size: 13.223140495867824pt; " transform="rotate(-0.0, 725.6611570247933, 110.12396694214885)" y="110.12396694214885">    heights::Vector&#123;Real&#125;</text><text x="725.6611570247933" style="font-family: monospace; text-anchor: start; font-size: 13.223140495867824pt; " transform="rotate(-0.0, 725.6611570247933, 132.60330578512406)" y="132.60330578512406">    widths::Vector&#123;Real&#125;</text><text x="725.6611570247933" style="font-family: monospace; text-anchor: start; font-size: 13.223140495867824pt; " transform="rotate(-0.0, 725.6611570247933, 155.08264462809925)" y="155.08264462809925">    colors::Vector&#123;String&#125;</text><text x="699.2148760330577" style="font-family: monospace; text-anchor: start; font-size: 13.22314049586771pt; " transform="rotate(-0.0, 699.2148760330577, 177.56198347107443)" y="177.56198347107443">end</text><text x="705.8264462809916" style="font-family: monospace; text-anchor: start; font-size: 13.223140495867824pt; " transform="rotate(-0.0, 705.8264462809916, 200.04132231404964)" y="200.04132231404964"> </text><text x="699.2148760330577" style="font-family: monospace; text-anchor: start; font-size: 13.22314049586771pt; " transform="rotate(-0.0, 699.2148760330577, 222.52066115702485)" y="222.52066115702485">function ζ&#40;fl::Flower&#41;</text><text x="725.6611570247933" style="font-family: monospace; text-anchor: start; font-size: 13.223140495867824pt; " transform="rotate(-0.0, 725.6611570247933, 245.00000000000003)" y="245.00000000000003">    &#34;&#34;&#34;</text><text x="725.6611570247933" style="font-family: monospace; text-anchor: start; font-size: 13.223140495867824pt; " transform="rotate(-0.0, 725.6611570247933, 267.47933884297527)" y="267.47933884297527">    Create petals and</text><text x="725.6611570247933" style="font-family: monospace; text-anchor: start; font-size: 13.223140495867824pt; " transform="rotate(-0.0, 725.6611570247933, 289.9586776859504)" y="289.9586776859504">    apply rotations.</text><text x="725.6611570247933" style="font-family: monospace; text-anchor: start; font-size: 13.223140495867824pt; " transform="rotate(-0.0, 725.6611570247933, 312.43801652892563)" y="312.43801652892563">    &#34;&#34;&#34;</text><text x="725.6611570247933" style="font-family: monospace; text-anchor: start; font-size: 13.223140495867824pt; " transform="rotate(-0.0, 725.6611570247933, 334.91735537190084)" y="334.91735537190084">    ...</text><text x="699.2148760330577" style="font-family: monospace; text-anchor: start; font-size: 13.22314049586771pt; " transform="rotate(-0.0, 699.2148760330577, 357.396694214876)" y="357.396694214876">end</text><text x="699.2148760330577" style="font-family: monospace; text-anchor: start; font-size: 13.22314049586771pt; " transform="rotate(-0.0, 699.2148760330577, 87.6446280991737)" y="87.6446280991737"></text><path style="stroke: nothing; fill: #B4BD4C; opacity: 1.0; " d="M1183.8244081350038 224.81732872926412 C 1136.1794401085986 123.17473027293352 1183.8244081350038 97.76408065885084 1183.8244081350038 97.76408065885084 1183.8244081350038 97.76408065885084 1231.469376161409 123.17473027293352 1183.8244081350038 224.81732872926412  Z" /><path style="stroke: nothing; fill: #E39C39; opacity: 1.0; " d="M1183.8244081350038 224.81732872926412 C 1203.1635393641245 171.3503188605185 1229.3282463211704 179.31349054309763 1229.3282463211704 179.31349054309763 1229.3282463211704 179.31349054309763 1237.2914180037494 205.47819750014335 1183.8244081350038 224.81732872926412  Z" /><path style="stroke: nothing; fill: #E69237; opacity: 1.0; " d="M1183.8244081350038 224.81732872926412 C 1251.804327747805 192.95174141076356 1268.7993076510052 224.81732872926412 1268.7993076510052 224.81732872926412 1268.7993076510052 224.81732872926412 1251.804327747805 256.6829160477647 1183.8244081350038 224.81732872926412  Z" /><path style="stroke: nothing; fill: #E68033; opacity: 1.0; " d="M1183.8244081350038 224.81732872926412 C 1242.1621577324775 245.9182168815418 1233.4735567285984 274.4664773228587 1233.4735567285984 274.4664773228587 1233.4735567285984 274.4664773228587 1204.9252962872815 283.15507832673774 1183.8244081350038 224.81732872926412  Z" /><path style="stroke: nothing; fill: #559FB0; opacity: 1.0; " d="M1183.8244081350038 224.81732872926412 C 1230.2427432508243 323.8431103096813 1183.8244081350038 348.59955570478564 1183.8244081350038 348.59955570478564 1183.8244081350038 348.59955570478564 1137.4060730191832 323.8431103096814 1183.8244081350038 224.81732872926412  Z" /><path style="stroke: nothing; fill: #4334BE; opacity: 1.0; " d="M1183.8244081350038 224.81732872926412 C 1147.5032360788025 325.2346867669968 1098.362826826295 310.27891003797276 1098.362826826295 310.27891003797276 1098.362826826295 310.27891003797276 1083.4070500972712 261.13850078546534 1183.8244081350038 224.81732872926412  Z" /><path style="stroke: nothing; fill: #81BA72; opacity: 1.0; " d="M1183.8244081350038 224.81732872926412 C 1054.5188239359481 285.42932132257147 1022.1924278861842 224.81732872926415 1022.1924278861842 224.81732872926415 1022.1924278861842 224.81732872926415 1054.5188239359481 164.20533613595683 1183.8244081350038 224.81732872926412  Z" /><path style="stroke: nothing; fill: #9EBE5A; opacity: 1.0; " d="M1183.8244081350038 224.81732872926412 C 1042.3997316158448 173.66372232871723 1063.4629813101874 104.45590190444784 1063.4629813101874 104.45590190444784 1063.4629813101874 104.45590190444784 1132.6708017344567 83.39265221010498 1183.8244081350038 224.81732872926412  Z" /><polygon points="666.1570247933882 405.0 1294.256198347107 405.0 1294.256198347107 41.36363636363649 666.1570247933882 41.36363636363649 " style="stroke: grey; fill-opacity: 0; " /><polygon points="666.1570247933885 405.0 996.7355371900824 405.0 996.7355371900824 41.36363636363649 666.1570247933885 41.36363636363649 " style="opacity: 0.2; fill: grey; " /><text x="980.2066115702478" style="font-family: monospace; text-anchor: middle; font-size: 26.446280991735534pt; " transform="rotate(-0.0, 980.2066115702478, 31.446280991735648)" y="31.446280991735648">Flower</text><text x="1347.1487603305782" style="font-family: monospace; text-anchor: start; font-size: 13.22314049586771pt; " transform="rotate(-0.0, 1347.1487603305782, 71.115702479339)" y="71.115702479339">struct Plant &#60;: Mark</text><text x="1373.5950413223136" style="font-family: monospace; text-anchor: start; font-size: 13.223140495867938pt; " transform="rotate(-0.0, 1373.5950413223136, 93.59504132231416)" y="93.59504132231416">    flower_heights::Vector&#123;Real&#125;</text><text x="1373.5950413223136" style="font-family: monospace; text-anchor: start; font-size: 13.223140495867938pt; " transform="rotate(-0.0, 1373.5950413223136, 116.07438016528931)" y="116.07438016528931">    flower_widths::Vector&#123;Real&#125;</text><text x="1373.5950413223136" style="font-family: monospace; text-anchor: start; font-size: 13.223140495867938pt; " transform="rotate(-0.0, 1373.5950413223136, 138.55371900826458)" y="138.55371900826458">    flower_colors::Vector&#123;String&#125;</text><text x="1373.5950413223136" style="font-family: monospace; text-anchor: start; font-size: 13.223140495867938pt; " transform="rotate(-0.0, 1373.5950413223136, 161.03305785123973)" y="161.03305785123973">    stem_height::Real</text><text x="1373.5950413223136" style="font-family: monospace; text-anchor: start; font-size: 13.223140495867938pt; " transform="rotate(-0.0, 1373.5950413223136, 183.51239669421494)" y="183.51239669421494">    stem_text::String</text><text x="1347.1487603305782" style="font-family: monospace; text-anchor: start; font-size: 13.22314049586771pt; " transform="rotate(-0.0, 1347.1487603305782, 205.99173553719015)" y="205.99173553719015">end</text><text x="1353.760330578512" style="font-family: monospace; text-anchor: start; font-size: 13.22314049586771pt; " transform="rotate(-0.0, 1353.760330578512, 228.47107438016533)" y="228.47107438016533"> </text><text x="1347.1487603305782" style="font-family: monospace; text-anchor: start; font-size: 13.22314049586771pt; " transform="rotate(-0.0, 1347.1487603305782, 250.95041322314054)" y="250.95041322314054">function ζ&#40;pl::Plant&#41;</text><text x="1373.5950413223136" style="font-family: monospace; text-anchor: start; font-size: 13.223140495867938pt; " transform="rotate(-0.0, 1373.5950413223136, 273.4297520661157)" y="273.4297520661157">    &#34;&#34;&#34;</text><text x="1373.5950413223136" style="font-family: monospace; text-anchor: start; font-size: 13.223140495867938pt; " transform="rotate(-0.0, 1373.5950413223136, 295.90909090909093)" y="295.90909090909093">    Compose flower and stem</text><text x="1373.5950413223136" style="font-family: monospace; text-anchor: start; font-size: 13.223140495867938pt; " transform="rotate(-0.0, 1373.5950413223136, 318.38842975206614)" y="318.38842975206614">    &#34;&#34;&#34;</text><text x="1373.5950413223136" style="font-family: monospace; text-anchor: start; font-size: 13.223140495867938pt; " transform="rotate(-0.0, 1373.5950413223136, 340.8677685950413)" y="340.8677685950413">    ...</text><text x="1347.1487603305782" style="font-family: monospace; text-anchor: start; font-size: 13.22314049586771pt; " transform="rotate(-0.0, 1347.1487603305782, 363.34710743801656)" y="363.34710743801656">end</text><text x="1347.1487603305782" style="font-family: monospace; text-anchor: start; font-size: 13.22314049586771pt; " transform="rotate(-0.0, 1347.1487603305782, 71.115702479339)" y="71.115702479339"></text><polygon points="1822.5113776212204 387.1765351580992 1829.1229478691541 387.1765351580992 1829.1229478691541 122.713725240744 1822.5113776212204 122.713725240744 " style="" /><path style="stroke: nothing; fill: #B4BD4C; opacity: 1.0; " d="M1825.8171627451873 122.71372524074394 C 1801.994678731985 71.8924260125786 1825.8171627451873 59.18710120553726 1825.8171627451873 59.18710120553726 1825.8171627451873 59.18710120553726 1849.6396467583897 71.8924260125786 1825.8171627451873 122.71372524074394  Z" /><path style="stroke: nothing; fill: #E39C39; opacity: 1.0; " d="M1825.8171627451873 122.71372524074394 C 1835.4867283597475 95.98022030637111 1848.5690818382707 99.9618061476607 1848.5690818382707 99.9618061476607 1848.5690818382707 99.9618061476607 1852.5506676795603 113.0441596261835 1825.8171627451873 122.71372524074394  Z" /><path style="stroke: nothing; fill: #E69237; opacity: 1.0; " d="M1825.8171627451873 122.71372524074394 C 1859.8071225515882 106.78093158149363 1868.304612503188 122.71372524074394 1868.304612503188 122.71372524074394 1868.304612503188 122.71372524074394 1859.8071225515882 138.6465188999942 1825.8171627451873 122.71372524074394  Z" /><path style="stroke: nothing; fill: #E68033; opacity: 1.0; " d="M1825.8171627451873 122.71372524074394 C 1854.986037543924 133.26416931688277 1850.6417370419847 147.5382995375412 1850.6417370419847 147.5382995375412 1850.6417370419847 147.5382995375412 1836.3676068213263 151.88260003948074 1825.8171627451873 122.71372524074394  Z" /><path style="stroke: nothing; fill: #559FB0; opacity: 1.0; " d="M1825.8171627451873 122.71372524074394 C 1849.0263303030977 172.2266160309525 1825.8171627451873 184.60483872850466 1825.8171627451873 184.60483872850466 1825.8171627451873 184.60483872850466 1802.607995187277 172.22661603095253 1825.8171627451873 122.71372524074394  Z" /><path style="stroke: nothing; fill: #4334BE; opacity: 1.0; " d="M1825.8171627451873 122.71372524074394 C 1807.656576717087 172.92240425961026 1783.086372090833 165.44451589509825 1783.086372090833 165.44451589509825 1783.086372090833 165.44451589509825 1775.6084837263209 140.8743112688445 1825.8171627451873 122.71372524074394  Z" /><path style="stroke: nothing; fill: #81BA72; opacity: 1.0; " d="M1825.8171627451873 122.71372524074394 C 1761.1643706456596 153.01972153739757 1745.0011726207777 122.713725240744 1745.0011726207777 122.713725240744 1745.0011726207777 122.713725240744 1761.1643706456596 92.40772894409025 1825.8171627451873 122.71372524074394  Z" /><path style="stroke: nothing; fill: #9EBE5A; opacity: 1.0; " d="M1825.8171627451873 122.71372524074394 C 1755.1048244856077 97.1369220404705 1765.6364493327792 62.5330118283357 1765.6364493327792 62.5330118283357 1765.6364493327792 62.5330118283357 1800.2403595449139 52.00138698116433 1825.8171627451873 122.71372524074394  Z" /><polygon points="1805.9824520013854 327.0889685644131 1845.6518734889892 327.0889685644131 1845.6518734889892 204.43954947230637 1805.9824520013854 204.43954947230637 " style="fill: white; " /><text x="1845.6518734889892" style="text-anchor: middle; font-size: 39.669421487603245pt; " transform="rotate(-90.0, 1845.6518734889892, 265.7642590183597)" y="265.7642590183597">Text</text><polygon points="1327.3140495867765 405.0 1955.4132231404951 405.0 1955.4132231404951 41.36363636363649 1327.3140495867765 41.36363636363649 " style="stroke: grey; fill-opacity: 0; " /><polygon points="1327.3140495867765 405.0 1707.4793388429744 405.0 1707.4793388429744 41.36363636363649 1327.3140495867765 41.36363636363649 " style="opacity: 0.2; fill: grey; " /><text x="1641.363636363636" style="font-family: monospace; text-anchor: middle; font-size: 26.446280991735648pt; " transform="rotate(-0.0, 1641.363636363636, 31.446280991735648)" y="31.446280991735648">Plant</text></svg>