<svg height="310" viewBox="0 0 1001.7355371900825 310" width="1001.7355371900825" xmlns="http://www.w3.org/2000/svg" version="1.1"><text x="29.7933884297521" style="font-family: JuliaMono; text-anchor: start; font-size: 9.91735537190084pt; " transform="rotate(-0.0, 29.7933884297521, 66.98347107438019)" y="66.98347107438019">struct Petal &#60;: Mark</text><text x="49.62809917355378" style="font-family: JuliaMono; text-anchor: start; font-size: 9.91735537190084pt; " transform="rotate(-0.0, 49.62809917355378, 83.84297520661158)" y="83.84297520661158">    height::Real</text><text x="49.62809917355378" style="font-family: JuliaMono; text-anchor: start; font-size: 9.91735537190084pt; " transform="rotate(-0.0, 49.62809917355378, 100.702479338843)" y="100.702479338843">    width::Real</text><text x="49.62809917355378" style="font-family: JuliaMono; text-anchor: start; font-size: 9.91735537190084pt; " transform="rotate(-0.0, 49.62809917355378, 117.5619834710744)" y="117.5619834710744">    color::String</text><text x="29.7933884297521" style="font-family: JuliaMono; text-anchor: start; font-size: 9.91735537190084pt; " transform="rotate(-0.0, 29.7933884297521, 134.4214876033058)" y="134.4214876033058">end</text><text x="34.75206611570252" style="font-family: JuliaMono; text-anchor: start; font-size: 9.91735537190084pt; " transform="rotate(-0.0, 34.75206611570252, 151.28099173553719)" y="151.28099173553719"> </text><text x="29.7933884297521" style="font-family: JuliaMono; text-anchor: start; font-size: 9.91735537190084pt; " transform="rotate(-0.0, 29.7933884297521, 168.1404958677686)" y="168.1404958677686">function θ&#40;p::Petal&#41;</text><text x="49.62809917355378" style="font-family: JuliaMono; text-anchor: start; font-size: 9.91735537190084pt; " transform="rotate(-0.0, 49.62809917355378, 185.0)" y="185.0">    return η&#40;&#91;Prim&#40;</text><text x="69.46280991735539" style="font-family: JuliaMono; text-anchor: start; font-size: 9.917355371900811pt; " transform="rotate(-0.0, 69.46280991735539, 201.85950413223142)" y="201.85950413223142">        BezierPolygon&#40;...&#41;,</text><text x="69.46280991735539" style="font-family: JuliaMono; text-anchor: start; font-size: 9.917355371900811pt; " transform="rotate(-0.0, 69.46280991735539, 218.71900826446281)" y="218.71900826446281">        Dict&#40;:fill&#61;&#62;p.color&#41;</text><text x="49.62809917355378" style="font-family: JuliaMono; text-anchor: start; font-size: 9.91735537190084pt; " transform="rotate(-0.0, 49.62809917355378, 235.57851239669424)" y="235.57851239669424">    &#41;&#93;&#41;</text><text x="29.7933884297521" style="font-family: JuliaMono; text-anchor: start; font-size: 9.91735537190084pt; " transform="rotate(-0.0, 29.7933884297521, 252.43801652892563)" y="252.43801652892563">end</text><text x="29.7933884297521" style="font-family: JuliaMono; text-anchor: start; font-size: 9.91735537190084pt; " transform="rotate(-0.0, 29.7933884297521, 66.98347107438019)" y="66.98347107438019"></text><path style="stroke: nothing; fill: steelblue; opacity: 0.5; " d="M 364.504132231405 292.60330578512395 C 240.53719008264466 94.25619834710744 364.504132231405 44.66942148760336 364.504132231405 44.66942148760336 364.504132231405 44.66942148760336 488.4710743801653 94.25619834710744 364.504132231405 292.60330578512395 C 364.504132231405 292.60330578512395 364.504132231405 292.60330578512395 364.504132231405 292.60330578512395  Z" /><polygon points="5.000000000000028 305.0 476.0743801652892 305.0 476.0743801652892 32.27272727272731 5.000000000000028 32.27272727272731 " style="stroke: grey; fill-opacity: 0; " /><polygon points="5.000000000000071 305.0 252.9338842975207 305.0 252.93388429752068 32.27272727272731 5.000000000000043 32.27272727272731 " style="opacity: 0.2; fill: grey; " /><text x="240.5371900826447" style="font-family: JuliaMono; text-anchor: middle; font-size: 19.83471074380168pt; " transform="rotate(-0.0, 240.5371900826447, 24.83471074380168)" y="24.83471074380168">Petal</text><text x="550.4545454545454" style="font-family: JuliaMono; text-anchor: start; font-size: 9.91735537190084pt; " transform="rotate(-0.0, 550.4545454545454, 66.98347107438019)" y="66.98347107438019">struct Flower &#60;: Mark</text><text x="570.2892561983471" style="font-family: JuliaMono; text-anchor: start; font-size: 9.91735537190084pt; " transform="rotate(-0.0, 570.2892561983471, 83.84297520661158)" y="83.84297520661158">    heights::Vector&#123;Real&#125;</text><text x="570.2892561983471" style="font-family: JuliaMono; text-anchor: start; font-size: 9.91735537190084pt; " transform="rotate(-0.0, 570.2892561983471, 100.702479338843)" y="100.702479338843">    widths::Vector&#123;Real&#125;</text><text x="570.2892561983471" style="font-family: JuliaMono; text-anchor: start; font-size: 9.91735537190084pt; " transform="rotate(-0.0, 570.2892561983471, 117.5619834710744)" y="117.5619834710744">    colors::Vector&#123;String&#125;</text><text x="550.4545454545454" style="font-family: JuliaMono; text-anchor: start; font-size: 9.91735537190084pt; " transform="rotate(-0.0, 550.4545454545454, 134.4214876033058)" y="134.4214876033058">end</text><text x="555.4132231404959" style="font-family: JuliaMono; text-anchor: start; font-size: 9.91735537190084pt; " transform="rotate(-0.0, 555.4132231404959, 151.28099173553719)" y="151.28099173553719"> </text><text x="550.4545454545454" style="font-family: JuliaMono; text-anchor: start; font-size: 9.91735537190084pt; " transform="rotate(-0.0, 550.4545454545454, 168.1404958677686)" y="168.1404958677686">function ζ&#40;fl::Flower&#41;</text><text x="570.2892561983471" style="font-family: JuliaMono; text-anchor: start; font-size: 9.91735537190084pt; " transform="rotate(-0.0, 570.2892561983471, 185.0)" y="185.0">    &#34;&#34;&#34;</text><text x="570.2892561983471" style="font-family: JuliaMono; text-anchor: start; font-size: 9.91735537190084pt; " transform="rotate(-0.0, 570.2892561983471, 201.85950413223142)" y="201.85950413223142">    Create petals and</text><text x="570.2892561983471" style="font-family: JuliaMono; text-anchor: start; font-size: 9.91735537190084pt; " transform="rotate(-0.0, 570.2892561983471, 218.71900826446281)" y="218.71900826446281">    apply rotations.</text><text x="570.2892561983471" style="font-family: JuliaMono; text-anchor: start; font-size: 9.91735537190084pt; " transform="rotate(-0.0, 570.2892561983471, 235.57851239669424)" y="235.57851239669424">    &#34;&#34;&#34;</text><text x="570.2892561983471" style="font-family: JuliaMono; text-anchor: start; font-size: 9.91735537190084pt; " transform="rotate(-0.0, 570.2892561983471, 252.43801652892563)" y="252.43801652892563">    ...</text><text x="550.4545454545454" style="font-family: JuliaMono; text-anchor: start; font-size: 9.91735537190084pt; " transform="rotate(-0.0, 550.4545454545454, 269.297520661157)" y="269.297520661157">end</text><text x="550.4545454545454" style="font-family: JuliaMono; text-anchor: start; font-size: 9.91735537190084pt; " transform="rotate(-0.0, 550.4545454545454, 66.98347107438019)" y="66.98347107438019"></text><path style="stroke: nothing; fill: #B4BD4C; opacity: 1.0; " d="M 913.911694531005 169.86299654694807 C 878.1779685112012 93.63104770470005 913.911694531005 74.57306049413808 913.911694531005 74.57306049413808 913.911694531005 74.57306049413808 949.6454205508089 93.63104770470005 913.911694531005 169.86299654694807 C 913.911694531005 169.86299654694807 913.911694531005 169.86299654694807 913.911694531005 169.86299654694807  Z" /><path style="stroke: nothing; fill: #E39C39; opacity: 1.0; " d="M 913.911694531005 169.86299654694807 C 928.4160429528456 129.76273914538885 948.0395731706299 135.73511790732317 948.0395731706299 135.73511790732317 948.0395731706299 135.73511790732317 954.0119519325642 155.3586481251075 913.911694531005 169.86299654694807 C 913.911694531005 169.86299654694807 913.911694531005 169.86299654694807 913.911694531005 169.86299654694807  Z" /><path style="stroke: nothing; fill: #E69237; opacity: 1.0; " d="M 913.911694531005 169.86299654694807 C 964.8966342406059 145.96380605807263 977.6428691680062 169.86299654694807 977.6428691680062 169.86299654694807 977.6428691680062 169.86299654694807 964.8966342406059 193.7621870358235 913.911694531005 169.86299654694807 C 913.911694531005 169.86299654694807 913.911694531005 169.86299654694807 913.911694531005 169.86299654694807  Z" /><path style="stroke: nothing; fill: #E68033; opacity: 1.0; " d="M 913.911694531005 169.86299654694807 C 957.6650067291102 185.68866266115634 951.1485559762009 207.099857992144 951.1485559762009 207.099857992144 951.1485559762009 207.099857992144 929.7373606452134 213.6163087450533 913.911694531005 169.86299654694807 C 913.911694531005 169.86299654694807 913.911694531005 169.86299654694807 913.911694531005 169.86299654694807  Z" /><path style="stroke: nothing; fill: #559FB0; opacity: 1.0; " d="M 913.911694531005 169.86299654694807 C 948.7254458678703 244.13233273226098 913.911694531005 262.69966677858923 913.911694531005 262.69966677858923 913.911694531005 262.69966677858923 879.0979431941396 244.13233273226103 913.911694531005 169.86299654694807 C 913.911694531005 169.86299654694807 913.911694531005 169.86299654694807 913.911694531005 169.86299654694807  Z" /><path style="stroke: nothing; fill: #4334BE; opacity: 1.0; " d="M 913.911694531005 169.86299654694807 C 886.670815488854 245.1760150752476 849.8155085494734 233.95918252847957 849.8155085494734 233.95918252847957 849.8155085494734 233.95918252847957 838.5986760027056 197.10387558909898 913.911694531005 169.86299654694807 C 913.911694531005 169.86299654694807 913.911694531005 169.86299654694807 913.911694531005 169.86299654694807  Z" /><path style="stroke: nothing; fill: #81BA72; opacity: 1.0; " d="M 913.911694531005 169.86299654694807 C 816.9325063817134 215.3219909919286 792.6877093443902 169.8629965469481 792.6877093443902 169.8629965469481 792.6877093443902 169.8629965469481 816.9325063817132 124.40400210196759 913.911694531005 169.86299654694807 C 913.911694531005 169.86299654694807 913.911694531005 169.86299654694807 913.911694531005 169.86299654694807  Z" /><path style="stroke: nothing; fill: #9EBE5A; opacity: 1.0; " d="M 913.911694531005 169.86299654694807 C 807.8431871416356 131.49779174653787 823.6406244123928 79.59192642833582 823.6406244123928 79.59192642833582 823.6406244123928 79.59192642833582 875.5464897305947 63.79448915757865 913.911694531005 169.86299654694807 C 913.911694531005 169.86299654694807 913.911694531005 169.86299654694807 913.911694531005 169.86299654694807  Z" /><polygon points="525.6611570247933 305.0 996.7355371900826 305.0 996.7355371900826 32.27272727272731 525.6611570247933 32.27272727272731 " style="stroke: grey; fill-opacity: 0; " /><polygon points="525.6611570247933 305.0 773.595041322314 305.0 773.595041322314 32.27272727272731 525.6611570247933 32.27272727272731 " style="opacity: 0.2; fill: grey; " /><text x="761.1983471074379" style="font-family: JuliaMono; text-anchor: middle; font-size: 19.834710743801566pt; " transform="rotate(-0.0, 761.1983471074379, 24.83471074380168)" y="24.83471074380168">Flower</text></svg>