<svg height="310" viewBox="0 0 693.3050642112916 310" width="693.3050642112916" xmlns="http://www.w3.org/2000/svg" version="1.1"><polygon points="5.559997846162162 163.46862127453355 223.63608216891478 163.46862127453355 223.63608216891478 18.084565059365104 5.559997846162162 18.084565059365104 " style="stroke: black; fill: white; " /><text x="114.59804000753847" style="font-family: Courier New; text-anchor: middle; font-size: 8.723043372910098pt; " transform="rotate(-0.0, 114.59804000753847, 13.723043372910126)" y="13.723043372910126">Specification</text><polygon points="12.829200656920591 152.56481705839593 216.36687935815638 152.56481705839593 216.36687935815638 28.988369275502805 12.829200656920591 28.988369275502805 " style="fill: grey; opacity: 0.2; " /><text x="17.190722343375654" style="font-family: Courier New; text-anchor: start; font-size: 6.396898473467388pt; " transform="rotate(-0.0, 17.190722343375654, 50.359825539132544)" y="50.359825539132544">Plot&#40;</text><text x="29.984519290310487" style="font-family: Courier New; text-anchor: start; font-size: 6.396898473467388pt; " transform="rotate(-0.0, 29.984519290310487, 61.23455294402714)" y="61.23455294402714">    data &#61; df,</text><text x="29.984519290310487" style="font-family: Courier New; text-anchor: start; font-size: 6.396898473467388pt; " transform="rotate(-0.0, 29.984519290310487, 72.10928034892174)" y="72.10928034892174">    encodings&#61;&#40;</text><text x="42.77831623724529" style="font-family: Courier New; text-anchor: start; font-size: 6.396898473467445pt; " transform="rotate(-0.0, 42.77831623724529, 82.98400775381634)" y="82.98400775381634">        x&#61;&#40;field&#61;:col_1,datatype&#61;:q&#41;,</text><text x="42.77831623724529" style="font-family: Courier New; text-anchor: start; font-size: 6.396898473467445pt; " transform="rotate(-0.0, 42.77831623724529, 93.85873515871094)" y="93.85873515871094">        y&#61;&#40;field&#61;:col_2,datatype&#61;:q&#41;,</text><text x="42.77831623724529" style="font-family: Courier New; text-anchor: start; font-size: 6.396898473467445pt; " transform="rotate(-0.0, 42.77831623724529, 104.73346256360551)" y="104.73346256360551">        color&#61;&#40;field&#61;:col_2,datatype&#61;:n&#41;,</text><text x="29.984519290310487" style="font-family: Courier New; text-anchor: start; font-size: 6.396898473467388pt; " transform="rotate(-0.0, 29.984519290310487, 115.60818996850014)" y="115.60818996850014">    &#41;,</text><text x="29.984519290310487" style="font-family: Courier New; text-anchor: start; font-size: 6.396898473467388pt; " transform="rotate(-0.0, 29.984519290310487, 126.48291737339474)" y="126.48291737339474">    ...</text><text x="17.190722343375654" style="font-family: Courier New; text-anchor: start; font-size: 6.396898473467388pt; " transform="rotate(-0.0, 17.190722343375654, 137.3576447782893)" y="137.3576447782893">&#41;</text><text x="17.190722343375654" style="font-family: Courier New; text-anchor: start; font-size: 6.396898473467388pt; " transform="rotate(-0.0, 17.190722343375654, 50.359825539132544)" y="50.359825539132544"></text><polygon points="237.05449209810723 163.46862127453355 455.1305764208599 163.46862127453355 455.1305764208599 18.084565059365104 237.05449209810723 18.084565059365104 " style="stroke: black; fill: white; " /><text x="346.0925342594836" style="font-family: Courier New; text-anchor: middle; font-size: 8.723043372910126pt; " transform="rotate(-0.0, 346.0925342594836, 13.723043372910126)" y="13.723043372910126">Assembly</text><circle cy="38.43833292948875" style="stroke: black; fill: white; " r="3.9253695178095143" cx="356.2694181945453" /><polyline points="349.7271356648628 42.363702447298294 336.6425706054976 55.448267506663456 " style="stroke: black; fill: none; " /><polygon points="335.2547429031446 56.83609520901649 337.44383330304004 56.24953020420588 335.84130790795535 54.647004809121114 " style="" /><polyline points="362.81170072422793 42.363702447298294 375.8962657835931 55.448267506663456 " style="stroke: black; fill: none; " /><polygon points="377.28409348594613 56.83609520901649 376.6975284811354 54.64700480912114 375.0950030860508 56.249530204205854 " style="" /><text x="382.4385483132757" style="font-family: Courier New; text-anchor: middle; font-size: 5.8880542767143424pt; " transform="rotate(-0.0, 382.4385483132757, 67.55149018657622)" y="67.55149018657622">Circles</text><circle cy="64.60746304821905" style="stroke: black; fill: white; " r="3.9253695178095427" cx="330.10028807581506" /><polyline points="323.55800554613245 68.53283256602862 310.4734404867673 81.61739762539375 " style="stroke: black; fill: none; " /><polygon points="309.08561278441425 83.00522532774681 311.27470318430954 82.41866032293603 309.67217778922486 80.81613492785144 " style="" /><polyline points="336.6425706054976 68.53283256602862 349.7271356648628 81.61739762539375 " style="stroke: black; fill: none; " /><polygon points="351.1149633672158 83.00522532774681 350.52839836240514 80.81613492785138 348.9258729673204 82.41866032293609 " style="" /><circle cy="90.77659316694937" style="stroke: black; fill: white; " r="3.9253695178095143" cx="356.2694181945453" /><polyline points="349.7271356648628 94.70196268475891 336.6425706054976 107.78652774412404 " style="stroke: black; fill: none; " /><polygon points="335.2547429031446 109.17435544647714 337.44383330304 108.58779044166641 335.84130790795524 106.9852650465817 " style="" /><polyline points="362.81170072422793 94.70196268475891 375.8962657835931 107.78652774412407 " style="stroke: black; fill: none; " /><polygon points="377.28409348594613 109.17435544647714 376.69752848113546 106.9852650465817 375.0950030860507 108.58779044166641 " style="" /><text x="382.4385483132757" style="font-family: Courier New; text-anchor: middle; font-size: 5.8880542767143424pt; " transform="rotate(-0.0, 382.4385483132757, 119.88975042403683)" y="119.88975042403683">Title</text><circle cy="116.94572328567969" style="stroke: black; fill: white; " r="3.9253695178095427" cx="330.10028807581506" /><polyline points="323.55800554613245 120.8710928034892 310.4734404867673 133.9556578628544 " style="stroke: black; fill: none; " /><polygon points="309.08561278441425 135.34348556520743 311.27470318430954 134.75692056039668 309.67217778922486 133.1543951653121 " style="" /><polyline points="336.6425706054976 120.8710928034892 349.7271356648628 133.9556578628544 " style="stroke: black; fill: none; " /><polygon points="351.1149633672158 135.34348556520743 350.52839836240514 133.15439516531205 348.9258729673204 134.75692056039674 " style="" /><text x="356.2694181945454" style="font-family: Courier New; text-anchor: middle; font-size: 5.8880542767143424pt; " transform="rotate(-0.0, 356.2694181945454, 146.05888054276716)" y="146.05888054276716">XAxis</text><text x="303.93115795708474" style="font-family: Courier New; text-anchor: middle; font-size: 5.8880542767143424pt; " transform="rotate(-0.0, 303.93115795708474, 146.05888054276716)" y="146.05888054276716">YAxis</text><text x="303.93115795708474" style="font-family: Courier New; text-anchor: middle; font-size: 5.8880542767143424pt; " transform="rotate(-0.0, 303.93115795708474, 93.72062030530651)" y="93.72062030530651">Frame</text><polygon points="469.66898204237674 163.46862127453355 687.7450663651293 163.46862127453355 687.7450663651293 18.084565059365104 469.6689820423767 18.084565059365104 " style="stroke: black; fill: white; " /><text x="578.707024203753" style="font-family: Courier New; text-anchor: middle; font-size: 8.723043372910183pt; " transform="rotate(-0.0, 578.707024203753, 13.723043372910126)" y="13.723043372910126">Display</text><polygon points="505.0834612174569 142.31524109522655 657.7367202433836 142.31524109522655 657.7367202433836 40.546401744608715 505.0834612174569 40.546401744608715 " style="stroke: lightgrey; fill: white; fill-opacity: 0; " /><polyline points="505.08346121745683 142.31524109522658 657.7367202433836 142.31524109522658 " style="stroke: black; fill: none; " /><polygon points="504.8290391190803 144.35061788223894 505.3378833158334 144.35061788223894 505.3378833158334 142.31524109522658 504.8290391190803 142.31524109522658 " style="" /><text x="505.0834612174569" style="text-anchor: middle; font-size: 3.561909377271718pt; " transform="rotate(-0.0, 505.0834612174569, 148.93021565301672)" y="148.93021565301672">0.00</text><polygon points="542.9923538755618 144.35061788223894 543.501198072315 144.35061788223894 543.501198072315 142.31524109522658 542.9923538755618 142.31524109522658 " style="" /><text x="543.2467759739386" style="text-anchor: middle; font-size: 3.561909377271718pt; " transform="rotate(-0.0, 543.2467759739386, 148.93021565301672)" y="148.93021565301672">0.25</text><polygon points="581.1556686320437 144.35061788223894 581.6645128287969 144.35061788223894 581.6645128287969 142.31524109522658 581.1556686320437 142.31524109522658 " style="" /><text x="581.4100907304203" style="text-anchor: middle; font-size: 3.561909377271604pt; " transform="rotate(-0.0, 581.4100907304203, 148.93021565301672)" y="148.93021565301672">0.50</text><polygon points="619.3189833885253 144.35061788223894 619.8278275852786 144.35061788223894 619.8278275852786 142.31524109522658 619.3189833885253 142.31524109522658 " style="" /><text x="619.573405486902" style="text-anchor: middle; font-size: 3.561909377271604pt; " transform="rotate(-0.0, 619.573405486902, 148.93021565301672)" y="148.93021565301672">0.75</text><polygon points="657.482298145007 144.35061788223894 657.9911423417602 144.35061788223894 657.9911423417602 142.31524109522658 657.482298145007 142.31524109522658 " style="" /><text x="657.7367202433836" style="text-anchor: middle; font-size: 3.561909377271718pt; " transform="rotate(-0.0, 657.7367202433836, 148.93021565301672)" y="148.93021565301672">1.00</text><text x="581.4100907304203" style="text-anchor: middle; font-size: 5.088441967530798pt; " transform="rotate(-0.0, 581.4100907304203, 159.10709958807854)" y="159.10709958807854">x</text><polyline points="505.08346121745683 142.31524109522658 505.08346121745683 40.546401744608715 " style="stroke: black; fill: none; " /><polygon points="505.08346121745683 142.5696631936031 505.08346121745683 142.06081899685003 503.0480844304444 142.06081899685003 503.0480844304444 142.5696631936031 " style="" /><text x="502.03039603693827" style="text-anchor: end; font-size: 3.561909377271718pt; " transform="rotate(-0.0, 502.03039603693827, 144.09619578386238)" y="144.09619578386238">0.00</text><polygon points="505.08346121745683 117.12745335594866 505.08346121745683 116.61860915919559 503.0480844304444 116.61860915919559 503.0480844304444 117.12745335594866 " style="" /><text x="502.03039603693827" style="text-anchor: end; font-size: 3.561909377271718pt; " transform="rotate(-0.0, 502.03039603693827, 118.65398594620791)" y="118.65398594620791">0.25</text><polygon points="505.08346121745683 91.68524351829419 505.08346121745683 91.17639932154108 503.0480844304444 91.17639932154108 503.0480844304444 91.68524351829419 " style="" /><text x="502.03039603693827" style="text-anchor: end; font-size: 3.561909377271718pt; " transform="rotate(-0.0, 502.03039603693827, 93.21177610855344)" y="93.21177610855344">0.50</text><polygon points="505.08346121745683 66.24303368063971 505.08346121745683 65.73418948388661 503.0480844304444 65.73418948388661 503.0480844304444 66.24303368063971 " style="" /><text x="502.03039603693827" style="text-anchor: end; font-size: 3.561909377271718pt; " transform="rotate(-0.0, 502.03039603693827, 67.76956627089896)" y="67.76956627089896">0.75</text><polygon points="505.08346121745683 40.80082384298527 505.08346121745683 40.291979646232164 503.04808443044453 40.291979646232164 503.04808443044453 40.80082384298527 " style="" /><text x="502.03039603693827" style="text-anchor: end; font-size: 3.561909377271718pt; " transform="rotate(-0.0, 502.03039603693827, 42.32735643324452)" y="42.32735643324452">1.00</text><text x="486.38814850712106" style="text-anchor: middle; font-size: 5.088441967530883pt; " transform="rotate(-90.0, 486.38814850712106, 91.4308214199176)" y="91.4308214199176">y</text><text x="505.0834612174569" style="font-family: Helvetica; text-anchor: start; font-size: 6.614974557790106pt; " transform="rotate(-0.0, 505.0834612174569, 33.677005088442)" y="33.677005088442">Title</text><circle cy="74.43398417962894" style="stroke: black; fill-opacity: 0; " r="2.0353767870122965" cx="629.9057083557458" /><circle cy="107.1827472696038" style="stroke: black; fill-opacity: 0; " r="2.0353767870123534" cx="592.5585843929143" /><circle cy="122.51735755289445" style="stroke: black; fill-opacity: 0; " r="2.0353767870123534" cx="529.5641327904239" /><circle cy="56.21659782646063" style="stroke: black; fill-opacity: 0; " r="2.0353767870123534" cx="631.9958480912412" /><circle cy="101.13481839050911" style="stroke: black; fill-opacity: 0; " r="2.0353767870123534" cx="538.4478075970756" /><text x="178.73394717712625" style="font-family: Courier New; text-anchor: middle; font-size: 5.597286164283986pt; " transform="rotate(-0.0, 178.73394717712625, 198.14271868185125)" y="198.14271868185125">Graphic â‰… ğ•‹ Mark</text><polygon points="127.8495275018173 305.0 229.6183668524352 305.0 229.6183668524352 203.2311606493821 127.8495275018173 203.2311606493821 " style="stroke: grey; fill-opacity: 0; " /><circle cy="213.4080445844439" style="stroke: black; fill: white; " r="3.05306518051853" cx="186.8754543251757" /><polyline points="181.78701235764478 216.46110976496246 171.610128422583 226.63799370002425 " style="stroke: black; fill: none; " /><polygon points="170.53070687630841 227.71741524629886 172.23333274289377 227.26119802033497 170.98692410227233 226.0147893797135 " style="" /><polyline points="191.96389629270658 216.46110976496246 202.14078022776837 226.63799370002425 " style="stroke: black; fill: none; " /><polygon points="203.22020177404295 227.71741524629886 202.76398454807912 226.0147893797136 201.51757590745768 227.26119802033497 " style="" /><text x="207.2292221952993" style="font-family: Courier New; text-anchor: middle; font-size: 4.579597770777809pt; " transform="rotate(-0.0, 207.2292221952993, 236.0516113399564)" y="236.0516113399564">Circles</text><circle cy="233.7618124545675" style="stroke: black; fill: white; " r="3.05306518051853" cx="166.5216864550521" /><polyline points="161.43324448752122 236.81487763508605 151.25636055245943 246.99176157014782 " style="stroke: black; fill: none; " /><polygon points="150.17693900618482 248.07118311642242 151.8795648727702 247.61496589045854 150.63315623214874 246.36855724983707 " style="" /><polyline points="171.610128422583 236.81487763508605 181.78701235764478 246.99176157014782 " style="stroke: black; fill: none; " /><polygon points="182.8664339039194 248.07118311642242 182.41021667795556 246.36855724983712 181.16380803733412 247.6149658904585 " style="" /><circle cy="254.11558032469108" style="stroke: black; fill: white; " r="3.05306518051853" cx="186.8754543251757" /><polyline points="181.78701235764478 257.1686455052096 171.610128422583 267.3455294402714 " style="stroke: black; fill: none; " /><polygon points="170.53070687630841 268.42495098654604 172.2333327428938 267.96873376058215 170.98692410227233 266.72232511996066 " style="" /><polyline points="191.96389629270658 257.1686455052096 202.14078022776837 267.34552944027143 " style="stroke: black; fill: none; " /><polygon points="203.22020177404295 268.42495098654604 202.7639845480791 266.72232511996066 201.51757590745763 267.9687337605821 " style="" /><text x="207.22922219529926" style="font-family: Courier New; text-anchor: middle; font-size: 4.579597770777752pt; " transform="rotate(-0.0, 207.22922219529926, 276.75914708020355)" y="276.75914708020355">Title</text><circle cy="274.46934819481464" style="stroke: black; fill: white; " r="3.05306518051853" cx="166.5216864550521" /><polyline points="161.43324448752122 277.52241337533314 151.25636055245943 287.69929731039497 " style="stroke: black; fill: none; " /><polygon points="150.17693900618482 288.77871885666957 151.8795648727702 288.3225016307057 150.6331562321487 287.0760929900842 " style="" /><polyline points="171.610128422583 277.52241337533314 181.78701235764478 287.69929731039497 " style="stroke: black; fill: none; " /><polygon points="182.8664339039194 288.77871885666957 182.4102166779555 287.07609299008436 181.16380803733418 288.32250163070574 " style="" /><text x="186.87545432517567" style="font-family: Courier New; text-anchor: middle; font-size: 4.579597770777781pt; " transform="rotate(-0.0, 186.87545432517567, 297.11291495032714)" y="297.11291495032714">XAxis</text><text x="146.16791858492857" style="font-family: Courier New; text-anchor: middle; font-size: 4.579597770777752pt; " transform="rotate(-0.0, 146.16791858492857, 297.11291495032714)" y="297.11291495032714">YAxis</text><text x="146.16791858492857" style="font-family: Courier New; text-anchor: middle; font-size: 4.579597770777752pt; " transform="rotate(-0.0, 146.16791858492857, 256.40537921008)" y="256.40537921008">Frame</text><text x="290.6796704628059" style="font-family: Courier New; text-anchor: middle; font-size: 5.5972861642839575pt; " transform="rotate(-0.0, 290.6796704628059, 198.14271868185125)" y="198.14271868185125">Marks â‰… &#40;Type, Î¸&#41;</text><polygon points="239.79525078749697 305.0 341.56409013811486 305.0 341.56409013811486 203.2311606493821 239.79525078749697 203.2311606493821 " style="stroke: grey; fill-opacity: 0; " /><text x="290.6796704628059" style="font-family: Courier New; text-anchor: middle; font-size: 4.07075357402465pt; " transform="rotate(-0.0, 290.6796704628059, 215.44342137145628)" y="215.44342137145628">&#40;XAxis, Î¸&#41;</text><polygon points="244.88369275502785 289.7346740974073 336.475648170584 289.7346740974073 336.475648170584 218.4964865519748 244.88369275502785 218.4964865519748 " style="fill: grey; opacity: 0.2; " /><text x="248.95444632905262" style="font-family: Courier New; text-anchor: start; font-size: 4.070753574024764pt; fill: black; " transform="rotate(-0.0, 248.95444632905262, 229.69105888054278)" y="229.69105888054278">struct XAxis &#60;: Mark</text><text x="257.09595347710206" style="font-family: Courier New; text-anchor: start; font-size: 4.070753574024735pt; fill: black; " transform="rotate(-0.0, 257.09595347710206, 236.6113399563848)" y="236.6113399563848">    axis_ticks</text><text x="257.09595347710206" style="font-family: Courier New; text-anchor: start; font-size: 4.070753574024735pt; fill: black; " transform="rotate(-0.0, 257.09595347710206, 243.5316210322268)" y="243.5316210322268">    axis_title</text><text x="257.09595347710206" style="font-family: Courier New; text-anchor: start; font-size: 4.070753574024735pt; fill: black; " transform="rotate(-0.0, 257.09595347710206, 250.45190210806885)" y="250.45190210806885">    axis_length</text><text x="257.09595347710206" style="font-family: Courier New; text-anchor: start; font-size: 4.070753574024735pt; fill: black; " transform="rotate(-0.0, 257.09595347710206, 257.37218318391086)" y="257.37218318391086">    ...</text><text x="248.95444632905262" style="font-family: Courier New; text-anchor: start; font-size: 4.070753574024764pt; fill: black; " transform="rotate(-0.0, 248.95444632905262, 264.2924642597528)" y="264.2924642597528">end</text><text x="250.989823116065" style="font-family: Courier New; text-anchor: start; font-size: 4.070753574024735pt; fill: black; " transform="rotate(-0.0, 250.989823116065, 271.2127453355949)" y="271.2127453355949"> </text><text x="248.95444632905262" style="font-family: Courier New; text-anchor: start; font-size: 4.070753574024764pt; fill: black; " transform="rotate(-0.0, 248.95444632905262, 278.1330264114369)" y="278.1330264114369">Î¸&#40;x::XAxis&#41;::ğ•‹&#91;Prim&#93; &#61; ...</text><text x="248.95444632905262" style="font-family: Courier New; text-anchor: start; font-size: 4.070753574024764pt; fill: black; " transform="rotate(-0.0, 248.95444632905262, 229.69105888054278)" y="229.69105888054278"></text><text x="402.62539374848564" style="font-family: Courier New; text-anchor: middle; font-size: 5.5972861642839575pt; " transform="rotate(-0.0, 402.62539374848564, 198.14271868185125)" y="198.14271868185125">Diagram Tree â‰… ğ•‹&#91;Prim&#93;</text><polygon points="351.74097407317663 305.0 453.5098134237945 305.0 453.5098134237945 203.2311606493821 351.74097407317663 203.2311606493821 " style="stroke: grey; fill-opacity: 0; " /><circle cy="213.4080445844439" style="stroke: black; fill: white; " r="3.05306518051853" cx="407.71383571601655" /><polyline points="402.62539374848564 216.46110976496246 392.4485098134238 226.63799370002425 " style="stroke: black; fill: none; " /><polygon points="391.3690882671492 227.71741524629886 393.0717141337346 227.26119802033497 391.8253054931131 226.0147893797135 " style="" /><polyline points="412.8022776835474 216.46110976496246 422.97916161860917 226.63799370002425 " style="stroke: black; fill: none; " /><polygon points="424.05858316488377 227.71741524629886 423.6023659389199 226.0147893797135 422.3559572982984 227.26119802033497 " style="" /><text x="428.0676035861401" style="text-anchor: middle; font-size: 5.6538244083676545pt; " transform="rotate(-0.0, 428.0676035861401, 236.58872465875135)" y="236.58872465875135">...</text><circle cy="233.7618124545675" style="stroke: black; fill: white; " r="3.05306518051853" cx="387.3600678458929" /><polyline points="382.27162587836204 236.81487763508605 372.0947419433002 246.99176157014782 " style="stroke: black; fill: none; " /><polygon points="371.0153203970257 248.07118311642242 372.71794626361094 247.6149658904585 371.4715376229895 246.36855724983712 " style="" /><polyline points="392.4485098134238 236.81487763508605 402.62539374848564 246.99176157014782 " style="stroke: black; fill: none; " /><polygon points="403.70481529476024 248.07118311642242 403.2485980687963 246.3685572498371 402.0021894281749 247.61496589045856 " style="" /><circle cy="254.11558032469108" style="stroke: black; fill: white; " r="3.05306518051853" cx="407.71383571601655" /><polyline points="402.62539374848564 257.1686455052096 392.4485098134238 267.3455294402714 " style="stroke: black; fill: none; " /><polygon points="391.3690882671492 268.42495098654604 393.0717141337346 267.9687337605821 391.8253054931131 266.72232511996066 " style="" /><polyline points="412.8022776835474 257.1686455052096 422.97916161860917 267.34552944027143 " style="stroke: black; fill: none; " /><polygon points="424.05858316488377 268.42495098654604 423.6023659389199 266.72232511996066 422.3559572982984 267.9687337605821 " style="" /><text x="428.0676035861401" style="text-anchor: middle; font-size: 4.579597770777809pt; " transform="rotate(-0.0, 428.0676035861401, 276.75914708020355)" y="276.75914708020355">&#91;p3,p4&#93;</text><text x="387.3600678458929" style="font-family: monospace; text-anchor: middle; font-size: 5.088441967530855pt; " transform="rotate(-0.0, 387.3600678458929, 277.0135691785801)" y="277.0135691785801">h</text><polyline points="387.3600678458929 282.10201114611095 387.3600678458929 286.1727647201357 " style="stroke: black; fill: none; " /><polygon points="387.3600678458929 287.69929731039497 388.2414118478058 286.1727647201357 386.47872384398 286.1727647201357 " style="" /><text x="387.3600678458929" style="text-anchor: middle; font-size: 4.579597770777866pt; " transform="rotate(-0.0, 387.3600678458929, 297.3673370487037)" y="297.3673370487037"> &#91; &#93; </text><text x="367.00629997576937" style="font-family: monospace; text-anchor: middle; font-size: 5.088441967530912pt; " transform="rotate(-0.0, 367.00629997576937, 256.6598013084565)" y="256.6598013084565">g</text><polyline points="367.00629997576937 261.7482432759874 367.00629997576937 265.8189968500121 " style="stroke: black; fill: none; " /><polygon points="367.00629997576937 267.3455294402714 367.8876439776822 265.81899685001207 366.12495597385634 265.8189968500122 " style="" /><text x="367.00629997576937" style="text-anchor: middle; font-size: 4.579597770777866pt; " transform="rotate(-0.0, 367.00629997576937, 277.0135691785801)" y="277.0135691785801">&#91;p1,p2&#93;</text><text x="514.5711170341654" style="font-family: Courier New; text-anchor: middle; font-size: 5.597286164283901pt; " transform="rotate(-0.0, 514.5711170341654, 198.14271868185125)" y="198.14271868185125">Diagram â‰… &#91;Prim&#93;</text><polygon points="463.6866973588564 305.0 565.4555367094742 305.0 565.4555367094742 203.2311606493821 463.6866973588564 203.2311606493821 " style="stroke: grey; fill-opacity: 0; " /><text x="514.5711170341654" style="font-family: Courier New; text-anchor: middle; font-size: 4.579597770777923pt; " transform="rotate(-0.0, 514.5711170341654, 251.31693724254907)" y="251.31693724254907">&#91;g&#40;p1&#41;, g&#40;p2&#41;, p3, p4...&#93;</text><polyline points="127.99491155803247 204.90307729585658 127.99491155803247 181.64162830142962 237.0329537194088 181.64162830142962 237.0329537194088 167.1032226799128 " style="stroke: black; fill: none; stroke-dasharray: 5; " /><polyline points="565.3101526532591 204.9030772958566 565.3101526532591 181.64162830142965 456.27211049188276 181.64162830142965 456.27211049188276 167.1032226799128 " style="stroke: black; fill: none; stroke-dasharray: 5; " /><text x="575.2519873251324" style="font-family: Courier New; text-anchor: start; font-size: 5.815362248606789pt; " transform="rotate(-0.0, 575.2519873251324, 229.61836685243523)" y="229.61836685243523">Render &#91;Prim&#93; with SVG</text><text x="575.2519873251324" style="font-family: Courier New; text-anchor: start; font-size: 4.361521686455035pt; " transform="rotate(-0.0, 575.2519873251324, 242.7029319118004)" y="242.7029319118004">Circle&#40;r&#61;1&#41; â†’ &#60;center r&#61;&#34;1&#34;/&#62;</text><text x="575.2519873251324" style="font-family: Courier New; text-anchor: start; font-size: 4.361521686455035pt; " transform="rotate(-0.0, 575.2519873251324, 250.11751877877398)" y="250.11751877877398">Circle&#40;r&#61;2&#41; â†’ &#60;center r&#61;&#34;2&#34;/&#62;</text><text x="575.2519873251324" style="font-family: Courier New; text-anchor: start; font-size: 4.361521686455035pt; " transform="rotate(-0.0, 575.2519873251324, 257.5321056457476)" y="257.5321056457476">Line&#40; ... &#41; â†’ &#60;polyline .../&#62;</text><text x="614.505682503228" style="font-family: Courier New; text-anchor: start; font-size: 4.361521686455035pt; " transform="rotate(-0.0, 614.505682503228, 264.94669251272114)" y="264.94669251272114">                  ...</text><text x="575.2519873251324" style="font-family: Courier New; text-anchor: start; font-size: 4.361521686455035pt; " transform="rotate(-0.0, 575.2519873251324, 242.7029319118004)" y="242.7029319118004"></text><text x="16.630724497213464" style="font-family: Courier New; text-anchor: start; font-size: 4.361521686455035pt; " transform="rotate(-0.0, 16.630724497213464, 243.72062030530657)" y="243.72062030530657">âˆ‘&#40;row-&#62; begin</text><text x="25.35376787012359" style="font-family: Courier New; text-anchor: start; font-size: 4.361521686455035pt; " transform="rotate(-0.0, 25.35376787012359, 251.13520717228016)" y="251.13520717228016">    S&#40;:fill&#61;&#62;row&#91;:color&#93;&#41;*</text><text x="25.35376787012359" style="font-family: Courier New; text-anchor: start; font-size: 4.361521686455035pt; " transform="rotate(-0.0, 25.35376787012359, 258.54979403925375)" y="258.54979403925375">    T&#40;row&#91;:x&#93;,row&#91;:y&#93;&#41;*Circle&#40;&#41;</text><text x="16.630724497213464" style="font-family: Courier New; text-anchor: start; font-size: 4.361521686455035pt; " transform="rotate(-0.0, 16.630724497213464, 265.96438090622735)" y="265.96438090622735">end&#41;</text><text x="16.630724497213464" style="font-family: Courier New; text-anchor: start; font-size: 4.361521686455035pt; " transform="rotate(-0.0, 16.630724497213464, 243.72062030530657)" y="243.72062030530657"></text><text x="53.9951292829476" style="font-family: Courier New; text-anchor: middle; font-size: 5.815362248606732pt; " transform="rotate(-0.0, 53.9951292829476, 229.61836685243523)" y="229.61836685243523">Graphic Expresion</text><polyline points="688.3050642112916 168.5570632420645 688.3050642112914 287.77198933850264 564.7286164283984 287.77198933850264 " style="stroke: black; fill: none; " /><polyline points="5.0 168.5570632420645 5.0 287.7719893385025 128.57644778289315 287.7719893385025 " style="stroke: black; fill: none; " /></svg>