<?xml version="1.0" encoding="UTF-8" standalone="no"?>
<!DOCTYPE svg PUBLIC "-//W3C//DTD SVG 1.1//EN" "http://www.w3.org/Graphics/SVG/1.1/DTD/svg11.dtd">
<!-- Created with Vectornator (http://vectornator.io/) -->
<svg height="100%" stroke-miterlimit="10" style="fill-rule:nonzero;clip-rule:evenodd;stroke-linecap:round;stroke-linejoin:round;" version="1.1" viewBox="0 0 375 101.597" width="100%" xml:space="preserve" xmlns="http://www.w3.org/2000/svg" xmlns:vectornator="http://vectornator.io" xmlns:xlink="http://www.w3.org/1999/xlink">
<defs/>
<g id="Untitled" vectornator:layerName="Untitled">
<g opacity="1" vectornator:layerName="g">
<path d="M111.379 56.4414L111.379 56.0229L111.136 56.0229C110.326 56.0229 110.137 55.9284 109.988 55.4829L107.072 47.0454C107.005 46.8699 106.978 46.7754 106.762 46.7754C106.546 46.7754 106.505 46.8564 106.438 47.0454L103.643 55.1184C103.4 55.8069 102.86 56.0094 102.131 56.0229L102.131 56.4414L103.508 56.4009L105.061 56.4414L105.061 56.0229C104.386 56.0229 104.048 55.6854 104.048 55.3344C104.048 55.2939 104.062 55.1589 104.075 55.1319L104.696 53.3634L108.031 53.3634L108.746 55.4289C108.76 55.4829 108.787 55.5639 108.787 55.6179C108.787 56.0229 108.031 56.0229 107.666 56.0229L107.666 56.4414C108.152 56.4009 109.097 56.4009 109.61 56.4009L111.379 56.4414ZM107.882 52.9449L104.845 52.9449L106.357 48.5574L107.882 52.9449Z" fill="#000000" opacity="1" stroke="none" vectornator:layerName="tspan"/>
<path d="M113.25 44.855C133.5 11.105 79.5 11.105 99.75 44.855" fill="none" opacity="1" stroke="#000000" stroke-linecap="round" stroke-linejoin="miter" stroke-width="0.759" vectornator:layerName="path"/>
<path d="M112.09 40.227C114.984 41.961 113.25 44.855 113.25 44.855" fill="none" opacity="1" stroke="#000000" stroke-linecap="round" stroke-linejoin="miter" stroke-width="0.759" vectornator:layerName="path"/>
<path d="M117.879 43.699C114.984 41.961 113.25 44.855 113.25 44.855" fill="none" opacity="1" stroke="#000000" stroke-linecap="round" stroke-linejoin="miter" stroke-width="0.759" vectornator:layerName="path"/>
<g fill="#000000" opacity="1" stroke="none" vectornator:layerName="tspan">
<path d="M105.719 13.9766L105.719 13.6976C105.125 13.6976 105.089 13.6526 105.089 13.3016L105.089 9.99856L103.829 10.0976L103.829 10.3766C104.414 10.3766 104.495 10.4306 104.495 10.8716L104.495 13.2926C104.495 13.6976 104.396 13.6976 103.793 13.6976L103.793 13.9766L104.783 13.9496C105.098 13.9496 105.413 13.9676 105.719 13.9766ZM105.224 8.54056C105.224 8.29756 105.017 8.06356 104.747 8.06356C104.441 8.06356 104.261 8.31556 104.261 8.54056C104.261 8.78356 104.468 9.01756 104.738 9.01756C105.044 9.01756 105.224 8.76556 105.224 8.54056Z"/>
<path d="M110.741 13.9766L110.741 13.6976C110.111 13.6976 110.039 13.6346 110.039 13.1936L110.039 7.73056L108.743 7.82956L108.743 8.10856C109.373 8.10856 109.445 8.17156 109.445 8.61256L109.445 10.5566C109.184 10.2326 108.797 9.99856 108.311 9.99856C107.249 9.99856 106.304 10.8806 106.304 12.0416C106.304 13.1846 107.186 14.0756 108.212 14.0756C108.788 14.0756 109.193 13.7696 109.418 13.4816L109.418 14.0756L110.741 13.9766ZM109.418 12.9146C109.418 13.0766 109.418 13.0946 109.319 13.2476C109.049 13.6796 108.644 13.8776 108.257 13.8776C107.852 13.8776 107.528 13.6436 107.312 13.3016C107.078 12.9326 107.051 12.4196 107.051 12.0506C107.051 11.7176 107.069 11.1776 107.33 10.7726C107.519 10.4936 107.861 10.1966 108.347 10.1966C108.662 10.1966 109.04 10.3316 109.319 10.7366C109.418 10.8896 109.418 10.9076 109.418 11.0696L109.418 12.9146Z"/>
</g>
<path d="M114.942 15.7786L114.942 15.6112L114.845 15.6112C114.521 15.6112 114.446 15.5733 114.386 15.3951L113.22 12.0199C113.193 11.9497 113.182 11.9119 113.095 11.9119C113.009 11.9119 112.993 11.9443 112.966 12.0199L111.848 15.2493C111.751 15.5247 111.535 15.6058 111.243 15.6112L111.243 15.7786L111.794 15.7624L112.415 15.7786L112.415 15.6112C112.145 15.6112 112.01 15.4761 112.01 15.3357C112.01 15.3195 112.015 15.2655 112.021 15.2547L112.269 14.5473L113.603 14.5473L113.889 15.3735C113.895 15.3951 113.906 15.4275 113.906 15.4491C113.906 15.6112 113.603 15.6112 113.457 15.6112L113.457 15.7786C113.652 15.7624 114.03 15.7624 114.235 15.7624L114.942 15.7786ZM113.544 14.3799L112.329 14.3799L112.933 12.6247L113.544 14.3799Z" fill="#000000" opacity="1" stroke="none" vectornator:layerName="tspan"/>
<path d="M194.25 44.855C214.5 11.105 160.5 11.105 180.75 44.855" fill="none" opacity="1" stroke="#000000" stroke-linecap="round" stroke-linejoin="miter" stroke-width="0.759" vectornator:layerName="path"/>
<path d="M193.09 40.227C195.984 41.961 194.25 44.855 194.25 44.855" fill="none" opacity="1" stroke="#000000" stroke-linecap="round" stroke-linejoin="miter" stroke-width="0.759" vectornator:layerName="path"/>
<path d="M198.879 43.699C195.984 41.961 194.25 44.855 194.25 44.855" fill="none" opacity="1" stroke="#000000" stroke-linecap="round" stroke-linejoin="miter" stroke-width="0.759" vectornator:layerName="path"/>
<g fill="#000000" opacity="1" stroke="none" vectornator:layerName="tspan">
<path d="M186.52 13.9766L186.52 13.6976C185.926 13.6976 185.89 13.6526 185.89 13.3016L185.89 9.99856L184.63 10.0976L184.63 10.3766C185.215 10.3766 185.296 10.4306 185.296 10.8716L185.296 13.2926C185.296 13.6976 185.197 13.6976 184.594 13.6976L184.594 13.9766L185.584 13.9496C185.899 13.9496 186.214 13.9676 186.52 13.9766ZM186.025 8.54056C186.025 8.29756 185.818 8.06356 185.548 8.06356C185.242 8.06356 185.062 8.31556 185.062 8.54056C185.062 8.78356 185.269 9.01756 185.539 9.01756C185.845 9.01756 186.025 8.76556 186.025 8.54056Z"/>
<path d="M191.542 13.9766L191.542 13.6976C190.912 13.6976 190.84 13.6346 190.84 13.1936L190.84 7.73056L189.544 7.82956L189.544 8.10856C190.174 8.10856 190.246 8.17156 190.246 8.61256L190.246 10.5566C189.985 10.2326 189.598 9.99856 189.112 9.99856C188.05 9.99856 187.105 10.8806 187.105 12.0416C187.105 13.1846 187.987 14.0756 189.013 14.0756C189.589 14.0756 189.994 13.7696 190.219 13.4816L190.219 14.0756L191.542 13.9766ZM190.219 12.9146C190.219 13.0766 190.219 13.0946 190.12 13.2476C189.85 13.6796 189.445 13.8776 189.058 13.8776C188.653 13.8776 188.329 13.6436 188.113 13.3016C187.879 12.9326 187.852 12.4196 187.852 12.0506C187.852 11.7176 187.87 11.1776 188.131 10.7726C188.32 10.4936 188.662 10.1966 189.148 10.1966C189.463 10.1966 189.841 10.3316 190.12 10.7366C190.219 10.8896 190.219 10.9076 190.219 11.0696L190.219 12.9146Z"/>
</g>
<path d="M195.406 14.7903C195.406 14.3205 194.963 13.9154 194.364 13.8506C194.888 13.748 195.26 13.4024 195.26 13.0028C195.26 12.5329 194.764 12.0901 194.062 12.0901L192.085 12.0901L192.085 12.2575L192.215 12.2575C192.63 12.2575 192.641 12.3169 192.641 12.5113L192.641 15.3573C192.641 15.5517 192.63 15.6112 192.215 15.6112L192.085 15.6112L192.085 15.7786L194.202 15.7786C194.92 15.7786 195.406 15.2979 195.406 14.7903ZM194.737 13.0028C194.737 13.3484 194.472 13.802 193.873 13.802L193.09 13.802L193.09 12.4735C193.09 12.2953 193.1 12.2575 193.354 12.2575L194.024 12.2575C194.548 12.2575 194.737 12.7165 194.737 13.0028ZM194.866 14.7849C194.866 15.1683 194.585 15.6112 194.029 15.6112L193.354 15.6112C193.1 15.6112 193.09 15.5733 193.09 15.3951L193.09 13.9208L194.105 13.9208C194.639 13.9208 194.866 14.4231 194.866 14.7849Z" fill="#000000" opacity="1" stroke="none" vectornator:layerName="tspan"/>
<path d="M191.246 53.7443C191.246 52.5698 190.139 51.5573 188.64 51.3953C189.95 51.1388 190.881 50.2748 190.881 49.2758C190.881 48.1013 189.639 46.9943 187.884 46.9943L182.943 46.9943L182.943 47.4128L183.267 47.4128C184.307 47.4128 184.334 47.5613 184.334 48.0473L184.334 55.1618C184.334 55.6478 184.307 55.7963 183.267 55.7963L182.943 55.7963L182.943 56.2148L188.235 56.2148C190.031 56.2148 191.246 55.0133 191.246 53.7443ZM189.572 49.2758C189.572 50.1398 188.91 51.2738 187.412 51.2738L185.454 51.2738L185.454 47.9528C185.454 47.5073 185.481 47.4128 186.116 47.4128L187.79 47.4128C189.099 47.4128 189.572 48.5603 189.572 49.2758ZM189.896 53.7308C189.896 54.6893 189.194 55.7963 187.803 55.7963L186.116 55.7963C185.481 55.7963 185.454 55.7018 185.454 55.2563L185.454 51.5708L187.992 51.5708C189.329 51.5708 189.896 52.8263 189.896 53.7308Z" fill="#000000" opacity="1" stroke="none" vectornator:layerName="tspan"/>
<path d="M116.293 51.605C135.891 51.605 155.488 51.605 175.086 51.605" fill="none" opacity="1" stroke="#000000" stroke-linecap="round" stroke-linejoin="miter" stroke-width="0.759" vectornator:layerName="path"/>
<path d="M171.035 55.656C171.035 51.605 175.086 51.605 175.086 51.605" fill="none" opacity="1" stroke="#000000" stroke-linecap="round" stroke-linejoin="miter" stroke-width="0.759" vectornator:layerName="path"/>
<path d="M171.035 47.555C171.035 51.605 175.086 51.605 175.086 51.605" fill="none" opacity="1" stroke="#000000" stroke-linecap="round" stroke-linejoin="miter" stroke-width="0.759" vectornator:layerName="path"/>
<path d="M143.316 41.684L147.609 41.684L147.609 50.079L143.316 50.079L143.316 41.684Z" fill="#ffffff" fill-rule="nonzero" opacity="1" stroke="none" vectornator:layerName="path"/>
<path d="M148.256 42.5155C148.256 42.1825 147.923 41.8855 147.446 41.8855C146.816 41.8855 146.051 42.3625 146.051 43.3165L146.051 44.3515L145.34 44.3515L145.34 44.6305L146.051 44.6305L146.051 47.5465C146.051 47.9515 145.952 47.9515 145.349 47.9515L145.349 48.2305L146.375 48.2035C146.735 48.2035 147.158 48.2035 147.518 48.2305L147.518 47.9515L147.329 47.9515C146.663 47.9515 146.645 47.8525 146.645 47.5285L146.645 44.6305L147.671 44.6305L147.671 44.3515L146.618 44.3515L146.618 43.3075C146.618 42.5155 147.05 42.0835 147.446 42.0835C147.473 42.0835 147.608 42.0835 147.743 42.1465C147.635 42.1825 147.473 42.2995 147.473 42.5245C147.473 42.7315 147.617 42.9115 147.86 42.9115C148.121 42.9115 148.256 42.7315 148.256 42.5155Z" fill="#000000" opacity="1" stroke="none" vectornator:layerName="tspan"/>
<path d="M275.25 44.855C295.5 11.105 241.5 11.105 261.75 44.855" fill="none" opacity="1" stroke="#000000" stroke-linecap="round" stroke-linejoin="miter" stroke-width="0.759" vectornator:layerName="path"/>
<path d="M274.09 40.227C276.984 41.961 275.25 44.855 275.25 44.855" fill="none" opacity="1" stroke="#000000" stroke-linecap="round" stroke-linejoin="miter" stroke-width="0.759" vectornator:layerName="path"/>
<path d="M279.879 43.699C276.984 41.961 275.25 44.855 275.25 44.855" fill="none" opacity="1" stroke="#000000" stroke-linecap="round" stroke-linejoin="miter" stroke-width="0.759" vectornator:layerName="path"/>
<g fill="#000000" opacity="1" stroke="none" vectornator:layerName="tspan">
<path d="M267.016 13.9766L267.016 13.6976C266.422 13.6976 266.386 13.6526 266.386 13.3016L266.386 9.99856L265.126 10.0976L265.126 10.3766C265.711 10.3766 265.792 10.4306 265.792 10.8716L265.792 13.2926C265.792 13.6976 265.693 13.6976 265.09 13.6976L265.09 13.9766L266.08 13.9496C266.395 13.9496 266.71 13.9676 267.016 13.9766ZM266.521 8.54056C266.521 8.29756 266.314 8.06356 266.044 8.06356C265.738 8.06356 265.558 8.31556 265.558 8.54056C265.558 8.78356 265.765 9.01756 266.035 9.01756C266.341 9.01756 266.521 8.76556 266.521 8.54056Z"/>
<path d="M272.038 13.9766L272.038 13.6976C271.408 13.6976 271.336 13.6346 271.336 13.1936L271.336 7.73056L270.04 7.82956L270.04 8.10856C270.67 8.10856 270.742 8.17156 270.742 8.61256L270.742 10.5566C270.481 10.2326 270.094 9.99856 269.608 9.99856C268.546 9.99856 267.601 10.8806 267.601 12.0416C267.601 13.1846 268.483 14.0756 269.509 14.0756C270.085 14.0756 270.49 13.7696 270.715 13.4816L270.715 14.0756L272.038 13.9766ZM270.715 12.9146C270.715 13.0766 270.715 13.0946 270.616 13.2476C270.346 13.6796 269.941 13.8776 269.554 13.8776C269.149 13.8776 268.825 13.6436 268.609 13.3016C268.375 12.9326 268.348 12.4196 268.348 12.0506C268.348 11.7176 268.366 11.1776 268.627 10.7726C268.816 10.4936 269.158 10.1966 269.644 10.1966C269.959 10.1966 270.337 10.3316 270.616 10.7366C270.715 10.8896 270.715 10.9076 270.715 11.0696L270.715 12.9146Z"/>
</g>
<path d="M276.287 14.5203C276.287 14.4663 276.287 14.4285 276.216 14.4285C276.157 14.4285 276.157 14.4609 276.152 14.5149C276.108 15.2871 275.531 15.73 274.942 15.73C274.612 15.73 273.554 15.5463 273.554 13.937C273.554 12.3223 274.607 12.1387 274.936 12.1387C275.525 12.1387 276.006 12.6301 276.114 13.4186C276.125 13.4942 276.125 13.5104 276.2 13.5104C276.287 13.5104 276.287 13.4942 276.287 13.3808L276.287 12.1009C276.287 12.0091 276.287 11.9713 276.227 11.9713C276.206 11.9713 276.184 11.9713 276.141 12.0361L275.871 12.4357C275.671 12.2413 275.396 11.9713 274.877 11.9713C273.867 11.9713 272.998 12.83 272.998 13.9316C272.998 15.0495 273.873 15.8974 274.877 15.8974C275.757 15.8974 276.287 15.1467 276.287 14.5203Z" fill="#000000" opacity="1" stroke="none" vectornator:layerName="tspan"/>
<path d="M272.481 53.0693C272.481 52.9343 272.481 52.8398 272.306 52.8398C272.157 52.8398 272.157 52.9208 272.144 53.0558C272.036 54.9863 270.591 56.0933 269.12 56.0933C268.296 56.0933 265.65 55.6343 265.65 51.6113C265.65 47.5748 268.283 47.1158 269.106 47.1158C270.578 47.1158 271.779 48.3443 272.049 50.3153C272.076 50.5043 272.076 50.5448 272.265 50.5448C272.481 50.5448 272.481 50.5043 272.481 50.2208L272.481 47.0213C272.481 46.7918 272.481 46.6973 272.333 46.6973C272.279 46.6973 272.225 46.6973 272.117 46.8593L271.442 47.8583C270.942 47.3723 270.254 46.6973 268.958 46.6973C266.433 46.6973 264.26 48.8438 264.26 51.5978C264.26 54.3923 266.447 56.5118 268.958 56.5118C271.158 56.5118 272.481 54.6353 272.481 53.0693Z" fill="#000000" opacity="1" stroke="none" vectornator:layerName="tspan"/>
<path d="M197.617 51.605C217.027 51.605 236.438 51.605 255.848 51.605" fill="none" opacity="1" stroke="#000000" stroke-linecap="round" stroke-linejoin="miter" stroke-width="0.759" vectornator:layerName="path"/>
<path d="M251.797 55.656C251.797 51.605 255.848 51.605 255.848 51.605" fill="none" opacity="1" stroke="#000000" stroke-linecap="round" stroke-linejoin="miter" stroke-width="0.759" vectornator:layerName="path"/>
<path d="M251.797 47.555C251.797 51.605 255.848 51.605 255.848 51.605" fill="none" opacity="1" stroke="#000000" stroke-linecap="round" stroke-linejoin="miter" stroke-width="0.759" vectornator:layerName="path"/>
<path d="M225.047 43.41L229.176 43.41L229.176 50.222L225.047 50.222L225.047 43.41Z" fill="#ffffff" fill-rule="nonzero" opacity="1" stroke="none" vectornator:layerName="path"/>
<path d="M230.646 44.5945C230.646 44.4415 230.538 44.1535 230.187 44.1535C230.007 44.1535 229.611 44.2075 229.233 44.5765C228.855 44.2795 228.477 44.2525 228.279 44.2525C227.442 44.2525 226.821 44.8735 226.821 45.5665C226.821 45.9625 227.019 46.3045 227.244 46.4935C227.127 46.6285 226.965 46.9255 226.965 47.2405C226.965 47.5195 227.082 47.8615 227.361 48.0415C226.821 48.1945 226.533 48.5815 226.533 48.9415C226.533 49.5895 227.424 50.0845 228.522 50.0845C229.584 50.0845 230.52 49.6255 230.52 48.9235C230.52 48.6085 230.394 48.1495 229.935 47.8975C229.458 47.6455 228.936 47.6455 228.387 47.6455C228.162 47.6455 227.775 47.6455 227.712 47.6365C227.424 47.6005 227.235 47.3215 227.235 47.0335C227.235 46.9975 227.235 46.7905 227.388 46.6105C227.739 46.8625 228.108 46.8895 228.279 46.8895C229.116 46.8895 229.737 46.2685 229.737 45.5755C229.737 45.2425 229.593 44.9095 229.368 44.7025C229.692 44.3965 230.016 44.3515 230.178 44.3515C230.178 44.3515 230.241 44.3515 230.268 44.3605C230.169 44.3965 230.124 44.4955 230.124 44.6035C230.124 44.7565 230.241 44.8645 230.385 44.8645C230.475 44.8645 230.646 44.8015 230.646 44.5945ZM229.062 45.5665C229.062 45.8095 229.053 46.0975 228.918 46.3225C228.846 46.4305 228.639 46.6825 228.279 46.6825C227.496 46.6825 227.496 45.7825 227.496 45.5755C227.496 45.3325 227.505 45.0445 227.64 44.8195C227.712 44.7115 227.919 44.4595 228.279 44.4595C229.062 44.4595 229.062 45.3595 229.062 45.5665ZM230.052 48.9415C230.052 49.4275 229.413 49.8775 228.531 49.8775C227.622 49.8775 227.001 49.4185 227.001 48.9415C227.001 48.5275 227.343 48.1945 227.739 48.1675L228.27 48.1675C229.044 48.1675 230.052 48.1675 230.052 48.9415Z" fill="#000000" opacity="1" stroke="none" vectornator:layerName="tspan"/>
<path d="M116.293 65.105C162.812 87.605 209.328 87.605 255.848 65.105" fill="none" opacity="1" stroke="#000000" stroke-linecap="round" stroke-linejoin="miter" stroke-width="0.759" vectornator:layerName="path"/>
<path d="M253.965 70.516C252.203 66.871 255.848 65.105 255.848 65.105" fill="none" opacity="1" stroke="#000000" stroke-linecap="round" stroke-linejoin="miter" stroke-width="0.759" vectornator:layerName="path"/>
<path d="M250.438 63.223C252.203 66.871 255.848 65.105 255.848 65.105" fill="none" opacity="1" stroke="#000000" stroke-linecap="round" stroke-linejoin="miter" stroke-width="0.759" vectornator:layerName="path"/>
<path d="M178.82 85.559L194.066 85.559L194.066 94.098L178.82 94.098L178.82 85.559Z" fill="#ffffff" fill-rule="nonzero" opacity="1" stroke="none" vectornator:layerName="path"/>
<path d="M184.416 88.4695C184.416 88.3165 184.308 88.0285 183.957 88.0285C183.777 88.0285 183.381 88.0825 183.003 88.4515C182.625 88.1545 182.247 88.1275 182.049 88.1275C181.212 88.1275 180.591 88.7485 180.591 89.4415C180.591 89.8375 180.789 90.1795 181.014 90.3685C180.897 90.5035 180.735 90.8005 180.735 91.1155C180.735 91.3945 180.852 91.7365 181.131 91.9165C180.591 92.0695 180.303 92.4565 180.303 92.8165C180.303 93.4645 181.194 93.9595 182.292 93.9595C183.354 93.9595 184.29 93.5005 184.29 92.7985C184.29 92.4835 184.164 92.0245 183.705 91.7725C183.228 91.5205 182.706 91.5205 182.157 91.5205C181.932 91.5205 181.545 91.5205 181.482 91.5115C181.194 91.4755 181.005 91.1965 181.005 90.9085C181.005 90.8725 181.005 90.6655 181.158 90.4855C181.509 90.7375 181.878 90.7645 182.049 90.7645C182.886 90.7645 183.507 90.1435 183.507 89.4505C183.507 89.1175 183.363 88.7845 183.138 88.5775C183.462 88.2715 183.786 88.2265 183.948 88.2265C183.948 88.2265 184.011 88.2265 184.038 88.2355C183.939 88.2715 183.894 88.3705 183.894 88.4785C183.894 88.6315 184.011 88.7395 184.155 88.7395C184.245 88.7395 184.416 88.6765 184.416 88.4695ZM182.832 89.4415C182.832 89.6845 182.823 89.9725 182.688 90.1975C182.616 90.3055 182.409 90.5575 182.049 90.5575C181.266 90.5575 181.266 89.6575 181.266 89.4505C181.266 89.2075 181.275 88.9195 181.41 88.6945C181.482 88.5865 181.689 88.3345 182.049 88.3345C182.832 88.3345 182.832 89.2345 182.832 89.4415ZM183.822 92.8165C183.822 93.3025 183.183 93.7525 182.301 93.7525C181.392 93.7525 180.771 93.2935 180.771 92.8165C180.771 92.4025 181.113 92.0695 181.509 92.0425L182.04 92.0425C182.814 92.0425 183.822 92.0425 183.822 92.8165Z" fill="#000000" opacity="1" stroke="none" vectornator:layerName="tspan"/>
<path d="M189.195 89.8555C189.195 89.1085 188.592 88.5055 187.845 88.5055C187.098 88.5055 186.495 89.1085 186.495 89.8555C186.495 90.6025 187.098 91.2055 187.845 91.2055C188.592 91.2055 189.195 90.6025 189.195 89.8555ZM188.835 89.8555C188.835 90.4045 188.394 90.8455 187.845 90.8455C187.296 90.8455 186.855 90.4045 186.855 89.8555C186.855 89.3065 187.296 88.8655 187.845 88.8655C188.394 88.8655 188.835 89.3065 188.835 89.8555Z" fill="#000000" opacity="1" stroke="none" vectornator:layerName="tspan"/>
<path d="M194.712 86.3905C194.712 86.0575 194.379 85.7605 193.902 85.7605C193.272 85.7605 192.507 86.2375 192.507 87.1915L192.507 88.2265L191.796 88.2265L191.796 88.5055L192.507 88.5055L192.507 91.4215C192.507 91.8265 192.408 91.8265 191.805 91.8265L191.805 92.1055L192.831 92.0785C193.191 92.0785 193.614 92.0785 193.974 92.1055L193.974 91.8265L193.785 91.8265C193.119 91.8265 193.101 91.7275 193.101 91.4035L193.101 88.5055L194.127 88.5055L194.127 88.2265L193.074 88.2265L193.074 87.1825C193.074 86.3905 193.506 85.9585 193.902 85.9585C193.929 85.9585 194.064 85.9585 194.199 86.0215C194.091 86.0575 193.929 86.1745 193.929 86.3995C193.929 86.6065 194.073 86.7865 194.316 86.7865C194.577 86.7865 194.712 86.6065 194.712 86.3905Z" fill="#000000" opacity="1" stroke="none" vectornator:layerName="tspan"/>
</g>
</g>
</svg>
