<svg height="310" viewBox="0 0 445.6255401136186 310" width="445.6255401136186" xmlns="http://www.w3.org/2000/svg" version="1.1"><polygon points="36.99739328771591 275.9677419354839 388.90355164548714 275.9677419354839 388.90355164548714 12.03812316715539 36.99739328771591 12.03812316715539 " style="stroke: lightgrey; fill: white; fill-opacity: 0; " /><polyline points="36.99739328771588 275.9677419354839 388.90355164548714 275.9677419354839 " style="stroke: black; fill: none; " /><polygon points="43.457631341881836 279.4868035190616 44.33739673777626 279.4868035190616 44.33739673777626 275.9677419354839 43.457631341881836 275.9677419354839 " style="" /><text x="43.89751403982905" style="text-anchor: middle; font-size: 6.158357771261002pt; " transform="rotate(-0.0, 43.89751403982905, 287.4046920821114)" y="287.4046920821114">50</text><polygon points="129.70914074329636 279.4868035190616 130.58890613919078 279.4868035190616 130.58890613919078 275.9677419354839 129.70914074329636 275.9677419354839 " style="" /><text x="130.14902344124357" style="text-anchor: middle; font-size: 6.158357771260981pt; " transform="rotate(-0.0, 130.14902344124357, 287.4046920821114)" y="287.4046920821114">100</text><polygon points="215.96065014471088 279.4868035190616 216.8404155406053 279.4868035190616 216.8404155406053 275.9677419354839 215.96065014471088 275.9677419354839 " style="" /><text x="216.4005328426581" style="text-anchor: middle; font-size: 6.158357771260995pt; " transform="rotate(-0.0, 216.4005328426581, 287.4046920821114)" y="287.4046920821114">150</text><polygon points="302.21215954612535 279.4868035190616 303.0919249420198 279.4868035190616 303.0919249420198 275.9677419354839 302.21215954612535 275.9677419354839 " style="" /><text x="302.65204224407256" style="text-anchor: middle; font-size: 6.158357771260967pt; " transform="rotate(-0.0, 302.65204224407256, 287.4046920821114)" y="287.4046920821114">200</text><polygon points="388.4636689475399 279.4868035190616 389.3434343434344 279.4868035190616 389.3434343434344 275.9677419354839 388.4636689475399 275.9677419354839 " style="" /><text x="388.90355164548714" style="text-anchor: middle; font-size: 6.15835777126108pt; " transform="rotate(-0.0, 388.90355164548714, 287.4046920821114)" y="287.4046920821114">250</text><text x="212.95047246660152" style="text-anchor: middle; font-size: 8.797653958944267pt; " transform="rotate(-0.0, 212.95047246660152, 305.0)" y="305.0">Horsepower</text><polyline points="36.99739328771588 275.9677419354839 36.997393287715894 12.03812316715539 " style="stroke: black; fill: none; " /><polygon points="36.99739328771588 269.97031685859383 36.99739328771588 269.0905514626994 33.47833170413817 269.0905514626994 33.47833170413817 269.97031685859383 " style="" /><text x="31.71880091234931" style="text-anchor: end; font-size: 6.158357771260995pt; " transform="rotate(-0.0, 31.71880091234931, 272.6096130462771)" y="272.6096130462771">10</text><polygon points="36.997393287715894 205.59723911022104 36.997393287715894 204.7174737143266 33.47833170413817 204.7174737143266 33.47833170413817 205.59723911022104 " style="" /><text x="31.718800912349316" style="text-anchor: end; font-size: 6.158357771260995pt; " transform="rotate(-0.0, 31.718800912349316, 208.2365352979043)" y="208.2365352979043">20</text><polygon points="36.99739328771589 141.22416136184822 36.99739328771589 140.3443959659538 33.47833170413818 140.3443959659538 33.47833170413818 141.22416136184822 " style="" /><text x="31.71880091234932" style="text-anchor: end; font-size: 6.158357771261002pt; " transform="rotate(-0.0, 31.71880091234932, 143.86345754953152)" y="143.86345754953152">30</text><polygon points="36.997393287715894 76.85108361347542 36.997393287715894 75.971318217581 33.478331704138185 75.971318217581 33.478331704138185 76.85108361347542 " style="" /><text x="31.718800912349323" style="text-anchor: end; font-size: 6.158357771260995pt; " transform="rotate(-0.0, 31.718800912349323, 79.4903798011587)" y="79.4903798011587">40</text><polygon points="36.997393287715894 12.47800586510266 36.997393287715894 11.598240469208235 33.478331704138185 11.598240469208235 33.478331704138185 12.47800586510266 " style="" /><text x="31.71880091234933" style="text-anchor: end; font-size: 6.158357771260999pt; " transform="rotate(-0.0, 31.71880091234933, 15.11730205278593)" y="15.11730205278593">50</text><text x="13.797653958944291" style="text-anchor: middle; font-size: 8.797653958944295pt; " transform="rotate(-90.0, 13.797653958944291, 144.00293255131965)" y="144.00293255131965">Miles_per_Gallon</text><text x="36.99739328771588" style="font-family: Helvetica; text-anchor: start; font-size: 11.436950146627566pt; " transform="rotate(-0.0, 36.99739328771588, 281.68621700879766)" y="281.68621700879766"></text><text x="404.54382535027696" style="font-family: sans-serif; text-anchor: start; font-size: 7.0381231671553905pt; font-weight: bold; " transform="rotate(-0.0, 404.54382535027696, 12.03812316715539)" y="12.03812316715539">Origin</text><circle cy="25.23460410557186" style="fill: #6388B4; " r="2.6392961876832715" cx="407.18312153796023" /><text x="412.46171391332683" style="text-anchor: start; font-size: 6.158357771260967pt; " transform="rotate(-0.0, 412.46171391332683, 27.873900293255133)" y="27.873900293255133">USA</text><circle cy="35.79178885630495" style="fill: #FFAE34; " r="2.6392961876832715" cx="407.18312153796023" /><text x="412.46171391332683" style="text-anchor: start; font-size: 6.158357771260967pt; " transform="rotate(-0.0, 412.46171391332683, 38.431085043988276)" y="38.431085043988276">Japan</text><circle cy="46.34897360703815" style="fill: #EF6F6A; " r="2.6392961876832715" cx="407.18312153796023" /><text x="412.46171391332683" style="text-anchor: start; font-size: 6.158357771260967pt; " transform="rotate(-0.0, 412.46171391332683, 48.98826979472142)" y="48.98826979472142">Europe</text><polyline points="47.347574415885624 147.22158643873829 61.14781592011195 176.18947142550604 66.3229064841968 137.56562477648237 66.3229064841968 110.52893212216577 66.3229064841968 89.28581646520277 68.04793667222512 82.84850869036552 69.7729668602534 112.46012445461699 69.7729668602534 141.42800944138472 71.49799704828169 101.51670123739359 74.94805742433827 140.784278663901 78.39811780039486 166.53350976325012 78.39811780039486 113.74758600958441 78.39811780039486 111.81639367713325 78.39811780039486 127.26593233674271 78.39811780039486 102.16043201487733 81.84817817645143 192.28274086259924 81.84817817645143 198.72004863743655 81.84817817645143 237.3438952864602 81.84817817645143 237.3438952864602 81.84817817645143 163.31485587583148 87.02326874053631 172.9708175380874 87.02326874053631 153.65889421357556 87.02326874053631 134.99070166654747 92.19835930462116 185.84543308776193 92.19835930462116 218.03197196194836 93.92338949264946 166.53350976325012 93.92338949264946 153.65889421357556 95.64841968067775 172.9708175380874 95.64841968067775 153.65889421357556 95.64841968067775 166.53350976325012 95.64841968067775 140.784278663901 95.64841968067775 104.09162434732852 95.64841968067775 157.52127887847794 97.37344986870605 179.4081253129247 99.09848005673435 134.3469708890637 100.82351024476262 185.84543308776193 100.82351024476262 118.25370145197056 102.54854043279093 158.8087404334454 102.54854043279093 162.67112509834777 102.54854043279093 140.784278663901 102.54854043279093 147.22158643873829 102.54854043279093 102.16043201487733 102.54854043279093 127.90966311422645 104.27357062081921 198.72004863743655 104.27357062081921 211.59466418711108 104.27357062081921 203.86989485730635 104.27357062081921 200.00751019240397 104.27357062081921 180.69558686789213 104.27357062081921 206.44481796724125 104.27357062081921 220.60689507188326 104.27357062081921 134.3469708890637 104.27357062081921 89.28581646520277 105.9986008088475 185.84543308776193 105.9986008088475 198.72004863743655 105.9986008088475 192.28274086259924 105.9986008088475 160.09620198841284 109.44866118490407 211.59466418711108 109.44866118490407 218.03197196194836 109.44866118490407 218.03197196194836 109.44866118490407 176.18947142550604 109.44866118490407 172.32708676060366 109.44866118490407 190.35154853014805 109.44866118490407 163.95858665331522 109.44866118490407 203.86989485730635 109.44866118490407 153.65889421357556 109.44866118490407 160.09620198841284 109.44866118490407 115.03504756455189 111.17369137293237 169.75216365066876 112.89872156096067 198.72004863743655 112.89872156096067 153.65889421357556 112.89872156096067 205.15735641227377 112.89872156096067 211.59466418711108 112.89872156096067 189.0640869751806 112.89872156096067 209.01974107717618 112.89872156096067 203.86989485730635 112.89872156096067 180.05185609040842 112.89872156096067 151.08397110364066 112.89872156096067 118.25370145197056 112.89872156096067 153.65889421357556 112.89872156096067 177.47693298047352 112.89872156096067 210.95093340962734 112.89872156096067 160.09620198841284 112.89872156096067 160.09620198841284 116.34878193701725 172.9708175380874 116.34878193701725 167.82097131821757 116.34878193701725 179.4081253129247 116.34878193701725 166.53350976325012 121.52387250110212 192.28274086259924 121.52387250110212 185.84543308776193 121.52387250110212 205.15735641227377 121.52387250110212 211.59466418711108 121.52387250110212 218.03197196194836 121.52387250110212 221.250625849367 121.52387250110212 201.93870252485516 123.2489026891304 169.75216365066876 124.97393287715869 218.03197196194836 124.97393287715869 218.03197196194836 126.69896306518697 214.81331807452972 130.14902344124357 211.59466418711108 130.14902344124357 224.46927973678564 130.14902344124357 218.03197196194836 130.14902344124357 211.59466418711108 130.14902344124357 230.90658751162292 130.14902344124357 218.03197196194836 130.14902344124357 218.03197196194836 130.14902344124357 211.59466418711108 130.14902344124357 237.3438952864602 130.14902344124357 230.90658751162292 130.14902344124357 205.15735641227377 130.14902344124357 192.28274086259924 130.14902344124357 205.15735641227377 130.14902344124357 211.59466418711108 130.14902344124357 201.93870252485516 138.77417438138502 230.90658751162292 138.77417438138502 218.03197196194836 138.77417438138502 218.03197196194836 138.77417438138502 218.03197196194836 138.77417438138502 230.90658751162292 138.77417438138502 192.28274086259924 138.77417438138502 201.93870252485516 138.77417438138502 210.30720263214363 138.77417438138502 201.29497174737142 138.77417438138502 184.5579715327945 138.77417438138502 154.3026249910593 138.77417438138502 162.67112509834777 142.2242347574416 198.72004863743655 147.39932532152648 218.03197196194836 147.39932532152648 230.90658751162292 147.39932532152648 224.46927973678564 147.39932532152648 237.3438952864602 147.39932532152648 198.72004863743655 147.39932532152648 205.15735641227377 147.39932532152648 214.81331807452972 147.39932532152648 224.46927973678564 147.39932532152648 221.250625849367 147.39932532152648 205.80108718975754 147.39932532152648 214.16958729704598 147.39932532152648 201.29497174737142 147.39932532152648 182.62677920034332 147.39932532152648 189.70781775266434 147.39932532152648 172.9708175380874 150.84938569758305 192.28274086259924 156.02447626166793 195.50139475001788 156.02447626166793 148.50904799370574 156.02447626166793 161.3836635433803 164.64962720180938 234.12524139904156 164.64962720180938 217.38824118446462 173.27477814195083 210.30720263214363 173.27477814195083 185.84543308776193 180.174898894064 250.21851083613475 180.174898894064 220.60689507188326 181.89992908209226 218.03197196194836 181.89992908209226 250.21851083613475 181.89992908209226 250.21851083613475 181.89992908209226 237.3438952864602 181.89992908209226 224.46927973678564 190.52508002223374 216.7445104069809 193.9751403982903 243.78120306129748 195.70017058631862 227.68793362420428 197.42520077434688 203.86989485730635 197.42520077434688 217.38824118446462 199.1502309623752 224.46927973678564 199.1502309623752 250.21851083613475 199.1502309623752 230.90658751162292 199.1502309623752 243.78120306129748 199.1502309623752 221.250625849367 199.1502309623752 209.01974107717618 199.1502309623752 221.250625849367 202.60029133843176 234.12524139904156 207.77538190251664 250.21851083613475 207.77538190251664 237.3438952864602 207.77538190251664 237.3438952864602 207.77538190251664 250.21851083613475 207.77538190251664 221.250625849367 207.77538190251664 234.12524139904156 207.77538190251664 210.30720263214363 212.9504724666015 243.78120306129748 214.67550265462978 230.90658751162292 216.40053284265807 218.03197196194836 216.40053284265807 230.90658751162292 216.40053284265807 237.3438952864602 216.40053284265807 243.78120306129748 216.40053284265807 237.3438952864602 216.40053284265807 224.46927973678564 216.40053284265807 237.3438952864602 216.40053284265807 243.78120306129748 216.40053284265807 243.78120306129748 216.40053284265807 237.3438952864602 216.40053284265807 250.21851083613475 216.40053284265807 243.78120306129748 216.40053284265807 263.09312638580934 216.40053284265807 237.3438952864602 216.40053284265807 250.21851083613475 216.40053284265807 243.78120306129748 216.40053284265807 243.78120306129748 216.40053284265807 230.90658751162292 216.40053284265807 230.90658751162292 216.40053284265807 250.21851083613475 216.40053284265807 250.21851083613475 216.40053284265807 214.81331807452972 219.8505932187147 240.56254917387884 221.57562340674298 243.78120306129748 221.57562340674298 243.78120306129748 225.02568378279955 250.21851083613475 225.02568378279955 225.11301051426938 230.20077434688443 250.21851083613475 233.650834722941 243.78120306129748 233.650834722941 256.655818610972 242.27598566308245 237.3438952864602 242.27598566308245 243.78120306129748 242.27598566308245 250.21851083613475 242.27598566308245 219.96316429439955 245.72604603913902 256.655818610972 250.9011366032239 237.3438952864602 250.9011366032239 250.21851083613475 250.9011366032239 250.21851083613475 250.9011366032239 230.90658751162292 250.9011366032239 234.12524139904156 259.52628754336536 243.78120306129748 259.52628754336536 250.21851083613475 259.52628754336536 243.78120306129748 259.52628754336536 250.21851083613475 259.52628754336536 250.21851083613475 268.1514384835068 256.655818610972 268.1514384835068 256.655818610972 268.1514384835068 263.09312638580934 268.1514384835068 227.68793362420428 268.1514384835068 230.90658751162292 285.4017403637897 237.3438952864602 285.4017403637897 250.21851083613475 285.4017403637897 234.12524139904156 290.5768309278746 275.9677419354839 299.2019818680161 237.3438952864602 299.2019818680161 256.655818610972 302.6520422440726 269.53043416064656 316.4522837482989 263.09312638580934 319.9023441243555 263.09312638580934 328.527495064497 243.78120306129748 328.527495064497 269.53043416064656 328.527495064497 250.21851083613475 337.1526460046384 243.78120306129748 345.7777969447799 243.78120306129748 345.7777969447799 243.78120306129748 345.7777969447799 256.655818610972 354.40294788492133 230.90658751162292 " style="stroke: #6388B4; fill: none; " /><polyline points="47.347574415885624 134.3469708890637 47.347574415885624 122.75981689435665 49.072604603913916 121.4723553393892 49.072604603913916 121.4723553393892 57.69775554405537 82.20477791288175 61.14781592011195 101.51670123739359 61.14781592011195 88.64208568771903 61.14781592011195 107.9540090122309 62.87284610814024 127.90966311422645 64.59787629616852 91.21700879765393 69.7729668602534 134.3469708890637 69.7729668602534 127.90966311422645 69.7729668602534 114.39131678706818 69.7729668602534 129.1971246691939 69.7729668602534 94.43566268507257 69.7729668602534 33.924969601602186 69.7729668602534 71.26135469565841 69.7729668602534 95.72312424004002 73.22302723630997 134.3469708890637 73.22302723630997 140.784278663901 73.22302723630997 46.79958515127669 73.22302723630997 116.32250911951934 73.22302723630997 125.97847078177529 73.22302723630997 89.28581646520277 73.22302723630997 127.90966311422645 73.22302723630997 89.28581646520277 74.94805742433827 131.1283170016451 74.94805742433827 144.00293255131965 74.94805742433827 114.39131678706818 74.94805742433827 95.72312424004002 74.94805742433827 134.3469708890637 76.67308761236657 108.59773978971461 78.39811780039486 127.90966311422645 78.39811780039486 118.25370145197056 78.39811780039486 80.27358558043059 78.39811780039486 115.03504756455189 81.84817817645143 125.33474000429155 85.29823855250802 130.48458622416135 87.02326874053631 147.22158643873829 87.02326874053631 153.65889421357556 87.02326874053631 166.53350976325012 87.02326874053631 132.41577855661254 87.02326874053631 126.62220155925897 87.02326874053631 116.96623989700305 87.02326874053631 125.33474000429155 87.02326874053631 102.16043201487733 109.44866118490407 160.09620198841284 109.44866118490407 160.09620198841284 109.44866118490407 160.09620198841284 109.44866118490407 205.15735641227377 109.44866118490407 102.16043201487733 112.89872156096067 218.03197196194836 112.89872156096067 142.07174021886848 116.34878193701725 153.65889421357556 116.34878193701725 95.72312424004002 118.07381212504554 166.53350976325012 119.79884231307382 192.28274086259924 121.52387250110212 179.4081253129247 121.52387250110212 172.9708175380874 121.52387250110212 179.4081253129247 121.52387250110212 156.8775481009942 121.52387250110212 198.07631785995278 123.2489026891304 179.4081253129247 123.2489026891304 127.90966311422645 124.97393287715869 211.59466418711108 124.97393287715869 185.84543308776193 124.97393287715869 179.4081253129247 124.97393287715869 179.4081253129247 124.97393287715869 192.28274086259924 124.97393287715869 158.8087404334454 124.97393287715869 180.05185609040842 130.14902344124357 181.33931764537587 130.14902344124357 122.1160861168729 143.9492649454699 211.59466418711108 147.39932532152648 195.50139475001788 157.7495064496962 170.3958944281525 164.64962720180938 178.12066375795723 168.09968757786598 205.15735641227377 185.34998945814885 123.40354767184033 " style="stroke: #FFAE34; fill: none; " /><polyline points="36.99739328771588 166.53350976325012 36.99739328771588 166.53350976325012 40.447453663772464 56.455546813532635 40.447453663772464 48.730777483727934 40.447453663772464 54.524354481081474 42.17248385180075 147.22158643873829 47.347574415885624 50.66196981617912 50.7976347919422 185.84543308776193 57.69775554405537 102.16043201487733 61.14781592011195 160.09620198841284 64.59787629616852 142.07174021886848 73.22302723630997 166.53350976325012 73.22302723630997 134.3469708890637 73.22302723630997 99.58550890494243 73.22302723630997 140.784278663901 76.67308761236657 166.53350976325012 76.67308761236657 93.79193190758889 78.39811780039486 140.784278663901 78.39811780039486 147.22158643873829 78.39811780039486 147.22158643873829 80.12314798842314 172.9708175380874 80.12314798842314 144.00293255131965 80.12314798842314 131.1283170016451 80.12314798842314 128.55339389171021 80.12314798842314 158.8087404334454 85.29823855250802 121.4723553393892 85.29823855250802 102.16043201487733 87.02326874053631 179.4081253129247 87.02326874053631 179.4081253129247 87.02326874053631 166.53350976325012 88.7482989285646 140.784278663901 88.7482989285646 192.28274086259924 88.7482989285646 66.7552392532723 88.7482989285646 136.27816322151492 90.47332911659288 170.3958944281525 92.19835930462116 166.53350976325012 92.19835930462116 147.22158643873829 92.19835930462116 137.56562477648237 92.19835930462116 113.10385523210073 95.64841968067775 153.01516343609183 97.37344986870605 172.9708175380874 100.82351024476262 147.22158643873829 100.82351024476262 160.09620198841284 105.9986008088475 153.65889421357556 107.72363099687578 172.9708175380874 107.72363099687578 198.72004863743655 109.44866118490407 185.84543308776193 109.44866118490407 211.59466418711108 109.44866118490407 108.59773978971461 112.89872156096067 179.4081253129247 112.89872156096067 153.65889421357556 112.89872156096067 166.53350976325012 114.62375174898895 205.15735641227377 121.52387250110212 172.9708175380874 121.52387250110212 185.84543308776193 126.69896306518697 192.28274086259924 133.59908381730014 205.15735641227377 135.32411400532845 203.2261640798226 147.39932532152648 179.4081253129247 147.39932532152648 195.50139475001788 150.84938569758305 218.03197196194836 150.84938569758305 211.59466418711108 152.57441588561136 166.53350976325012 156.02447626166793 172.9708175380874 156.02447626166793 194.85766397253414 164.64962720180938 227.68793362420428 173.27477814195083 224.46927973678564 187.07501964617717 229.61912595665547 " style="stroke: #EF6F6A; fill: none; " /></svg>