<svg height="410" width="736.9185544328151" xmlns="http://www.w3.org/2000/svg" version="1.1"><polygon points="38.78173137658325 374.34875493224473 317.429413810722 374.34875493224473 317.429413810722 188.58363330948555 38.78173137658325 188.58363330948555 " style="stroke: lightgrey; fill: white; fill-opacity: 0; " /><polyline points="38.78173137658325 374.34875493224473 317.429413810722 374.34875493224473 " style="stroke: black; fill: black; " /><polygon points="73.14827887679368 378.0640573646999 74.0771044849075 378.0640573646999 74.0771044849075 374.34875493224473 73.14827887679368 374.34875493224473 " style="fill: black; " /><text x="73.61269168085059" style="text-anchor: middle; font-size: 6.501779256796581pt; fill: black; " transform="rotate(-0.0, 73.61269168085059, 386.42348783772405)" y="386.42348783772405">3</text><polygon points="114.94543124191452 378.0640573646999 115.87425685002833 378.0640573646999 115.87425685002833 374.34875493224473 114.94543124191452 374.34875493224473 " style="fill: black; " /><text x="115.40984404597141" style="text-anchor: middle; font-size: 6.501779256796567pt; fill: black; " transform="rotate(-0.0, 115.40984404597141, 386.42348783772405)" y="386.42348783772405">4</text><polygon points="156.74258360703533 378.0640573646999 157.67140921514914 378.0640573646999 157.67140921514914 374.34875493224473 156.74258360703533 374.34875493224473 " style="fill: black; " /><text x="157.20699641109223" style="text-anchor: middle; font-size: 6.501779256796567pt; fill: black; " transform="rotate(-0.0, 157.20699641109223, 386.42348783772405)" y="386.42348783772405">5</text><polygon points="198.53973597215614 378.0640573646999 199.46856158026995 378.0640573646999 199.46856158026995 374.34875493224473 198.53973597215614 374.34875493224473 " style="fill: black; " /><text x="199.00414877621304" style="text-anchor: middle; font-size: 6.501779256796567pt; fill: black; " transform="rotate(-0.0, 199.00414877621304, 386.42348783772405)" y="386.42348783772405">6</text><polygon points="240.33688833727695 378.0640573646999 241.26571394539076 378.0640573646999 241.26571394539076 374.34875493224473 240.33688833727695 374.34875493224473 " style="fill: black; " /><text x="240.80130114133385" style="text-anchor: middle; font-size: 6.501779256796567pt; fill: black; " transform="rotate(-0.0, 240.80130114133385, 386.42348783772405)" y="386.42348783772405">7</text><polygon points="282.1340407023978 378.0640573646999 283.0628663105116 378.0640573646999 283.0628663105116 374.34875493224473 282.1340407023978 374.34875493224473 " style="fill: black; " /><text x="282.59845350645463" style="text-anchor: middle; font-size: 6.501779256796567pt; fill: black; " transform="rotate(-0.0, 282.59845350645463, 386.42348783772405)" y="386.42348783772405">8</text><text x="178.10557259365265" style="text-anchor: middle; font-size: 9.288256081137973pt; fill: black; " transform="rotate(-0.0, 178.10557259365265, 405.0)" y="405.0">Cylinders</text><polyline points="38.78173137658325 374.34875493224473 38.78173137658327 188.58363330948555 " style="stroke: black; fill: black; " /><polygon points="38.78173137658325 374.81316773630164 38.78173137658325 373.8843421281878 35.06642894412806 373.8843421281878 35.06642894412806 374.81316773630164 " style="fill: black; " /><text x="33.20877772790048" style="text-anchor: end; font-size: 6.501779256796574pt; fill: black; " transform="rotate(-0.0, 33.20877772790048, 377.599644560643)" y="377.599644560643">0</text><polygon points="38.78173137658325 328.3718873306118 38.78173137658325 327.44306172249804 35.06642894412806 327.44306172249804 35.06642894412806 328.3718873306118 " style="fill: black; " /><text x="33.20877772790048" style="text-anchor: end; font-size: 6.501779256796571pt; fill: black; " transform="rotate(-0.0, 33.20877772790048, 331.15836415495323)" y="331.15836415495323">10</text><polygon points="38.78173137658327 281.9306069249221 38.78173137658327 281.0017813168083 35.06642894412808 281.0017813168083 35.06642894412808 281.9306069249221 " style="fill: black; " /><text x="33.20877772790048" style="text-anchor: end; font-size: 6.501779256796567pt; fill: black; " transform="rotate(-0.0, 33.20877772790048, 284.71708374926345)" y="284.71708374926345">20</text><polygon points="38.78173137658327 235.48932651923224 38.78173137658327 234.56050091111845 35.06642894412808 234.56050091111845 35.06642894412808 235.48932651923224 " style="fill: black; " /><text x="33.20877772790048" style="text-anchor: end; font-size: 6.501779256796574pt; fill: black; " transform="rotate(-0.0, 33.20877772790048, 238.27580334357364)" y="238.27580334357364">30</text><polygon points="38.78173137658327 189.04804611354245 38.78173137658327 188.11922050542864 35.06642894412808 188.11922050542864 35.06642894412808 189.04804611354245 " style="fill: black; " /><text x="33.20877772790049" style="text-anchor: end; font-size: 6.501779256796571pt; fill: black; " transform="rotate(-0.0, 33.20877772790049, 191.83452293788383)" y="191.83452293788383">40</text><text x="14.288256081137966" style="text-anchor: middle; font-size: 9.288256081137959pt; fill: black; " transform="rotate(-90.0, 14.288256081137966, 281.4661941208651)" y="281.4661941208651">Miles_per_Gallon_mean</text><text x="38.78173137658325" style="font-family: Helvetica; text-anchor: start; font-size: 12.074732905479351pt; fill: black; " transform="rotate(-0.0, 38.78173137658325, 176.04448759994932)" y="176.04448759994932">P1</text><text x="326.71766989186" style="font-family: sans-serif; text-anchor: start; font-size: 7.430604864910379pt; fill: black; font-weight: bold; " transform="rotate(-0.0, 326.71766989186, 188.58363330948555)" y="188.58363330948555">Origin</text><circle cy="202.5160174311925" style="fill: #6388B4; " r="2.786476824341378" cx="329.5041467162014" /><text x="335.07710036488413" style="text-anchor: start; font-size: 6.501779256796567pt; fill: black; " transform="rotate(-0.0, 335.07710036488413, 205.30249425553387)" y="205.30249425553387">USA</text><circle cy="213.66192472855803" style="fill: #FFAE34; " r="2.786476824341378" cx="329.5041467162014" /><text x="335.07710036488413" style="text-anchor: start; font-size: 6.501779256796567pt; fill: black; " transform="rotate(-0.0, 335.07710036488413, 216.44840155289944)" y="216.44840155289944">Japan</text><circle cy="224.8078320259236" style="fill: #EF6F6A; " r="2.786476824341378" cx="329.5041467162014" /><text x="335.07710036488413" style="text-anchor: start; font-size: 6.501779256796567pt; fill: black; " transform="rotate(-0.0, 335.07710036488413, 227.59430885026498)" y="227.59430885026498">Europe</text><circle cy="306.302603871158" style="fill: #6388B4; " r="2.786476824341406" cx="282.5984535064547" /><circle cy="303.5975752014675" style="fill: #6388B4; " r="2.786476824341406" cx="282.5984535064547" /><circle cy="231.84198693615127" style="fill: #FFAE34; " r="2.786476824341392" cx="115.40984404597141" /><circle cy="285.34920117700756" style="fill: #6388B4; " r="2.786476824341378" cx="199.00414877621304" /><circle cy="280.93902282977353" style="fill: #6388B4; " r="2.786476824341378" cx="199.00414877621304" /><circle cy="245.75135138307016" style="fill: #EF6F6A; " r="2.786476824341392" cx="115.40984404597141" /><circle cy="241.82082108120795" style="fill: #EF6F6A; " r="2.786476824341392" cx="115.40984404597141" /><circle cy="221.4242530249376" style="fill: #FFAE34; " r="2.786476824341392" cx="115.40984404597141" /><circle cy="245.51517940681353" style="fill: #6388B4; " r="2.786476824341392" cx="115.40984404597141" /><circle cy="243.02608288221273" style="fill: #6388B4; " r="2.786476824341392" cx="115.40984404597141" /><circle cy="280.3051621107229" style="fill: #FFAE34; " r="2.786476824341392" cx="73.6126916808506" /><circle cy="277.5186852863815" style="fill: #FFAE34; " r="2.786476824341392" cx="73.6126916808506" /><circle cy="276.51245754425827" style="fill: #FFAE34; " r="2.786476824341378" cx="199.00414877621304" /><circle cy="298.4172614689419" style="fill: #EF6F6A; " r="2.786476824341378" cx="199.00414877621304" /><circle cy="250.350536249053" style="fill: #FFAE34; " r="2.786476824341378" cx="199.00414877621304" /><circle cy="242.68772498211416" style="fill: #EF6F6A; " r="2.786476824341378" cx="157.20699641109223" /><circle cy="263.5863011646745" style="fill: #EF6F6A; " r="2.786476824341378" cx="199.00414877621304" /><circle cy="256.38790270179265" style="fill: #EF6F6A; " r="2.786476824341378" cx="157.20699641109223" /><polygon points="521.2384828785069 374.3487549322448 718.2721486896022 177.31508912114967 586.9163714822055 45.95931191375291 389.8827056711103 242.99297772484806 " style="stroke: lightgrey; fill: white; fill-opacity: 0; " /><polyline points="521.238482878507 374.34875493224473 718.2721486896023 177.3150891211496 " style="stroke: black; fill: black; " /><polygon points="537.5877025615223 363.25376633752546 538.2444814475593 362.5969874514885 535.6173659034116 359.96987190734046 534.9605870173746 360.62665079337745 " style="fill: black; " /><text x="543.8271019788735" style="text-anchor: middle; font-size: 6.501779256796474pt; fill: black; " transform="rotate(-45.00000000000084, 543.8271019788735, 368.8363868688398)" y="368.8363868688398">80</text><polygon points="583.3334956188246 317.5079732802231 583.9902745048616 316.8511943941861 581.3631589607139 314.22407885003815 580.7063800746769 314.8808577360751 " style="fill: black; " /><text x="589.572895036176" style="text-anchor: middle; font-size: 6.50177925679656pt; fill: black; " transform="rotate(-45.00000000000018, 589.572895036176, 323.0905938115375)" y="323.0905938115375">100</text><polygon points="629.0792886761269 271.76218022292073 629.7360675621638 271.10540133688374 627.1089520180158 268.47828579273596 626.4521731319788 269.13506467877295 " style="fill: black; " /><text x="635.3186880934784" style="text-anchor: middle; font-size: 6.50177925679648pt; fill: black; " transform="rotate(-45.00000000000088, 635.3186880934784, 277.3448007542351)" y="277.3448007542351">120</text><polygon points="674.8250817334293 226.01638716561837 675.4818606194664 225.3596082795814 672.8547450753186 222.7324927354333 672.1979661892816 223.38927162147027 " style="fill: black; " /><text x="681.0644811507807" style="text-anchor: middle; font-size: 6.50177925679658pt; fill: black; " transform="rotate(-45.000000000000355, 681.0644811507807, 231.59900769693274)" y="231.59900769693274">140</text><polygon points="720.5708747907316 180.27059410831603 721.2276536767687 179.61381522227904 718.600538132621 176.98669967813106 717.9437592465839 177.64347856416805 " style="fill: black; " /><text x="726.810274208083" style="text-anchor: middle; font-size: 6.50177925679658pt; fill: black; " transform="rotate(-45.000000000000355, 726.810274208083, 185.85321463963038)" y="185.85321463963038">160</text><text x="641.4290190232753" style="text-anchor: middle; font-size: 9.288256081137998pt; fill: black; " transform="rotate(-44.999999999999815, 641.4290190232753, 297.5056252659176)" y="297.5056252659176">Horsepower_mean</text><polyline points="521.238482878507 374.34875493224473 389.8827056711104 242.99297772484798 " style="stroke: black; fill: black; " /><polygon points="521.5668723215256 374.6771443752632 520.9100934354888 374.02036548922626 518.2829778913404 376.64748103337394 518.9397567773772 377.3042599194109 " style="fill: black; " /><text x="519.5965356634147" style="text-anchor: end; font-size: 6.501779256796557pt; fill: black; " transform="rotate(-45.00000000000015, 519.5965356634147, 380.5881543495961)" y="380.5881543495961">12</text><polygon points="489.13334708513133 342.24361913886895 488.47656819909434 341.58684025283196 485.84945265494645 344.21395579698 486.50623154098344 344.87073468301696 " style="fill: black; " /><text x="487.16301042702037" style="text-anchor: end; font-size: 6.501779256796595pt; fill: black; " transform="rotate(-44.99999999999978, 487.16301042702037, 348.15462911320185)" y="348.15462911320185">14</text><polygon points="456.69982184873714 309.8100939024747 456.04304296270016 309.1533150164377 453.4159274185522 311.7804305605857 454.0727063045892 312.4372094466227 " style="fill: black; " /><text x="454.7294851906262" style="text-anchor: end; font-size: 6.5017792567966pt; fill: black; " transform="rotate(-44.99999999999982, 454.7294851906262, 315.72110387680755)" y="315.72110387680755">16</text><polygon points="424.26629661234284 277.3765686660804 423.60951772630585 276.71978978004347 420.98240218215795 279.3469053241915 421.63918106819494 280.00368421022847 " style="fill: black; " /><text x="422.2959599542319" style="text-anchor: end; font-size: 6.50177925679658pt; fill: black; " transform="rotate(-44.99999999999965, 422.2959599542319, 283.2875786404133)" y="283.2875786404133">18</text><polygon points="391.83277137594865 244.94304342968616 391.17599248991166 244.2862645436492 388.5488769457638 246.91338008779718 389.2056558318008 247.57015897383414 " style="fill: black; " /><text x="389.8624347178377" style="text-anchor: end; font-size: 6.50177925679662pt; fill: black; " transform="rotate(-45.0, 389.8624347178377, 250.85405340401906)" y="250.85405340401906">20</text><text x="438.24109179857425" style="text-anchor: middle; font-size: 9.288256081137918pt; fill: black; " transform="rotate(-134.9999999999997, 438.24109179857425, 325.9903688047809)" y="325.9903688047809">Acceleration_mean</text><text x="382.63786697143087" style="font-family: Helvetica; text-anchor: start; font-size: 12.074732905479317pt; fill: black; " transform="rotate(-45.00000000000019, 382.63786697143087, 235.7481390251684)" y="235.7481390251684">P2</text><text x="598.5924405673074" style="font-family: sans-serif; text-anchor: start; font-size: 7.430604864910423pt; fill: black; font-weight: bold; " transform="rotate(-45.0, 598.5924405673074, 34.283242828650884)" y="34.283242828650884">Origin</text><circle cy="42.16458946109475" style="fill: #6388B4; " r="2.786476824341378" cx="610.4144605159731" /><text x="616.3254704903061" style="text-anchor: start; font-size: 6.50177925679646pt; fill: black; " transform="rotate(-45.0000000000007, 616.3254704903061, 40.19425280298378)" y="40.19425280298378">USA</text><circle cy="50.0459360935385" style="fill: #FFAE34; " r="2.786476824341378" cx="618.295807148417" /><text x="624.20681712275" style="text-anchor: start; font-size: 6.50177925679642pt; fill: black; " transform="rotate(-45.000000000000355, 624.20681712275, 48.075599435427534)" y="48.075599435427534">Japan</text><circle cy="57.92728272598231" style="fill: #EF6F6A; " r="2.786476824341378" cx="626.1771537808609" /><text x="632.0881637551936" style="text-anchor: start; font-size: 6.5017792567965pt; fill: black; " transform="rotate(-44.99999999999965, 632.0881637551936, 55.9569460678714)" y="55.9569460678714">Europe</text><circle cy="171.0888305257457" style="fill: #6388B4; " r="2.786476824341378" cx="703.7544651025623" /><circle cy="161.01339203388014" style="fill: #6388B4; " r="2.786476824341378" cx="694.6511247131646" /><circle cy="296.2455910753063" style="fill: #FFAE34; " r="2.786476824341406" cx="456.3968172179714" /><circle cy="244.2341113812821" style="fill: #6388B4; " r="2.786476824341406" cx="503.6004003525625" /><circle cy="241.5273199335584" style="fill: #6388B4; " r="2.786476824341406" cx="511.96601407126093" /><circle cy="291.74320518536763" style="fill: #EF6F6A; " r="2.786476824341378" cx="456.846926312049" /><circle cy="283.0943692260853" style="fill: #EF6F6A; " r="2.786476824341406" cx="452.5955891692429" /><circle cy="296.3924603461971" style="fill: #FFAE34; " r="2.786476824341378" cx="443.2821882924595" /><circle cy="283.26828297093283" style="fill: #6388B4; " r="2.786476824341378" cx="463.50630963753963" /><circle cy="288.0603637830693" style="fill: #6388B4; " r="2.786476824341378" cx="466.5800400718093" /><circle cy="282.22181058073306" style="fill: #FFAE34; " r="2.786476824341378" cx="564.7151393754275" /><circle cy="309.77215393918516" style="fill: #FFAE34; " r="2.7864768243414346" cx="553.3815586351725" /><circle cy="239.67297881072452" style="fill: #FFAE34; " r="2.786476824341378" cx="582.3982684642003" /><circle cy="185.01805136479325" style="fill: #EF6F6A; " r="2.786476824341378" cx="572.726704191283" /><circle cy="266.7291546515823" style="fill: #FFAE34; " r="2.786476824341378" cx="601.8301454621744" /><circle cy="253.18291363867039" style="fill: #EF6F6A; " r="2.786476824341378" cx="451.0465252773554" /><circle cy="238.81171542291725" style="fill: #EF6F6A; " r="2.786476824341378" cx="507.581306300421" /><circle cy="235.8043531015576" style="fill: #EF6F6A; " r="2.786476824341406" cx="397.0713302944008" /><polyline points="282.5984535064547 306.302603871158 703.7544651025624 171.08883052574572 " style="stroke: #6388B4; fill: none; " /><polyline points="282.5984535064547 303.5975752014675 694.6511247131644 161.01339203388014 " style="stroke: #6388B4; fill: none; " /><polyline points="115.40984404597141 231.84198693615127 456.3968172179713 296.2455910753064 " style="stroke: #FFAE34; fill: none; " /><polyline points="199.00414877621304 285.34920117700756 503.60040035256253 244.23411138128213 " style="stroke: #6388B4; fill: none; " /><polyline points="199.00414877621304 280.93902282977353 511.96601407126093 241.52731993355837 " style="stroke: #6388B4; fill: none; " /><polyline points="115.40984404597141 245.75135138307016 456.846926312049 291.74320518536763 " style="stroke: #EF6F6A; fill: none; " /><polyline points="115.40984404597141 241.82082108120795 452.5955891692429 283.0943692260853 " style="stroke: #EF6F6A; fill: none; " /><polyline points="115.40984404597141 221.4242530249376 443.2821882924595 296.3924603461971 " style="stroke: #FFAE34; fill: none; " /><polyline points="115.40984404597141 245.51517940681353 463.5063096375396 283.26828297093283 " style="stroke: #6388B4; fill: none; " /><polyline points="115.40984404597141 243.02608288221273 466.58004007180926 288.0603637830693 " style="stroke: #6388B4; fill: none; " /><polyline points="73.61269168085059 280.3051621107229 564.7151393754274 282.22181058073306 " style="stroke: #FFAE34; fill: none; " /><polyline points="73.61269168085059 277.5186852863815 553.3815586351725 309.77215393918516 " style="stroke: #FFAE34; fill: none; " /><polyline points="199.00414877621304 276.51245754425827 582.3982684642004 239.67297881072454 " style="stroke: #FFAE34; fill: none; " /><polyline points="199.00414877621304 298.4172614689419 572.726704191283 185.01805136479325 " style="stroke: #EF6F6A; fill: none; " /><polyline points="199.00414877621304 250.350536249053 601.8301454621744 266.7291546515823 " style="stroke: #FFAE34; fill: none; " /><polyline points="157.20699641109223 242.68772498211416 451.0465252773554 253.18291363867039 " style="stroke: #EF6F6A; fill: none; " /><polyline points="199.00414877621304 263.5863011646745 507.581306300421 238.81171542291727 " style="stroke: #EF6F6A; fill: none; " /><polyline points="157.20699641109223 256.38790270179265 397.07133029440075 235.8043531015576 " style="stroke: #EF6F6A; fill: none; " /></svg>