<svg height="410" viewBox="0 0 1315.5822335907112 410" width="1315.5822335907112" xmlns="http://www.w3.org/2000/svg" version="1.1"><text x="31.866596019975532" style="text-anchor: middle; font-size: 72.53980925393395pt; " transform="rotate(-0.0, 31.866596019975532, 77.53980925393398)" y="77.53980925393398">&#91;</text><polygon points="57.25552925885242 15.880971388090131 57.25552925885242 88.42078064202411 129.79533851278637 88.42078064202411 129.79533851278637 15.880971388090131 " style="fill: blue; " /><text x="156.6619345327619" style="text-anchor: middle; font-size: 72.53980925393397pt; " transform="rotate(-0.0, 156.6619345327619, 88.42078064202411)" y="88.42078064202411">,</text><circle cy="52.15087601505712" style="fill: red; " r="36.26990462696696" cx="219.7984351797044" /><text x="282.9349358266469" style="text-anchor: middle; font-size: 72.53980925393395pt; " transform="rotate(-0.0, 282.9349358266469, 88.42078064202411)" y="88.42078064202411">,</text><polygon points="309.8015318466224 88.42078064202411 346.0714364735894 15.880971388090131 382.3413411005564 88.42078064202411 " style="fill: green; " /><text x="409.2079371205319" style="text-anchor: middle; font-size: 72.53980925393387pt; " transform="rotate(-0.0, 409.2079371205319, 77.53980925393398)" y="77.53980925393398">&#93;</text><polyline points="220.47010008020382 124.69068526899105 220.47010008020382 182.72253267213824 " style="stroke: black; fill: none; " /><polygon points="220.47010008020382 193.60350406022832 226.75223184016224 182.72253267213824 214.1879683202454 182.72253267213821 " style="" /><polygon points="147.93029082626987 222.61942776180192 147.93029082626987 367.6990462696698 293.0099093341378 367.6990462696698 293.0099093341378 222.61942776180192 " style="fill: blue; " /><circle cy="295.15923701573587" style="fill: red; " r="72.53980925393395" cx="220.47010008020382" /><polygon points="147.93029082626987 367.6990462696698 220.47010008020382 222.6194277618019 293.0099093341378 367.6990462696698 " style="fill: green; " /><text x="581.1541516483753" style="font-family: monospace; text-anchor: middle; font-size: 37.72070081204561pt; fill: grey; " transform="rotate(-0.0, 581.1541516483753, 197.95589261546434)" y="197.95589261546434">g</text><polygon points="508.61434239444134 150.07961850786796 617.4240562753423 150.07961850786796 617.4240562753423 113.80971388090097 689.9638655292763 186.3495231348349 617.4240562753423 258.8893323887689 617.4240562753423 222.6194277618019 508.61434239444134 222.6194277618019 " style="stroke: black; fill: white; fill-opacity: 0; " /><text x="789.3702708031858" style="text-anchor: middle; font-size: 72.53980925393398pt; " transform="rotate(-0.0, 789.3702708031858, 77.53980925393398)" y="77.53980925393398">&#91;</text><polygon points="861.9100800571197 15.880971388090131 861.9100800571197 88.42078064202411 934.4498893110537 88.42078064202411 934.4498893110537 15.880971388090131 " style="fill: blue; " /><text x="844.4467926441355" style="font-family: monospace; text-anchor: middle; font-size: 47.15087601505695pt; " transform="rotate(-0.0, 844.4467926441355, 75.72631402258565)" y="75.72631402258565">g</text><text x="961.3164853310292" style="text-anchor: middle; font-size: 72.53980925393398pt; " transform="rotate(-0.0, 961.3164853310292, 88.42078064202411)" y="88.42078064202411">,</text><circle cy="52.15087601505712" style="fill: red; " r="36.269904626966934" cx="1059.3795608039397" /><text x="1005.6463687639887" style="font-family: monospace; text-anchor: middle; font-size: 47.15087601505718pt; " transform="rotate(-0.0, 1005.6463687639887, 75.72631402258565)" y="75.72631402258565">g</text><text x="1122.5160614508823" style="text-anchor: middle; font-size: 72.53980925393398pt; " transform="rotate(-0.0, 1122.5160614508823, 88.42078064202411)" y="88.42078064202411">,</text><polygon points="1184.3092322968262 88.42078064202411 1220.5791369237932 15.880971388090131 1256.8490415507601 88.42078064202411 " style="fill: green; " /><text x="1166.845944883842" style="font-family: monospace; text-anchor: middle; font-size: 47.15087601505684pt; " transform="rotate(-0.0, 1166.845944883842, 75.72631402258565)" y="75.72631402258565">g</text><text x="1283.7156375707357" style="text-anchor: middle; font-size: 72.53980925393398pt; " transform="rotate(-0.0, 1283.7156375707357, 77.53980925393398)" y="77.53980925393398">&#93;</text><polyline points="1050.5135841173478 124.69068526899105 1050.5135841173478 182.72253267213824 " style="stroke: black; fill: none; " /><polygon points="1050.5135841173478 193.60350406022832 1056.7957158773063 182.72253267213827 1044.2314523573893 182.72253267213827 " style="" /><polygon points="1050.5135841173478 199.8264358822586 947.9268020584772 302.4132179411291 1050.5135841173478 404.9999999999999 1153.1003661762184 302.41321794112935 " style="opacity: 0.5; fill: blue; " /><circle cy="302.41321794112923" style="opacity: 0.5; fill: red; " r="72.53980925393387" cx="1050.5135841173478" /><polygon points="947.9268020584773 302.41321794112923 1101.8069751467833 251.11982691169388 1050.5135841173478 405.0 " style="opacity: 0.5; fill: green; " /></svg>