<svg height="300" viewBox="-178.94834526909722 -158.62363823784722 1393.547406684028 278.43119574652775" width="1541.5491894281963" preserveAspectRatio="xMidYMid meet" xmlns="http://www.w3.org/2000/svg" version="1.1"><polygon points="-133.98030598958331 -87.70930989583333 166.01969401041669 -87.70930989583333 166.01969401041669 112.29069010416667 -133.98030598958331 112.29069010416667 " style="vector-effect: non-scaling-stroke; stroke: lightgray; fill: white; stroke-width: 1.0; fill-opacity: 0; " transform="scale(1,-1)" /><polyline points="-133.98030598958331 -87.70930989583333 -133.98030598958331 112.29069010416667 " style="vector-effect: non-scaling-stroke; stroke: grey; fill: none; opacity: 0.6; stroke-width: 0.8; stroke-dasharray: 2; " transform="scale(1,-1)" /><polyline points="-58.980305989583314 -87.70930989583333 -58.9803059895833 112.29069010416667 " style="vector-effect: non-scaling-stroke; stroke: grey; fill: none; opacity: 0.6; stroke-width: 0.8; stroke-dasharray: 2; " transform="scale(1,-1)" /><polyline points="16.019694010416686 -87.70930989583333 16.019694010416686 112.29069010416667 " style="vector-effect: non-scaling-stroke; stroke: grey; fill: none; opacity: 0.6; stroke-width: 0.8; stroke-dasharray: 2; " transform="scale(1,-1)" /><polyline points="91.01969401041669 -87.70930989583333 91.01969401041669 112.29069010416667 " style="vector-effect: non-scaling-stroke; stroke: grey; fill: none; opacity: 0.6; stroke-width: 0.8; stroke-dasharray: 2; " transform="scale(1,-1)" /><polyline points="166.01969401041669 -87.70930989583333 166.01969401041669 112.29069010416667 " style="vector-effect: non-scaling-stroke; stroke: grey; fill: none; opacity: 0.6; stroke-width: 0.8; stroke-dasharray: 2; " transform="scale(1,-1)" /><polyline points="-133.98030598958331 -76.78679051843471 166.01969401041669 -76.78679051843471 " style="vector-effect: non-scaling-stroke; stroke: grey; fill: none; opacity: 0.6; stroke-width: 0.8; stroke-dasharray: 2; " transform="scale(1,-1)" /><polyline points="-133.98030598958331 -29.517420362784364 166.01969401041669 -29.517420362784364 " style="vector-effect: non-scaling-stroke; stroke: grey; fill: none; opacity: 0.6; stroke-width: 0.8; stroke-dasharray: 2; " transform="scale(1,-1)" /><polyline points="-133.98030598958331 17.751949792866 166.01969401041669 17.751949792866 " style="vector-effect: non-scaling-stroke; stroke: grey; fill: none; opacity: 0.6; stroke-width: 0.8; stroke-dasharray: 2; " transform="scale(1,-1)" /><polyline points="-133.98030598958331 65.02131994851634 166.01969401041669 65.02131994851634 " style="vector-effect: non-scaling-stroke; stroke: grey; fill: none; opacity: 0.6; stroke-width: 0.8; stroke-dasharray: 2; " transform="scale(1,-1)" /><polyline points="-133.98030598958331 112.29069010416667 166.01969401041669 112.29069010416667 " style="vector-effect: non-scaling-stroke; stroke: grey; fill: none; opacity: 0.6; stroke-width: 0.8; stroke-dasharray: 2; " transform="scale(1,-1)" /><polyline points="-133.98030598958331 -87.70930989583333 166.01969401041669 -87.70930989583333 " style="vector-effect: non-scaling-stroke; stroke: black; fill: none; " transform="scale(1,-1)" /><polygon points="166.16969401041672 -87.70930989583333 166.01969401041669 -87.62270735545486 166.01969401041669 -87.7959124362118 " style="vector-effect: non-scaling-stroke; " transform="scale(1,-1)" /><polygon points="-134.48030598958331 -91.70930989583333 -133.48030598958331 -91.70930989583333 -133.48030598958331 -87.70930989583333 -134.48030598958331 -87.70930989583333 " style="vector-effect: non-scaling-stroke; " transform="scale(1,-1)" /><text x="-133.98030598958331" style="font-family: Helvetica; text-anchor: middle; vector-effect: non-scaling-stroke; font-size: 7.0pt; " transform="translate(0 200.470703125) rotate(-0.0, -133.98030598958331, -100.2353515625)" y="-100.2353515625">0.00</text><polygon points="-59.480305989583314 -91.70930989583333 -58.480305989583314 -91.70930989583333 -58.480305989583314 -87.70930989583333 -59.480305989583314 -87.70930989583333 " style="vector-effect: non-scaling-stroke; " transform="scale(1,-1)" /><text x="-58.980305989583314" style="font-family: Helvetica; text-anchor: middle; vector-effect: non-scaling-stroke; font-size: 7.0pt; " transform="translate(0 200.51627604166666) rotate(-0.0, -58.980305989583314, -100.25813802083333)" y="-100.25813802083333">0.25</text><polygon points="15.519694010416686 -91.70930989583333 16.519694010416686 -91.70930989583333 16.519694010416686 -87.70930989583333 15.519694010416686 -87.70930989583333 " style="vector-effect: non-scaling-stroke; " transform="scale(1,-1)" /><text x="16.019694010416686" style="font-family: Helvetica; text-anchor: middle; vector-effect: non-scaling-stroke; font-size: 7.0pt; " transform="translate(0 200.470703125) rotate(-0.0, 16.019694010416686, -100.2353515625)" y="-100.2353515625">0.50</text><polygon points="90.51969401041669 -91.70930989583333 91.51969401041669 -91.70930989583333 91.51969401041669 -87.70930989583333 90.51969401041669 -87.70930989583333 " style="vector-effect: non-scaling-stroke; " transform="scale(1,-1)" /><text x="91.01969401041669" style="font-family: Helvetica; text-anchor: middle; vector-effect: non-scaling-stroke; font-size: 7.0pt; " transform="translate(0 200.470703125) rotate(-0.0, 91.01969401041669, -100.2353515625)" y="-100.2353515625">0.75</text><polygon points="165.51969401041669 -91.70930989583333 166.51969401041669 -91.70930989583333 166.51969401041669 -87.70930989583333 165.51969401041669 -87.70930989583333 " style="vector-effect: non-scaling-stroke; " transform="scale(1,-1)" /><text x="166.01969401041669" style="font-family: Helvetica; text-anchor: middle; vector-effect: non-scaling-stroke; font-size: 7.0pt; " transform="translate(0 200.470703125) rotate(-0.0, 166.01969401041669, -100.2353515625)" y="-100.2353515625">1.00</text><text x="15.869303385416686" style="font-family: Helvetica; text-anchor: middle; vector-effect: non-scaling-stroke; font-size: 7.0pt; " transform="translate(0 230.63346354166666) rotate(-0.0, 15.869303385416686, -115.31673177083333)" y="-115.31673177083333">x</text><polyline points="-133.98030598958331 -87.70930989583333 -133.98030598958331 112.29069010416667 " style="vector-effect: non-scaling-stroke; stroke: black; fill: none; " transform="scale(1,-1)" /><polygon points="-133.98030598958331 112.44069010416668 -134.06690852996178 112.29069010416664 -133.89370344920485 112.29069010416664 " style="vector-effect: non-scaling-stroke; " transform="scale(1,-1)" /><polygon points="-137.98030598958331 -77.28679051843471 -133.98030598958331 -77.28679051843471 -133.98030598958331 -76.28679051843471 -137.98030598958331 -76.28679051843471 " style="vector-effect: non-scaling-stroke; " transform="scale(1,-1)" /><text x="-148.71891276041666" style="font-family: Helvetica; text-anchor: middle; vector-effect: non-scaling-stroke; font-size: 7.0pt; " transform="translate(0 160.57358103686943) rotate(-0.0, -148.71891276041666, -80.28679051843471)" y="-80.28679051843471">0.00</text><polygon points="-137.98030598958331 -30.017420362784364 -133.98030598958331 -30.017420362784364 -133.98030598958331 -29.017420362784364 -137.98030598958331 -29.017420362784364 " style="vector-effect: non-scaling-stroke; " transform="scale(1,-1)" /><text x="-148.71891276041666" style="font-family: Helvetica; text-anchor: middle; vector-effect: non-scaling-stroke; font-size: 7.0pt; " transform="translate(0 66.03484072556873) rotate(-0.0, -148.71891276041666, -33.017420362784364)" y="-33.017420362784364">0.25</text><polygon points="-137.98030598958331 17.251949792866 -133.98030598958331 17.251949792866 -133.98030598958331 18.251949792866 -137.98030598958331 18.251949792866 " style="vector-effect: non-scaling-stroke; " transform="scale(1,-1)" /><text x="-148.71891276041666" style="font-family: Helvetica; text-anchor: middle; vector-effect: non-scaling-stroke; font-size: 7.0pt; " transform="translate(0 -28.503899585732) rotate(-0.0, -148.71891276041666, 14.251949792866)" y="14.251949792866">0.50</text><polygon points="-137.98030598958331 64.52131994851634 -133.98030598958331 64.52131994851634 -133.98030598958331 65.52131994851634 -137.98030598958331 65.52131994851634 " style="vector-effect: non-scaling-stroke; " transform="scale(1,-1)" /><text x="-148.71891276041666" style="font-family: Helvetica; text-anchor: middle; vector-effect: non-scaling-stroke; font-size: 7.0pt; " transform="translate(0 -123.04263989703267) rotate(-0.0, -148.71891276041666, 61.521319948516336)" y="61.521319948516336">0.75</text><polygon points="-137.98030598958331 111.79069010416667 -133.98030598958331 111.79069010416667 -133.98030598958331 112.79069010416667 -137.98030598958331 112.79069010416667 " style="vector-effect: non-scaling-stroke; " transform="scale(1,-1)" /><text x="-148.41813151041666" style="font-family: Helvetica; text-anchor: middle; vector-effect: non-scaling-stroke; font-size: 7.0pt; " transform="translate(0 -217.58138020833334) rotate(-0.0, -148.41813151041666, 108.79069010416667)" y="108.79069010416667">1.00</text><text x="-169.45817057291666" style="font-family: Helvetica; text-anchor: middle; vector-effect: non-scaling-stroke; font-size: 7.0pt; " transform="translate(0 -27.607421875) rotate(-90.0, -169.45817057291666, 13.8037109375)" y="13.8037109375">y</text><polygon points="-133.98030598958331 -87.70930989583333 166.01969401041669 -87.70930989583333 166.01969401041669 112.29069010416667 -133.98030598958331 112.29069010416667 " style="vector-effect: non-scaling-stroke; stroke: lightgray; fill: white; stroke-width: 1.0; fill-opacity: 0; " transform="scale(1,-1)" /><polyline points="-133.98030598958331 -87.70930989583333 -133.98030598958331 112.29069010416667 " style="vector-effect: non-scaling-stroke; stroke: grey; fill: none; opacity: 0.6; stroke-width: 0.8; stroke-dasharray: 2; " transform="scale(1,-1)" /><polyline points="-58.980305989583314 -87.70930989583333 -58.9803059895833 112.29069010416667 " style="vector-effect: non-scaling-stroke; stroke: grey; fill: none; opacity: 0.6; stroke-width: 0.8; stroke-dasharray: 2; " transform="scale(1,-1)" /><polyline points="16.019694010416686 -87.70930989583333 16.019694010416686 112.29069010416667 " style="vector-effect: non-scaling-stroke; stroke: grey; fill: none; opacity: 0.6; stroke-width: 0.8; stroke-dasharray: 2; " transform="scale(1,-1)" /><polyline points="91.01969401041669 -87.70930989583333 91.01969401041669 112.29069010416667 " style="vector-effect: non-scaling-stroke; stroke: grey; fill: none; opacity: 0.6; stroke-width: 0.8; stroke-dasharray: 2; " transform="scale(1,-1)" /><polyline points="166.01969401041669 -87.70930989583333 166.01969401041669 112.29069010416667 " style="vector-effect: non-scaling-stroke; stroke: grey; fill: none; opacity: 0.6; stroke-width: 0.8; stroke-dasharray: 2; " transform="scale(1,-1)" /><polyline points="-133.98030598958331 -76.78679051843471 166.01969401041669 -76.78679051843471 " style="vector-effect: non-scaling-stroke; stroke: grey; fill: none; opacity: 0.6; stroke-width: 0.8; stroke-dasharray: 2; " transform="scale(1,-1)" /><polyline points="-133.98030598958331 -29.517420362784364 166.01969401041669 -29.517420362784364 " style="vector-effect: non-scaling-stroke; stroke: grey; fill: none; opacity: 0.6; stroke-width: 0.8; stroke-dasharray: 2; " transform="scale(1,-1)" /><polyline points="-133.98030598958331 17.751949792866 166.01969401041669 17.751949792866 " style="vector-effect: non-scaling-stroke; stroke: grey; fill: none; opacity: 0.6; stroke-width: 0.8; stroke-dasharray: 2; " transform="scale(1,-1)" /><polyline points="-133.98030598958331 65.02131994851634 166.01969401041669 65.02131994851634 " style="vector-effect: non-scaling-stroke; stroke: grey; fill: none; opacity: 0.6; stroke-width: 0.8; stroke-dasharray: 2; " transform="scale(1,-1)" /><polyline points="-133.98030598958331 112.29069010416667 166.01969401041669 112.29069010416667 " style="vector-effect: non-scaling-stroke; stroke: grey; fill: none; opacity: 0.6; stroke-width: 0.8; stroke-dasharray: 2; " transform="scale(1,-1)" /><polyline points="-133.98030598958331 -87.70930989583333 166.01969401041669 -87.70930989583333 " style="vector-effect: non-scaling-stroke; stroke: black; fill: none; " transform="scale(1,-1)" /><polygon points="166.16969401041672 -87.70930989583333 166.01969401041669 -87.62270735545486 166.01969401041669 -87.7959124362118 " style="vector-effect: non-scaling-stroke; " transform="scale(1,-1)" /><polygon points="-134.48030598958331 -91.70930989583333 -133.48030598958331 -91.70930989583333 -133.48030598958331 -87.70930989583333 -134.48030598958331 -87.70930989583333 " style="vector-effect: non-scaling-stroke; " transform="scale(1,-1)" /><text x="-133.98030598958331" style="font-family: Helvetica; text-anchor: middle; vector-effect: non-scaling-stroke; font-size: 7.0pt; " transform="translate(0 200.470703125) rotate(-0.0, -133.98030598958331, -100.2353515625)" y="-100.2353515625">0.00</text><polygon points="-59.480305989583314 -91.70930989583333 -58.480305989583314 -91.70930989583333 -58.480305989583314 -87.70930989583333 -59.480305989583314 -87.70930989583333 " style="vector-effect: non-scaling-stroke; " transform="scale(1,-1)" /><text x="-58.980305989583314" style="font-family: Helvetica; text-anchor: middle; vector-effect: non-scaling-stroke; font-size: 7.0pt; " transform="translate(0 200.51627604166666) rotate(-0.0, -58.980305989583314, -100.25813802083333)" y="-100.25813802083333">0.25</text><polygon points="15.519694010416686 -91.70930989583333 16.519694010416686 -91.70930989583333 16.519694010416686 -87.70930989583333 15.519694010416686 -87.70930989583333 " style="vector-effect: non-scaling-stroke; " transform="scale(1,-1)" /><text x="16.019694010416686" style="font-family: Helvetica; text-anchor: middle; vector-effect: non-scaling-stroke; font-size: 7.0pt; " transform="translate(0 200.470703125) rotate(-0.0, 16.019694010416686, -100.2353515625)" y="-100.2353515625">0.50</text><polygon points="90.51969401041669 -91.70930989583333 91.51969401041669 -91.70930989583333 91.51969401041669 -87.70930989583333 90.51969401041669 -87.70930989583333 " style="vector-effect: non-scaling-stroke; " transform="scale(1,-1)" /><text x="91.01969401041669" style="font-family: Helvetica; text-anchor: middle; vector-effect: non-scaling-stroke; font-size: 7.0pt; " transform="translate(0 200.470703125) rotate(-0.0, 91.01969401041669, -100.2353515625)" y="-100.2353515625">0.75</text><polygon points="165.51969401041669 -91.70930989583333 166.51969401041669 -91.70930989583333 166.51969401041669 -87.70930989583333 165.51969401041669 -87.70930989583333 " style="vector-effect: non-scaling-stroke; " transform="scale(1,-1)" /><text x="166.01969401041669" style="font-family: Helvetica; text-anchor: middle; vector-effect: non-scaling-stroke; font-size: 7.0pt; " transform="translate(0 200.470703125) rotate(-0.0, 166.01969401041669, -100.2353515625)" y="-100.2353515625">1.00</text><text x="15.869303385416686" style="font-family: Helvetica; text-anchor: middle; vector-effect: non-scaling-stroke; font-size: 7.0pt; " transform="translate(0 230.63346354166666) rotate(-0.0, 15.869303385416686, -115.31673177083333)" y="-115.31673177083333">x</text><polyline points="-133.98030598958331 -87.70930989583333 -133.98030598958331 112.29069010416667 " style="vector-effect: non-scaling-stroke; stroke: black; fill: none; " transform="scale(1,-1)" /><polygon points="-133.98030598958331 112.44069010416668 -134.06690852996178 112.29069010416664 -133.89370344920485 112.29069010416664 " style="vector-effect: non-scaling-stroke; " transform="scale(1,-1)" /><polygon points="-137.98030598958331 -77.28679051843471 -133.98030598958331 -77.28679051843471 -133.98030598958331 -76.28679051843471 -137.98030598958331 -76.28679051843471 " style="vector-effect: non-scaling-stroke; " transform="scale(1,-1)" /><text x="-148.71891276041666" style="font-family: Helvetica; text-anchor: middle; vector-effect: non-scaling-stroke; font-size: 7.0pt; " transform="translate(0 160.57358103686943) rotate(-0.0, -148.71891276041666, -80.28679051843471)" y="-80.28679051843471">0.00</text><polygon points="-137.98030598958331 -30.017420362784364 -133.98030598958331 -30.017420362784364 -133.98030598958331 -29.017420362784364 -137.98030598958331 -29.017420362784364 " style="vector-effect: non-scaling-stroke; " transform="scale(1,-1)" /><text x="-148.71891276041666" style="font-family: Helvetica; text-anchor: middle; vector-effect: non-scaling-stroke; font-size: 7.0pt; " transform="translate(0 66.03484072556873) rotate(-0.0, -148.71891276041666, -33.017420362784364)" y="-33.017420362784364">0.25</text><polygon points="-137.98030598958331 17.251949792866 -133.98030598958331 17.251949792866 -133.98030598958331 18.251949792866 -137.98030598958331 18.251949792866 " style="vector-effect: non-scaling-stroke; " transform="scale(1,-1)" /><text x="-148.71891276041666" style="font-family: Helvetica; text-anchor: middle; vector-effect: non-scaling-stroke; font-size: 7.0pt; " transform="translate(0 -28.503899585732) rotate(-0.0, -148.71891276041666, 14.251949792866)" y="14.251949792866">0.50</text><polygon points="-137.98030598958331 64.52131994851634 -133.98030598958331 64.52131994851634 -133.98030598958331 65.52131994851634 -137.98030598958331 65.52131994851634 " style="vector-effect: non-scaling-stroke; " transform="scale(1,-1)" /><text x="-148.71891276041666" style="font-family: Helvetica; text-anchor: middle; vector-effect: non-scaling-stroke; font-size: 7.0pt; " transform="translate(0 -123.04263989703267) rotate(-0.0, -148.71891276041666, 61.521319948516336)" y="61.521319948516336">0.75</text><polygon points="-137.98030598958331 111.79069010416667 -133.98030598958331 111.79069010416667 -133.98030598958331 112.79069010416667 -137.98030598958331 112.79069010416667 " style="vector-effect: non-scaling-stroke; " transform="scale(1,-1)" /><text x="-148.41813151041666" style="font-family: Helvetica; text-anchor: middle; vector-effect: non-scaling-stroke; font-size: 7.0pt; " transform="translate(0 -217.58138020833334) rotate(-0.0, -148.41813151041666, 108.79069010416667)" y="108.79069010416667">1.00</text><text x="-169.45817057291666" style="font-family: Helvetica; text-anchor: middle; vector-effect: non-scaling-stroke; font-size: 7.0pt; " transform="translate(0 -27.607421875) rotate(-90.0, -169.45817057291666, 13.8037109375)" y="13.8037109375">y</text><text x="-133.98030598958331" style="font-family: Helvetica; text-anchor: start; vector-effect: non-scaling-stroke; font-size: 13.0pt; " transform="translate(0 188.41861979166666) rotate(-0.0, -133.98030598958331, -94.20930989583333)" y="-94.20930989583333"></text><circle cy="49.52996126586633" style="vector-effect: non-scaling-stroke; fill: ; opacity: 0.6; " r="3.0" transform="scale(1,-1)" cx="121.32683289283074" /><circle cy="15.52602753115022" style="vector-effect: non-scaling-stroke; fill: ; opacity: 0.6; " r="3.0" transform="scale(1,-1)" cx="111.30632163711121" /><circle cy="39.05349627432652" style="vector-effect: non-scaling-stroke; fill: ; opacity: 0.6; " r="3.0" transform="scale(1,-1)" cx="103.40614085325748" /><circle cy="7.8060819804558434" style="vector-effect: non-scaling-stroke; fill: ; opacity: 0.6; " r="3.0" transform="scale(1,-1)" cx="53.821509749302066" /><circle cy="26.008139288141777" style="vector-effect: non-scaling-stroke; fill: ; opacity: 0.6; " r="3.0" transform="scale(1,-1)" cx="11.39286196665617" /><circle cy="-51.559882374439425" style="vector-effect: non-scaling-stroke; fill: ; opacity: 0.6; " r="3.0" transform="scale(1,-1)" cx="72.33661925952086" /><circle cy="-76.785861232716" style="vector-effect: non-scaling-stroke; fill: ; opacity: 0.6; " r="3.0" transform="scale(1,-1)" cx="114.88012102718773" /><circle cy="24.889797795861597" style="vector-effect: non-scaling-stroke; fill: ; opacity: 0.6; " r="3.0" transform="scale(1,-1)" cx="34.52440112963939" /><circle cy="8.519377207362695" style="vector-effect: non-scaling-stroke; fill: ; opacity: 0.6; " r="3.0" transform="scale(1,-1)" cx="-63.02006443482708" /><circle cy="-3.263110728116814" style="vector-effect: non-scaling-stroke; fill: ; opacity: 0.6; " r="3.0" transform="scale(1,-1)" cx="4.257821480317233" /><circle cy="87.06586871404384" style="vector-effect: non-scaling-stroke; fill: ; opacity: 0.6; " r="3.0" transform="scale(1,-1)" cx="-120.01133870245681" /><circle cy="-9.427899567620685" style="vector-effect: non-scaling-stroke; fill: ; opacity: 0.6; " r="3.0" transform="scale(1,-1)" cx="-12.859667619467857" /><circle cy="-62.66863622890182" style="vector-effect: non-scaling-stroke; fill: ; opacity: 0.6; " r="3.0" transform="scale(1,-1)" cx="123.47254684129285" /><circle cy="-37.78473717037407" style="vector-effect: non-scaling-stroke; fill: ; opacity: 0.6; " r="3.0" transform="scale(1,-1)" cx="110.4880641367563" /><circle cy="57.278136479717816" style="vector-effect: non-scaling-stroke; fill: ; opacity: 0.6; " r="3.0" transform="scale(1,-1)" cx="48.82184662521476" /><circle cy="-62.09759475510998" style="vector-effect: non-scaling-stroke; fill: ; opacity: 0.6; " r="3.0" transform="scale(1,-1)" cx="53.240312310893074" /><circle cy="53.26346617990829" style="vector-effect: non-scaling-stroke; fill: ; opacity: 0.6; " r="3.0" transform="scale(1,-1)" cx="-27.78087579630879" /><circle cy="84.98445445057398" style="vector-effect: non-scaling-stroke; fill: ; opacity: 0.6; " r="3.0" transform="scale(1,-1)" cx="-5.455770471630927" /><circle cy="-46.69855644882847" style="vector-effect: non-scaling-stroke; fill: ; opacity: 0.6; " r="3.0" transform="scale(1,-1)" cx="-36.647686521435844" /><circle cy="59.53400270444398" style="vector-effect: non-scaling-stroke; fill: ; opacity: 0.6; " r="3.0" transform="scale(1,-1)" cx="58.187731716916886" /><text x="20.0" style="font-family: Courier New; text-anchor: middle; vector-effect: non-scaling-stroke; font-size: 12.0pt; " transform="translate(0 -288.0) rotate(-0.0, 20.0, 144.0)" y="144.0">Plot</text><text x="20.0" style="font-family: Courier New; text-anchor: middle; vector-effect: non-scaling-stroke; font-size: 8.0pt; " transform="translate(0 -252.0) rotate(-0.0, 20.0, 126.0)" y="126.0">&#40;Data, Encodings, Guide, Graphic Expression&#41;</text><text x="220.38069661458337" style="font-family: Courier New; text-anchor: start; vector-effect: non-scaling-stroke; font-size: 62.0pt; " transform="translate(0 62.0) rotate(-0.0, 220.38069661458337, -31.0)" y="-31.0">&#61;</text><polygon points="356.42952473958337 -87.70930989583333 656.4295247395834 -87.70930989583333 656.4295247395834 112.29069010416667 356.42952473958337 112.29069010416667 " style="vector-effect: non-scaling-stroke; stroke: lightgray; fill: white; stroke-width: 1.0; fill-opacity: 0; " transform="scale(1,-1)" /><polyline points="356.42952473958337 -87.70930989583333 356.42952473958337 112.29069010416667 " style="vector-effect: non-scaling-stroke; stroke: grey; fill: none; opacity: 0.6; stroke-width: 0.8; stroke-dasharray: 2; " transform="scale(1,-1)" /><polyline points="431.42952473958337 -87.70930989583333 431.42952473958337 112.29069010416667 " style="vector-effect: non-scaling-stroke; stroke: grey; fill: none; opacity: 0.6; stroke-width: 0.8; stroke-dasharray: 2; " transform="scale(1,-1)" /><polyline points="506.42952473958337 -87.70930989583333 506.42952473958337 112.29069010416667 " style="vector-effect: non-scaling-stroke; stroke: grey; fill: none; opacity: 0.6; stroke-width: 0.8; stroke-dasharray: 2; " transform="scale(1,-1)" /><polyline points="581.4295247395834 -87.70930989583333 581.4295247395834 112.29069010416667 " style="vector-effect: non-scaling-stroke; stroke: grey; fill: none; opacity: 0.6; stroke-width: 0.8; stroke-dasharray: 2; " transform="scale(1,-1)" /><polyline points="656.4295247395834 -87.70930989583333 656.4295247395834 112.29069010416667 " style="vector-effect: non-scaling-stroke; stroke: grey; fill: none; opacity: 0.6; stroke-width: 0.8; stroke-dasharray: 2; " transform="scale(1,-1)" /><polyline points="356.42952473958337 -76.78679051843471 656.4295247395834 -76.78679051843471 " style="vector-effect: non-scaling-stroke; stroke: grey; fill: none; opacity: 0.6; stroke-width: 0.8; stroke-dasharray: 2; " transform="scale(1,-1)" /><polyline points="356.42952473958337 -29.517420362784364 656.4295247395834 -29.517420362784364 " style="vector-effect: non-scaling-stroke; stroke: grey; fill: none; opacity: 0.6; stroke-width: 0.8; stroke-dasharray: 2; " transform="scale(1,-1)" /><polyline points="356.42952473958337 17.751949792866 656.4295247395834 17.751949792866 " style="vector-effect: non-scaling-stroke; stroke: grey; fill: none; opacity: 0.6; stroke-width: 0.8; stroke-dasharray: 2; " transform="scale(1,-1)" /><polyline points="356.42952473958337 65.02131994851634 656.4295247395834 65.02131994851634 " style="vector-effect: non-scaling-stroke; stroke: grey; fill: none; opacity: 0.6; stroke-width: 0.8; stroke-dasharray: 2; " transform="scale(1,-1)" /><polyline points="356.42952473958337 112.29069010416667 656.4295247395834 112.29069010416667 " style="vector-effect: non-scaling-stroke; stroke: grey; fill: none; opacity: 0.6; stroke-width: 0.8; stroke-dasharray: 2; " transform="scale(1,-1)" /><polyline points="356.42952473958337 -87.70930989583333 656.4295247395834 -87.70930989583333 " style="vector-effect: non-scaling-stroke; stroke: black; fill: none; " transform="scale(1,-1)" /><polygon points="656.5795247395833 -87.70930989583333 656.4295247395834 -87.62270735545486 656.4295247395833 -87.7959124362118 " style="vector-effect: non-scaling-stroke; " transform="scale(1,-1)" /><polygon points="355.92952473958337 -91.70930989583333 356.92952473958337 -91.70930989583333 356.92952473958337 -87.70930989583333 355.92952473958337 -87.70930989583333 " style="vector-effect: non-scaling-stroke; " transform="scale(1,-1)" /><text x="356.42952473958337" style="font-family: Helvetica; text-anchor: middle; vector-effect: non-scaling-stroke; font-size: 7.0pt; " transform="translate(0 200.470703125) rotate(-0.0, 356.42952473958337, -100.2353515625)" y="-100.2353515625">0.00</text><polygon points="430.92952473958337 -91.70930989583333 431.92952473958337 -91.70930989583333 431.92952473958337 -87.70930989583333 430.92952473958337 -87.70930989583333 " style="vector-effect: non-scaling-stroke; " transform="scale(1,-1)" /><text x="431.42952473958337" style="font-family: Helvetica; text-anchor: middle; vector-effect: non-scaling-stroke; font-size: 7.0pt; " transform="translate(0 200.51627604166666) rotate(-0.0, 431.42952473958337, -100.25813802083333)" y="-100.25813802083333">0.25</text><polygon points="505.92952473958337 -91.70930989583333 506.92952473958337 -91.70930989583333 506.92952473958337 -87.70930989583333 505.92952473958337 -87.70930989583333 " style="vector-effect: non-scaling-stroke; " transform="scale(1,-1)" /><text x="506.42952473958337" style="font-family: Helvetica; text-anchor: middle; vector-effect: non-scaling-stroke; font-size: 7.0pt; " transform="translate(0 200.470703125) rotate(-0.0, 506.42952473958337, -100.2353515625)" y="-100.2353515625">0.50</text><polygon points="580.9295247395834 -91.70930989583333 581.9295247395834 -91.70930989583333 581.9295247395834 -87.70930989583333 580.9295247395834 -87.70930989583333 " style="vector-effect: non-scaling-stroke; " transform="scale(1,-1)" /><text x="581.4295247395834" style="font-family: Helvetica; text-anchor: middle; vector-effect: non-scaling-stroke; font-size: 7.0pt; " transform="translate(0 200.470703125) rotate(-0.0, 581.4295247395834, -100.2353515625)" y="-100.2353515625">0.75</text><polygon points="655.9295247395834 -91.70930989583333 656.9295247395834 -91.70930989583333 656.9295247395834 -87.70930989583333 655.9295247395834 -87.70930989583333 " style="vector-effect: non-scaling-stroke; " transform="scale(1,-1)" /><text x="656.4295247395834" style="font-family: Helvetica; text-anchor: middle; vector-effect: non-scaling-stroke; font-size: 7.0pt; " transform="translate(0 200.470703125) rotate(-0.0, 656.4295247395834, -100.2353515625)" y="-100.2353515625">1.00</text><text x="506.27913411458337" style="font-family: Helvetica; text-anchor: middle; vector-effect: non-scaling-stroke; font-size: 7.0pt; " transform="translate(0 230.63346354166666) rotate(-0.0, 506.27913411458337, -115.31673177083333)" y="-115.31673177083333">x</text><polyline points="356.42952473958337 -87.70930989583333 356.42952473958337 112.29069010416667 " style="vector-effect: non-scaling-stroke; stroke: black; fill: none; " transform="scale(1,-1)" /><polygon points="356.42952473958337 112.44069010416668 356.342922199205 112.2906901041666 356.5161272799619 112.29069010416669 " style="vector-effect: non-scaling-stroke; " transform="scale(1,-1)" /><polygon points="352.42952473958337 -77.28679051843471 356.42952473958337 -77.28679051843471 356.42952473958337 -76.28679051843471 352.42952473958337 -76.28679051843471 " style="vector-effect: non-scaling-stroke; " transform="scale(1,-1)" /><text x="341.69091796875" style="font-family: Helvetica; text-anchor: middle; vector-effect: non-scaling-stroke; font-size: 7.0pt; " transform="translate(0 160.57358103686943) rotate(-0.0, 341.69091796875, -80.28679051843471)" y="-80.28679051843471">0.00</text><polygon points="352.42952473958337 -30.017420362784364 356.42952473958337 -30.017420362784364 356.42952473958337 -29.017420362784364 352.42952473958337 -29.017420362784364 " style="vector-effect: non-scaling-stroke; " transform="scale(1,-1)" /><text x="341.69091796875" style="font-family: Helvetica; text-anchor: middle; vector-effect: non-scaling-stroke; font-size: 7.0pt; " transform="translate(0 66.03484072556873) rotate(-0.0, 341.69091796875, -33.017420362784364)" y="-33.017420362784364">0.25</text><polygon points="352.42952473958337 17.251949792866 356.42952473958337 17.251949792866 356.42952473958337 18.251949792866 352.42952473958337 18.251949792866 " style="vector-effect: non-scaling-stroke; " transform="scale(1,-1)" /><text x="341.69091796875" style="font-family: Helvetica; text-anchor: middle; vector-effect: non-scaling-stroke; font-size: 7.0pt; " transform="translate(0 -28.503899585732) rotate(-0.0, 341.69091796875, 14.251949792866)" y="14.251949792866">0.50</text><polygon points="352.42952473958337 64.52131994851634 356.42952473958337 64.52131994851634 356.42952473958337 65.52131994851634 352.42952473958337 65.52131994851634 " style="vector-effect: non-scaling-stroke; " transform="scale(1,-1)" /><text x="341.69091796875" style="font-family: Helvetica; text-anchor: middle; vector-effect: non-scaling-stroke; font-size: 7.0pt; " transform="translate(0 -123.04263989703267) rotate(-0.0, 341.69091796875, 61.521319948516336)" y="61.521319948516336">0.75</text><polygon points="352.42952473958337 111.79069010416667 356.42952473958337 111.79069010416667 356.42952473958337 112.79069010416667 352.42952473958337 112.79069010416667 " style="vector-effect: non-scaling-stroke; " transform="scale(1,-1)" /><text x="341.99169921875" style="font-family: Helvetica; text-anchor: middle; vector-effect: non-scaling-stroke; font-size: 7.0pt; " transform="translate(0 -217.58138020833334) rotate(-0.0, 341.99169921875, 108.79069010416667)" y="108.79069010416667">1.00</text><text x="320.95166015625" style="font-family: Helvetica; text-anchor: middle; vector-effect: non-scaling-stroke; font-size: 7.0pt; " transform="translate(0 -27.607421875) rotate(-90.0, 320.95166015625, 13.8037109375)" y="13.8037109375">y</text><polygon points="356.42952473958337 -87.70930989583333 656.4295247395834 -87.70930989583333 656.4295247395834 112.29069010416667 356.42952473958337 112.29069010416667 " style="vector-effect: non-scaling-stroke; stroke: lightgray; fill: white; stroke-width: 1.0; fill-opacity: 0; " transform="scale(1,-1)" /><polyline points="356.42952473958337 -87.70930989583333 356.42952473958337 112.29069010416667 " style="vector-effect: non-scaling-stroke; stroke: grey; fill: none; opacity: 0.6; stroke-width: 0.8; stroke-dasharray: 2; " transform="scale(1,-1)" /><polyline points="431.42952473958337 -87.70930989583333 431.42952473958337 112.29069010416667 " style="vector-effect: non-scaling-stroke; stroke: grey; fill: none; opacity: 0.6; stroke-width: 0.8; stroke-dasharray: 2; " transform="scale(1,-1)" /><polyline points="506.42952473958337 -87.70930989583333 506.42952473958337 112.29069010416667 " style="vector-effect: non-scaling-stroke; stroke: grey; fill: none; opacity: 0.6; stroke-width: 0.8; stroke-dasharray: 2; " transform="scale(1,-1)" /><polyline points="581.4295247395834 -87.70930989583333 581.4295247395834 112.29069010416667 " style="vector-effect: non-scaling-stroke; stroke: grey; fill: none; opacity: 0.6; stroke-width: 0.8; stroke-dasharray: 2; " transform="scale(1,-1)" /><polyline points="656.4295247395834 -87.70930989583333 656.4295247395834 112.29069010416667 " style="vector-effect: non-scaling-stroke; stroke: grey; fill: none; opacity: 0.6; stroke-width: 0.8; stroke-dasharray: 2; " transform="scale(1,-1)" /><polyline points="356.42952473958337 -76.78679051843471 656.4295247395834 -76.78679051843471 " style="vector-effect: non-scaling-stroke; stroke: grey; fill: none; opacity: 0.6; stroke-width: 0.8; stroke-dasharray: 2; " transform="scale(1,-1)" /><polyline points="356.42952473958337 -29.517420362784364 656.4295247395834 -29.517420362784364 " style="vector-effect: non-scaling-stroke; stroke: grey; fill: none; opacity: 0.6; stroke-width: 0.8; stroke-dasharray: 2; " transform="scale(1,-1)" /><polyline points="356.42952473958337 17.751949792866 656.4295247395834 17.751949792866 " style="vector-effect: non-scaling-stroke; stroke: grey; fill: none; opacity: 0.6; stroke-width: 0.8; stroke-dasharray: 2; " transform="scale(1,-1)" /><polyline points="356.42952473958337 65.02131994851634 656.4295247395834 65.02131994851634 " style="vector-effect: non-scaling-stroke; stroke: grey; fill: none; opacity: 0.6; stroke-width: 0.8; stroke-dasharray: 2; " transform="scale(1,-1)" /><polyline points="356.42952473958337 112.29069010416667 656.4295247395834 112.29069010416667 " style="vector-effect: non-scaling-stroke; stroke: grey; fill: none; opacity: 0.6; stroke-width: 0.8; stroke-dasharray: 2; " transform="scale(1,-1)" /><polyline points="356.42952473958337 -87.70930989583333 656.4295247395834 -87.70930989583333 " style="vector-effect: non-scaling-stroke; stroke: black; fill: none; " transform="scale(1,-1)" /><polygon points="656.5795247395833 -87.70930989583333 656.4295247395834 -87.62270735545486 656.4295247395833 -87.7959124362118 " style="vector-effect: non-scaling-stroke; " transform="scale(1,-1)" /><polygon points="355.92952473958337 -91.70930989583333 356.92952473958337 -91.70930989583333 356.92952473958337 -87.70930989583333 355.92952473958337 -87.70930989583333 " style="vector-effect: non-scaling-stroke; " transform="scale(1,-1)" /><text x="356.42952473958337" style="font-family: Helvetica; text-anchor: middle; vector-effect: non-scaling-stroke; font-size: 7.0pt; " transform="translate(0 200.470703125) rotate(-0.0, 356.42952473958337, -100.2353515625)" y="-100.2353515625">0.00</text><polygon points="430.92952473958337 -91.70930989583333 431.92952473958337 -91.70930989583333 431.92952473958337 -87.70930989583333 430.92952473958337 -87.70930989583333 " style="vector-effect: non-scaling-stroke; " transform="scale(1,-1)" /><text x="431.42952473958337" style="font-family: Helvetica; text-anchor: middle; vector-effect: non-scaling-stroke; font-size: 7.0pt; " transform="translate(0 200.51627604166666) rotate(-0.0, 431.42952473958337, -100.25813802083333)" y="-100.25813802083333">0.25</text><polygon points="505.92952473958337 -91.70930989583333 506.92952473958337 -91.70930989583333 506.92952473958337 -87.70930989583333 505.92952473958337 -87.70930989583333 " style="vector-effect: non-scaling-stroke; " transform="scale(1,-1)" /><text x="506.42952473958337" style="font-family: Helvetica; text-anchor: middle; vector-effect: non-scaling-stroke; font-size: 7.0pt; " transform="translate(0 200.470703125) rotate(-0.0, 506.42952473958337, -100.2353515625)" y="-100.2353515625">0.50</text><polygon points="580.9295247395834 -91.70930989583333 581.9295247395834 -91.70930989583333 581.9295247395834 -87.70930989583333 580.9295247395834 -87.70930989583333 " style="vector-effect: non-scaling-stroke; " transform="scale(1,-1)" /><text x="581.4295247395834" style="font-family: Helvetica; text-anchor: middle; vector-effect: non-scaling-stroke; font-size: 7.0pt; " transform="translate(0 200.470703125) rotate(-0.0, 581.4295247395834, -100.2353515625)" y="-100.2353515625">0.75</text><polygon points="655.9295247395834 -91.70930989583333 656.9295247395834 -91.70930989583333 656.9295247395834 -87.70930989583333 655.9295247395834 -87.70930989583333 " style="vector-effect: non-scaling-stroke; " transform="scale(1,-1)" /><text x="656.4295247395834" style="font-family: Helvetica; text-anchor: middle; vector-effect: non-scaling-stroke; font-size: 7.0pt; " transform="translate(0 200.470703125) rotate(-0.0, 656.4295247395834, -100.2353515625)" y="-100.2353515625">1.00</text><text x="506.27913411458337" style="font-family: Helvetica; text-anchor: middle; vector-effect: non-scaling-stroke; font-size: 7.0pt; " transform="translate(0 230.63346354166666) rotate(-0.0, 506.27913411458337, -115.31673177083333)" y="-115.31673177083333">x</text><polyline points="356.42952473958337 -87.70930989583333 356.42952473958337 112.29069010416667 " style="vector-effect: non-scaling-stroke; stroke: black; fill: none; " transform="scale(1,-1)" /><polygon points="356.42952473958337 112.44069010416668 356.342922199205 112.2906901041666 356.5161272799619 112.29069010416669 " style="vector-effect: non-scaling-stroke; " transform="scale(1,-1)" /><polygon points="352.42952473958337 -77.28679051843471 356.42952473958337 -77.28679051843471 356.42952473958337 -76.28679051843471 352.42952473958337 -76.28679051843471 " style="vector-effect: non-scaling-stroke; " transform="scale(1,-1)" /><text x="341.69091796875" style="font-family: Helvetica; text-anchor: middle; vector-effect: non-scaling-stroke; font-size: 7.0pt; " transform="translate(0 160.57358103686943) rotate(-0.0, 341.69091796875, -80.28679051843471)" y="-80.28679051843471">0.00</text><polygon points="352.42952473958337 -30.017420362784364 356.42952473958337 -30.017420362784364 356.42952473958337 -29.017420362784364 352.42952473958337 -29.017420362784364 " style="vector-effect: non-scaling-stroke; " transform="scale(1,-1)" /><text x="341.69091796875" style="font-family: Helvetica; text-anchor: middle; vector-effect: non-scaling-stroke; font-size: 7.0pt; " transform="translate(0 66.03484072556873) rotate(-0.0, 341.69091796875, -33.017420362784364)" y="-33.017420362784364">0.25</text><polygon points="352.42952473958337 17.251949792866 356.42952473958337 17.251949792866 356.42952473958337 18.251949792866 352.42952473958337 18.251949792866 " style="vector-effect: non-scaling-stroke; " transform="scale(1,-1)" /><text x="341.69091796875" style="font-family: Helvetica; text-anchor: middle; vector-effect: non-scaling-stroke; font-size: 7.0pt; " transform="translate(0 -28.503899585732) rotate(-0.0, 341.69091796875, 14.251949792866)" y="14.251949792866">0.50</text><polygon points="352.42952473958337 64.52131994851634 356.42952473958337 64.52131994851634 356.42952473958337 65.52131994851634 352.42952473958337 65.52131994851634 " style="vector-effect: non-scaling-stroke; " transform="scale(1,-1)" /><text x="341.69091796875" style="font-family: Helvetica; text-anchor: middle; vector-effect: non-scaling-stroke; font-size: 7.0pt; " transform="translate(0 -123.04263989703267) rotate(-0.0, 341.69091796875, 61.521319948516336)" y="61.521319948516336">0.75</text><polygon points="352.42952473958337 111.79069010416667 356.42952473958337 111.79069010416667 356.42952473958337 112.79069010416667 352.42952473958337 112.79069010416667 " style="vector-effect: non-scaling-stroke; " transform="scale(1,-1)" /><text x="341.99169921875" style="font-family: Helvetica; text-anchor: middle; vector-effect: non-scaling-stroke; font-size: 7.0pt; " transform="translate(0 -217.58138020833334) rotate(-0.0, 341.99169921875, 108.79069010416667)" y="108.79069010416667">1.00</text><text x="320.95166015625" style="font-family: Helvetica; text-anchor: middle; vector-effect: non-scaling-stroke; font-size: 7.0pt; " transform="translate(0 -27.607421875) rotate(-90.0, 320.95166015625, 13.8037109375)" y="13.8037109375">y</text><text x="356.42952473958337" style="font-family: Helvetica; text-anchor: start; vector-effect: non-scaling-stroke; font-size: 13.0pt; " transform="translate(0 188.41861979166666) rotate(-0.0, 356.42952473958337, -94.20930989583333)" y="-94.20930989583333"></text><text x="510.40983072916674" style="font-family: Courier New; text-anchor: middle; vector-effect: non-scaling-stroke; font-size: 12.0pt; " transform="translate(0 -288.0) rotate(-0.0, 510.40983072916674, 144.0)" y="144.0">Guide</text><text x="709.0548502604167" style="font-family: Courier New; text-anchor: start; vector-effect: non-scaling-stroke; font-size: 62.0pt; " transform="translate(0 62.0) rotate(-0.0, 709.0548502604167, -31.0)" y="-31.0">&#43;</text><circle cy="44.38995752520242" style="vector-effect: non-scaling-stroke; fill: ; opacity: 0.6; " r="3.0" transform="scale(1,-1)" cx="1106.075558250496" /><circle cy="10.386023790486306" style="vector-effect: non-scaling-stroke; fill: ; opacity: 0.6; " r="3.0" transform="scale(1,-1)" cx="1096.0550469947766" /><circle cy="33.913492533662605" style="vector-effect: non-scaling-stroke; fill: ; opacity: 0.6; " r="3.0" transform="scale(1,-1)" cx="1088.1548662109228" /><circle cy="2.666078239791929" style="vector-effect: non-scaling-stroke; fill: ; opacity: 0.6; " r="3.0" transform="scale(1,-1)" cx="1038.5702351069674" /><circle cy="20.868135547477863" style="vector-effect: non-scaling-stroke; fill: ; opacity: 0.6; " r="3.0" transform="scale(1,-1)" cx="996.1415873243216" /><circle cy="-56.69988611510334" style="vector-effect: non-scaling-stroke; fill: ; opacity: 0.6; " r="3.0" transform="scale(1,-1)" cx="1057.0853446171861" /><circle cy="-81.92586497337992" style="vector-effect: non-scaling-stroke; fill: ; opacity: 0.6; " r="3.0" transform="scale(1,-1)" cx="1099.628846384853" /><circle cy="19.749794055197682" style="vector-effect: non-scaling-stroke; fill: ; opacity: 0.6; " r="3.0" transform="scale(1,-1)" cx="1019.2731264873047" /><circle cy="3.3793734666987802" style="vector-effect: non-scaling-stroke; fill: ; opacity: 0.6; " r="3.0" transform="scale(1,-1)" cx="921.7286609228382" /><circle cy="-8.403114468780728" style="vector-effect: non-scaling-stroke; fill: ; opacity: 0.6; " r="3.0" transform="scale(1,-1)" cx="989.0065468379826" /><circle cy="81.92586497337993" style="vector-effect: non-scaling-stroke; fill: ; opacity: 0.6; " r="3.0" transform="scale(1,-1)" cx="864.7373866552085" /><circle cy="-14.567903308284599" style="vector-effect: non-scaling-stroke; fill: ; opacity: 0.6; " r="3.0" transform="scale(1,-1)" cx="971.8890577381975" /><circle cy="-67.80863996956573" style="vector-effect: non-scaling-stroke; fill: ; opacity: 0.6; " r="3.0" transform="scale(1,-1)" cx="1108.221272198958" /><circle cy="-42.924740911037986" style="vector-effect: non-scaling-stroke; fill: ; opacity: 0.6; " r="3.0" transform="scale(1,-1)" cx="1095.2367894944216" /><circle cy="52.1381327390539" style="vector-effect: non-scaling-stroke; fill: ; opacity: 0.6; " r="3.0" transform="scale(1,-1)" cx="1033.5705719828802" /><circle cy="-67.2375984957739" style="vector-effect: non-scaling-stroke; fill: ; opacity: 0.6; " r="3.0" transform="scale(1,-1)" cx="1037.9890376685585" /><circle cy="48.12346243924438" style="vector-effect: non-scaling-stroke; fill: ; opacity: 0.6; " r="3.0" transform="scale(1,-1)" cx="956.9678495613565" /><circle cy="79.84445070991006" style="vector-effect: non-scaling-stroke; fill: ; opacity: 0.6; " r="3.0" transform="scale(1,-1)" cx="979.2929548860344" /><circle cy="-51.838560189492384" style="vector-effect: non-scaling-stroke; fill: ; opacity: 0.6; " r="3.0" transform="scale(1,-1)" cx="948.1010388362295" /><circle cy="54.393998963780064" style="vector-effect: non-scaling-stroke; fill: ; opacity: 0.6; " r="3.0" transform="scale(1,-1)" cx="1042.9364570745822" /><text x="1006.4793294270834" style="font-family: Courier New; text-anchor: middle; vector-effect: non-scaling-stroke; font-size: 12.0pt; " transform="translate(0 -288.0) rotate(-0.0, 1006.4793294270834, 144.0)" y="144.0">Graphic Expression ∘ Scale&#40;Data, Encodings&#41;</text></svg>