<svg height="300" viewBox="-113.91168290034088 -9.79319331700754 705.3517495722606 295.5634023211344" width="729.8041863445064" preserveAspectRatio="xMidYMid meet" xmlns="http://www.w3.org/2000/svg" version="1.1"><text x="0.0" style="font-family: Courier New; text-anchor: middle; vector-effect: non-scaling-stroke; font-size: 20.0pt; fill: black; " transform="translate(0 20.0) rotate(-0.0, 0.0, -10.0)" y="-10.0">&#43;</text><polyline points="-20.0 -9.127604166666666 -60.0 -49.12760416666667 " style="vector-effect: non-scaling-stroke; stroke: black; fill: none; " transform="scale(1,-1)" /><polygon points="-64.24264068711929 -53.370244853785955 -57.55051025721683 -51.57709390944986 -62.44948974278317 -46.6781144238835 " style="vector-effect: non-scaling-stroke; " transform="scale(1,-1)" /><polyline points="19.999999999999996 -9.127604166666668 59.99999999999999 -49.12760416666668 " style="vector-effect: non-scaling-stroke; stroke: black; fill: none; " transform="scale(1,-1)" /><polygon points="64.24264068711928 -53.37024485378596 62.44948974278317 -46.6781144238835 57.55051025721681 -51.57709390944985 " style="vector-effect: non-scaling-stroke; " transform="scale(1,-1)" /><text x="80.0" style="font-family: Courier New; text-anchor: middle; vector-effect: non-scaling-stroke; font-size: 20.0pt; fill: black; " transform="translate(0 220.0) rotate(-0.0, 80.0, -110.0)" y="-110.0">&#43;</text><polyline points="60.0 -109.12760416666666 20.0 -149.12760416666669 " style="vector-effect: non-scaling-stroke; stroke: black; fill: none; " transform="scale(1,-1)" /><polygon points="15.757359312880714 -153.37024485378595 22.449489742783154 -151.5770939094499 17.550510257216857 -146.67811442388353 " style="vector-effect: non-scaling-stroke; " transform="scale(1,-1)" /><polyline points="100.0 -109.12760416666666 140.0 -149.12760416666669 " style="vector-effect: non-scaling-stroke; stroke: black; fill: none; " transform="scale(1,-1)" /><polygon points="144.24264068711926 -153.37024485378595 142.4494897427832 -146.67811442388344 137.55051025721679 -151.57709390944981 " style="vector-effect: non-scaling-stroke; " transform="scale(1,-1)" /><text x="0.0" style="font-family: Courier New; text-anchor: middle; vector-effect: non-scaling-stroke; font-size: 16.0pt; " transform="translate(0 366.3498647075719) rotate(-0.0, 0.0, -183.17493235378595)" y="-183.17493235378595">h</text><polyline points="0.0 -203.17493235378595 0.0 -243.17493235378595 " style="vector-effect: non-scaling-stroke; stroke: black; fill: none; " transform="scale(1,-1)" /><polygon points="3.945672775246661e-15 -249.17493235378598 3.464101615137783 -243.17493235378595 -3.464101615137775 -243.17493235378592 " style="vector-effect: non-scaling-stroke; " transform="scale(1,-1)" /><text x="0.0" style="font-family: Courier New; text-anchor: middle; vector-effect: non-scaling-stroke; font-size: 12.0pt; " transform="translate(0 557.9592397075719) rotate(-0.0, 0.0, -278.97961985378595)" y="-278.97961985378595">&#91; &#93;</text><text x="160.0" style="font-family: Courier New; text-anchor: middle; vector-effect: non-scaling-stroke; font-size: 12.0pt; " transform="translate(0 366.3498647075719) rotate(-0.0, 160.0, -183.17493235378595)" y="-183.17493235378595">&#91;p3,p4,p5&#93;</text><text x="-80.0" style="font-family: Courier New; text-anchor: middle; vector-effect: non-scaling-stroke; font-size: 16.0pt; " transform="translate(0 200.0) rotate(-0.0, -80.0, -100.0)" y="-100.0">g</text><polyline points="-80.0 -124.02083333333334 -80.0 -164.02083333333334 " style="vector-effect: non-scaling-stroke; stroke: black; fill: none; " transform="scale(1,-1)" /><polygon points="-80.0 -170.02083333333334 -76.53589838486226 -164.0208333333334 -83.46410161513774 -164.02083333333337 " style="vector-effect: non-scaling-stroke; " transform="scale(1,-1)" /><text x="-80.0" style="font-family: Courier New; text-anchor: middle; vector-effect: non-scaling-stroke; font-size: 12.0pt; " transform="translate(0 400.1197916666667) rotate(-0.0, -80.0, -200.05989583333334)" y="-200.05989583333334">&#91;p1,p2&#93;</text><polygon points="253.04531085491186 -60.0 313.04531085491186 -60.0 313.04531085491186 -40.0 353.04531085491186 -80.0 313.04531085491186 -120.0 313.04531085491186 -100.0 253.04531085491186 -100.0 " style="vector-effect: non-scaling-stroke; stroke: black; fill: white; " transform="scale(1,-1)" /><text x="242.77864583333337" style="font-family: NewComputerModern; text-anchor: start; vector-effect: non-scaling-stroke; font-size: 20.0pt; font-style: italic; font-weight: ; " transform="translate(0 28.203125) rotate(-0.0, 242.77864583333337, -14.1015625)" y="-14.1015625">c</text><text x="255.04531272252405" style="font-family: NewComputerModern; text-anchor: start; vector-effect: non-scaling-stroke; font-size: 20.0pt; font-style: italic; font-weight: ; " transform="translate(0 28.203125) rotate(-0.0, 255.04531272252405, -14.1015625)" y="-14.1015625">a</text><text x="268.67197799682623" style="font-family: NewComputerModern; text-anchor: start; vector-effect: non-scaling-stroke; font-size: 20.0pt; font-style: italic; font-weight: ; " transform="translate(0 28.203125) rotate(-0.0, 268.67197799682623, -14.1015625)" y="-14.1015625">t</text><text x="277.5253117879232" style="font-family: NewComputerModern; text-anchor: start; vector-effect: non-scaling-stroke; font-size: 20.0pt; font-style: italic; font-weight: ; " transform="translate(0 28.203125) rotate(-0.0, 277.5253117879232, -14.1015625)" y="-14.1015625">a</text><text x="296.485309680303" style="font-family: NewComputerModern Math; text-anchor: start; vector-effect: non-scaling-stroke; font-size: 20.0pt; font-style: ; font-weight: ; " transform="translate(0 28.203125) rotate(-0.0, 296.485309680303, -14.1015625)" y="-14.1015625">∘</text><text x="312.8053105672201" style="font-family: NewComputerModern; text-anchor: start; vector-effect: non-scaling-stroke; font-size: 20.0pt; font-style: italic; font-weight: ; " transform="translate(0 28.203125) rotate(-0.0, 312.8053105672201, -14.1015625)" y="-14.1015625">a</text><text x="326.43197504679364" style="font-family: NewComputerModern; text-anchor: start; vector-effect: non-scaling-stroke; font-size: 20.0pt; font-style: italic; font-weight: ; " transform="translate(0 28.203125) rotate(-0.0, 326.43197504679364, -14.1015625)" y="-14.1015625">l</text><text x="333.25864283243817" style="font-family: NewComputerModern; text-anchor: start; vector-effect: non-scaling-stroke; font-size: 20.0pt; font-style: italic; font-weight: ; " transform="translate(0 28.203125) rotate(-0.0, 333.25864283243817, -14.1015625)" y="-14.1015625">g</text><polygon points="245.7119791507722 -19.568229516347255 346.2453091939291 -19.568229516347255 346.2453091939291 4.405104319254551 245.7119791507722 4.405104319254551 " style="vector-effect: non-scaling-stroke; fill-opacity: 0; " transform="scale(1,-1)" /><text x="479.8591129382452" style="font-family: Courier New; text-anchor: middle; vector-effect: non-scaling-stroke; font-size: 14.000000000000057pt; " transform="translate(0 174.0) rotate(-0.0, 479.8591129382452, -87.0)" y="-87.0">&#91;g*p1,g*p2,p3,p4,p5&#93;</text></svg>