<svg height="310" viewBox="0 0 856.2297392529952 310" width="856.2297392529952" xmlns="http://www.w3.org/2000/svg" version="1.1"><polygon points="64.29058022081279 263.13953488372096 444.840263096077 263.13953488372096 444.840263096077 9.439746300211425 64.29058022081279 9.439746300211425 " style="stroke: lightgrey; fill: white; fill-opacity: 0; " /><polyline points="64.29058022081276 263.13953488372096 64.29058022081277 9.439746300211425 " style="stroke: grey; fill: none; opacity: 0.6; stroke-dasharray: 2; " /><polyline points="159.42800093962882 263.13953488372096 159.42800093962882 9.439746300211425 " style="stroke: grey; fill: none; opacity: 0.6; stroke-dasharray: 2; " /><polyline points="254.56542165844488 263.13953488372096 254.56542165844488 9.439746300211425 " style="stroke: grey; fill: none; opacity: 0.6; stroke-dasharray: 2; " /><polyline points="349.70284237726094 263.13953488372096 349.70284237726094 9.439746300211425 " style="stroke: grey; fill: none; opacity: 0.6; stroke-dasharray: 2; " /><polyline points="444.840263096077 263.13953488372096 444.840263096077 9.439746300211425 " style="stroke: grey; fill: none; opacity: 0.6; stroke-dasharray: 2; " /><polyline points="64.29058022081276 263.13953488372096 444.840263096077 263.13953488372096 " style="stroke: grey; fill: none; opacity: 0.6; stroke-dasharray: 2; " /><polyline points="64.29058022081276 199.71458773784354 444.840263096077 199.71458773784354 " style="stroke: grey; fill: none; opacity: 0.6; stroke-dasharray: 2; " /><polyline points="64.29058022081277 136.2896405919662 444.840263096077 136.2896405919662 " style="stroke: grey; fill: none; opacity: 0.6; stroke-dasharray: 2; " /><polyline points="64.29058022081277 72.86469344608881 444.840263096077 72.86469344608881 " style="stroke: grey; fill: none; opacity: 0.6; stroke-dasharray: 2; " /><polyline points="64.29058022081277 9.439746300211425 444.840263096077 9.439746300211425 " style="stroke: grey; fill: none; opacity: 0.6; stroke-dasharray: 2; " /><polyline points="64.29058022081276 263.13953488372096 444.840263096077 263.13953488372096 " style="stroke: black; fill: none; " /><polygon points="63.656330749353984 268.21353065539114 64.92482969227153 268.21353065539114 64.92482969227153 263.1395348837209 63.656330749353984 263.1395348837209 " style="" /><text x="64.29058022081276" style="text-anchor: middle; font-size: 8.879492600422829pt; " transform="rotate(-0.0, 64.29058022081276, 279.6300211416491)" y="279.6300211416491">0.00</text><polygon points="158.79375146817006 268.21353065539114 160.06225041108758 268.21353065539114 160.06225041108758 263.1395348837209 158.79375146817006 263.1395348837209 " style="" /><text x="159.42800093962882" style="text-anchor: middle; font-size: 8.87949260042285pt; " transform="rotate(-0.0, 159.42800093962882, 279.6300211416491)" y="279.6300211416491">0.25</text><polygon points="253.93117218698615 268.21353065539114 255.19967112990366 268.21353065539114 255.19967112990366 263.1395348837209 253.93117218698615 263.1395348837209 " style="" /><text x="254.5654216584449" style="text-anchor: middle; font-size: 8.87949260042285pt; " transform="rotate(-0.0, 254.5654216584449, 279.6300211416491)" y="279.6300211416491">0.50</text><polygon points="349.0685929058021 268.21353065539114 350.33709184871975 268.21353065539114 350.33709184871975 263.1395348837209 349.0685929058021 263.1395348837209 " style="" /><text x="349.70284237726094" style="text-anchor: middle; font-size: 8.879492600422736pt; " transform="rotate(-0.0, 349.70284237726094, 279.6300211416491)" y="279.6300211416491">0.75</text><polygon points="444.2060136246182 268.21353065539114 445.4745125675357 268.21353065539114 445.4745125675357 263.1395348837209 444.2060136246182 263.1395348837209 " style="" /><text x="444.84026309607697" style="text-anchor: middle; font-size: 8.87949260042285pt; " transform="rotate(-0.0, 444.84026309607697, 279.6300211416491)" y="279.6300211416491">1.00</text><text x="254.56542165844488" style="text-anchor: middle; font-size: 12.68498942917546pt; " transform="rotate(-0.0, 254.56542165844488, 305.0)" y="305.0">x</text><polyline points="64.29058022081276 263.13953488372096 64.29058022081277 9.439746300211425 " style="stroke: black; fill: none; " /><polygon points="64.29058022081276 263.7737843551797 64.29058022081276 262.50528541226214 59.21658444914257 262.50528541226214 59.21658444914257 263.7737843551797 " style="" /><text x="56.67958656330747" style="text-anchor: end; font-size: 8.879492600422829pt; " transform="rotate(-0.0, 56.67958656330747, 267.5792811839324)" y="267.5792811839324">0.00</text><polygon points="64.29058022081276 200.34883720930236 64.29058022081276 199.08033826638479 59.21658444914257 199.08033826638479 59.21658444914257 200.34883720930236 " style="" /><text x="56.67958656330748" style="text-anchor: end; font-size: 8.879492600422829pt; " transform="rotate(-0.0, 56.67958656330748, 204.15433403805497)" y="204.15433403805497">0.25</text><polygon points="64.29058022081277 136.92389006342498 64.29058022081277 135.65539112050743 59.21658444914257 135.65539112050743 59.21658444914257 136.92389006342498 " style="" /><text x="56.67958656330748" style="text-anchor: end; font-size: 8.879492600422829pt; " transform="rotate(-0.0, 56.67958656330748, 140.7293868921776)" y="140.7293868921776">0.50</text><polygon points="64.29058022081277 73.49894291754757 64.29058022081277 72.23044397463002 59.21658444914257 72.23044397463002 59.21658444914257 73.49894291754757 " style="" /><text x="56.67958656330748" style="text-anchor: end; font-size: 8.879492600422829pt; " transform="rotate(-0.0, 56.67958656330748, 77.3044397463002)" y="77.3044397463002">0.75</text><polygon points="64.29058022081277 10.073995771670297 64.29058022081277 8.805496828752723 59.21658444914257 8.805496828752723 59.21658444914257 10.073995771670297 " style="" /><text x="56.67958656330749" style="text-anchor: end; font-size: 8.879492600422836pt; " transform="rotate(-0.0, 56.67958656330749, 13.87949260042285)" y="13.87949260042285">1.00</text><text x="17.684989429175467" style="text-anchor: middle; font-size: 12.684989429175488pt; " transform="rotate(-90.0, 17.684989429175467, 136.2896405919662)" y="136.2896405919662">y</text><text x="64.29058022081276" style="font-family: Helvetica; text-anchor: start; font-size: 16.490486257928126pt; " transform="rotate(-0.0, 64.29058022081276, 271.384778012685)" y="271.384778012685"></text><polygon points="470.6800563777308 263.13953488372096 851.2297392529952 263.13953488372096 851.2297392529952 9.439746300211425 470.68005637773075 9.439746300211425 " style="stroke: lightgrey; fill: white; fill-opacity: 0; " /><circle cy="238.9635158776985" style="fill: ; opacity: 0.6; " r="3.8054968287526094" cx="535.753535970895" /><circle cy="132.5507909734333" style="fill: ; opacity: 0.6; " r="3.8054968287526094" cx="569.1931633540439" /><circle cy="249.3862888659799" style="fill: ; opacity: 0.6; " r="3.8054968287526094" cx="536.2519981676012" /><circle cy="56.59343439170439" style="fill: ; opacity: 0.6; " r="3.8054968287526094" cx="809.1127515575522" /><circle cy="99.6133517835197" style="fill: ; opacity: 0.6; " r="3.8054968287526094" cx="508.48542986748424" /><circle cy="130.87628465993174" style="fill: ; opacity: 0.6; " r="3.8054968287526663" cx="478.954633803884" /><circle cy="78.4031744658925" style="fill: ; opacity: 0.6; " r="3.8054968287526663" cx="596.6020665441149" /><circle cy="237.9684239187397" style="fill: ; opacity: 0.6; " r="3.8054968287526094" cx="717.0108825305645" /><circle cy="226.23916040283322" style="fill: ; opacity: 0.6; " r="3.8054968287526094" cx="666.1918479985652" /><circle cy="159.1766558224226" style="fill: ; opacity: 0.6; " r="3.8054968287526663" cx="548.4802262300113" /><circle cy="63.17927170095987" style="fill: ; opacity: 0.6; " r="3.8054968287526094" cx="541.2327919466818" /><circle cy="80.69662141299617" style="fill: ; opacity: 0.6; " r="3.8054968287526663" cx="741.0360542072663" /><circle cy="60.71033647971339" style="fill: ; opacity: 0.6; " r="3.8054968287526663" cx="505.61738791786615" /><circle cy="248.77206256577415" style="fill: ; opacity: 0.6; " r="3.8054968287526663" cx="693.8271428356145" /><circle cy="49.68081558129478" style="fill: ; opacity: 0.6; " r="3.8054968287526094" cx="571.2676867225489" /><circle cy="253.1798765171945" style="fill: ; opacity: 0.6; " r="3.8054968287526663" cx="627.0892980749028" /><circle cy="153.75225560892514" style="fill: ; opacity: 0.6; " r="3.8054968287526663" cx="811.4430225168608" /><circle cy="232.1368015247671" style="fill: ; opacity: 0.6; " r="3.8054968287526663" cx="647.718038418096" /><circle cy="157.90937383697442" style="fill: ; opacity: 0.6; " r="3.8054968287526094" cx="717.4252664943083" /><circle cy="187.01899812566344" style="fill: ; opacity: 0.6; " r="3.8054968287526663" cx="725.6473424171724" /></svg>