<svg height="300" viewBox="-4.555596354166667 -27.285127604166668 1104.6111927083334 158.44697395833333" width="2151.161309585071" preserveAspectRatio="xMidYMid meet" xmlns="http://www.w3.org/2000/svg" version="1.1"><text x="0.0" style="font-family: Helvetica; text-anchor: start; vector-effect: non-scaling-stroke; font-size: 12.0pt; font-weight: bold; " transform="translate(0 12.0) rotate(-0.0, 0.0, -6.0)" y="-6.0">color</text><text x="80.0" style="font-family: Helvetica; text-anchor: start; vector-effect: non-scaling-stroke; font-size: 12.0pt; font-weight: bold; " transform="translate(0 12.0) rotate(-0.0, 80.0, -6.0)" y="-6.0">y</text><text x="160.0" style="font-family: Helvetica; text-anchor: start; vector-effect: non-scaling-stroke; font-size: 12.0pt; font-weight: bold; " transform="translate(0 12.0) rotate(-0.0, 160.0, -6.0)" y="-6.0">x</text><polyline points="-2.0 -20.4296875 242.0 -20.4296875 " style="vector-effect: non-scaling-stroke; stroke: black; fill: none; " transform="scale(1,-1)" /><text x="0.0" style="font-family: Helvetica; text-anchor: start; vector-effect: non-scaling-stroke; font-size: 12.0pt; font-weight: nothing; " transform="translate(0 81.8125) rotate(-0.0, 0.0, -40.90625)" y="-40.90625">#BB7693</text><text x="80.0" style="font-family: Helvetica; text-anchor: start; vector-effect: non-scaling-stroke; font-size: 12.0pt; font-weight: nothing; " transform="translate(0 81.8125) rotate(-0.0, 80.0, -40.90625)" y="-40.90625">90.8</text><text x="160.0" style="font-family: Helvetica; text-anchor: start; vector-effect: non-scaling-stroke; font-size: 12.0pt; font-weight: nothing; " transform="translate(0 81.8125) rotate(-0.0, 160.0, -40.90625)" y="-40.90625">22.73</text><text x="0.0" style="font-family: Helvetica; text-anchor: start; vector-effect: non-scaling-stroke; font-size: 12.0pt; font-weight: nothing; " transform="translate(0 123.40625) rotate(-0.0, 0.0, -61.703125)" y="-61.703125">#BB7693</text><text x="80.0" style="font-family: Helvetica; text-anchor: start; vector-effect: non-scaling-stroke; font-size: 12.0pt; font-weight: nothing; " transform="translate(0 123.40625) rotate(-0.0, 80.0, -61.703125)" y="-61.703125">62.6</text><text x="160.0" style="font-family: Helvetica; text-anchor: start; vector-effect: non-scaling-stroke; font-size: 12.0pt; font-weight: nothing; " transform="translate(0 123.40625) rotate(-0.0, 160.0, -61.703125)" y="-61.703125">185.7</text><text x="0.0" style="font-family: Helvetica; text-anchor: start; vector-effect: non-scaling-stroke; font-size: 12.0pt; font-weight: nothing; " transform="translate(0 165.0) rotate(-0.0, 0.0, -82.5)" y="-82.5">#FFAE34</text><text x="80.0" style="font-family: Helvetica; text-anchor: start; vector-effect: non-scaling-stroke; font-size: 12.0pt; font-weight: nothing; " transform="translate(0 165.0) rotate(-0.0, 80.0, -82.5)" y="-82.5">134.1</text><text x="160.0" style="font-family: Helvetica; text-anchor: start; vector-effect: non-scaling-stroke; font-size: 12.0pt; font-weight: nothing; " transform="translate(0 165.0) rotate(-0.0, 160.0, -82.5)" y="-82.5">22.73</text><text x="0.0" style="font-family: Helvetica; text-anchor: start; vector-effect: non-scaling-stroke; font-size: 12.0pt; font-weight: nothing; " transform="translate(0 206.5625) rotate(-0.0, 0.0, -103.28125)" y="-103.28125">#FFAE34</text><text x="80.0" style="font-family: Helvetica; text-anchor: start; vector-effect: non-scaling-stroke; font-size: 12.0pt; font-weight: nothing; " transform="translate(0 206.5625) rotate(-0.0, 80.0, -103.28125)" y="-103.28125">139.8</text><text x="160.0" style="font-family: Helvetica; text-anchor: start; vector-effect: non-scaling-stroke; font-size: 12.0pt; font-weight: nothing; " transform="translate(0 206.5625) rotate(-0.0, 160.0, -103.28125)" y="-103.28125">185.7</text><polyline points="272.0 -50.0 412.0 -50.0 " style="vector-effect: non-scaling-stroke; stroke: black; fill: none; " transform="scale(1,-1)" /><polygon points="427.0 -50.0 412.0 -41.33974596215561 412.0 -58.66025403784438 " style="vector-effect: non-scaling-stroke; " transform="scale(1,-1)" /><text x="322.2599997719129" style="font-family: NewComputerModern; text-anchor: start; vector-effect: non-scaling-stroke; font-size: 14.0pt; font-style: italic; font-weight: ; " transform="translate(0 89.12799986203511) rotate(-0.0, 322.2599997719129, -44.563999931017555)" y="-44.563999931017555">c</text><text x="330.84666659434635" style="font-family: NewComputerModern; text-anchor: start; vector-effect: non-scaling-stroke; font-size: 14.0pt; font-style: italic; font-weight: ; " transform="translate(0 89.12799986203511) rotate(-0.0, 330.84666659434635, -44.563999931017555)" y="-44.563999931017555">o</text><text x="340.3853322863579" style="font-family: NewComputerModern; text-anchor: start; vector-effect: non-scaling-stroke; font-size: 14.0pt; font-style: italic; font-weight: ; " transform="translate(0 89.12799986203511) rotate(-0.0, 340.3853322863579, -44.563999931017555)" y="-44.563999931017555">a</text><text x="349.9239996472994" style="font-family: NewComputerModern; text-anchor: start; vector-effect: non-scaling-stroke; font-size: 14.0pt; font-style: italic; font-weight: ; " transform="translate(0 89.12799986203511) rotate(-0.0, 349.9239996472994, -44.563999931017555)" y="-44.563999931017555">l</text><text x="354.7026670972506" style="font-family: NewComputerModern; text-anchor: start; vector-effect: non-scaling-stroke; font-size: 14.0pt; font-style: italic; font-weight: ; " transform="translate(0 89.12799986203511) rotate(-0.0, 354.7026670972506, -44.563999931017555)" y="-44.563999931017555">g</text><polygon points="324.31333309412 -48.39066684246063 363.79333355029416 -48.39066684246063 363.79333355029416 -31.609333157539368 324.31333309412 -31.609333157539368 " style="vector-effect: non-scaling-stroke; fill-opacity: 0; " transform="scale(1,-1)" /><text x="342.0" style="font-family: Courier New; text-anchor: middle; vector-effect: non-scaling-stroke; font-size: 10.0pt; " transform="translate(0 130.0) rotate(-0.0, 342.0, -65.0)" y="-65.0">groupby&#40;:color&#41;</text><text x="458.59999999999997" style="font-family: Helvetica; text-anchor: start; vector-effect: non-scaling-stroke; font-size: 9.600000000000023pt; font-weight: bold; " transform="translate(0 -20.4) rotate(-0.0, 458.59999999999997, 10.2)" y="10.2">color</text><text x="522.5999999999999" style="font-family: Helvetica; text-anchor: start; vector-effect: non-scaling-stroke; font-size: 9.599999999999909pt; font-weight: bold; " transform="translate(0 -20.4) rotate(-0.0, 522.5999999999999, 10.2)" y="10.2">y</text><text x="586.6" style="font-family: Helvetica; text-anchor: start; vector-effect: non-scaling-stroke; font-size: 9.599999999999909pt; font-weight: bold; " transform="translate(0 -20.4) rotate(-0.0, 586.6, 10.2)" y="10.2">x</text><polyline points="457.0 -1.34375 652.2 -1.34375 " style="vector-effect: non-scaling-stroke; stroke: black; fill: none; " transform="scale(1,-1)" /><text x="458.59999999999997" style="font-family: Helvetica; text-anchor: start; vector-effect: non-scaling-stroke; font-size: 9.600000000000023pt; font-weight: nothing; " transform="translate(0 35.45) rotate(-0.0, 458.59999999999997, -17.725)" y="-17.725">#BB7693</text><text x="522.5999999999999" style="font-family: Helvetica; text-anchor: start; vector-effect: non-scaling-stroke; font-size: 9.599999999999909pt; font-weight: nothing; " transform="translate(0 35.45) rotate(-0.0, 522.5999999999999, -17.725)" y="-17.725">90.8</text><text x="586.6" style="font-family: Helvetica; text-anchor: start; vector-effect: non-scaling-stroke; font-size: 9.599999999999909pt; font-weight: nothing; " transform="translate(0 35.45) rotate(-0.0, 586.6, -17.725)" y="-17.725">22.73</text><text x="458.59999999999997" style="font-family: Helvetica; text-anchor: start; vector-effect: non-scaling-stroke; font-size: 9.600000000000023pt; font-weight: nothing; " transform="translate(0 68.72500000000001) rotate(-0.0, 458.59999999999997, -34.362500000000004)" y="-34.362500000000004">#BB7693</text><text x="522.5999999999999" style="font-family: Helvetica; text-anchor: start; vector-effect: non-scaling-stroke; font-size: 9.599999999999909pt; font-weight: nothing; " transform="translate(0 68.72500000000001) rotate(-0.0, 522.5999999999999, -34.362500000000004)" y="-34.362500000000004">62.6</text><text x="586.6" style="font-family: Helvetica; text-anchor: start; vector-effect: non-scaling-stroke; font-size: 9.599999999999909pt; font-weight: nothing; " transform="translate(0 68.72500000000001) rotate(-0.0, 586.6, -34.362500000000004)" y="-34.362500000000004">185.7</text><text x="458.59999999999997" style="font-family: Helvetica; text-anchor: start; vector-effect: non-scaling-stroke; font-size: 9.600000000000023pt; font-weight: bold; " transform="translate(0 167.60000000000002) rotate(-0.0, 458.59999999999997, -83.80000000000001)" y="-83.80000000000001">color</text><text x="522.5999999999999" style="font-family: Helvetica; text-anchor: start; vector-effect: non-scaling-stroke; font-size: 9.599999999999909pt; font-weight: bold; " transform="translate(0 167.60000000000002) rotate(-0.0, 522.5999999999999, -83.80000000000001)" y="-83.80000000000001">y</text><text x="586.6" style="font-family: Helvetica; text-anchor: start; vector-effect: non-scaling-stroke; font-size: 9.599999999999909pt; font-weight: bold; " transform="translate(0 167.60000000000002) rotate(-0.0, 586.6, -83.80000000000001)" y="-83.80000000000001">x</text><polyline points="457.0 -95.34375 652.2 -95.34375 " style="vector-effect: non-scaling-stroke; stroke: black; fill: none; " transform="scale(1,-1)" /><text x="458.59999999999997" style="font-family: Helvetica; text-anchor: start; vector-effect: non-scaling-stroke; font-size: 9.600000000000023pt; font-weight: nothing; " transform="translate(0 223.45000000000002) rotate(-0.0, 458.59999999999997, -111.72500000000001)" y="-111.72500000000001">#FFAE34</text><text x="522.5999999999999" style="font-family: Helvetica; text-anchor: start; vector-effect: non-scaling-stroke; font-size: 9.599999999999909pt; font-weight: nothing; " transform="translate(0 223.45000000000002) rotate(-0.0, 522.5999999999999, -111.72500000000001)" y="-111.72500000000001">134.1</text><text x="586.6" style="font-family: Helvetica; text-anchor: start; vector-effect: non-scaling-stroke; font-size: 9.599999999999909pt; font-weight: nothing; " transform="translate(0 223.45000000000002) rotate(-0.0, 586.6, -111.72500000000001)" y="-111.72500000000001">22.73</text><text x="458.59999999999997" style="font-family: Helvetica; text-anchor: start; vector-effect: non-scaling-stroke; font-size: 9.600000000000023pt; font-weight: nothing; " transform="translate(0 256.7) rotate(-0.0, 458.59999999999997, -128.35)" y="-128.35">#FFAE34</text><text x="522.5999999999999" style="font-family: Helvetica; text-anchor: start; vector-effect: non-scaling-stroke; font-size: 9.599999999999909pt; font-weight: nothing; " transform="translate(0 256.7) rotate(-0.0, 522.5999999999999, -128.35)" y="-128.35">139.8</text><text x="586.6" style="font-family: Helvetica; text-anchor: start; vector-effect: non-scaling-stroke; font-size: 9.599999999999909pt; font-weight: nothing; " transform="translate(0 256.7) rotate(-0.0, 586.6, -128.35)" y="-128.35">185.7</text><polyline points="682.2 -115.0 732.2 -115.0 " style="vector-effect: non-scaling-stroke; stroke: black; fill: none; " transform="scale(1,-1)" /><polygon points="747.2 -115.0 732.2000000000003 -106.33974596215572 732.2000000000002 -123.66025403784428 " style="vector-effect: non-scaling-stroke; " transform="scale(1,-1)" /><text x="689.7200005173684" style="font-family: NewComputerModern; text-anchor: start; vector-effect: non-scaling-stroke; font-size: 12.0pt; font-style: italic; font-weight: ; " transform="translate(0 213.9680004119873) rotate(-0.0, 689.7200005173684, -106.98400020599365)" y="-106.98400020599365">e</text><text x="697.0800006508828" style="font-family: NewComputerModern; text-anchor: start; vector-effect: non-scaling-stroke; font-size: 12.0pt; font-style: italic; font-weight: ; " transform="translate(0 213.9680004119873) rotate(-0.0, 697.0800006508828, -106.98400020599365)" y="-106.98400020599365">x</text><text x="704.5040009140969" style="font-family: NewComputerModern; text-anchor: start; vector-effect: non-scaling-stroke; font-size: 12.0pt; font-style: italic; font-weight: ; " transform="translate(0 213.9680004119873) rotate(-0.0, 704.5040009140969, -106.98400020599365)" y="-106.98400020599365">p</text><text x="712.679999601841" style="font-family: NewComputerModern; text-anchor: start; vector-effect: non-scaling-stroke; font-size: 12.0pt; font-style: italic; font-weight: ; " transform="translate(0 213.9680004119873) rotate(-0.0, 712.679999601841, -106.98400020599365)" y="-106.98400020599365">r</text><polygon points="691.544000518322 -110.08799982070923 720.5039994835854 -110.08799982070923 720.5039994835854 -99.91200017929077 691.544000518322 -99.91200017929077 " style="vector-effect: non-scaling-stroke; fill-opacity: 0; " transform="scale(1,-1)" /><polyline points="682.2 -20.0 732.2 -20.0 " style="vector-effect: non-scaling-stroke; stroke: black; fill: none; " transform="scale(1,-1)" /><polygon points="747.2 -20.0 732.2000000000003 -11.339745962155702 732.2000000000002 -28.660254037844275 " style="vector-effect: non-scaling-stroke; " transform="scale(1,-1)" /><text x="689.7200005173684" style="font-family: NewComputerModern; text-anchor: start; vector-effect: non-scaling-stroke; font-size: 12.0pt; font-style: italic; font-weight: ; " transform="translate(0 23.968000411987305) rotate(-0.0, 689.7200005173684, -11.984000205993652)" y="-11.984000205993652">e</text><text x="697.0800006508828" style="font-family: NewComputerModern; text-anchor: start; vector-effect: non-scaling-stroke; font-size: 12.0pt; font-style: italic; font-weight: ; " transform="translate(0 23.968000411987305) rotate(-0.0, 697.0800006508828, -11.984000205993652)" y="-11.984000205993652">x</text><text x="704.5040009140969" style="font-family: NewComputerModern; text-anchor: start; vector-effect: non-scaling-stroke; font-size: 12.0pt; font-style: italic; font-weight: ; " transform="translate(0 23.968000411987305) rotate(-0.0, 704.5040009140969, -11.984000205993652)" y="-11.984000205993652">p</text><text x="712.679999601841" style="font-family: NewComputerModern; text-anchor: start; vector-effect: non-scaling-stroke; font-size: 12.0pt; font-style: italic; font-weight: ; " transform="translate(0 23.968000411987305) rotate(-0.0, 712.679999601841, -11.984000205993652)" y="-11.984000205993652">r</text><polygon points="691.544000518322 -15.087999820709229 720.5039994835854 -15.087999820709229 720.5039994835854 -4.9120001792907715 691.544000518322 -4.9120001792907715 " style="vector-effect: non-scaling-stroke; fill-opacity: 0; " transform="scale(1,-1)" /><polyline points="777.2 -25.900000000000006 847.32 -6.21999999999997 " style="vector-effect: non-scaling-stroke; stroke: #BB7693; fill: none; stroke-width: 5; " transform="scale(1,-1)" /><polyline points="777.2 -99.2 847.32 -121.25 " style="vector-effect: non-scaling-stroke; stroke: #FFAE34; fill: none; stroke-width: 5; " transform="scale(1,-1)" /><polyline points="877.32 -50.0 947.32 -50.0 " style="vector-effect: non-scaling-stroke; stroke: black; fill: none; " transform="scale(1,-1)" /><polygon points="962.32 -50.0 947.32 -41.33974596215561 947.32 -58.66025403784438 " style="vector-effect: non-scaling-stroke; " transform="scale(1,-1)" /><text x="900.5306671233973" style="font-family: NewComputerModern; text-anchor: start; vector-effect: non-scaling-stroke; font-size: 14.0pt; font-style: italic; font-weight: ; " transform="translate(0 89.12799986203511) rotate(-0.0, 900.5306671233973, -44.563999931017555)" y="-44.563999931017555">a</text><text x="910.0693333717188" style="font-family: NewComputerModern; text-anchor: start; vector-effect: non-scaling-stroke; font-size: 14.0pt; font-style: italic; font-weight: ; " transform="translate(0 89.12799986203511) rotate(-0.0, 910.0693333717188, -44.563999931017555)" y="-44.563999931017555">l</text><text x="914.8479997090499" style="font-family: NewComputerModern; text-anchor: start; vector-effect: non-scaling-stroke; font-size: 14.0pt; font-style: italic; font-weight: ; " transform="translate(0 89.12799986203511) rotate(-0.0, 914.8479997090499, -44.563999931017555)" y="-44.563999931017555">g</text><polygon points="902.360000408888 -48.39066684246063 923.9386661620936 -48.39066684246063 923.9386661620936 -31.609333157539368 902.360000408888 -31.609333157539368 " style="vector-effect: non-scaling-stroke; fill-opacity: 0; " transform="scale(1,-1)" /><text x="911.32" style="font-family: Courier New; text-anchor: middle; vector-effect: non-scaling-stroke; font-size: 10.0pt; " transform="translate(0 130.0) rotate(-0.0, 911.32, -65.0)" y="-65.0">reduce&#40;&#43;&#41;</text><polygon points="992.3200000000002 -123.77250000000004 1097.5 -123.77250000000004 1097.5 3.772500000000008 992.3200000000002 3.772500000000008 " style="vector-effect: non-scaling-stroke; stroke: black; fill-opacity: 0; " transform="scale(1,-1)" /><polyline points="1009.8500000000001 -80.46500000000002 1079.97 -102.51500000000001 " style="vector-effect: non-scaling-stroke; stroke: #BB7693; fill: none; stroke-width: 5; " transform="scale(1,-1)" /><polyline points="1009.8500000000001 -37.16500000000002 1079.97 -17.484999999999985 " style="vector-effect: non-scaling-stroke; stroke: #FFAE34; fill: none; stroke-width: 5; " transform="scale(1,-1)" /><text x="1044.91" style="font-family: Courier New; text-anchor: middle; vector-effect: non-scaling-stroke; font-size: 10.0pt; " transform="translate(0 -32.57104166666667) rotate(-0.0, 1044.91, 16.285520833333337)" y="16.285520833333337">Graphic</text></svg>