<svg height="418" viewBox="0 0 993.6768258910058 418" width="993.6768258910058" xmlns="http://www.w3.org/2000/svg" version="1.1"><circle cy="86.14811936289414" style="stroke: black; fill: white; " r="13.614374005216632" cx="285.16059777624037" /><polyline points="262.4699744342127 99.76249336811077 217.08872775015732 145.14374005216615 " style="stroke: black; fill: none; " /><polygon points="212.27531965980802 149.9571481425154 219.8677502068399 147.92276250884896 214.30970529347474 142.36471759548357 " style="" /><polyline points="307.85122111826803 99.76249336811077 353.2324678023234 145.14374005216615 " style="stroke: black; fill: none; " /><polygon points="358.0458758926727 149.95714814251545 356.0114902590061 142.36471759548346 350.4534453456407 147.92276250884885 " style="" /><polyline points="353.2324678023234 199.60123607303262 398.6137144863788 154.21998938897724 " style="stroke: black; fill: none; " /><circle cy="176.9106127310049" style="stroke: black; fill: white; " r="13.614374005216604" cx="194.39810440812963" /><polyline points="171.70748106610193 190.52498673622154 126.32623438204655 235.90623342027692 " style="stroke: black; fill: none; " /><polygon points="121.51282629169728 240.71964151062616 129.1052568387292 238.68525587695956 123.54721192536387 233.12721096359425 " style="" /><polyline points="217.08872775015732 190.52498673622154 262.46997443421265 235.90623342027692 " style="stroke: black; fill: none; " /><polygon points="267.28338252456194 240.7196415106262 265.2489968908952 233.12721096359422 259.6909519775299 238.6852558769597 " style="" /><text x="285.16059777624037" style="font-family: monospace; text-anchor: middle; font-size: 11.34531167101386pt; " transform="rotate(-0.0, 285.16059777624037, 273.3457619346226)" y="273.3457619346226">&#40;T&#40;2,2&#41;,S&#40;&#41;&#41;</text><polyline points="285.16059777624037 296.0363852766503 285.16059777624037 314.18888395027244 " style="stroke: black; fill: none; " /><polygon points="285.16059777624037 320.9960709528807 289.09072902462043 314.1888839502724 281.2304665278603 314.1888839502724 " style="" /><path style="stroke: nothing; fill: steelblue; opacity: 1.0; " d="M285.16059777624037 366.37731763693614 C 276.65161402297997 348.22481896331396 285.16059777624037 343.6866942949084 285.16059777624037 343.6866942949084 285.16059777624037 343.6866942949084 293.66958152950076 348.22481896331396 285.16059777624037 366.37731763693614  Z" /><path style="stroke: nothing; fill: steelblue; opacity: 1.0; " d="M285.16059777624037 366.37731763693614 C 291.97959257090184 347.52480261640153 301.2052914107379 350.3326240024386 301.2052914107379 350.3326240024386 301.2052914107379 350.3326240024386 304.013112796775 359.55832284227466 285.16059777624037 366.37731763693614  Z" /><path style="stroke: nothing; fill: steelblue; opacity: 1.0; " d="M285.16059777624037 366.37731763693614 C 303.31309644986254 357.86833388367575 307.85122111826803 366.37731763693614 307.85122111826803 366.37731763693614 307.85122111826803 366.37731763693614 303.31309644986254 374.8863013901965 285.16059777624037 366.37731763693614  Z" /><path style="stroke: nothing; fill: steelblue; opacity: 1.0; " d="M285.16059777624037 366.37731763693614 C 304.013112796775 373.19631243159756 301.2052914107379 382.4220112714337 301.2052914107379 382.4220112714337 301.2052914107379 382.4220112714337 291.97959257090184 385.2298326574707 285.16059777624037 366.37731763693614  Z" /><path style="stroke: nothing; fill: steelblue; opacity: 1.0; " d="M285.16059777624037 366.37731763693614 C 293.66958152950076 384.5298163105582 285.16059777624037 389.0679409789638 285.16059777624037 389.0679409789638 285.16059777624037 389.0679409789638 276.65161402297997 384.5298163105582 285.16059777624037 366.37731763693614  Z" /><path style="stroke: nothing; fill: steelblue; opacity: 1.0; " d="M285.16059777624037 366.37731763693614 C 278.3416029815789 385.2298326574707 269.1159041417428 382.4220112714337 269.1159041417428 382.4220112714337 269.1159041417428 382.4220112714337 266.30808275570575 373.19631243159756 285.16059777624037 366.37731763693614  Z" /><path style="stroke: nothing; fill: steelblue; opacity: 1.0; " d="M285.16059777624037 366.37731763693614 C 267.0080991026182 374.8863013901965 262.4699744342127 366.37731763693614 262.4699744342127 366.37731763693614 262.4699744342127 366.37731763693614 267.0080991026182 357.86833388367575 285.16059777624037 366.37731763693614  Z" /><path style="stroke: nothing; fill: steelblue; opacity: 1.0; " d="M285.16059777624037 366.37731763693614 C 266.30808275570575 359.55832284227466 269.1159041417428 350.3326240024386 269.1159041417428 350.3326240024386 269.1159041417428 350.3326240024386 278.3416029815789 347.52480261640153 285.16059777624037 366.37731763693614  Z" /><text x="103.63561104001886" style="font-family: monospace; text-anchor: middle; font-size: 11.34531167101386pt; " transform="rotate(-0.0, 103.63561104001886, 273.3457619346226)" y="273.3457619346226">&#40;R&#40;π/4&#41;,S&#40;:fill&#61;&#62;Red&#41;&#41;</text><polyline points="103.63561104001886 296.0363852766503 103.63561104001886 314.18888395027244 " style="stroke: black; fill: none; " /><polygon points="103.63561104001886 320.9960709528807 107.56574228839894 314.1888839502724 99.70547979163882 314.1888839502724 " style="" /><polygon points="80.94498769799117 343.6866942949084 80.94498769799117 389.0679409789638 126.32623438204655 389.0679409789638 126.32623438204655 343.6866942949084 " style="" /><polygon points="489.37620785448956 218.0762493368111 557.4480778805726 218.0762493368111 557.4480778805726 195.38562599478337 602.829324564628 240.76687267883875 557.4480778805726 286.14811936289414 557.4480778805726 263.4574960208665 489.37620785448956 263.4574960208665 " style="stroke: black; fill: white; fill-opacity: 0; " /><polygon points="648.2105712486833 344.8212254620098 712.3893457866735 409.0 776.5681203246637 344.8212254620098 712.3893457866735 280.6424509240196 " style="fill: red; " /><path style="stroke: nothing; fill: steelblue; opacity: 1.0; " d="M893.914332522895 163.29623872578833 C 859.8783975098536 90.68624403129974 893.914332522895 72.53374535767756 893.914332522895 72.53374535767756 893.914332522895 72.53374535767756 927.9502675359366 90.68624403129974 893.914332522895 163.29623872578833  Z" /><path style="stroke: nothing; fill: steelblue; opacity: 1.0; " d="M893.914332522895 163.29623872578833 C 921.1903117015408 87.88617864364983 958.0931070608852 99.11746418779813 958.0931070608852 99.11746418779813 958.0931070608852 99.11746418779813 969.3243926050335 136.02025954714247 893.914332522895 163.29623872578833  Z" /><path style="stroke: nothing; fill: steelblue; opacity: 1.0; " d="M893.914332522895 163.29623872578833 C 966.5243272173836 129.2603037127468 984.6768258910058 163.29623872578833 984.6768258910058 163.29623872578833 984.6768258910058 163.29623872578833 966.5243272173836 197.33217373882985 893.914332522895 163.29623872578833  Z" /><path style="stroke: nothing; fill: steelblue; opacity: 1.0; " d="M893.914332522895 163.29623872578833 C 969.3243926050335 190.57221790443413 958.0931070608852 227.47501326377846 958.0931070608852 227.47501326377846 958.0931070608852 227.47501326377846 921.190311701541 238.70629880792677 893.914332522895 163.29623872578833  Z" /><path style="stroke: nothing; fill: steelblue; opacity: 1.0; " d="M893.914332522895 163.29623872578833 C 927.9502675359366 235.90623342027692 893.914332522895 254.05873209389907 893.914332522895 254.05873209389907 893.914332522895 254.05873209389907 859.8783975098536 235.90623342027692 893.914332522895 163.29623872578833  Z" /><path style="stroke: nothing; fill: steelblue; opacity: 1.0; " d="M893.914332522895 163.29623872578833 C 866.6383533442493 238.70629880792677 829.7355579849049 227.4750132637785 829.7355579849049 227.4750132637785 829.7355579849049 227.4750132637785 818.5042724407565 190.57221790443413 893.914332522895 163.29623872578833  Z" /><path style="stroke: nothing; fill: steelblue; opacity: 1.0; " d="M893.914332522895 163.29623872578833 C 821.3043378284065 197.33217373882985 803.1518391547843 163.29623872578833 803.1518391547843 163.29623872578833 803.1518391547843 163.29623872578833 821.3043378284065 129.2603037127468 893.914332522895 163.29623872578833  Z" /><path style="stroke: nothing; fill: steelblue; opacity: 1.0; " d="M893.914332522895 163.29623872578833 C 818.5042724407565 136.02025954714253 829.7355579849049 99.11746418779813 829.7355579849049 99.11746418779813 829.7355579849049 99.11746418779813 866.6383533442493 87.88617864364983 893.914332522895 163.29623872578833  Z" /><polyline points="712.3893457866736 344.8212254620098 893.914332522895 163.29623872578833 " style="stroke: black; fill: none; " /><text x="496.8384129455029" style="font-family: monospace; text-anchor: middle; font-size: 18.152498673622176pt; " transform="rotate(-0.0, 496.8384129455029, 27.152498673622176)" y="27.152498673622176">S&#40;:fill&#61;&#62;:red&#41;*R&#40;π/4&#41;*Square&#40;&#41; &#43; T&#40;2,2&#41;*Flower&#40;&#41; &#43; Line&#40;&#91;0,0&#93;,&#91;2,2&#93;&#41;</text></svg>