<?xml version="1.0" encoding="UTF-8"?>
<svg xmlns="http://www.w3.org/2000/svg" xmlns:xlink="http://www.w3.org/1999/xlink" width="552.268982" height="147.229721" viewBox="0 0 552.268982 147.229721">
<path fill-rule="nonzero" fill="rgb(0%, 0%, 0%)" fill-opacity="1" d="M 28.207031 20.714844 L 28.746094 17.496094 C 28.765625 17.421875 28.765625 17.332031 28.765625 17.261719 C 28.765625 17.042969 28.605469 17.042969 28.316406 17.042969 L 19.082031 17.042969 C 18.722656 17.042969 18.667969 17.042969 18.558594 17.367188 L 17.496094 20.589844 C 17.40625 20.824219 17.40625 20.894531 17.40625 20.894531 C 17.40625 21.09375 17.625 21.09375 17.679688 21.09375 C 17.75 21.09375 17.820312 21.09375 17.875 21.039062 C 17.910156 21.003906 17.929688 20.988281 18.109375 20.519531 C 18.957031 17.980469 19.460938 17.601562 21.78125 17.601562 L 22.394531 17.601562 C 22.808594 17.601562 22.808594 17.675781 22.808594 17.800781 C 22.808594 17.925781 22.773438 18.089844 22.734375 18.195312 L 20.324219 27.863281 C 20.160156 28.492188 20 28.671875 18.414062 28.671875 L 18.128906 28.671875 C 17.820312 28.671875 17.625 28.671875 17.625 29.015625 C 17.625 29.230469 17.839844 29.230469 17.929688 29.230469 C 18.847656 29.230469 19.800781 29.175781 20.71875 29.175781 C 21.65625 29.175781 22.628906 29.230469 23.546875 29.230469 C 23.707031 29.230469 23.921875 29.230469 23.921875 28.871094 C 23.921875 28.671875 23.742188 28.671875 23.472656 28.671875 L 23.203125 28.671875 C 22.914062 28.671875 22.359375 28.636719 22.304688 28.636719 C 21.800781 28.582031 21.710938 28.511719 21.710938 28.257812 C 21.710938 28.203125 21.710938 28.167969 21.78125 27.917969 L 24.195312 18.234375 C 24.320312 17.691406 24.464844 17.65625 24.609375 17.636719 C 24.75 17.601562 25.238281 17.601562 25.542969 17.601562 C 27.414062 17.601562 27.828125 17.855469 27.828125 18.96875 C 27.828125 19.1875 27.828125 19.527344 27.648438 20.589844 C 27.613281 20.789062 27.613281 20.859375 27.613281 20.859375 C 27.613281 21.09375 27.792969 21.09375 27.882812 21.09375 C 28.117188 21.09375 28.152344 21.039062 28.207031 20.714844 Z M 14.257812 8.980469 "/>
<path fill-rule="nonzero" fill="rgb(0%, 0%, 0%)" fill-opacity="1" d="M 37.152344 24.730469 C 37.152344 23.238281 35.949219 22.03125 34.453125 22.03125 C 32.960938 22.03125 31.753906 23.238281 31.753906 24.730469 C 31.753906 26.222656 32.960938 27.429688 34.453125 27.429688 C 35.949219 27.429688 37.152344 26.222656 37.152344 24.730469 Z M 36.433594 24.730469 C 36.433594 25.828125 35.550781 26.710938 34.453125 26.710938 C 33.355469 26.710938 32.472656 25.828125 32.472656 24.730469 C 32.472656 23.632812 33.355469 22.75 34.453125 22.75 C 35.550781 22.75 36.433594 23.632812 36.433594 24.730469 Z M 30.746094 14.722656 "/>
<path fill-rule="nonzero" fill="rgb(0%, 0%, 0%)" fill-opacity="1" d="M 55.710938 20.714844 L 56.25 17.496094 C 56.269531 17.421875 56.269531 17.332031 56.269531 17.261719 C 56.269531 17.042969 56.109375 17.042969 55.820312 17.042969 L 46.585938 17.042969 C 46.226562 17.042969 46.171875 17.042969 46.0625 17.367188 L 45 20.589844 C 44.910156 20.824219 44.910156 20.894531 44.910156 20.894531 C 44.910156 21.09375 45.128906 21.09375 45.183594 21.09375 C 45.253906 21.09375 45.324219 21.09375 45.378906 21.039062 C 45.414062 21.003906 45.433594 20.988281 45.613281 20.519531 C 46.460938 17.980469 46.964844 17.601562 49.285156 17.601562 L 49.898438 17.601562 C 50.3125 17.601562 50.3125 17.675781 50.3125 17.800781 C 50.3125 17.925781 50.277344 18.089844 50.238281 18.195312 L 47.828125 27.863281 C 47.664062 28.492188 47.503906 28.671875 45.917969 28.671875 L 45.632812 28.671875 C 45.324219 28.671875 45.128906 28.671875 45.128906 29.015625 C 45.128906 29.230469 45.34375 29.230469 45.433594 29.230469 C 46.351562 29.230469 47.304688 29.175781 48.222656 29.175781 C 49.160156 29.175781 50.132812 29.230469 51.050781 29.230469 C 51.210938 29.230469 51.425781 29.230469 51.425781 28.871094 C 51.425781 28.671875 51.246094 28.671875 50.976562 28.671875 L 50.707031 28.671875 C 50.417969 28.671875 49.863281 28.636719 49.808594 28.636719 C 49.304688 28.582031 49.214844 28.511719 49.214844 28.257812 C 49.214844 28.203125 49.214844 28.167969 49.285156 27.917969 L 51.699219 18.234375 C 51.824219 17.691406 51.96875 17.65625 52.113281 17.636719 C 52.253906 17.601562 52.742188 17.601562 53.046875 17.601562 C 54.917969 17.601562 55.332031 17.855469 55.332031 18.96875 C 55.332031 19.1875 55.332031 19.527344 55.152344 20.589844 C 55.117188 20.789062 55.117188 20.859375 55.117188 20.859375 C 55.117188 21.09375 55.296875 21.09375 55.386719 21.09375 C 55.621094 21.09375 55.65625 21.039062 55.710938 20.714844 Z M 41.761719 8.980469 "/>
<path fill-rule="nonzero" fill="rgb(0%, 0%, 0%)" fill-opacity="1" d="M 64.65625 24.730469 C 64.65625 23.238281 63.453125 22.03125 61.957031 22.03125 C 60.464844 22.03125 59.257812 23.238281 59.257812 24.730469 C 59.257812 26.222656 60.464844 27.429688 61.957031 27.429688 C 63.453125 27.429688 64.65625 26.222656 64.65625 24.730469 Z M 63.9375 24.730469 C 63.9375 25.828125 63.054688 26.710938 61.957031 26.710938 C 60.859375 26.710938 59.976562 25.828125 59.976562 24.730469 C 59.976562 23.632812 60.859375 22.75 61.957031 22.75 C 63.054688 22.75 63.9375 23.632812 63.9375 24.730469 Z M 58.25 14.722656 "/>
<path fill-rule="nonzero" fill="rgb(0%, 0%, 0%)" fill-opacity="1" d="M 83.214844 20.714844 L 83.753906 17.496094 C 83.773438 17.421875 83.773438 17.332031 83.773438 17.261719 C 83.773438 17.042969 83.613281 17.042969 83.324219 17.042969 L 74.089844 17.042969 C 73.730469 17.042969 73.675781 17.042969 73.566406 17.367188 L 72.503906 20.589844 C 72.414062 20.824219 72.414062 20.894531 72.414062 20.894531 C 72.414062 21.09375 72.632812 21.09375 72.6875 21.09375 C 72.757812 21.09375 72.828125 21.09375 72.882812 21.039062 C 72.917969 21.003906 72.9375 20.988281 73.117188 20.519531 C 73.964844 17.980469 74.46875 17.601562 76.789062 17.601562 L 77.402344 17.601562 C 77.816406 17.601562 77.816406 17.675781 77.816406 17.800781 C 77.816406 17.925781 77.78125 18.089844 77.742188 18.195312 L 75.332031 27.863281 C 75.167969 28.492188 75.007812 28.671875 73.421875 28.671875 L 73.136719 28.671875 C 72.828125 28.671875 72.632812 28.671875 72.632812 29.015625 C 72.632812 29.230469 72.847656 29.230469 72.9375 29.230469 C 73.855469 29.230469 74.808594 29.175781 75.726562 29.175781 C 76.664062 29.175781 77.636719 29.230469 78.554688 29.230469 C 78.714844 29.230469 78.929688 29.230469 78.929688 28.871094 C 78.929688 28.671875 78.75 28.671875 78.480469 28.671875 L 78.210938 28.671875 C 77.921875 28.671875 77.367188 28.636719 77.3125 28.636719 C 76.808594 28.582031 76.71875 28.511719 76.71875 28.257812 C 76.71875 28.203125 76.71875 28.167969 76.789062 27.917969 L 79.203125 18.234375 C 79.328125 17.691406 79.472656 17.65625 79.617188 17.636719 C 79.757812 17.601562 80.246094 17.601562 80.550781 17.601562 C 82.421875 17.601562 82.835938 17.855469 82.835938 18.96875 C 82.835938 19.1875 82.835938 19.527344 82.65625 20.589844 C 82.621094 20.789062 82.621094 20.859375 82.621094 20.859375 C 82.621094 21.09375 82.800781 21.09375 82.890625 21.09375 C 83.125 21.09375 83.160156 21.039062 83.214844 20.714844 Z M 69.265625 8.980469 "/>
<path fill-rule="nonzero" fill="rgb(0%, 0%, 0%)" fill-opacity="1" d="M 203.957031 20.714844 L 204.496094 17.496094 C 204.515625 17.421875 204.515625 17.332031 204.515625 17.261719 C 204.515625 17.042969 204.355469 17.042969 204.066406 17.042969 L 194.832031 17.042969 C 194.472656 17.042969 194.417969 17.042969 194.308594 17.367188 L 193.246094 20.589844 C 193.15625 20.824219 193.15625 20.894531 193.15625 20.894531 C 193.15625 21.09375 193.375 21.09375 193.429688 21.09375 C 193.5 21.09375 193.570312 21.09375 193.625 21.039062 C 193.660156 21.003906 193.679688 20.988281 193.859375 20.519531 C 194.707031 17.980469 195.210938 17.601562 197.53125 17.601562 L 198.144531 17.601562 C 198.558594 17.601562 198.558594 17.675781 198.558594 17.800781 C 198.558594 17.925781 198.523438 18.089844 198.484375 18.195312 L 196.074219 27.863281 C 195.910156 28.492188 195.75 28.671875 194.164062 28.671875 L 193.878906 28.671875 C 193.570312 28.671875 193.375 28.671875 193.375 29.015625 C 193.375 29.230469 193.589844 29.230469 193.679688 29.230469 C 194.597656 29.230469 195.550781 29.175781 196.46875 29.175781 C 197.40625 29.175781 198.378906 29.230469 199.296875 29.230469 C 199.457031 29.230469 199.671875 29.230469 199.671875 28.871094 C 199.671875 28.671875 199.492188 28.671875 199.222656 28.671875 L 198.953125 28.671875 C 198.664062 28.671875 198.109375 28.636719 198.054688 28.636719 C 197.550781 28.582031 197.460938 28.511719 197.460938 28.257812 C 197.460938 28.203125 197.460938 28.167969 197.53125 27.917969 L 199.945312 18.234375 C 200.070312 17.691406 200.214844 17.65625 200.359375 17.636719 C 200.5 17.601562 200.988281 17.601562 201.292969 17.601562 C 203.164062 17.601562 203.578125 17.855469 203.578125 18.96875 C 203.578125 19.1875 203.578125 19.527344 203.398438 20.589844 C 203.363281 20.789062 203.363281 20.859375 203.363281 20.859375 C 203.363281 21.09375 203.542969 21.09375 203.632812 21.09375 C 203.867188 21.09375 203.902344 21.039062 203.957031 20.714844 Z M 190.007812 8.980469 "/>
<path fill-rule="nonzero" fill="rgb(0%, 0%, 0%)" fill-opacity="1" d="M 212.902344 24.730469 C 212.902344 23.238281 211.699219 22.03125 210.203125 22.03125 C 208.710938 22.03125 207.503906 23.238281 207.503906 24.730469 C 207.503906 26.222656 208.710938 27.429688 210.203125 27.429688 C 211.699219 27.429688 212.902344 26.222656 212.902344 24.730469 Z M 212.183594 24.730469 C 212.183594 25.828125 211.300781 26.710938 210.203125 26.710938 C 209.105469 26.710938 208.222656 25.828125 208.222656 24.730469 C 208.222656 23.632812 209.105469 22.75 210.203125 22.75 C 211.300781 22.75 212.183594 23.632812 212.183594 24.730469 Z M 206.496094 14.722656 "/>
<path fill-rule="nonzero" fill="rgb(0%, 0%, 0%)" fill-opacity="1" d="M 231.460938 20.714844 L 232 17.496094 C 232.019531 17.421875 232.019531 17.332031 232.019531 17.261719 C 232.019531 17.042969 231.859375 17.042969 231.570312 17.042969 L 222.335938 17.042969 C 221.976562 17.042969 221.921875 17.042969 221.8125 17.367188 L 220.75 20.589844 C 220.660156 20.824219 220.660156 20.894531 220.660156 20.894531 C 220.660156 21.09375 220.878906 21.09375 220.933594 21.09375 C 221.003906 21.09375 221.074219 21.09375 221.128906 21.039062 C 221.164062 21.003906 221.183594 20.988281 221.363281 20.519531 C 222.210938 17.980469 222.714844 17.601562 225.035156 17.601562 L 225.648438 17.601562 C 226.0625 17.601562 226.0625 17.675781 226.0625 17.800781 C 226.0625 17.925781 226.027344 18.089844 225.988281 18.195312 L 223.578125 27.863281 C 223.414062 28.492188 223.253906 28.671875 221.667969 28.671875 L 221.382812 28.671875 C 221.074219 28.671875 220.878906 28.671875 220.878906 29.015625 C 220.878906 29.230469 221.09375 29.230469 221.183594 29.230469 C 222.101562 29.230469 223.054688 29.175781 223.972656 29.175781 C 224.910156 29.175781 225.882812 29.230469 226.800781 29.230469 C 226.960938 29.230469 227.175781 29.230469 227.175781 28.871094 C 227.175781 28.671875 226.996094 28.671875 226.726562 28.671875 L 226.457031 28.671875 C 226.167969 28.671875 225.613281 28.636719 225.558594 28.636719 C 225.054688 28.582031 224.964844 28.511719 224.964844 28.257812 C 224.964844 28.203125 224.964844 28.167969 225.035156 27.917969 L 227.449219 18.234375 C 227.574219 17.691406 227.71875 17.65625 227.863281 17.636719 C 228.003906 17.601562 228.492188 17.601562 228.796875 17.601562 C 230.667969 17.601562 231.082031 17.855469 231.082031 18.96875 C 231.082031 19.1875 231.082031 19.527344 230.902344 20.589844 C 230.867188 20.789062 230.867188 20.859375 230.867188 20.859375 C 230.867188 21.09375 231.046875 21.09375 231.136719 21.09375 C 231.371094 21.09375 231.40625 21.039062 231.460938 20.714844 Z M 217.511719 8.980469 "/>
<path fill-rule="nonzero" fill="rgb(0%, 0%, 0%)" fill-opacity="1" d="M 41.957031 128.714844 L 42.496094 125.496094 C 42.515625 125.421875 42.515625 125.332031 42.515625 125.261719 C 42.515625 125.042969 42.355469 125.042969 42.066406 125.042969 L 32.832031 125.042969 C 32.472656 125.042969 32.417969 125.042969 32.308594 125.367188 L 31.246094 128.589844 C 31.15625 128.824219 31.15625 128.894531 31.15625 128.894531 C 31.15625 129.09375 31.375 129.09375 31.429688 129.09375 C 31.5 129.09375 31.570312 129.09375 31.625 129.039062 C 31.660156 129.003906 31.679688 128.988281 31.859375 128.519531 C 32.707031 125.980469 33.210938 125.601562 35.53125 125.601562 L 36.144531 125.601562 C 36.558594 125.601562 36.558594 125.675781 36.558594 125.800781 C 36.558594 125.925781 36.523438 126.089844 36.484375 126.195312 L 34.074219 135.863281 C 33.910156 136.492188 33.75 136.671875 32.164062 136.671875 L 31.878906 136.671875 C 31.570312 136.671875 31.375 136.671875 31.375 137.015625 C 31.375 137.230469 31.589844 137.230469 31.679688 137.230469 C 32.597656 137.230469 33.550781 137.175781 34.46875 137.175781 C 35.40625 137.175781 36.378906 137.230469 37.296875 137.230469 C 37.457031 137.230469 37.671875 137.230469 37.671875 136.871094 C 37.671875 136.671875 37.492188 136.671875 37.222656 136.671875 L 36.953125 136.671875 C 36.664062 136.671875 36.109375 136.636719 36.054688 136.636719 C 35.550781 136.582031 35.460938 136.511719 35.460938 136.257812 C 35.460938 136.203125 35.460938 136.167969 35.53125 135.917969 L 37.945312 126.234375 C 38.070312 125.691406 38.214844 125.65625 38.359375 125.636719 C 38.5 125.601562 38.988281 125.601562 39.292969 125.601562 C 41.164062 125.601562 41.578125 125.855469 41.578125 126.96875 C 41.578125 127.1875 41.578125 127.527344 41.398438 128.589844 C 41.363281 128.789062 41.363281 128.859375 41.363281 128.859375 C 41.363281 129.09375 41.542969 129.09375 41.632812 129.09375 C 41.867188 129.09375 41.902344 129.039062 41.957031 128.714844 Z M 28.007812 116.980469 "/>
<path fill-rule="nonzero" fill="rgb(0%, 0%, 0%)" fill-opacity="1" d="M 50.902344 132.730469 C 50.902344 131.238281 49.699219 130.03125 48.203125 130.03125 C 46.710938 130.03125 45.503906 131.238281 45.503906 132.730469 C 45.503906 134.222656 46.710938 135.429688 48.203125 135.429688 C 49.699219 135.429688 50.902344 134.222656 50.902344 132.730469 Z M 50.183594 132.730469 C 50.183594 133.828125 49.300781 134.710938 48.203125 134.710938 C 47.105469 134.710938 46.222656 133.828125 46.222656 132.730469 C 46.222656 131.632812 47.105469 130.75 48.203125 130.75 C 49.300781 130.75 50.183594 131.632812 50.183594 132.730469 Z M 44.496094 122.722656 "/>
<path fill-rule="nonzero" fill="rgb(0%, 0%, 0%)" fill-opacity="1" d="M 69.460938 128.714844 L 70 125.496094 C 70.019531 125.421875 70.019531 125.332031 70.019531 125.261719 C 70.019531 125.042969 69.859375 125.042969 69.570312 125.042969 L 60.335938 125.042969 C 59.976562 125.042969 59.921875 125.042969 59.8125 125.367188 L 58.75 128.589844 C 58.660156 128.824219 58.660156 128.894531 58.660156 128.894531 C 58.660156 129.09375 58.878906 129.09375 58.933594 129.09375 C 59.003906 129.09375 59.074219 129.09375 59.128906 129.039062 C 59.164062 129.003906 59.183594 128.988281 59.363281 128.519531 C 60.210938 125.980469 60.714844 125.601562 63.035156 125.601562 L 63.648438 125.601562 C 64.0625 125.601562 64.0625 125.675781 64.0625 125.800781 C 64.0625 125.925781 64.027344 126.089844 63.988281 126.195312 L 61.578125 135.863281 C 61.414062 136.492188 61.253906 136.671875 59.667969 136.671875 L 59.382812 136.671875 C 59.074219 136.671875 58.878906 136.671875 58.878906 137.015625 C 58.878906 137.230469 59.09375 137.230469 59.183594 137.230469 C 60.101562 137.230469 61.054688 137.175781 61.972656 137.175781 C 62.910156 137.175781 63.882812 137.230469 64.800781 137.230469 C 64.960938 137.230469 65.175781 137.230469 65.175781 136.871094 C 65.175781 136.671875 64.996094 136.671875 64.726562 136.671875 L 64.457031 136.671875 C 64.167969 136.671875 63.613281 136.636719 63.558594 136.636719 C 63.054688 136.582031 62.964844 136.511719 62.964844 136.257812 C 62.964844 136.203125 62.964844 136.167969 63.035156 135.917969 L 65.449219 126.234375 C 65.574219 125.691406 65.71875 125.65625 65.863281 125.636719 C 66.003906 125.601562 66.492188 125.601562 66.796875 125.601562 C 68.667969 125.601562 69.082031 125.855469 69.082031 126.96875 C 69.082031 127.1875 69.082031 127.527344 68.902344 128.589844 C 68.867188 128.789062 68.867188 128.859375 68.867188 128.859375 C 68.867188 129.09375 69.046875 129.09375 69.136719 129.09375 C 69.371094 129.09375 69.40625 129.039062 69.460938 128.714844 Z M 55.511719 116.980469 "/>
<path fill-rule="nonzero" fill="rgb(0%, 0%, 0%)" fill-opacity="1" d="M 217.710938 128.714844 L 218.25 125.496094 C 218.269531 125.421875 218.269531 125.332031 218.269531 125.261719 C 218.269531 125.042969 218.109375 125.042969 217.820312 125.042969 L 208.585938 125.042969 C 208.226562 125.042969 208.171875 125.042969 208.0625 125.367188 L 207 128.589844 C 206.910156 128.824219 206.910156 128.894531 206.910156 128.894531 C 206.910156 129.09375 207.128906 129.09375 207.183594 129.09375 C 207.253906 129.09375 207.324219 129.09375 207.378906 129.039062 C 207.414062 129.003906 207.433594 128.988281 207.613281 128.519531 C 208.460938 125.980469 208.964844 125.601562 211.285156 125.601562 L 211.898438 125.601562 C 212.3125 125.601562 212.3125 125.675781 212.3125 125.800781 C 212.3125 125.925781 212.277344 126.089844 212.238281 126.195312 L 209.828125 135.863281 C 209.664062 136.492188 209.503906 136.671875 207.917969 136.671875 L 207.632812 136.671875 C 207.324219 136.671875 207.128906 136.671875 207.128906 137.015625 C 207.128906 137.230469 207.34375 137.230469 207.433594 137.230469 C 208.351562 137.230469 209.304688 137.175781 210.222656 137.175781 C 211.160156 137.175781 212.132812 137.230469 213.050781 137.230469 C 213.210938 137.230469 213.425781 137.230469 213.425781 136.871094 C 213.425781 136.671875 213.246094 136.671875 212.976562 136.671875 L 212.707031 136.671875 C 212.417969 136.671875 211.863281 136.636719 211.808594 136.636719 C 211.304688 136.582031 211.214844 136.511719 211.214844 136.257812 C 211.214844 136.203125 211.214844 136.167969 211.285156 135.917969 L 213.699219 126.234375 C 213.824219 125.691406 213.96875 125.65625 214.113281 125.636719 C 214.253906 125.601562 214.742188 125.601562 215.046875 125.601562 C 216.917969 125.601562 217.332031 125.855469 217.332031 126.96875 C 217.332031 127.1875 217.332031 127.527344 217.152344 128.589844 C 217.117188 128.789062 217.117188 128.859375 217.117188 128.859375 C 217.117188 129.09375 217.296875 129.09375 217.386719 129.09375 C 217.621094 129.09375 217.65625 129.039062 217.710938 128.714844 Z M 203.761719 116.980469 "/>
<path fill="none" stroke-width="1.012" stroke-linecap="round" stroke-linejoin="miter" stroke="rgb(0%, 0%, 0%)" stroke-opacity="1" stroke-miterlimit="4" d="M 92.773438 -23.136719 C 122.28125 -23.136719 151.789062 -23.136719 181.300781 -23.136719 " transform="matrix(1, 0, 0, -1, 0, 0)"/>
<path fill="none" stroke-width="1.012" stroke-linecap="round" stroke-linejoin="miter" stroke="rgb(0%, 0%, 0%)" stroke-opacity="1" stroke-miterlimit="4" d="M 175.898438 -28.535156 C 175.898438 -23.136719 181.300781 -23.136719 181.300781 -23.136719 " transform="matrix(1, 0, 0, -1, 0, 0)"/>
<path fill="none" stroke-width="1.012" stroke-linecap="round" stroke-linejoin="miter" stroke="rgb(0%, 0%, 0%)" stroke-opacity="1" stroke-miterlimit="4" d="M 175.898438 -17.738281 C 175.898438 -23.136719 181.300781 -23.136719 181.300781 -23.136719 " transform="matrix(1, 0, 0, -1, 0, 0)"/>
<path fill-rule="nonzero" fill="rgb(100%, 100%, 100%)" fill-opacity="1" d="M 121.570312 21.230469 L 154.390625 21.230469 L 154.390625 10 L 121.570312 10 Z M 121.570312 21.230469 "/>
<path fill-rule="nonzero" fill="rgb(0%, 0%, 0%)" fill-opacity="1" d="M 124.769531 16.921875 C 124.769531 16.800781 124.671875 16.800781 124.589844 16.800781 C 124.433594 16.800781 124.433594 16.824219 124.386719 17.003906 C 124.289062 17.351562 123.964844 18.503906 123.269531 18.503906 C 123.171875 18.503906 123.003906 18.492188 123.003906 18.167969 C 123.003906 17.855469 123.160156 17.460938 123.316406 17.015625 L 124.085938 14.964844 C 124.203125 14.617188 124.230469 14.519531 124.230469 14.292969 C 124.230469 13.632812 123.773438 13.332031 123.328125 13.332031 C 122.199219 13.332031 121.792969 15.121094 121.792969 15.179688 C 121.792969 15.300781 121.914062 15.300781 121.972656 15.300781 C 122.128906 15.300781 122.140625 15.277344 122.1875 15.109375 C 122.296875 14.710938 122.609375 13.597656 123.304688 13.597656 C 123.4375 13.597656 123.570312 13.65625 123.570312 13.933594 C 123.570312 14.222656 123.4375 14.570312 123.351562 14.796875 L 122.992188 15.792969 L 122.550781 16.980469 C 122.382812 17.4375 122.332031 17.570312 122.332031 17.808594 C 122.332031 18.277344 122.621094 18.769531 123.246094 18.769531 C 124.371094 18.769531 124.769531 16.96875 124.769531 16.921875 Z M 125.09375 11.304688 C 125.09375 11.050781 124.914062 10.789062 124.554688 10.789062 C 124.167969 10.789062 123.785156 11.160156 123.785156 11.542969 C 123.785156 11.808594 123.976562 12.0625 124.324219 12.0625 C 124.707031 12.0625 125.09375 11.6875 125.09375 11.304688 Z M 120.796875 5.136719 "/>
<path fill-rule="nonzero" fill="rgb(0%, 0%, 0%)" fill-opacity="1" d="M 130.902344 16.921875 C 130.902344 16.800781 130.804688 16.800781 130.71875 16.800781 C 130.578125 16.800781 130.566406 16.8125 130.492188 17.078125 C 130.324219 17.75 130.097656 18.503906 129.6875 18.503906 C 129.375 18.503906 129.375 18.179688 129.375 18.011719 C 129.375 17.929688 129.375 17.75 129.449219 17.460938 L 131.164062 10.609375 C 131.175781 10.574219 131.199219 10.453125 131.199219 10.453125 C 131.199219 10.34375 131.128906 10.308594 131.03125 10.308594 C 130.996094 10.308594 130.875 10.320312 130.839844 10.332031 L 129.652344 10.429688 C 129.507812 10.441406 129.375 10.453125 129.375 10.679688 C 129.375 10.8125 129.496094 10.8125 129.664062 10.8125 C 130.242188 10.8125 130.265625 10.898438 130.265625 11.015625 C 130.265625 11.050781 130.226562 11.222656 130.226562 11.222656 L 129.53125 14.027344 C 129.351562 13.65625 129.027344 13.332031 128.523438 13.332031 C 127.191406 13.332031 125.777344 15.15625 125.777344 16.910156 C 125.777344 17.929688 126.328125 18.769531 127.226562 18.769531 C 127.660156 18.769531 128.1875 18.515625 128.667969 17.929688 C 128.800781 18.515625 129.246094 18.769531 129.664062 18.769531 C 130.109375 18.769531 130.359375 18.46875 130.539062 18.097656 C 130.757812 17.640625 130.902344 16.921875 130.902344 16.921875 Z M 128.742188 17.171875 C 128.644531 17.542969 127.914062 18.503906 127.253906 18.503906 C 126.6875 18.503906 126.59375 17.796875 126.59375 17.4375 C 126.59375 16.835938 126.964844 15.433594 127.179688 14.929688 C 127.480469 14.195312 128.03125 13.597656 128.523438 13.597656 C 128.621094 13.597656 128.894531 13.609375 129.113281 13.945312 C 129.234375 14.136719 129.351562 14.484375 129.351562 14.710938 C 129.351562 14.75 129.339844 14.796875 129.316406 14.867188 Z M 124.480469 5.136719 "/>
<path fill-rule="nonzero" fill="rgb(0%, 0%, 0%)" fill-opacity="1" d="M 137.035156 17.632812 L 137.25 16.34375 C 137.257812 16.316406 137.257812 16.28125 137.257812 16.25 C 137.257812 16.164062 137.191406 16.164062 137.078125 16.164062 L 133.382812 16.164062 C 133.238281 16.164062 133.21875 16.164062 133.175781 16.292969 L 132.75 17.582031 C 132.714844 17.675781 132.714844 17.707031 132.714844 17.707031 C 132.714844 17.785156 132.800781 17.785156 132.820312 17.785156 C 132.851562 17.785156 132.878906 17.785156 132.898438 17.761719 C 132.914062 17.75 132.921875 17.742188 132.992188 17.554688 C 133.332031 16.539062 133.535156 16.386719 134.460938 16.386719 L 134.707031 16.386719 C 134.875 16.386719 134.875 16.417969 134.875 16.46875 C 134.875 16.515625 134.859375 16.582031 134.84375 16.625 L 133.878906 20.492188 C 133.816406 20.742188 133.75 20.816406 133.117188 20.816406 L 133 20.816406 C 132.878906 20.816406 132.800781 20.816406 132.800781 20.953125 C 132.800781 21.039062 132.886719 21.039062 132.921875 21.039062 C 133.289062 21.039062 133.671875 21.015625 134.039062 21.015625 C 134.414062 21.015625 134.800781 21.039062 135.167969 21.039062 C 135.234375 21.039062 135.320312 21.039062 135.320312 20.894531 C 135.320312 20.816406 135.246094 20.816406 135.140625 20.816406 L 135.03125 20.816406 C 134.917969 20.816406 134.691406 20.800781 134.671875 20.800781 C 134.46875 20.78125 134.433594 20.75 134.433594 20.648438 C 134.433594 20.628906 134.433594 20.613281 134.460938 20.511719 L 135.425781 16.640625 C 135.476562 16.421875 135.535156 16.410156 135.59375 16.402344 C 135.652344 16.386719 135.84375 16.386719 135.96875 16.386719 C 136.714844 16.386719 136.882812 16.488281 136.882812 16.933594 C 136.882812 17.019531 136.882812 17.15625 136.808594 17.582031 C 136.796875 17.664062 136.796875 17.691406 136.796875 17.691406 C 136.796875 17.785156 136.867188 17.785156 136.902344 17.785156 C 136.996094 17.785156 137.011719 17.761719 137.035156 17.632812 Z M 131.453125 12.9375 "/>
<path fill-rule="nonzero" fill="rgb(0%, 0%, 0%)" fill-opacity="1" d="M 144.203125 16.910156 C 144.3125 16.714844 144.238281 16.488281 144.035156 16.40625 L 142.296875 15.636719 L 144.035156 14.867188 C 144.238281 14.785156 144.3125 14.558594 144.203125 14.363281 C 144.097656 14.183594 143.855469 14.136719 143.6875 14.257812 L 142.152344 15.382812 L 142.355469 13.488281 C 142.378906 13.285156 142.222656 13.09375 142.007812 13.09375 C 141.792969 13.09375 141.636719 13.285156 141.660156 13.488281 L 141.863281 15.382812 L 140.328125 14.257812 C 140.160156 14.136719 139.917969 14.183594 139.8125 14.363281 C 139.703125 14.558594 139.777344 14.785156 139.980469 14.867188 L 141.71875 15.636719 L 139.980469 16.40625 C 139.777344 16.488281 139.703125 16.714844 139.8125 16.910156 C 139.917969 17.089844 140.160156 17.136719 140.328125 17.015625 L 141.863281 15.890625 L 141.660156 17.785156 C 141.636719 17.988281 141.792969 18.167969 142.007812 18.167969 C 142.222656 18.167969 142.378906 17.988281 142.355469 17.785156 L 142.152344 15.890625 L 143.6875 17.015625 C 143.855469 17.136719 144.097656 17.089844 144.203125 16.910156 Z M 139.007812 8.964844 "/>
<path fill-rule="nonzero" fill="rgb(0%, 0%, 0%)" fill-opacity="1" d="M 153.707031 16.921875 C 153.683594 16.800781 153.574219 16.800781 153.539062 16.800781 C 153.417969 16.800781 153.417969 16.847656 153.417969 17.015625 C 153.417969 17.796875 153.371094 18.503906 152.878906 18.503906 C 152.554688 18.503906 152.445312 18.191406 152.386719 17.953125 C 152.3125 17.6875 152.328125 17.125 152.3125 16.703125 L 152.328125 15.410156 C 152.3125 15.230469 152.328125 14.773438 152.328125 14.59375 C 152.3125 14.316406 152.328125 13.859375 152.300781 13.789062 C 152.253906 13.574219 152.050781 13.464844 151.871094 13.464844 C 151.808594 13.464844 151.511719 13.476562 151.511719 13.882812 L 151.511719 16.128906 L 151.5 17.351562 C 151.511719 17.414062 151.199219 18.503906 150.226562 18.503906 C 149.625 18.503906 149.242188 18.109375 149.085938 17.460938 C 148.992188 17.113281 148.992188 16.777344 148.992188 16.441406 L 148.992188 14.425781 C 148.992188 14.171875 149.003906 13.714844 148.976562 13.65625 C 148.929688 13.453125 148.761719 13.332031 148.558594 13.332031 C 148.523438 13.332031 148.1875 13.34375 148.1875 13.765625 L 148.1875 20.710938 C 148.1875 20.855469 148.199219 20.90625 148.199219 20.90625 C 148.246094 21.085938 148.414062 21.230469 148.617188 21.230469 C 148.871094 21.230469 148.953125 21.011719 148.976562 20.976562 C 148.992188 20.867188 148.992188 20.246094 148.992188 18.398438 C 149.457031 18.722656 150.011719 18.769531 150.25 18.769531 C 151.089844 18.769531 151.425781 18.230469 151.628906 17.894531 C 151.871094 18.433594 152.398438 18.769531 152.925781 18.769531 C 153.347656 18.769531 153.550781 18.492188 153.644531 18.109375 C 153.742188 17.675781 153.707031 16.921875 153.707031 16.921875 Z M 147.40625 8.964844 "/>
<path fill="none" stroke-width="1.012" stroke-linecap="round" stroke-linejoin="miter" stroke="rgb(0%, 0%, 0%)" stroke-opacity="1" stroke-miterlimit="4" d="M 50.140625 -38.230469 C 50.140625 -63.925781 50.140625 -89.621094 50.140625 -115.320312 " transform="matrix(1, 0, 0, -1, 0, 0)"/>
<path fill="none" stroke-width="1.012" stroke-linecap="round" stroke-linejoin="miter" stroke="rgb(0%, 0%, 0%)" stroke-opacity="1" stroke-miterlimit="4" d="M 44.738281 -109.917969 C 50.140625 -109.917969 50.140625 -115.320312 50.140625 -115.320312 " transform="matrix(1, 0, 0, -1, 0, 0)"/>
<path fill="none" stroke-width="1.012" stroke-linecap="round" stroke-linejoin="miter" stroke="rgb(0%, 0%, 0%)" stroke-opacity="1" stroke-miterlimit="4" d="M 55.539062 -109.917969 C 50.140625 -109.917969 50.140625 -115.320312 50.140625 -115.320312 " transform="matrix(1, 0, 0, -1, 0, 0)"/>
<path fill-rule="nonzero" fill="rgb(100%, 100%, 100%)" fill-opacity="1" d="M 10 79.367188 L 48.003906 79.367188 L 48.003906 68.136719 L 10 68.136719 Z M 10 79.367188 "/>
<path fill-rule="nonzero" fill="rgb(0%, 0%, 0%)" fill-opacity="1" d="M 15.941406 75.058594 C 15.917969 74.9375 15.808594 74.9375 15.773438 74.9375 C 15.652344 74.9375 15.652344 74.984375 15.652344 75.152344 C 15.652344 75.933594 15.605469 76.640625 15.113281 76.640625 C 14.789062 76.640625 14.679688 76.328125 14.621094 76.089844 C 14.546875 75.824219 14.5625 75.261719 14.546875 74.839844 L 14.5625 73.546875 C 14.546875 73.367188 14.5625 72.910156 14.5625 72.730469 C 14.546875 72.453125 14.5625 71.996094 14.535156 71.925781 C 14.488281 71.710938 14.285156 71.601562 14.105469 71.601562 C 14.042969 71.601562 13.746094 71.613281 13.746094 72.019531 L 13.746094 74.265625 L 13.734375 75.488281 C 13.746094 75.550781 13.433594 76.640625 12.460938 76.640625 C 11.859375 76.640625 11.476562 76.246094 11.320312 75.597656 C 11.226562 75.25 11.226562 74.914062 11.226562 74.578125 L 11.226562 72.5625 C 11.226562 72.308594 11.238281 71.851562 11.210938 71.792969 C 11.164062 71.589844 10.996094 71.46875 10.792969 71.46875 C 10.757812 71.46875 10.421875 71.480469 10.421875 71.902344 L 10.421875 78.847656 C 10.421875 78.992188 10.433594 79.042969 10.433594 79.042969 C 10.480469 79.222656 10.648438 79.367188 10.851562 79.367188 C 11.105469 79.367188 11.1875 79.148438 11.210938 79.113281 C 11.226562 79.003906 11.226562 78.382812 11.226562 76.535156 C 11.691406 76.859375 12.246094 76.90625 12.484375 76.90625 C 13.324219 76.90625 13.660156 76.367188 13.863281 76.03125 C 14.105469 76.570312 14.632812 76.90625 15.160156 76.90625 C 15.582031 76.90625 15.785156 76.628906 15.878906 76.246094 C 15.976562 75.8125 15.941406 75.058594 15.941406 75.058594 Z M 9.640625 67.101562 "/>
<path fill-rule="nonzero" fill="rgb(0%, 0%, 0%)" fill-opacity="1" d="M 24.472656 75.046875 C 24.582031 74.851562 24.507812 74.625 24.304688 74.542969 L 22.566406 73.773438 L 24.304688 73.003906 C 24.507812 72.921875 24.582031 72.695312 24.472656 72.5 C 24.367188 72.320312 24.125 72.273438 23.957031 72.394531 L 22.421875 73.519531 L 22.625 71.625 C 22.648438 71.421875 22.492188 71.230469 22.277344 71.230469 C 22.0625 71.230469 21.90625 71.421875 21.929688 71.625 L 22.132812 73.519531 L 20.597656 72.394531 C 20.429688 72.273438 20.1875 72.320312 20.082031 72.5 C 19.972656 72.695312 20.046875 72.921875 20.25 73.003906 L 21.988281 73.773438 L 20.25 74.542969 C 20.046875 74.625 19.972656 74.851562 20.082031 75.046875 C 20.1875 75.226562 20.429688 75.273438 20.597656 75.152344 L 22.132812 74.027344 L 21.929688 75.921875 C 21.90625 76.125 22.0625 76.304688 22.277344 76.304688 C 22.492188 76.304688 22.648438 76.125 22.625 75.921875 L 22.421875 74.027344 L 23.957031 75.152344 C 24.125 75.273438 24.367188 75.226562 24.472656 75.046875 Z M 19.277344 67.101562 "/>
<path fill-rule="nonzero" fill="rgb(0%, 0%, 0%)" fill-opacity="1" d="M 31.648438 75.058594 C 31.648438 74.9375 31.550781 74.9375 31.46875 74.9375 C 31.3125 74.9375 31.3125 74.960938 31.265625 75.140625 C 31.167969 75.488281 30.84375 76.640625 30.148438 76.640625 C 30.050781 76.640625 29.882812 76.628906 29.882812 76.304688 C 29.882812 75.992188 30.039062 75.597656 30.195312 75.152344 L 30.964844 73.101562 C 31.082031 72.753906 31.109375 72.65625 31.109375 72.429688 C 31.109375 71.769531 30.652344 71.46875 30.207031 71.46875 C 29.078125 71.46875 28.671875 73.257812 28.671875 73.316406 C 28.671875 73.4375 28.792969 73.4375 28.851562 73.4375 C 29.007812 73.4375 29.019531 73.414062 29.066406 73.246094 C 29.175781 72.847656 29.488281 71.734375 30.183594 71.734375 C 30.316406 71.734375 30.449219 71.792969 30.449219 72.070312 C 30.449219 72.359375 30.316406 72.707031 30.230469 72.933594 L 29.871094 73.929688 L 29.429688 75.117188 C 29.261719 75.574219 29.210938 75.707031 29.210938 75.945312 C 29.210938 76.414062 29.5 76.90625 30.125 76.90625 C 31.25 76.90625 31.648438 75.105469 31.648438 75.058594 Z M 31.972656 69.441406 C 31.972656 69.1875 31.792969 68.925781 31.433594 68.925781 C 31.046875 68.925781 30.664062 69.296875 30.664062 69.679688 C 30.664062 69.945312 30.855469 70.199219 31.203125 70.199219 C 31.585938 70.199219 31.972656 69.824219 31.972656 69.441406 Z M 27.675781 63.273438 "/>
<path fill-rule="nonzero" fill="rgb(0%, 0%, 0%)" fill-opacity="1" d="M 37.78125 75.058594 C 37.78125 74.9375 37.683594 74.9375 37.597656 74.9375 C 37.457031 74.9375 37.445312 74.949219 37.371094 75.214844 C 37.203125 75.886719 36.976562 76.640625 36.566406 76.640625 C 36.253906 76.640625 36.253906 76.316406 36.253906 76.148438 C 36.253906 76.066406 36.253906 75.886719 36.328125 75.597656 L 38.042969 68.746094 C 38.054688 68.710938 38.078125 68.589844 38.078125 68.589844 C 38.078125 68.480469 38.007812 68.445312 37.910156 68.445312 C 37.875 68.445312 37.753906 68.457031 37.71875 68.46875 L 36.53125 68.566406 C 36.386719 68.578125 36.253906 68.589844 36.253906 68.816406 C 36.253906 68.949219 36.375 68.949219 36.542969 68.949219 C 37.121094 68.949219 37.144531 69.035156 37.144531 69.152344 C 37.144531 69.1875 37.105469 69.359375 37.105469 69.359375 L 36.410156 72.164062 C 36.230469 71.792969 35.90625 71.46875 35.402344 71.46875 C 34.070312 71.46875 32.65625 73.292969 32.65625 75.046875 C 32.65625 76.066406 33.207031 76.90625 34.105469 76.90625 C 34.539062 76.90625 35.066406 76.652344 35.546875 76.066406 C 35.679688 76.652344 36.125 76.90625 36.542969 76.90625 C 36.988281 76.90625 37.238281 76.605469 37.417969 76.234375 C 37.636719 75.777344 37.78125 75.058594 37.78125 75.058594 Z M 35.621094 75.308594 C 35.523438 75.679688 34.792969 76.640625 34.132812 76.640625 C 33.566406 76.640625 33.472656 75.933594 33.472656 75.574219 C 33.472656 74.972656 33.84375 73.570312 34.058594 73.066406 C 34.359375 72.332031 34.910156 71.734375 35.402344 71.734375 C 35.5 71.734375 35.773438 71.746094 35.992188 72.082031 C 36.113281 72.273438 36.230469 72.621094 36.230469 72.847656 C 36.230469 72.886719 36.21875 72.933594 36.195312 73.003906 Z M 31.359375 63.273438 "/>
<path fill-rule="nonzero" fill="rgb(0%, 0%, 0%)" fill-opacity="1" d="M 43.914062 75.769531 L 44.128906 74.480469 C 44.136719 74.453125 44.136719 74.417969 44.136719 74.386719 C 44.136719 74.300781 44.070312 74.300781 43.957031 74.300781 L 40.261719 74.300781 C 40.117188 74.300781 40.097656 74.300781 40.054688 74.429688 L 39.628906 75.71875 C 39.59375 75.8125 39.59375 75.84375 39.59375 75.84375 C 39.59375 75.921875 39.679688 75.921875 39.699219 75.921875 C 39.730469 75.921875 39.757812 75.921875 39.777344 75.898438 C 39.792969 75.886719 39.800781 75.878906 39.871094 75.691406 C 40.210938 74.675781 40.414062 74.523438 41.339844 74.523438 L 41.585938 74.523438 C 41.753906 74.523438 41.753906 74.554688 41.753906 74.605469 C 41.753906 74.652344 41.738281 74.71875 41.722656 74.761719 L 40.757812 78.628906 C 40.695312 78.878906 40.628906 78.953125 39.996094 78.953125 L 39.878906 78.953125 C 39.757812 78.953125 39.679688 78.953125 39.679688 79.089844 C 39.679688 79.175781 39.765625 79.175781 39.800781 79.175781 C 40.167969 79.175781 40.550781 79.152344 40.917969 79.152344 C 41.292969 79.152344 41.679688 79.175781 42.046875 79.175781 C 42.113281 79.175781 42.199219 79.175781 42.199219 79.03125 C 42.199219 78.953125 42.125 78.953125 42.019531 78.953125 L 41.910156 78.953125 C 41.796875 78.953125 41.570312 78.9375 41.550781 78.9375 C 41.347656 78.917969 41.3125 78.886719 41.3125 78.785156 C 41.3125 78.765625 41.3125 78.75 41.339844 78.648438 L 42.304688 74.777344 C 42.355469 74.558594 42.414062 74.546875 42.472656 74.539062 C 42.53125 74.523438 42.722656 74.523438 42.847656 74.523438 C 43.59375 74.523438 43.761719 74.625 43.761719 75.070312 C 43.761719 75.15625 43.761719 75.292969 43.6875 75.71875 C 43.675781 75.800781 43.675781 75.828125 43.675781 75.828125 C 43.675781 75.921875 43.746094 75.921875 43.78125 75.921875 C 43.875 75.921875 43.890625 75.898438 43.914062 75.769531 Z M 38.332031 71.074219 "/>
<path fill="none" stroke-width="1.012" stroke-linecap="round" stroke-linejoin="miter" stroke="rgb(0%, 0%, 0%)" stroke-opacity="1" stroke-miterlimit="4" d="M 212.140625 -38.230469 C 212.140625 -63.925781 212.140625 -89.621094 212.140625 -115.320312 " transform="matrix(1, 0, 0, -1, 0, 0)"/>
<path fill="none" stroke-width="1.012" stroke-linecap="round" stroke-linejoin="miter" stroke="rgb(0%, 0%, 0%)" stroke-opacity="1" stroke-miterlimit="4" d="M 206.738281 -109.917969 C 212.140625 -109.917969 212.140625 -115.320312 212.140625 -115.320312 " transform="matrix(1, 0, 0, -1, 0, 0)"/>
<path fill="none" stroke-width="1.012" stroke-linecap="round" stroke-linejoin="miter" stroke="rgb(0%, 0%, 0%)" stroke-opacity="1" stroke-miterlimit="4" d="M 217.539062 -109.917969 C 212.140625 -109.917969 212.140625 -115.320312 212.140625 -115.320312 " transform="matrix(1, 0, 0, -1, 0, 0)"/>
<path fill-rule="nonzero" fill="rgb(100%, 100%, 100%)" fill-opacity="1" d="M 217.058594 79.367188 L 223.683594 79.367188 L 223.683594 70.535156 L 217.058594 70.535156 Z M 217.058594 79.367188 "/>
<path fill-rule="nonzero" fill="rgb(0%, 0%, 0%)" fill-opacity="1" d="M 223 75.058594 C 222.976562 74.9375 222.867188 74.9375 222.832031 74.9375 C 222.710938 74.9375 222.710938 74.984375 222.710938 75.152344 C 222.710938 75.933594 222.664062 76.640625 222.171875 76.640625 C 221.847656 76.640625 221.738281 76.328125 221.679688 76.089844 C 221.605469 75.824219 221.621094 75.261719 221.605469 74.839844 L 221.621094 73.546875 C 221.605469 73.367188 221.621094 72.910156 221.621094 72.730469 C 221.605469 72.453125 221.621094 71.996094 221.59375 71.925781 C 221.546875 71.710938 221.34375 71.601562 221.164062 71.601562 C 221.101562 71.601562 220.804688 71.613281 220.804688 72.019531 L 220.804688 74.265625 L 220.792969 75.488281 C 220.804688 75.550781 220.492188 76.640625 219.519531 76.640625 C 218.917969 76.640625 218.535156 76.246094 218.378906 75.597656 C 218.285156 75.25 218.285156 74.914062 218.285156 74.578125 L 218.285156 72.5625 C 218.285156 72.308594 218.296875 71.851562 218.269531 71.792969 C 218.222656 71.589844 218.054688 71.46875 217.851562 71.46875 C 217.816406 71.46875 217.480469 71.480469 217.480469 71.902344 L 217.480469 78.847656 C 217.480469 78.992188 217.492188 79.042969 217.492188 79.042969 C 217.539062 79.222656 217.707031 79.367188 217.910156 79.367188 C 218.164062 79.367188 218.246094 79.148438 218.269531 79.113281 C 218.285156 79.003906 218.285156 78.382812 218.285156 76.535156 C 218.75 76.859375 219.304688 76.90625 219.542969 76.90625 C 220.382812 76.90625 220.71875 76.367188 220.921875 76.03125 C 221.164062 76.570312 221.691406 76.90625 222.21875 76.90625 C 222.640625 76.90625 222.84375 76.628906 222.9375 76.246094 C 223.035156 75.8125 223 75.058594 223 75.058594 Z M 216.699219 67.101562 "/>
<path fill="none" stroke-width="1.012" stroke-linecap="round" stroke-linejoin="miter" stroke="rgb(0%, 0%, 0%)" stroke-opacity="1" stroke-miterlimit="4" d="M 79.019531 -131.136719 C 117.699219 -131.136719 156.375 -131.136719 195.050781 -131.136719 " transform="matrix(1, 0, 0, -1, 0, 0)"/>
<path fill="none" stroke-width="1.012" stroke-linecap="round" stroke-linejoin="miter" stroke="rgb(0%, 0%, 0%)" stroke-opacity="1" stroke-miterlimit="4" d="M 189.652344 -136.535156 C 189.652344 -131.136719 195.050781 -131.136719 195.050781 -131.136719 " transform="matrix(1, 0, 0, -1, 0, 0)"/>
<path fill="none" stroke-width="1.012" stroke-linecap="round" stroke-linejoin="miter" stroke="rgb(0%, 0%, 0%)" stroke-opacity="1" stroke-miterlimit="4" d="M 189.652344 -125.738281 C 189.652344 -131.136719 195.050781 -131.136719 195.050781 -131.136719 " transform="matrix(1, 0, 0, -1, 0, 0)"/>
<path fill-rule="nonzero" fill="rgb(100%, 100%, 100%)" fill-opacity="1" d="M 134.144531 129.230469 L 140.769531 129.230469 L 140.769531 120.398438 L 134.144531 120.398438 Z M 134.144531 129.230469 "/>
<path fill-rule="nonzero" fill="rgb(0%, 0%, 0%)" fill-opacity="1" d="M 140.085938 124.921875 C 140.0625 124.800781 139.953125 124.800781 139.917969 124.800781 C 139.796875 124.800781 139.796875 124.847656 139.796875 125.015625 C 139.796875 125.796875 139.75 126.503906 139.257812 126.503906 C 138.933594 126.503906 138.824219 126.191406 138.765625 125.953125 C 138.691406 125.6875 138.707031 125.125 138.691406 124.703125 L 138.707031 123.410156 C 138.691406 123.230469 138.707031 122.773438 138.707031 122.59375 C 138.691406 122.316406 138.707031 121.859375 138.679688 121.789062 C 138.632812 121.574219 138.429688 121.464844 138.25 121.464844 C 138.1875 121.464844 137.890625 121.476562 137.890625 121.882812 L 137.890625 124.128906 L 137.878906 125.351562 C 137.890625 125.414062 137.578125 126.503906 136.605469 126.503906 C 136.003906 126.503906 135.621094 126.109375 135.464844 125.460938 C 135.371094 125.113281 135.371094 124.777344 135.371094 124.441406 L 135.371094 122.425781 C 135.371094 122.171875 135.382812 121.714844 135.355469 121.65625 C 135.308594 121.453125 135.140625 121.332031 134.9375 121.332031 C 134.902344 121.332031 134.566406 121.34375 134.566406 121.765625 L 134.566406 128.710938 C 134.566406 128.855469 134.578125 128.90625 134.578125 128.90625 C 134.625 129.085938 134.792969 129.230469 134.996094 129.230469 C 135.25 129.230469 135.332031 129.011719 135.355469 128.976562 C 135.371094 128.867188 135.371094 128.246094 135.371094 126.398438 C 135.835938 126.722656 136.390625 126.769531 136.628906 126.769531 C 137.46875 126.769531 137.804688 126.230469 138.007812 125.894531 C 138.25 126.433594 138.777344 126.769531 139.304688 126.769531 C 139.726562 126.769531 139.929688 126.492188 140.023438 126.109375 C 140.121094 125.675781 140.085938 124.921875 140.085938 124.921875 Z M 133.785156 116.964844 "/>
<path fill-rule="nonzero" fill="rgb(0%, 0%, 0%)" fill-opacity="1" d="M 419.957031 20.714844 L 420.496094 17.496094 C 420.515625 17.421875 420.515625 17.332031 420.515625 17.261719 C 420.515625 17.042969 420.355469 17.042969 420.066406 17.042969 L 410.832031 17.042969 C 410.472656 17.042969 410.417969 17.042969 410.308594 17.367188 L 409.246094 20.589844 C 409.15625 20.824219 409.15625 20.894531 409.15625 20.894531 C 409.15625 21.09375 409.375 21.09375 409.429688 21.09375 C 409.5 21.09375 409.570312 21.09375 409.625 21.039062 C 409.660156 21.003906 409.679688 20.988281 409.859375 20.519531 C 410.707031 17.980469 411.210938 17.601562 413.53125 17.601562 L 414.144531 17.601562 C 414.558594 17.601562 414.558594 17.675781 414.558594 17.800781 C 414.558594 17.925781 414.523438 18.089844 414.484375 18.195312 L 412.074219 27.863281 C 411.910156 28.492188 411.75 28.671875 410.164062 28.671875 L 409.878906 28.671875 C 409.570312 28.671875 409.375 28.671875 409.375 29.015625 C 409.375 29.230469 409.589844 29.230469 409.679688 29.230469 C 410.597656 29.230469 411.550781 29.175781 412.46875 29.175781 C 413.40625 29.175781 414.378906 29.230469 415.296875 29.230469 C 415.457031 29.230469 415.671875 29.230469 415.671875 28.871094 C 415.671875 28.671875 415.492188 28.671875 415.222656 28.671875 L 414.953125 28.671875 C 414.664062 28.671875 414.109375 28.636719 414.054688 28.636719 C 413.550781 28.582031 413.460938 28.511719 413.460938 28.257812 C 413.460938 28.203125 413.460938 28.167969 413.53125 27.917969 L 415.945312 18.234375 C 416.070312 17.691406 416.214844 17.65625 416.359375 17.636719 C 416.5 17.601562 416.988281 17.601562 417.292969 17.601562 C 419.164062 17.601562 419.578125 17.855469 419.578125 18.96875 C 419.578125 19.1875 419.578125 19.527344 419.398438 20.589844 C 419.363281 20.789062 419.363281 20.859375 419.363281 20.859375 C 419.363281 21.09375 419.542969 21.09375 419.632812 21.09375 C 419.867188 21.09375 419.902344 21.039062 419.957031 20.714844 Z M 406.007812 8.980469 "/>
<path fill-rule="nonzero" fill="rgb(0%, 0%, 0%)" fill-opacity="1" d="M 428.902344 24.730469 C 428.902344 23.238281 427.699219 22.03125 426.203125 22.03125 C 424.710938 22.03125 423.503906 23.238281 423.503906 24.730469 C 423.503906 26.222656 424.710938 27.429688 426.203125 27.429688 C 427.699219 27.429688 428.902344 26.222656 428.902344 24.730469 Z M 428.183594 24.730469 C 428.183594 25.828125 427.300781 26.710938 426.203125 26.710938 C 425.105469 26.710938 424.222656 25.828125 424.222656 24.730469 C 424.222656 23.632812 425.105469 22.75 426.203125 22.75 C 427.300781 22.75 428.183594 23.632812 428.183594 24.730469 Z M 422.496094 14.722656 "/>
<path fill-rule="nonzero" fill="rgb(0%, 0%, 0%)" fill-opacity="1" d="M 447.460938 20.714844 L 448 17.496094 C 448.019531 17.421875 448.019531 17.332031 448.019531 17.261719 C 448.019531 17.042969 447.859375 17.042969 447.570312 17.042969 L 438.335938 17.042969 C 437.976562 17.042969 437.921875 17.042969 437.8125 17.367188 L 436.75 20.589844 C 436.660156 20.824219 436.660156 20.894531 436.660156 20.894531 C 436.660156 21.09375 436.878906 21.09375 436.933594 21.09375 C 437.003906 21.09375 437.074219 21.09375 437.128906 21.039062 C 437.164062 21.003906 437.183594 20.988281 437.363281 20.519531 C 438.210938 17.980469 438.714844 17.601562 441.035156 17.601562 L 441.648438 17.601562 C 442.0625 17.601562 442.0625 17.675781 442.0625 17.800781 C 442.0625 17.925781 442.027344 18.089844 441.988281 18.195312 L 439.578125 27.863281 C 439.414062 28.492188 439.253906 28.671875 437.667969 28.671875 L 437.382812 28.671875 C 437.074219 28.671875 436.878906 28.671875 436.878906 29.015625 C 436.878906 29.230469 437.09375 29.230469 437.183594 29.230469 C 438.101562 29.230469 439.054688 29.175781 439.972656 29.175781 C 440.910156 29.175781 441.882812 29.230469 442.800781 29.230469 C 442.960938 29.230469 443.175781 29.230469 443.175781 28.871094 C 443.175781 28.671875 442.996094 28.671875 442.726562 28.671875 L 442.457031 28.671875 C 442.167969 28.671875 441.613281 28.636719 441.558594 28.636719 C 441.054688 28.582031 440.964844 28.511719 440.964844 28.257812 C 440.964844 28.203125 440.964844 28.167969 441.035156 27.917969 L 443.449219 18.234375 C 443.574219 17.691406 443.71875 17.65625 443.863281 17.636719 C 444.003906 17.601562 444.492188 17.601562 444.796875 17.601562 C 446.667969 17.601562 447.082031 17.855469 447.082031 18.96875 C 447.082031 19.1875 447.082031 19.527344 446.902344 20.589844 C 446.867188 20.789062 446.867188 20.859375 446.867188 20.859375 C 446.867188 21.09375 447.046875 21.09375 447.136719 21.09375 C 447.371094 21.09375 447.40625 21.039062 447.460938 20.714844 Z M 433.511719 8.980469 "/>
<path fill-rule="nonzero" fill="rgb(0%, 0%, 0%)" fill-opacity="1" d="M 325.710938 20.714844 L 326.25 17.496094 C 326.269531 17.421875 326.269531 17.332031 326.269531 17.261719 C 326.269531 17.042969 326.109375 17.042969 325.820312 17.042969 L 316.585938 17.042969 C 316.226562 17.042969 316.171875 17.042969 316.0625 17.367188 L 315 20.589844 C 314.910156 20.824219 314.910156 20.894531 314.910156 20.894531 C 314.910156 21.09375 315.128906 21.09375 315.183594 21.09375 C 315.253906 21.09375 315.324219 21.09375 315.378906 21.039062 C 315.414062 21.003906 315.433594 20.988281 315.613281 20.519531 C 316.460938 17.980469 316.964844 17.601562 319.285156 17.601562 L 319.898438 17.601562 C 320.3125 17.601562 320.3125 17.675781 320.3125 17.800781 C 320.3125 17.925781 320.277344 18.089844 320.238281 18.195312 L 317.828125 27.863281 C 317.664062 28.492188 317.503906 28.671875 315.917969 28.671875 L 315.632812 28.671875 C 315.324219 28.671875 315.128906 28.671875 315.128906 29.015625 C 315.128906 29.230469 315.34375 29.230469 315.433594 29.230469 C 316.351562 29.230469 317.304688 29.175781 318.222656 29.175781 C 319.160156 29.175781 320.132812 29.230469 321.050781 29.230469 C 321.210938 29.230469 321.425781 29.230469 321.425781 28.871094 C 321.425781 28.671875 321.246094 28.671875 320.976562 28.671875 L 320.707031 28.671875 C 320.417969 28.671875 319.863281 28.636719 319.808594 28.636719 C 319.304688 28.582031 319.214844 28.511719 319.214844 28.257812 C 319.214844 28.203125 319.214844 28.167969 319.285156 27.917969 L 321.699219 18.234375 C 321.824219 17.691406 321.96875 17.65625 322.113281 17.636719 C 322.253906 17.601562 322.742188 17.601562 323.046875 17.601562 C 324.917969 17.601562 325.332031 17.855469 325.332031 18.96875 C 325.332031 19.1875 325.332031 19.527344 325.152344 20.589844 C 325.117188 20.789062 325.117188 20.859375 325.117188 20.859375 C 325.117188 21.09375 325.296875 21.09375 325.386719 21.09375 C 325.621094 21.09375 325.65625 21.039062 325.710938 20.714844 Z M 311.761719 8.980469 "/>
<path fill-rule="nonzero" fill="rgb(0%, 0%, 0%)" fill-opacity="1" d="M 541.710938 20.714844 L 542.25 17.496094 C 542.269531 17.421875 542.269531 17.332031 542.269531 17.261719 C 542.269531 17.042969 542.109375 17.042969 541.820312 17.042969 L 532.585938 17.042969 C 532.226562 17.042969 532.171875 17.042969 532.0625 17.367188 L 531 20.589844 C 530.910156 20.824219 530.910156 20.894531 530.910156 20.894531 C 530.910156 21.09375 531.128906 21.09375 531.183594 21.09375 C 531.253906 21.09375 531.324219 21.09375 531.378906 21.039062 C 531.414062 21.003906 531.433594 20.988281 531.613281 20.519531 C 532.460938 17.980469 532.964844 17.601562 535.285156 17.601562 L 535.898438 17.601562 C 536.3125 17.601562 536.3125 17.675781 536.3125 17.800781 C 536.3125 17.925781 536.277344 18.089844 536.238281 18.195312 L 533.828125 27.863281 C 533.664062 28.492188 533.503906 28.671875 531.917969 28.671875 L 531.632812 28.671875 C 531.324219 28.671875 531.128906 28.671875 531.128906 29.015625 C 531.128906 29.230469 531.34375 29.230469 531.433594 29.230469 C 532.351562 29.230469 533.304688 29.175781 534.222656 29.175781 C 535.160156 29.175781 536.132812 29.230469 537.050781 29.230469 C 537.210938 29.230469 537.425781 29.230469 537.425781 28.871094 C 537.425781 28.671875 537.246094 28.671875 536.976562 28.671875 L 536.707031 28.671875 C 536.417969 28.671875 535.863281 28.636719 535.808594 28.636719 C 535.304688 28.582031 535.214844 28.511719 535.214844 28.257812 C 535.214844 28.203125 535.214844 28.167969 535.285156 27.917969 L 537.699219 18.234375 C 537.824219 17.691406 537.96875 17.65625 538.113281 17.636719 C 538.253906 17.601562 538.742188 17.601562 539.046875 17.601562 C 540.917969 17.601562 541.332031 17.855469 541.332031 18.96875 C 541.332031 19.1875 541.332031 19.527344 541.152344 20.589844 C 541.117188 20.789062 541.117188 20.859375 541.117188 20.859375 C 541.117188 21.09375 541.296875 21.09375 541.386719 21.09375 C 541.621094 21.09375 541.65625 21.039062 541.710938 20.714844 Z M 527.761719 8.980469 "/>
<path fill-rule="nonzero" fill="rgb(0%, 0%, 0%)" fill-opacity="1" d="M 433.710938 128.714844 L 434.25 125.496094 C 434.269531 125.421875 434.269531 125.332031 434.269531 125.261719 C 434.269531 125.042969 434.109375 125.042969 433.820312 125.042969 L 424.585938 125.042969 C 424.226562 125.042969 424.171875 125.042969 424.0625 125.367188 L 423 128.589844 C 422.910156 128.824219 422.910156 128.894531 422.910156 128.894531 C 422.910156 129.09375 423.128906 129.09375 423.183594 129.09375 C 423.253906 129.09375 423.324219 129.09375 423.378906 129.039062 C 423.414062 129.003906 423.433594 128.988281 423.613281 128.519531 C 424.460938 125.980469 424.964844 125.601562 427.285156 125.601562 L 427.898438 125.601562 C 428.3125 125.601562 428.3125 125.675781 428.3125 125.800781 C 428.3125 125.925781 428.277344 126.089844 428.238281 126.195312 L 425.828125 135.863281 C 425.664062 136.492188 425.503906 136.671875 423.917969 136.671875 L 423.632812 136.671875 C 423.324219 136.671875 423.128906 136.671875 423.128906 137.015625 C 423.128906 137.230469 423.34375 137.230469 423.433594 137.230469 C 424.351562 137.230469 425.304688 137.175781 426.222656 137.175781 C 427.160156 137.175781 428.132812 137.230469 429.050781 137.230469 C 429.210938 137.230469 429.425781 137.230469 429.425781 136.871094 C 429.425781 136.671875 429.246094 136.671875 428.976562 136.671875 L 428.707031 136.671875 C 428.417969 136.671875 427.863281 136.636719 427.808594 136.636719 C 427.304688 136.582031 427.214844 136.511719 427.214844 136.257812 C 427.214844 136.203125 427.214844 136.167969 427.285156 135.917969 L 429.699219 126.234375 C 429.824219 125.691406 429.96875 125.65625 430.113281 125.636719 C 430.253906 125.601562 430.742188 125.601562 431.046875 125.601562 C 432.917969 125.601562 433.332031 125.855469 433.332031 126.96875 C 433.332031 127.1875 433.332031 127.527344 433.152344 128.589844 C 433.117188 128.789062 433.117188 128.859375 433.117188 128.859375 C 433.117188 129.09375 433.296875 129.09375 433.386719 129.09375 C 433.621094 129.09375 433.65625 129.039062 433.710938 128.714844 Z M 419.761719 116.980469 "/>
<path fill="none" stroke-width="1.012" stroke-linecap="round" stroke-linejoin="miter" stroke="rgb(0%, 0%, 0%)" stroke-opacity="1" stroke-miterlimit="4" d="M 335.269531 -23.136719 C 355.945312 -23.136719 376.621094 -23.136719 397.300781 -23.136719 " transform="matrix(1, 0, 0, -1, 0, 0)"/>
<path fill="none" stroke-width="1.012" stroke-linecap="round" stroke-linejoin="miter" stroke="rgb(0%, 0%, 0%)" stroke-opacity="1" stroke-miterlimit="4" d="M 391.898438 -28.535156 C 391.898438 -23.136719 397.300781 -23.136719 397.300781 -23.136719 " transform="matrix(1, 0, 0, -1, 0, 0)"/>
<path fill="none" stroke-width="1.012" stroke-linecap="round" stroke-linejoin="miter" stroke="rgb(0%, 0%, 0%)" stroke-opacity="1" stroke-miterlimit="4" d="M 391.898438 -17.738281 C 391.898438 -23.136719 397.300781 -23.136719 397.300781 -23.136719 " transform="matrix(1, 0, 0, -1, 0, 0)"/>
<path fill-rule="nonzero" fill="rgb(100%, 100%, 100%)" fill-opacity="1" d="M 348.257812 21.230469 L 385.003906 21.230469 L 385.003906 10 L 348.257812 10 Z M 348.257812 21.230469 "/>
<path fill-rule="nonzero" fill="rgb(0%, 0%, 0%)" fill-opacity="1" d="M 353.488281 15.3125 C 353.488281 15.097656 353.488281 14.941406 353.40625 14.617188 C 353.214844 13.835938 352.613281 13.332031 351.714844 13.332031 C 350.765625 13.332031 350.296875 13.957031 350.105469 14.375 C 349.878906 13.691406 349.289062 13.332031 348.75 13.332031 C 348.199219 13.332031 348.078125 13.800781 348.03125 14.015625 C 347.910156 14.425781 347.933594 15.144531 347.945312 15.179688 C 347.980469 15.300781 348.125 15.300781 348.125 15.300781 C 348.246094 15.300781 348.246094 15.289062 348.257812 15.023438 C 348.246094 14.171875 348.34375 13.597656 348.773438 13.597656 C 348.976562 13.597656 349.171875 13.691406 349.289062 14.148438 C 349.351562 14.402344 349.351562 14.53125 349.351562 15.15625 L 349.339844 17.929688 C 349.351562 18.109375 349.351562 18.382812 349.363281 18.445312 C 349.421875 18.660156 349.613281 18.769531 349.792969 18.769531 C 349.9375 18.769531 350.128906 18.671875 350.152344 18.433594 C 350.152344 18.433594 350.167969 17.84375 350.152344 17.542969 L 350.152344 16.464844 C 350.152344 16.199219 350.167969 15.9375 350.152344 15.660156 C 350.167969 15.589844 350.152344 15.191406 350.152344 15.121094 C 350.167969 15.011719 350.371094 14.339844 350.695312 14.015625 C 350.910156 13.824219 351.222656 13.597656 351.738281 13.597656 C 352.253906 13.597656 352.496094 14.003906 352.601562 14.4375 C 352.613281 14.496094 352.664062 14.710938 352.664062 15.191406 L 352.675781 20.710938 C 352.675781 20.855469 352.6875 20.90625 352.6875 20.90625 C 352.734375 21.085938 352.902344 21.230469 353.105469 21.230469 C 353.476562 21.230469 353.476562 20.878906 353.476562 20.75 Z M 347.910156 8.964844 "/>
<path fill-rule="nonzero" fill="rgb(0%, 0%, 0%)" fill-opacity="1" d="M 361.472656 16.910156 C 361.582031 16.714844 361.507812 16.488281 361.304688 16.40625 L 359.566406 15.636719 L 361.304688 14.867188 C 361.507812 14.785156 361.582031 14.558594 361.472656 14.363281 C 361.367188 14.183594 361.125 14.136719 360.957031 14.257812 L 359.421875 15.382812 L 359.625 13.488281 C 359.648438 13.285156 359.492188 13.09375 359.277344 13.09375 C 359.0625 13.09375 358.90625 13.285156 358.929688 13.488281 L 359.132812 15.382812 L 357.597656 14.257812 C 357.429688 14.136719 357.1875 14.183594 357.082031 14.363281 C 356.972656 14.558594 357.046875 14.785156 357.25 14.867188 L 358.988281 15.636719 L 357.25 16.40625 C 357.046875 16.488281 356.972656 16.714844 357.082031 16.910156 C 357.1875 17.089844 357.429688 17.136719 357.597656 17.015625 L 359.132812 15.890625 L 358.929688 17.785156 C 358.90625 17.988281 359.0625 18.167969 359.277344 18.167969 C 359.492188 18.167969 359.648438 17.988281 359.625 17.785156 L 359.421875 15.890625 L 360.957031 17.015625 C 361.125 17.136719 361.367188 17.089844 361.472656 16.910156 Z M 356.277344 8.964844 "/>
<path fill-rule="nonzero" fill="rgb(0%, 0%, 0%)" fill-opacity="1" d="M 368.648438 16.921875 C 368.648438 16.800781 368.550781 16.800781 368.46875 16.800781 C 368.3125 16.800781 368.3125 16.824219 368.265625 17.003906 C 368.167969 17.351562 367.84375 18.503906 367.148438 18.503906 C 367.050781 18.503906 366.882812 18.492188 366.882812 18.167969 C 366.882812 17.855469 367.039062 17.460938 367.195312 17.015625 L 367.964844 14.964844 C 368.082031 14.617188 368.109375 14.519531 368.109375 14.292969 C 368.109375 13.632812 367.652344 13.332031 367.207031 13.332031 C 366.078125 13.332031 365.671875 15.121094 365.671875 15.179688 C 365.671875 15.300781 365.792969 15.300781 365.851562 15.300781 C 366.007812 15.300781 366.019531 15.277344 366.066406 15.109375 C 366.175781 14.710938 366.488281 13.597656 367.183594 13.597656 C 367.316406 13.597656 367.449219 13.65625 367.449219 13.933594 C 367.449219 14.222656 367.316406 14.570312 367.230469 14.796875 L 366.871094 15.792969 L 366.429688 16.980469 C 366.261719 17.4375 366.210938 17.570312 366.210938 17.808594 C 366.210938 18.277344 366.5 18.769531 367.125 18.769531 C 368.25 18.769531 368.648438 16.96875 368.648438 16.921875 Z M 368.972656 11.304688 C 368.972656 11.050781 368.792969 10.789062 368.433594 10.789062 C 368.046875 10.789062 367.664062 11.160156 367.664062 11.542969 C 367.664062 11.808594 367.855469 12.0625 368.203125 12.0625 C 368.585938 12.0625 368.972656 11.6875 368.972656 11.304688 Z M 364.675781 5.136719 "/>
<path fill-rule="nonzero" fill="rgb(0%, 0%, 0%)" fill-opacity="1" d="M 374.78125 16.921875 C 374.78125 16.800781 374.683594 16.800781 374.597656 16.800781 C 374.457031 16.800781 374.445312 16.8125 374.371094 17.078125 C 374.203125 17.75 373.976562 18.503906 373.566406 18.503906 C 373.253906 18.503906 373.253906 18.179688 373.253906 18.011719 C 373.253906 17.929688 373.253906 17.75 373.328125 17.460938 L 375.042969 10.609375 C 375.054688 10.574219 375.078125 10.453125 375.078125 10.453125 C 375.078125 10.34375 375.007812 10.308594 374.910156 10.308594 C 374.875 10.308594 374.753906 10.320312 374.71875 10.332031 L 373.53125 10.429688 C 373.386719 10.441406 373.253906 10.453125 373.253906 10.679688 C 373.253906 10.8125 373.375 10.8125 373.542969 10.8125 C 374.121094 10.8125 374.144531 10.898438 374.144531 11.015625 C 374.144531 11.050781 374.105469 11.222656 374.105469 11.222656 L 373.410156 14.027344 C 373.230469 13.65625 372.90625 13.332031 372.402344 13.332031 C 371.070312 13.332031 369.65625 15.15625 369.65625 16.910156 C 369.65625 17.929688 370.207031 18.769531 371.105469 18.769531 C 371.539062 18.769531 372.066406 18.515625 372.546875 17.929688 C 372.679688 18.515625 373.125 18.769531 373.542969 18.769531 C 373.988281 18.769531 374.238281 18.46875 374.417969 18.097656 C 374.636719 17.640625 374.78125 16.921875 374.78125 16.921875 Z M 372.621094 17.171875 C 372.523438 17.542969 371.792969 18.503906 371.132812 18.503906 C 370.566406 18.503906 370.472656 17.796875 370.472656 17.4375 C 370.472656 16.835938 370.84375 15.433594 371.058594 14.929688 C 371.359375 14.195312 371.910156 13.597656 372.402344 13.597656 C 372.5 13.597656 372.773438 13.609375 372.992188 13.945312 C 373.113281 14.136719 373.230469 14.484375 373.230469 14.710938 C 373.230469 14.75 373.21875 14.796875 373.195312 14.867188 Z M 368.359375 5.136719 "/>
<path fill-rule="nonzero" fill="rgb(0%, 0%, 0%)" fill-opacity="1" d="M 380.914062 17.632812 L 381.128906 16.34375 C 381.136719 16.316406 381.136719 16.28125 381.136719 16.25 C 381.136719 16.164062 381.070312 16.164062 380.957031 16.164062 L 377.261719 16.164062 C 377.117188 16.164062 377.097656 16.164062 377.054688 16.292969 L 376.628906 17.582031 C 376.59375 17.675781 376.59375 17.707031 376.59375 17.707031 C 376.59375 17.785156 376.679688 17.785156 376.699219 17.785156 C 376.730469 17.785156 376.757812 17.785156 376.777344 17.761719 C 376.792969 17.75 376.800781 17.742188 376.871094 17.554688 C 377.210938 16.539062 377.414062 16.386719 378.339844 16.386719 L 378.585938 16.386719 C 378.753906 16.386719 378.753906 16.417969 378.753906 16.46875 C 378.753906 16.515625 378.738281 16.582031 378.722656 16.625 L 377.757812 20.492188 C 377.695312 20.742188 377.628906 20.816406 376.996094 20.816406 L 376.878906 20.816406 C 376.757812 20.816406 376.679688 20.816406 376.679688 20.953125 C 376.679688 21.039062 376.765625 21.039062 376.800781 21.039062 C 377.167969 21.039062 377.550781 21.015625 377.917969 21.015625 C 378.292969 21.015625 378.679688 21.039062 379.046875 21.039062 C 379.113281 21.039062 379.199219 21.039062 379.199219 20.894531 C 379.199219 20.816406 379.125 20.816406 379.019531 20.816406 L 378.910156 20.816406 C 378.796875 20.816406 378.570312 20.800781 378.550781 20.800781 C 378.347656 20.78125 378.3125 20.75 378.3125 20.648438 C 378.3125 20.628906 378.3125 20.613281 378.339844 20.511719 L 379.304688 16.640625 C 379.355469 16.421875 379.414062 16.410156 379.472656 16.402344 C 379.53125 16.386719 379.722656 16.386719 379.847656 16.386719 C 380.59375 16.386719 380.761719 16.488281 380.761719 16.933594 C 380.761719 17.019531 380.761719 17.15625 380.6875 17.582031 C 380.675781 17.664062 380.675781 17.691406 380.675781 17.691406 C 380.675781 17.785156 380.746094 17.785156 380.78125 17.785156 C 380.875 17.785156 380.890625 17.761719 380.914062 17.632812 Z M 375.332031 12.9375 "/>
<path fill="none" stroke-width="1.012" stroke-linecap="round" stroke-linejoin="miter" stroke="rgb(0%, 0%, 0%)" stroke-opacity="1" stroke-miterlimit="4" d="M 519.050781 -23.136719 C 498.375 -23.136719 477.699219 -23.136719 457.019531 -23.136719 " transform="matrix(1, 0, 0, -1, 0, 0)"/>
<path fill="none" stroke-width="1.012" stroke-linecap="round" stroke-linejoin="miter" stroke="rgb(0%, 0%, 0%)" stroke-opacity="1" stroke-miterlimit="4" d="M 462.421875 -17.738281 C 462.421875 -23.136719 457.019531 -23.136719 457.019531 -23.136719 " transform="matrix(1, 0, 0, -1, 0, 0)"/>
<path fill="none" stroke-width="1.012" stroke-linecap="round" stroke-linejoin="miter" stroke="rgb(0%, 0%, 0%)" stroke-opacity="1" stroke-miterlimit="4" d="M 462.421875 -28.535156 C 462.421875 -23.136719 457.019531 -23.136719 457.019531 -23.136719 " transform="matrix(1, 0, 0, -1, 0, 0)"/>
<path fill-rule="nonzero" fill="rgb(100%, 100%, 100%)" fill-opacity="1" d="M 473.027344 21.230469 L 505.117188 21.230469 L 505.117188 10 L 473.027344 10 Z M 473.027344 21.230469 "/>
<path fill-rule="nonzero" fill="rgb(0%, 0%, 0%)" fill-opacity="1" d="M 476.226562 16.921875 C 476.226562 16.800781 476.128906 16.800781 476.046875 16.800781 C 475.890625 16.800781 475.890625 16.824219 475.84375 17.003906 C 475.746094 17.351562 475.421875 18.503906 474.726562 18.503906 C 474.628906 18.503906 474.460938 18.492188 474.460938 18.167969 C 474.460938 17.855469 474.617188 17.460938 474.773438 17.015625 L 475.542969 14.964844 C 475.660156 14.617188 475.6875 14.519531 475.6875 14.292969 C 475.6875 13.632812 475.230469 13.332031 474.785156 13.332031 C 473.65625 13.332031 473.25 15.121094 473.25 15.179688 C 473.25 15.300781 473.371094 15.300781 473.429688 15.300781 C 473.585938 15.300781 473.597656 15.277344 473.644531 15.109375 C 473.753906 14.710938 474.066406 13.597656 474.761719 13.597656 C 474.894531 13.597656 475.027344 13.65625 475.027344 13.933594 C 475.027344 14.222656 474.894531 14.570312 474.808594 14.796875 L 474.449219 15.792969 L 474.007812 16.980469 C 473.839844 17.4375 473.789062 17.570312 473.789062 17.808594 C 473.789062 18.277344 474.078125 18.769531 474.703125 18.769531 C 475.828125 18.769531 476.226562 16.96875 476.226562 16.921875 Z M 476.550781 11.304688 C 476.550781 11.050781 476.371094 10.789062 476.011719 10.789062 C 475.625 10.789062 475.242188 11.160156 475.242188 11.542969 C 475.242188 11.808594 475.433594 12.0625 475.78125 12.0625 C 476.164062 12.0625 476.550781 11.6875 476.550781 11.304688 Z M 472.253906 5.136719 "/>
<path fill-rule="nonzero" fill="rgb(0%, 0%, 0%)" fill-opacity="1" d="M 482.359375 16.921875 C 482.359375 16.800781 482.261719 16.800781 482.175781 16.800781 C 482.035156 16.800781 482.023438 16.8125 481.949219 17.078125 C 481.78125 17.75 481.554688 18.503906 481.144531 18.503906 C 480.832031 18.503906 480.832031 18.179688 480.832031 18.011719 C 480.832031 17.929688 480.832031 17.75 480.90625 17.460938 L 482.621094 10.609375 C 482.632812 10.574219 482.65625 10.453125 482.65625 10.453125 C 482.65625 10.34375 482.585938 10.308594 482.488281 10.308594 C 482.453125 10.308594 482.332031 10.320312 482.296875 10.332031 L 481.109375 10.429688 C 480.964844 10.441406 480.832031 10.453125 480.832031 10.679688 C 480.832031 10.8125 480.953125 10.8125 481.121094 10.8125 C 481.699219 10.8125 481.722656 10.898438 481.722656 11.015625 C 481.722656 11.050781 481.683594 11.222656 481.683594 11.222656 L 480.988281 14.027344 C 480.808594 13.65625 480.484375 13.332031 479.980469 13.332031 C 478.648438 13.332031 477.234375 15.15625 477.234375 16.910156 C 477.234375 17.929688 477.785156 18.769531 478.683594 18.769531 C 479.117188 18.769531 479.644531 18.515625 480.125 17.929688 C 480.257812 18.515625 480.703125 18.769531 481.121094 18.769531 C 481.566406 18.769531 481.816406 18.46875 481.996094 18.097656 C 482.214844 17.640625 482.359375 16.921875 482.359375 16.921875 Z M 480.199219 17.171875 C 480.101562 17.542969 479.371094 18.503906 478.710938 18.503906 C 478.144531 18.503906 478.050781 17.796875 478.050781 17.4375 C 478.050781 16.835938 478.421875 15.433594 478.636719 14.929688 C 478.9375 14.195312 479.488281 13.597656 479.980469 13.597656 C 480.078125 13.597656 480.351562 13.609375 480.570312 13.945312 C 480.691406 14.136719 480.808594 14.484375 480.808594 14.710938 C 480.808594 14.75 480.796875 14.796875 480.773438 14.867188 Z M 475.9375 5.136719 "/>
<path fill-rule="nonzero" fill="rgb(0%, 0%, 0%)" fill-opacity="1" d="M 488.492188 17.632812 L 488.707031 16.34375 C 488.714844 16.316406 488.714844 16.28125 488.714844 16.25 C 488.714844 16.164062 488.648438 16.164062 488.535156 16.164062 L 484.839844 16.164062 C 484.695312 16.164062 484.675781 16.164062 484.632812 16.292969 L 484.207031 17.582031 C 484.171875 17.675781 484.171875 17.707031 484.171875 17.707031 C 484.171875 17.785156 484.257812 17.785156 484.277344 17.785156 C 484.308594 17.785156 484.335938 17.785156 484.355469 17.761719 C 484.371094 17.75 484.378906 17.742188 484.449219 17.554688 C 484.789062 16.539062 484.992188 16.386719 485.917969 16.386719 L 486.164062 16.386719 C 486.332031 16.386719 486.332031 16.417969 486.332031 16.46875 C 486.332031 16.515625 486.316406 16.582031 486.300781 16.625 L 485.335938 20.492188 C 485.273438 20.742188 485.207031 20.816406 484.574219 20.816406 L 484.457031 20.816406 C 484.335938 20.816406 484.257812 20.816406 484.257812 20.953125 C 484.257812 21.039062 484.34375 21.039062 484.378906 21.039062 C 484.746094 21.039062 485.128906 21.015625 485.496094 21.015625 C 485.871094 21.015625 486.257812 21.039062 486.625 21.039062 C 486.691406 21.039062 486.777344 21.039062 486.777344 20.894531 C 486.777344 20.816406 486.703125 20.816406 486.597656 20.816406 L 486.488281 20.816406 C 486.375 20.816406 486.148438 20.800781 486.128906 20.800781 C 485.925781 20.78125 485.890625 20.75 485.890625 20.648438 C 485.890625 20.628906 485.890625 20.613281 485.917969 20.511719 L 486.882812 16.640625 C 486.933594 16.421875 486.992188 16.410156 487.050781 16.402344 C 487.109375 16.386719 487.300781 16.386719 487.425781 16.386719 C 488.171875 16.386719 488.339844 16.488281 488.339844 16.933594 C 488.339844 17.019531 488.339844 17.15625 488.265625 17.582031 C 488.253906 17.664062 488.253906 17.691406 488.253906 17.691406 C 488.253906 17.785156 488.324219 17.785156 488.359375 17.785156 C 488.453125 17.785156 488.46875 17.761719 488.492188 17.632812 Z M 482.910156 12.9375 "/>
<path fill-rule="nonzero" fill="rgb(0%, 0%, 0%)" fill-opacity="1" d="M 495.660156 16.910156 C 495.769531 16.714844 495.695312 16.488281 495.492188 16.40625 L 493.753906 15.636719 L 495.492188 14.867188 C 495.695312 14.785156 495.769531 14.558594 495.660156 14.363281 C 495.554688 14.183594 495.3125 14.136719 495.144531 14.257812 L 493.609375 15.382812 L 493.8125 13.488281 C 493.835938 13.285156 493.679688 13.09375 493.464844 13.09375 C 493.25 13.09375 493.09375 13.285156 493.117188 13.488281 L 493.320312 15.382812 L 491.785156 14.257812 C 491.617188 14.136719 491.375 14.183594 491.269531 14.363281 C 491.160156 14.558594 491.234375 14.785156 491.4375 14.867188 L 493.175781 15.636719 L 491.4375 16.40625 C 491.234375 16.488281 491.160156 16.714844 491.269531 16.910156 C 491.375 17.089844 491.617188 17.136719 491.785156 17.015625 L 493.320312 15.890625 L 493.117188 17.785156 C 493.09375 17.988281 493.25 18.167969 493.464844 18.167969 C 493.679688 18.167969 493.835938 17.988281 493.8125 17.785156 L 493.609375 15.890625 L 495.144531 17.015625 C 495.3125 17.136719 495.554688 17.089844 495.660156 16.910156 Z M 490.464844 8.964844 "/>
<path fill-rule="nonzero" fill="rgb(0%, 0%, 0%)" fill-opacity="1" d="M 504.441406 15.3125 C 504.441406 15.097656 504.441406 14.941406 504.359375 14.617188 C 504.167969 13.835938 503.566406 13.332031 502.667969 13.332031 C 501.71875 13.332031 501.25 13.957031 501.058594 14.375 C 500.832031 13.691406 500.242188 13.332031 499.703125 13.332031 C 499.152344 13.332031 499.03125 13.800781 498.984375 14.015625 C 498.863281 14.425781 498.886719 15.144531 498.898438 15.179688 C 498.933594 15.300781 499.078125 15.300781 499.078125 15.300781 C 499.199219 15.300781 499.199219 15.289062 499.210938 15.023438 C 499.199219 14.171875 499.296875 13.597656 499.726562 13.597656 C 499.929688 13.597656 500.125 13.691406 500.242188 14.148438 C 500.304688 14.402344 500.304688 14.53125 500.304688 15.15625 L 500.292969 17.929688 C 500.304688 18.109375 500.304688 18.382812 500.316406 18.445312 C 500.375 18.660156 500.566406 18.769531 500.746094 18.769531 C 500.890625 18.769531 501.082031 18.671875 501.105469 18.433594 C 501.105469 18.433594 501.121094 17.84375 501.105469 17.542969 L 501.105469 16.464844 C 501.105469 16.199219 501.121094 15.9375 501.105469 15.660156 C 501.121094 15.589844 501.105469 15.191406 501.105469 15.121094 C 501.121094 15.011719 501.324219 14.339844 501.648438 14.015625 C 501.863281 13.824219 502.175781 13.597656 502.691406 13.597656 C 503.207031 13.597656 503.449219 14.003906 503.554688 14.4375 C 503.566406 14.496094 503.617188 14.710938 503.617188 15.191406 L 503.628906 20.710938 C 503.628906 20.855469 503.640625 20.90625 503.640625 20.90625 C 503.6875 21.085938 503.855469 21.230469 504.058594 21.230469 C 504.429688 21.230469 504.429688 20.878906 504.429688 20.75 Z M 498.863281 8.964844 "/>
<path fill="none" stroke-width="1.012" stroke-linecap="round" stroke-linejoin="miter" stroke="rgb(0%, 0%, 0%)" stroke-opacity="1" stroke-miterlimit="4" d="M 428.140625 -38.230469 C 428.140625 -63.925781 428.140625 -89.621094 428.140625 -115.320312 " transform="matrix(1, 0, 0, -1, 0, 0)"/>
<path fill="none" stroke-width="1.012" stroke-linecap="round" stroke-linejoin="miter" stroke="rgb(0%, 0%, 0%)" stroke-opacity="1" stroke-miterlimit="4" d="M 422.738281 -109.917969 C 428.140625 -109.917969 428.140625 -115.320312 428.140625 -115.320312 " transform="matrix(1, 0, 0, -1, 0, 0)"/>
<path fill="none" stroke-width="1.012" stroke-linecap="round" stroke-linejoin="miter" stroke="rgb(0%, 0%, 0%)" stroke-opacity="1" stroke-miterlimit="4" d="M 433.539062 -109.917969 C 428.140625 -109.917969 428.140625 -115.320312 428.140625 -115.320312 " transform="matrix(1, 0, 0, -1, 0, 0)"/>
<path fill-rule="nonzero" fill="rgb(100%, 100%, 100%)" fill-opacity="1" d="M 433.058594 79.367188 L 439.683594 79.367188 L 439.683594 70.535156 L 433.058594 70.535156 Z M 433.058594 79.367188 "/>
<path fill-rule="nonzero" fill="rgb(0%, 0%, 0%)" fill-opacity="1" d="M 439 75.058594 C 438.976562 74.9375 438.867188 74.9375 438.832031 74.9375 C 438.710938 74.9375 438.710938 74.984375 438.710938 75.152344 C 438.710938 75.933594 438.664062 76.640625 438.171875 76.640625 C 437.847656 76.640625 437.738281 76.328125 437.679688 76.089844 C 437.605469 75.824219 437.621094 75.261719 437.605469 74.839844 L 437.621094 73.546875 C 437.605469 73.367188 437.621094 72.910156 437.621094 72.730469 C 437.605469 72.453125 437.621094 71.996094 437.59375 71.925781 C 437.546875 71.710938 437.34375 71.601562 437.164062 71.601562 C 437.101562 71.601562 436.804688 71.613281 436.804688 72.019531 L 436.804688 74.265625 L 436.792969 75.488281 C 436.804688 75.550781 436.492188 76.640625 435.519531 76.640625 C 434.917969 76.640625 434.535156 76.246094 434.378906 75.597656 C 434.285156 75.25 434.285156 74.914062 434.285156 74.578125 L 434.285156 72.5625 C 434.285156 72.308594 434.296875 71.851562 434.269531 71.792969 C 434.222656 71.589844 434.054688 71.46875 433.851562 71.46875 C 433.816406 71.46875 433.480469 71.480469 433.480469 71.902344 L 433.480469 78.847656 C 433.480469 78.992188 433.492188 79.042969 433.492188 79.042969 C 433.539062 79.222656 433.707031 79.367188 433.910156 79.367188 C 434.164062 79.367188 434.246094 79.148438 434.269531 79.113281 C 434.285156 79.003906 434.285156 78.382812 434.285156 76.535156 C 434.75 76.859375 435.304688 76.90625 435.542969 76.90625 C 436.382812 76.90625 436.71875 76.367188 436.921875 76.03125 C 437.164062 76.570312 437.691406 76.90625 438.21875 76.90625 C 438.640625 76.90625 438.84375 76.628906 438.9375 76.246094 C 439.035156 75.8125 439 75.058594 439 75.058594 Z M 432.699219 67.101562 "/>
<path fill="none" stroke-width="1.012" stroke-linecap="round" stroke-linejoin="miter" stroke="rgb(0%, 0%, 0%)" stroke-opacity="1" stroke-miterlimit="4" d="M 335.269531 -38.230469 C 360.53125 -63.925781 385.789062 -89.621094 411.050781 -115.320312 " transform="matrix(1, 0, 0, -1, 0, 0)"/>
<path fill="none" stroke-width="1.012" stroke-linecap="round" stroke-linejoin="miter" stroke="rgb(0%, 0%, 0%)" stroke-opacity="1" stroke-miterlimit="4" d="M 403.414062 -115.253906 C 407.265625 -111.46875 411.050781 -115.320312 411.050781 -115.320312 " transform="matrix(1, 0, 0, -1, 0, 0)"/>
<path fill="none" stroke-width="1.012" stroke-linecap="round" stroke-linejoin="miter" stroke="rgb(0%, 0%, 0%)" stroke-opacity="1" stroke-miterlimit="4" d="M 411.117188 -107.683594 C 407.265625 -111.46875 411.050781 -115.320312 411.050781 -115.320312 " transform="matrix(1, 0, 0, -1, 0, 0)"/>
<path fill-rule="nonzero" fill="rgb(100%, 100%, 100%)" fill-opacity="1" d="M 347.449219 85.019531 L 367.003906 85.019531 L 367.003906 73.984375 L 347.449219 73.984375 Z M 347.449219 85.019531 "/>
<path fill-rule="nonzero" fill="rgb(0%, 0%, 0%)" fill-opacity="1" d="M 350.648438 80.902344 C 350.648438 80.78125 350.550781 80.78125 350.46875 80.78125 C 350.3125 80.78125 350.3125 80.804688 350.265625 80.984375 C 350.167969 81.332031 349.84375 82.484375 349.148438 82.484375 C 349.050781 82.484375 348.882812 82.472656 348.882812 82.148438 C 348.882812 81.835938 349.039062 81.441406 349.195312 80.996094 L 349.964844 78.945312 C 350.082031 78.597656 350.109375 78.5 350.109375 78.273438 C 350.109375 77.613281 349.652344 77.3125 349.207031 77.3125 C 348.078125 77.3125 347.671875 79.101562 347.671875 79.160156 C 347.671875 79.28125 347.792969 79.28125 347.851562 79.28125 C 348.007812 79.28125 348.019531 79.257812 348.066406 79.089844 C 348.175781 78.691406 348.488281 77.578125 349.183594 77.578125 C 349.316406 77.578125 349.449219 77.636719 349.449219 77.914062 C 349.449219 78.203125 349.316406 78.550781 349.230469 78.777344 L 348.871094 79.773438 L 348.429688 80.960938 C 348.261719 81.417969 348.210938 81.550781 348.210938 81.789062 C 348.210938 82.257812 348.5 82.75 349.125 82.75 C 350.25 82.75 350.648438 80.949219 350.648438 80.902344 Z M 350.972656 75.285156 C 350.972656 75.03125 350.792969 74.769531 350.433594 74.769531 C 350.046875 74.769531 349.664062 75.140625 349.664062 75.523438 C 349.664062 75.789062 349.855469 76.042969 350.203125 76.042969 C 350.585938 76.042969 350.972656 75.667969 350.972656 75.285156 Z M 346.675781 69.117188 "/>
<path fill-rule="nonzero" fill="rgb(0%, 0%, 0%)" fill-opacity="1" d="M 356.78125 80.902344 C 356.78125 80.78125 356.683594 80.78125 356.597656 80.78125 C 356.457031 80.78125 356.445312 80.792969 356.371094 81.058594 C 356.203125 81.730469 355.976562 82.484375 355.566406 82.484375 C 355.253906 82.484375 355.253906 82.160156 355.253906 81.992188 C 355.253906 81.910156 355.253906 81.730469 355.328125 81.441406 L 357.042969 74.589844 C 357.054688 74.554688 357.078125 74.433594 357.078125 74.433594 C 357.078125 74.324219 357.007812 74.289062 356.910156 74.289062 C 356.875 74.289062 356.753906 74.300781 356.71875 74.3125 L 355.53125 74.410156 C 355.386719 74.421875 355.253906 74.433594 355.253906 74.660156 C 355.253906 74.792969 355.375 74.792969 355.542969 74.792969 C 356.121094 74.792969 356.144531 74.878906 356.144531 74.996094 C 356.144531 75.03125 356.105469 75.203125 356.105469 75.203125 L 355.410156 78.007812 C 355.230469 77.636719 354.90625 77.3125 354.402344 77.3125 C 353.070312 77.3125 351.65625 79.136719 351.65625 80.890625 C 351.65625 81.910156 352.207031 82.75 353.105469 82.75 C 353.539062 82.75 354.066406 82.496094 354.546875 81.910156 C 354.679688 82.496094 355.125 82.75 355.542969 82.75 C 355.988281 82.75 356.238281 82.449219 356.417969 82.078125 C 356.636719 81.621094 356.78125 80.902344 356.78125 80.902344 Z M 354.621094 81.152344 C 354.523438 81.523438 353.792969 82.484375 353.132812 82.484375 C 352.566406 82.484375 352.472656 81.777344 352.472656 81.417969 C 352.472656 80.816406 352.84375 79.414062 353.058594 78.910156 C 353.359375 78.175781 353.910156 77.578125 354.402344 77.578125 C 354.5 77.578125 354.773438 77.589844 354.992188 77.925781 C 355.113281 78.117188 355.230469 78.464844 355.230469 78.691406 C 355.230469 78.730469 355.21875 78.777344 355.195312 78.847656 Z M 350.359375 69.117188 "/>
<path fill-rule="nonzero" fill="rgb(0%, 0%, 0%)" fill-opacity="1" d="M 362.914062 81.613281 L 363.128906 80.324219 C 363.136719 80.296875 363.136719 80.261719 363.136719 80.230469 C 363.136719 80.144531 363.070312 80.144531 362.957031 80.144531 L 359.261719 80.144531 C 359.117188 80.144531 359.097656 80.144531 359.054688 80.273438 L 358.628906 81.5625 C 358.59375 81.65625 358.59375 81.6875 358.59375 81.6875 C 358.59375 81.765625 358.679688 81.765625 358.699219 81.765625 C 358.730469 81.765625 358.757812 81.765625 358.777344 81.742188 C 358.792969 81.730469 358.800781 81.722656 358.871094 81.535156 C 359.210938 80.519531 359.414062 80.367188 360.339844 80.367188 L 360.585938 80.367188 C 360.753906 80.367188 360.753906 80.398438 360.753906 80.449219 C 360.753906 80.496094 360.738281 80.5625 360.722656 80.605469 L 359.757812 84.472656 C 359.695312 84.722656 359.628906 84.796875 358.996094 84.796875 L 358.878906 84.796875 C 358.757812 84.796875 358.679688 84.796875 358.679688 84.933594 C 358.679688 85.019531 358.765625 85.019531 358.800781 85.019531 C 359.167969 85.019531 359.550781 84.996094 359.917969 84.996094 C 360.292969 84.996094 360.679688 85.019531 361.046875 85.019531 C 361.113281 85.019531 361.199219 85.019531 361.199219 84.875 C 361.199219 84.796875 361.125 84.796875 361.019531 84.796875 L 360.910156 84.796875 C 360.796875 84.796875 360.570312 84.78125 360.550781 84.78125 C 360.347656 84.761719 360.3125 84.730469 360.3125 84.628906 C 360.3125 84.609375 360.3125 84.59375 360.339844 84.492188 L 361.304688 80.621094 C 361.355469 80.402344 361.414062 80.390625 361.472656 80.382812 C 361.53125 80.367188 361.722656 80.367188 361.847656 80.367188 C 362.59375 80.367188 362.761719 80.46875 362.761719 80.914062 C 362.761719 81 362.761719 81.136719 362.6875 81.5625 C 362.675781 81.644531 362.675781 81.671875 362.675781 81.671875 C 362.675781 81.765625 362.746094 81.765625 362.78125 81.765625 C 362.875 81.765625 362.890625 81.742188 362.914062 81.613281 Z M 357.332031 76.917969 "/>
<path fill="none" stroke-width="1.012" stroke-linecap="round" stroke-linejoin="miter" stroke="rgb(0%, 0%, 0%)" stroke-opacity="1" stroke-miterlimit="4" d="M 519.050781 -38.230469 C 493.789062 -63.925781 468.53125 -89.621094 443.269531 -115.320312 " transform="matrix(1, 0, 0, -1, 0, 0)"/>
<path fill="none" stroke-width="1.012" stroke-linecap="round" stroke-linejoin="miter" stroke="rgb(0%, 0%, 0%)" stroke-opacity="1" stroke-miterlimit="4" d="M 443.203125 -107.683594 C 447.054688 -111.46875 443.269531 -115.320312 443.269531 -115.320312 " transform="matrix(1, 0, 0, -1, 0, 0)"/>
<path fill="none" stroke-width="1.012" stroke-linecap="round" stroke-linejoin="miter" stroke="rgb(0%, 0%, 0%)" stroke-opacity="1" stroke-miterlimit="4" d="M 450.90625 -115.253906 C 447.054688 -111.46875 443.269531 -115.320312 443.269531 -115.320312 " transform="matrix(1, 0, 0, -1, 0, 0)"/>
<path fill-rule="nonzero" fill="rgb(100%, 100%, 100%)" fill-opacity="1" d="M 491.449219 85.019531 L 511.003906 85.019531 L 511.003906 73.984375 L 491.449219 73.984375 Z M 491.449219 85.019531 "/>
<path fill-rule="nonzero" fill="rgb(0%, 0%, 0%)" fill-opacity="1" d="M 494.648438 80.902344 C 494.648438 80.78125 494.550781 80.78125 494.46875 80.78125 C 494.3125 80.78125 494.3125 80.804688 494.265625 80.984375 C 494.167969 81.332031 493.84375 82.484375 493.148438 82.484375 C 493.050781 82.484375 492.882812 82.472656 492.882812 82.148438 C 492.882812 81.835938 493.039062 81.441406 493.195312 80.996094 L 493.964844 78.945312 C 494.082031 78.597656 494.109375 78.5 494.109375 78.273438 C 494.109375 77.613281 493.652344 77.3125 493.207031 77.3125 C 492.078125 77.3125 491.671875 79.101562 491.671875 79.160156 C 491.671875 79.28125 491.792969 79.28125 491.851562 79.28125 C 492.007812 79.28125 492.019531 79.257812 492.066406 79.089844 C 492.175781 78.691406 492.488281 77.578125 493.183594 77.578125 C 493.316406 77.578125 493.449219 77.636719 493.449219 77.914062 C 493.449219 78.203125 493.316406 78.550781 493.230469 78.777344 L 492.871094 79.773438 L 492.429688 80.960938 C 492.261719 81.417969 492.210938 81.550781 492.210938 81.789062 C 492.210938 82.257812 492.5 82.75 493.125 82.75 C 494.25 82.75 494.648438 80.949219 494.648438 80.902344 Z M 494.972656 75.285156 C 494.972656 75.03125 494.792969 74.769531 494.433594 74.769531 C 494.046875 74.769531 493.664062 75.140625 493.664062 75.523438 C 493.664062 75.789062 493.855469 76.042969 494.203125 76.042969 C 494.585938 76.042969 494.972656 75.667969 494.972656 75.285156 Z M 490.675781 69.117188 "/>
<path fill-rule="nonzero" fill="rgb(0%, 0%, 0%)" fill-opacity="1" d="M 500.78125 80.902344 C 500.78125 80.78125 500.683594 80.78125 500.597656 80.78125 C 500.457031 80.78125 500.445312 80.792969 500.371094 81.058594 C 500.203125 81.730469 499.976562 82.484375 499.566406 82.484375 C 499.253906 82.484375 499.253906 82.160156 499.253906 81.992188 C 499.253906 81.910156 499.253906 81.730469 499.328125 81.441406 L 501.042969 74.589844 C 501.054688 74.554688 501.078125 74.433594 501.078125 74.433594 C 501.078125 74.324219 501.007812 74.289062 500.910156 74.289062 C 500.875 74.289062 500.753906 74.300781 500.71875 74.3125 L 499.53125 74.410156 C 499.386719 74.421875 499.253906 74.433594 499.253906 74.660156 C 499.253906 74.792969 499.375 74.792969 499.542969 74.792969 C 500.121094 74.792969 500.144531 74.878906 500.144531 74.996094 C 500.144531 75.03125 500.105469 75.203125 500.105469 75.203125 L 499.410156 78.007812 C 499.230469 77.636719 498.90625 77.3125 498.402344 77.3125 C 497.070312 77.3125 495.65625 79.136719 495.65625 80.890625 C 495.65625 81.910156 496.207031 82.75 497.105469 82.75 C 497.539062 82.75 498.066406 82.496094 498.546875 81.910156 C 498.679688 82.496094 499.125 82.75 499.542969 82.75 C 499.988281 82.75 500.238281 82.449219 500.417969 82.078125 C 500.636719 81.621094 500.78125 80.902344 500.78125 80.902344 Z M 498.621094 81.152344 C 498.523438 81.523438 497.792969 82.484375 497.132812 82.484375 C 496.566406 82.484375 496.472656 81.777344 496.472656 81.417969 C 496.472656 80.816406 496.84375 79.414062 497.058594 78.910156 C 497.359375 78.175781 497.910156 77.578125 498.402344 77.578125 C 498.5 77.578125 498.773438 77.589844 498.992188 77.925781 C 499.113281 78.117188 499.230469 78.464844 499.230469 78.691406 C 499.230469 78.730469 499.21875 78.777344 499.195312 78.847656 Z M 494.359375 69.117188 "/>
<path fill-rule="nonzero" fill="rgb(0%, 0%, 0%)" fill-opacity="1" d="M 506.914062 81.613281 L 507.128906 80.324219 C 507.136719 80.296875 507.136719 80.261719 507.136719 80.230469 C 507.136719 80.144531 507.070312 80.144531 506.957031 80.144531 L 503.261719 80.144531 C 503.117188 80.144531 503.097656 80.144531 503.054688 80.273438 L 502.628906 81.5625 C 502.59375 81.65625 502.59375 81.6875 502.59375 81.6875 C 502.59375 81.765625 502.679688 81.765625 502.699219 81.765625 C 502.730469 81.765625 502.757812 81.765625 502.777344 81.742188 C 502.792969 81.730469 502.800781 81.722656 502.871094 81.535156 C 503.210938 80.519531 503.414062 80.367188 504.339844 80.367188 L 504.585938 80.367188 C 504.753906 80.367188 504.753906 80.398438 504.753906 80.449219 C 504.753906 80.496094 504.738281 80.5625 504.722656 80.605469 L 503.757812 84.472656 C 503.695312 84.722656 503.628906 84.796875 502.996094 84.796875 L 502.878906 84.796875 C 502.757812 84.796875 502.679688 84.796875 502.679688 84.933594 C 502.679688 85.019531 502.765625 85.019531 502.800781 85.019531 C 503.167969 85.019531 503.550781 84.996094 503.917969 84.996094 C 504.292969 84.996094 504.679688 85.019531 505.046875 85.019531 C 505.113281 85.019531 505.199219 85.019531 505.199219 84.875 C 505.199219 84.796875 505.125 84.796875 505.019531 84.796875 L 504.910156 84.796875 C 504.796875 84.796875 504.570312 84.78125 504.550781 84.78125 C 504.347656 84.761719 504.3125 84.730469 504.3125 84.628906 C 504.3125 84.609375 504.3125 84.59375 504.339844 84.492188 L 505.304688 80.621094 C 505.355469 80.402344 505.414062 80.390625 505.472656 80.382812 C 505.53125 80.367188 505.722656 80.367188 505.847656 80.367188 C 506.59375 80.367188 506.761719 80.46875 506.761719 80.914062 C 506.761719 81 506.761719 81.136719 506.6875 81.5625 C 506.675781 81.644531 506.675781 81.671875 506.675781 81.671875 C 506.675781 81.765625 506.746094 81.765625 506.78125 81.765625 C 506.875 81.765625 506.890625 81.742188 506.914062 81.613281 Z M 501.332031 76.917969 "/>
</svg>
