<?xml version="1.0" encoding="UTF-8" standalone="no"?>
<!DOCTYPE svg PUBLIC "-//W3C//DTD SVG 1.1//EN" "http://www.w3.org/Graphics/SVG/1.1/DTD/svg11.dtd">
<!-- Created with Vectornator (http://vectornator.io/) -->
<svg height="100%" stroke-miterlimit="10" style="fill-rule:nonzero;clip-rule:evenodd;stroke-linecap:round;stroke-linejoin:round;" version="1.1" viewBox="0 0 375 146.857" width="100%" xml:space="preserve" xmlns="http://www.w3.org/2000/svg" xmlns:vectornator="http://vectornator.io" xmlns:xlink="http://www.w3.org/1999/xlink">
<defs/>
<g id="Untitled" vectornator:layerName="Untitled">
<g opacity="1" vectornator:layerName="g">
<g fill="#000000" opacity="1" stroke="none" vectornator:layerName="tspan">
<path d="M146.774 14.3341L146.396 11.2966L138.985 11.2966L138.985 11.7151L139.309 11.7151C140.348 11.7151 140.375 11.8636 140.375 12.3496L140.375 19.4236C140.375 19.9096 140.348 20.0581 139.309 20.0581L138.985 20.0581L138.985 20.4766C139.457 20.4361 140.51 20.4361 141.037 20.4361C141.59 20.4361 142.819 20.4361 143.305 20.4766L143.305 20.0581L142.859 20.0581C141.577 20.0581 141.577 19.8826 141.577 19.4101L141.577 16.0891L142.738 16.0891C144.034 16.0891 144.169 16.5211 144.169 17.6686L144.506 17.6686L144.506 14.0911L144.169 14.0911C144.169 15.2251 144.034 15.6706 142.738 15.6706L141.577 15.6706L141.577 12.2551C141.577 11.8096 141.604 11.7151 142.238 11.7151L143.858 11.7151C145.883 11.7151 146.221 12.4711 146.437 14.3341L146.774 14.3341Z"/>
<path d="M155.536 20.4766L155.536 20.0581L155.293 20.0581C154.483 20.0581 154.294 19.9636 154.145 19.5181L151.229 11.0806C151.162 10.9051 151.135 10.8106 150.919 10.8106C150.703 10.8106 150.662 10.8916 150.595 11.0806L147.8 19.1536C147.557 19.8421 147.017 20.0446 146.288 20.0581L146.288 20.4766L147.665 20.4361L149.218 20.4766L149.218 20.0581C148.543 20.0581 148.205 19.7206 148.205 19.3696C148.205 19.3291 148.219 19.1941 148.232 19.1671L148.853 17.3986L152.188 17.3986L152.903 19.4641C152.917 19.5181 152.944 19.5991 152.944 19.6531C152.944 20.0581 152.188 20.0581 151.823 20.0581L151.823 20.4766C152.309 20.4361 153.254 20.4361 153.767 20.4361L155.536 20.4766ZM152.039 16.9801L149.002 16.9801L150.514 12.5926L152.039 16.9801Z"/>
</g>
<g fill="#000000" opacity="1" stroke="none" vectornator:layerName="tspan">
<path d="M229.239 17.0611L229.239 16.6426L227.592 16.6831C227.052 16.6831 225.904 16.6831 225.418 16.6426L225.418 17.0611L225.85 17.0611C227.065 17.0611 227.106 17.2096 227.106 17.7091L227.106 18.5731C227.106 20.0851 225.391 20.2066 225.013 20.2066C224.136 20.2066 221.463 19.7341 221.463 15.7111C221.463 11.6746 224.122 11.2291 224.932 11.2291C226.377 11.2291 227.605 12.4441 227.875 14.4286C227.902 14.6176 227.902 14.6581 228.091 14.6581C228.307 14.6581 228.307 14.6176 228.307 14.3341L228.307 11.1346C228.307 10.9051 228.307 10.8106 228.159 10.8106C228.105 10.8106 228.051 10.8106 227.943 10.9726L227.268 11.9716C226.836 11.5396 226.107 10.8106 224.77 10.8106C222.259 10.8106 220.072 12.9436 220.072 15.7111C220.072 18.4786 222.232 20.6251 224.797 20.6251C225.783 20.6251 226.863 20.2741 227.322 19.4776C227.497 19.7746 228.037 20.3146 228.186 20.3146C228.307 20.3146 228.307 20.2066 228.307 20.0041L228.307 17.6551C228.307 17.1286 228.361 17.0611 229.239 17.0611Z"/>
<path d="M239.593 20.3281L239.593 19.9096L239.35 19.9096C238.54 19.9096 238.351 19.8151 238.203 19.3696L235.287 10.9321C235.219 10.7566 235.192 10.6621 234.976 10.6621C234.76 10.6621 234.72 10.7431 234.652 10.9321L231.858 19.0051C231.615 19.6936 231.075 19.8961 230.346 19.9096L230.346 20.3281L231.723 20.2876L233.275 20.3281L233.275 19.9096C232.6 19.9096 232.263 19.5721 232.263 19.2211C232.263 19.1806 232.276 19.0456 232.29 19.0186L232.911 17.2501L236.245 17.2501L236.961 19.3156C236.974 19.3696 237.001 19.4506 237.001 19.5046C237.001 19.9096 236.245 19.9096 235.881 19.9096L235.881 20.3281C236.367 20.2876 237.312 20.2876 237.825 20.2876L239.593 20.3281ZM236.097 16.8316L233.059 16.8316L234.571 12.4441L236.097 16.8316Z"/>
</g>
<g fill="#000000" opacity="1" stroke="none" vectornator:layerName="tspan">
<path d="M146.493 95.1114L146.115 92.0739L138.703 92.0739L138.703 92.4924L139.027 92.4924C140.067 92.4924 140.094 92.6409 140.094 93.1269L140.094 100.201C140.094 100.687 140.067 100.835 139.027 100.835L138.703 100.835L138.703 101.254C139.176 101.213 140.229 101.213 140.755 101.213C141.309 101.213 142.537 101.213 143.023 101.254L143.023 100.835L142.578 100.835C141.295 100.835 141.295 100.66 141.295 100.187L141.295 96.8664L142.456 96.8664C143.752 96.8664 143.887 97.2984 143.887 98.4459L144.225 98.4459L144.225 94.8684L143.887 94.8684C143.887 96.0024 143.752 96.4479 142.456 96.4479L141.295 96.4479L141.295 93.0324C141.295 92.5869 141.322 92.4924 141.957 92.4924L143.577 92.4924C145.602 92.4924 145.939 93.2484 146.155 95.1114L146.493 95.1114Z"/>
<path d="M155.862 98.7834C155.862 97.6089 154.755 96.5964 153.256 96.4344C154.566 96.1779 155.497 95.3139 155.497 94.3149C155.497 93.1404 154.255 92.0334 152.5 92.0334L147.559 92.0334L147.559 92.4519L147.883 92.4519C148.923 92.4519 148.95 92.6004 148.95 93.0864L148.95 100.201C148.95 100.687 148.923 100.835 147.883 100.835L147.559 100.835L147.559 101.254L152.851 101.254C154.647 101.254 155.862 100.052 155.862 98.7834ZM154.188 94.3149C154.188 95.1789 153.526 96.3129 152.028 96.3129L150.07 96.3129L150.07 92.9919C150.07 92.5464 150.097 92.4519 150.732 92.4519L152.406 92.4519C153.715 92.4519 154.188 93.5994 154.188 94.3149ZM154.512 98.7699C154.512 99.7284 153.81 100.835 152.419 100.835L150.732 100.835C150.097 100.835 150.07 100.741 150.07 100.295L150.07 96.6099L152.608 96.6099C153.945 96.6099 154.512 97.8654 154.512 98.7699Z"/>
<path d="M229.491 97.9869L229.491 97.5684L227.844 97.6089C227.304 97.6089 226.156 97.6089 225.67 97.5684L225.67 97.9869L226.102 97.9869C227.317 97.9869 227.358 98.1354 227.358 98.6349L227.358 99.4989C227.358 101.011 225.643 101.132 225.265 101.132C224.388 101.132 221.715 100.66 221.715 96.6369C221.715 92.6004 224.374 92.1549 225.184 92.1549C226.629 92.1549 227.857 93.3699 228.127 95.3544C228.154 95.5434 228.154 95.5839 228.343 95.5839C228.559 95.5839 228.559 95.5434 228.559 95.2599L228.559 92.0604C228.559 91.8309 228.559 91.7364 228.411 91.7364C228.357 91.7364 228.303 91.7364 228.195 91.8984L227.52 92.8974C227.088 92.4654 226.359 91.7364 225.022 91.7364C222.511 91.7364 220.324 93.8694 220.324 96.6369C220.324 99.4044 222.484 101.551 225.049 101.551C226.035 101.551 227.115 101.2 227.574 100.403C227.749 100.7 228.289 101.24 228.438 101.24C228.559 101.24 228.559 101.132 228.559 100.93L228.559 98.5809C228.559 98.0544 228.613 97.9869 229.491 97.9869Z"/>
<path d="M238.954 98.7834C238.954 97.6089 237.847 96.5964 236.349 96.4344C237.658 96.1779 238.59 95.3139 238.59 94.3149C238.59 93.1404 237.348 92.0334 235.593 92.0334L230.652 92.0334L230.652 92.4519L230.976 92.4519C232.015 92.4519 232.042 92.6004 232.042 93.0864L232.042 100.201C232.042 100.687 232.015 100.835 230.976 100.835L230.652 100.835L230.652 101.254L235.944 101.254C237.739 101.254 238.954 100.052 238.954 98.7834ZM237.28 94.3149C237.28 95.1789 236.619 96.3129 235.12 96.3129L233.163 96.3129L233.163 92.9919C233.163 92.5464 233.19 92.4519 233.824 92.4519L235.498 92.4519C236.808 92.4519 237.28 93.5994 237.28 94.3149ZM237.604 98.7699C237.604 99.7284 236.902 100.835 235.512 100.835L233.824 100.835C233.19 100.835 233.163 100.741 233.163 100.295L233.163 96.6099L235.701 96.6099C237.037 96.6099 237.604 97.8654 237.604 98.7699Z"/>
</g>
<path d="M161.949 15.645C178.539 15.645 195.129 15.645 211.719 15.645" fill="none" opacity="1" stroke="#000000" stroke-linecap="round" stroke-linejoin="miter" stroke-width="0.759" vectornator:layerName="path"/>
<path d="M207.668 19.691C207.668 15.645 211.719 15.645 211.719 15.645" fill="none" opacity="1" stroke="#000000" stroke-linecap="round" stroke-linejoin="miter" stroke-width="0.759" vectornator:layerName="path"/>
<path d="M207.668 11.594C207.668 15.645 211.719 15.645 211.719 15.645" fill="none" opacity="1" stroke="#000000" stroke-linecap="round" stroke-linejoin="miter" stroke-width="0.759" vectornator:layerName="path"/>
<path d="M181.285 7.5L193.117 7.5L193.117 14.066L181.285 14.066L181.285 7.5Z" fill="#ffffff" fill-rule="nonzero" opacity="1" stroke="none" vectornator:layerName="path"/>
<path d="M188.151 11.7295C188.133 11.6665 188.079 11.6395 188.025 11.6395C187.962 11.6395 187.935 11.6665 187.926 11.7295C187.872 12.1705 187.53 12.1705 187.53 12.1705C187.251 12.1705 187.08 11.4685 187.026 11.2525C186.981 11.0635 186.972 11.0455 187.035 10.9375C187.62 9.87553 187.539 8.82253 187.539 8.82253C187.539 8.82253 187.512 8.73253 187.413 8.73253C187.323 8.73253 187.332 8.75953 187.323 8.92153C187.305 9.48853 187.179 10.1725 186.891 10.7035L186.747 10.1455C186.396 8.73253 185.451 8.29153 184.785 8.29153C183.552 8.29153 182.679 9.57853 183.003 10.8475C183.21 11.6845 183.921 12.3685 184.839 12.3685C185.406 12.3685 186 12.1615 186.549 11.6125C186.783 12.0895 187.152 12.3685 187.557 12.3685C188.034 12.3685 188.187 11.8735 188.151 11.7295ZM186.45 11.3785C185.838 12.0715 185.163 12.1705 184.803 12.1705C184.263 12.1705 183.894 11.7655 183.75 11.1895C183.642 10.7485 183.633 9.77653 183.804 9.31753C184.065 8.66053 184.506 8.48953 184.821 8.48953C185.712 8.48953 186.009 9.66853 186.18 10.3705C186.27 10.7035 186.396 11.2255 186.45 11.3785Z" fill="#000000" opacity="1" stroke="none" vectornator:layerName="tspan"/>
<path d="M192.263 14.0676L192.263 13.9002L192.165 13.9002C191.841 13.9002 191.766 13.8624 191.706 13.6842L190.54 10.309C190.513 10.2387 190.502 10.2009 190.416 10.2009C190.329 10.2009 190.313 10.2333 190.286 10.309L189.168 13.5384C189.071 13.8138 188.855 13.8948 188.563 13.9002L188.563 14.0676L189.114 14.0514L189.735 14.0676L189.735 13.9002C189.465 13.9002 189.33 13.7652 189.33 13.6248C189.33 13.6086 189.336 13.5546 189.341 13.5438L189.59 12.8363L190.923 12.8363L191.21 13.6626C191.215 13.6842 191.226 13.7166 191.226 13.7382C191.226 13.9002 190.923 13.9002 190.778 13.9002L190.778 14.0676C190.972 14.0514 191.35 14.0514 191.555 14.0514L192.263 14.0676ZM190.864 12.6689L189.649 12.6689L190.254 10.9138L190.864 12.6689Z" fill="#000000" opacity="1" stroke="none" vectornator:layerName="tspan"/>
<path d="M147.727 27.227C147.727 46.426 147.727 65.621 147.727 84.82" fill="none" opacity="1" stroke="#000000" stroke-linecap="round" stroke-linejoin="miter" stroke-width="0.759" vectornator:layerName="path"/>
<path d="M143.676 80.77C147.727 80.77 147.727 84.82 147.727 84.82" fill="none" opacity="1" stroke="#000000" stroke-linecap="round" stroke-linejoin="miter" stroke-width="0.759" vectornator:layerName="path"/>
<path d="M151.773 80.77C147.727 80.77 147.727 84.82 147.727 84.82" fill="none" opacity="1" stroke="#000000" stroke-linecap="round" stroke-linejoin="miter" stroke-width="0.759" vectornator:layerName="path"/>
<path d="M131.41 49.477L140.797 49.477L140.797 57.868L131.41 57.868L131.41 49.477Z" fill="#ffffff" fill-rule="nonzero" opacity="1" stroke="none" vectornator:layerName="path"/>
<g fill="#000000" opacity="1" stroke="none" vectornator:layerName="tspan">
<path d="M137.842 51.9284L137.59 49.9034L132.649 49.9034L132.649 50.1824L132.865 50.1824C133.558 50.1824 133.576 50.2814 133.576 50.6054L133.576 55.3214C133.576 55.6454 133.558 55.7444 132.865 55.7444L132.649 55.7444L132.649 56.0234C132.964 55.9964 133.666 55.9964 134.017 55.9964C134.386 55.9964 135.205 55.9964 135.529 56.0234L135.529 55.7444L135.232 55.7444C134.377 55.7444 134.377 55.6274 134.377 55.3124L134.377 53.0984L135.151 53.0984C136.015 53.0984 136.105 53.3864 136.105 54.1514L136.33 54.1514L136.33 51.7664L136.105 51.7664C136.105 52.5224 136.015 52.8194 135.151 52.8194L134.377 52.8194L134.377 50.5424C134.377 50.2454 134.395 50.1824 134.818 50.1824L135.898 50.1824C137.248 50.1824 137.473 50.6864 137.617 51.9284L137.842 51.9284Z"/>
<path d="M141.442 50.3084C141.442 49.9754 141.109 49.6784 140.632 49.6784C140.002 49.6784 139.237 50.1554 139.237 51.1094L139.237 52.1444L138.526 52.1444L138.526 52.4234L139.237 52.4234L139.237 55.3394C139.237 55.7444 139.138 55.7444 138.535 55.7444L138.535 56.0234L139.561 55.9964C139.921 55.9964 140.344 55.9964 140.704 56.0234L140.704 55.7444L140.515 55.7444C139.849 55.7444 139.831 55.6454 139.831 55.3214L139.831 52.4234L140.857 52.4234L140.857 52.1444L139.804 52.1444L139.804 51.1004C139.804 50.3084 140.236 49.8764 140.632 49.8764C140.659 49.8764 140.794 49.8764 140.929 49.9394C140.821 49.9754 140.659 50.0924 140.659 50.3174C140.659 50.5244 140.803 50.7044 141.046 50.7044C141.307 50.7044 141.442 50.5244 141.442 50.3084Z"/>
</g>
<path d="M162.23 96.645C178.633 96.645 195.035 96.645 211.438 96.645" fill="none" opacity="1" stroke="#000000" stroke-linecap="round" stroke-linejoin="miter" stroke-width="0.759" vectornator:layerName="path"/>
<path d="M207.387 100.691C207.387 96.645 211.438 96.645 211.438 96.645" fill="none" opacity="1" stroke="#000000" stroke-linecap="round" stroke-linejoin="miter" stroke-width="0.759" vectornator:layerName="path"/>
<path d="M207.387 92.594C207.387 96.645 211.438 96.645 211.438 96.645" fill="none" opacity="1" stroke="#000000" stroke-linecap="round" stroke-linejoin="miter" stroke-width="0.759" vectornator:layerName="path"/>
<path d="M181.086 102L193.316 102L193.316 108.566L181.086 108.566L181.086 102Z" fill="#ffffff" fill-rule="nonzero" opacity="1" stroke="none" vectornator:layerName="path"/>
<path d="M187.952 106.23C187.934 106.167 187.88 106.14 187.826 106.14C187.763 106.14 187.736 106.167 187.727 106.23C187.673 106.671 187.331 106.671 187.331 106.671C187.052 106.671 186.881 105.969 186.827 105.753C186.782 105.564 186.773 105.546 186.836 105.438C187.421 104.376 187.34 103.323 187.34 103.323C187.34 103.323 187.313 103.233 187.214 103.233C187.124 103.233 187.133 103.26 187.124 103.422C187.106 103.989 186.98 104.673 186.692 105.204L186.548 104.646C186.197 103.233 185.252 102.792 184.586 102.792C183.353 102.792 182.48 104.079 182.804 105.348C183.011 106.185 183.722 106.869 184.64 106.869C185.207 106.869 185.801 106.662 186.35 106.113C186.584 106.59 186.953 106.869 187.358 106.869C187.835 106.869 187.988 106.374 187.952 106.23ZM186.251 105.879C185.639 106.572 184.964 106.671 184.604 106.671C184.064 106.671 183.695 106.266 183.551 105.69C183.443 105.249 183.434 104.277 183.605 103.818C183.866 103.161 184.307 102.99 184.622 102.99C185.513 102.99 185.81 104.169 185.981 104.871C186.071 105.204 186.197 105.726 186.251 105.879Z" fill="#000000" opacity="1" stroke="none" vectornator:layerName="tspan"/>
<path d="M191.727 107.579C191.727 107.11 191.284 106.704 190.684 106.64C191.208 106.537 191.581 106.191 191.581 105.792C191.581 105.322 191.084 104.879 190.382 104.879L188.405 104.879L188.405 105.047L188.535 105.047C188.951 105.047 188.962 105.106 188.962 105.3L188.962 108.146C188.962 108.341 188.951 108.4 188.535 108.4L188.405 108.4L188.405 108.568L190.522 108.568C191.241 108.568 191.727 108.087 191.727 107.579ZM191.057 105.792C191.057 106.137 190.792 106.591 190.193 106.591L189.41 106.591L189.41 105.263C189.41 105.084 189.421 105.047 189.674 105.047L190.344 105.047C190.868 105.047 191.057 105.506 191.057 105.792ZM191.187 107.574C191.187 107.957 190.906 108.4 190.349 108.4L189.674 108.4C189.421 108.4 189.41 108.362 189.41 108.184L189.41 106.71L190.425 106.71C190.96 106.71 191.187 107.212 191.187 107.574Z" fill="#000000" opacity="1" stroke="none" vectornator:layerName="tspan"/>
<path d="M228.727 27.375C228.727 46.434 228.727 65.496 228.727 84.555" fill="none" opacity="1" stroke="#000000" stroke-linecap="round" stroke-linejoin="miter" stroke-width="0.759" vectornator:layerName="path"/>
<path d="M224.676 80.508C228.727 80.508 228.727 84.555 228.727 84.555" fill="none" opacity="1" stroke="#000000" stroke-linecap="round" stroke-linejoin="miter" stroke-width="0.759" vectornator:layerName="path"/>
<path d="M232.773 80.508C228.727 80.508 228.727 84.555 228.727 84.555" fill="none" opacity="1" stroke="#000000" stroke-linecap="round" stroke-linejoin="miter" stroke-width="0.759" vectornator:layerName="path"/>
<path d="M232.992 49.336L243.59 49.336L243.59 57.809L232.992 57.809L232.992 49.336Z" fill="#ffffff" fill-rule="nonzero" opacity="1" stroke="none" vectornator:layerName="path"/>
<g fill="#000000" opacity="1" stroke="none" vectornator:layerName="tspan">
<path d="M240.674 53.7868L240.674 53.5078L239.576 53.5348C239.216 53.5348 238.451 53.5348 238.127 53.5078L238.127 53.7868L238.415 53.7868C239.225 53.7868 239.252 53.8858 239.252 54.2188L239.252 54.7948C239.252 55.8028 238.109 55.8838 237.857 55.8838C237.272 55.8838 235.49 55.5688 235.49 52.8868C235.49 50.1958 237.263 49.8988 237.803 49.8988C238.766 49.8988 239.585 50.7088 239.765 52.0318C239.783 52.1578 239.783 52.1848 239.909 52.1848C240.053 52.1848 240.053 52.1578 240.053 51.9688L240.053 49.8358C240.053 49.6828 240.053 49.6198 239.954 49.6198C239.918 49.6198 239.882 49.6198 239.81 49.7278L239.36 50.3938C239.072 50.1058 238.586 49.6198 237.695 49.6198C236.021 49.6198 234.563 51.0418 234.563 52.8868C234.563 54.7318 236.003 56.1628 237.713 56.1628C238.37 56.1628 239.09 55.9288 239.396 55.3978C239.513 55.5958 239.873 55.9558 239.972 55.9558C240.053 55.9558 240.053 55.8838 240.053 55.7488L240.053 54.1828C240.053 53.8318 240.089 53.7868 240.674 53.7868Z"/>
<path d="M244.337 50.2498C244.337 49.9168 244.004 49.6198 243.527 49.6198C242.897 49.6198 242.132 50.0968 242.132 51.0508L242.132 52.0858L241.421 52.0858L241.421 52.3648L242.132 52.3648L242.132 55.2808C242.132 55.6858 242.033 55.6858 241.43 55.6858L241.43 55.9648L242.456 55.9378C242.816 55.9378 243.239 55.9378 243.599 55.9648L243.599 55.6858L243.41 55.6858C242.744 55.6858 242.726 55.5868 242.726 55.2628L242.726 52.3648L243.752 52.3648L243.752 52.0858L242.699 52.0858L242.699 51.0418C242.699 50.2498 243.131 49.8178 243.527 49.8178C243.554 49.8178 243.689 49.8178 243.824 49.8808C243.716 49.9168 243.554 50.0338 243.554 50.2588C243.554 50.4658 243.698 50.6458 243.941 50.6458C244.202 50.6458 244.337 50.4658 244.337 50.2498Z"/>
</g>
<g fill="#000000" opacity="1" stroke="none" vectornator:layerName="tspan">
<path d="M156.075 134.529L156.075 134.194L154.758 134.226C154.326 134.226 153.407 134.226 153.019 134.194L153.019 134.529L153.364 134.529C154.336 134.529 154.369 134.647 154.369 135.047L154.369 135.738C154.369 136.948 152.997 137.045 152.695 137.045C151.993 137.045 149.854 136.667 149.854 133.448C149.854 130.219 151.982 129.863 152.63 129.863C153.786 129.863 154.768 130.835 154.984 132.422C155.006 132.574 155.006 132.606 155.157 132.606C155.33 132.606 155.33 132.574 155.33 132.347L155.33 129.787C155.33 129.603 155.33 129.528 155.211 129.528C155.168 129.528 155.125 129.528 155.038 129.657L154.498 130.457C154.153 130.111 153.57 129.528 152.5 129.528C150.491 129.528 148.742 131.234 148.742 133.448C148.742 135.663 150.47 137.38 152.522 137.38C153.31 137.38 154.174 137.099 154.542 136.462C154.682 136.7 155.114 137.132 155.233 137.132C155.33 137.132 155.33 137.045 155.33 136.883L155.33 135.004C155.33 134.583 155.373 134.529 156.075 134.529Z"/>
<path d="M160.471 130.284C160.471 129.884 160.072 129.528 159.499 129.528C158.743 129.528 157.825 130.1 157.825 131.245L157.825 132.487L156.972 132.487L156.972 132.822L157.825 132.822L157.825 136.321C157.825 136.808 157.706 136.808 156.983 136.808L156.983 137.142L158.214 137.11C158.646 137.11 159.154 137.11 159.586 137.142L159.586 136.808L159.359 136.808C158.559 136.808 158.538 136.689 158.538 136.3L158.538 132.822L159.769 132.822L159.769 132.487L158.505 132.487L158.505 131.234C158.505 130.284 159.024 129.765 159.499 129.765C159.532 129.765 159.694 129.765 159.856 129.841C159.726 129.884 159.532 130.025 159.532 130.295C159.532 130.543 159.704 130.759 159.996 130.759C160.309 130.759 160.471 130.543 160.471 130.284Z"/>
</g>
<g fill="#000000" opacity="1" stroke="none" vectornator:layerName="tspan">
<path d="M167.578 134.442C167.578 133.546 166.854 132.822 165.958 132.822C165.062 132.822 164.338 133.546 164.338 134.442C164.338 135.339 165.062 136.062 165.958 136.062C166.854 136.062 167.578 135.339 167.578 134.442ZM167.146 134.442C167.146 135.101 166.617 135.63 165.958 135.63C165.299 135.63 164.77 135.101 164.77 134.442C164.77 133.783 165.299 133.254 165.958 133.254C166.617 133.254 167.146 133.783 167.146 134.442Z"/>
<path d="M175.063 136.494C175.041 136.419 174.977 136.386 174.912 136.386C174.836 136.386 174.804 136.419 174.793 136.494C174.728 137.024 174.318 137.024 174.318 137.024C173.983 137.024 173.778 136.181 173.713 135.922C173.659 135.695 173.648 135.673 173.724 135.544C174.426 134.269 174.329 133.006 174.329 133.006C174.329 133.006 174.296 132.898 174.177 132.898C174.069 132.898 174.08 132.93 174.069 133.124C174.048 133.805 173.897 134.626 173.551 135.263L173.378 134.593C172.957 132.898 171.823 132.368 171.024 132.368C169.544 132.368 168.496 133.913 168.885 135.436C169.133 136.44 169.987 137.261 171.088 137.261C171.769 137.261 172.482 137.013 173.141 136.354C173.421 136.926 173.864 137.261 174.35 137.261C174.923 137.261 175.106 136.667 175.063 136.494ZM173.022 136.073C172.287 136.905 171.477 137.024 171.045 137.024C170.397 137.024 169.954 136.537 169.781 135.846C169.652 135.317 169.641 134.151 169.846 133.6C170.16 132.811 170.689 132.606 171.067 132.606C172.136 132.606 172.492 134.021 172.698 134.863C172.806 135.263 172.957 135.889 173.022 136.073Z"/>
</g>
<path d="M183.993 139.305L183.993 139.104L183.877 139.104C183.488 139.104 183.397 139.058 183.326 138.845L181.926 134.795C181.894 134.711 181.881 134.665 181.777 134.665C181.674 134.665 181.654 134.704 181.622 134.795L180.281 138.67C180.164 139 179.905 139.097 179.555 139.104L179.555 139.305L180.216 139.285L180.961 139.305L180.961 139.104C180.637 139.104 180.475 138.942 180.475 138.773C180.475 138.754 180.482 138.689 180.488 138.676L180.786 137.827L182.387 137.827L182.73 138.819C182.736 138.845 182.749 138.884 182.749 138.909C182.749 139.104 182.387 139.104 182.212 139.104L182.212 139.305C182.445 139.285 182.898 139.285 183.145 139.285L183.993 139.305ZM182.315 137.626L180.857 137.626L181.583 135.521L182.315 137.626Z" fill="#000000" opacity="1" stroke="none" vectornator:layerName="tspan"/>
<path d="M194.118 133.394C194.118 133.276 194.021 133.178 193.902 133.178L187.141 133.178C187.022 133.178 186.925 133.276 186.925 133.394C186.925 133.513 187.022 133.61 187.141 133.61L193.902 133.61C194.021 133.61 194.118 133.513 194.118 133.394ZM194.118 135.49C194.118 135.371 194.021 135.274 193.902 135.274L187.141 135.274C187.022 135.274 186.925 135.371 186.925 135.49C186.925 135.609 187.022 135.706 187.141 135.706L193.902 135.706C194.021 135.706 194.118 135.609 194.118 135.49Z" fill="#000000" opacity="1" stroke="none" vectornator:layerName="tspan"/>
<path d="M203.764 136.494C203.742 136.419 203.677 136.386 203.612 136.386C203.537 136.386 203.504 136.419 203.494 136.494C203.429 137.024 203.018 137.024 203.018 137.024C202.684 137.024 202.478 136.181 202.413 135.922C202.359 135.695 202.349 135.673 202.424 135.544C203.126 134.269 203.029 133.006 203.029 133.006C203.029 133.006 202.997 132.898 202.878 132.898C202.77 132.898 202.781 132.93 202.77 133.124C202.748 133.805 202.597 134.626 202.251 135.263L202.079 134.593C201.657 132.898 200.523 132.368 199.724 132.368C198.244 132.368 197.197 133.913 197.586 135.436C197.834 136.44 198.687 137.261 199.789 137.261C200.469 137.261 201.182 137.013 201.841 136.354C202.122 136.926 202.565 137.261 203.051 137.261C203.623 137.261 203.807 136.667 203.764 136.494ZM201.722 136.073C200.988 136.905 200.178 137.024 199.746 137.024C199.098 137.024 198.655 136.537 198.482 135.846C198.352 135.317 198.342 134.151 198.547 133.6C198.86 132.811 199.389 132.606 199.767 132.606C200.837 132.606 201.193 134.021 201.398 134.863C201.506 135.263 201.657 135.889 201.722 136.073Z" fill="#000000" opacity="1" stroke="none" vectornator:layerName="tspan"/>
<path d="M208.296 138.119C208.296 137.555 207.765 137.069 207.046 136.992C207.674 136.868 208.121 136.454 208.121 135.974C208.121 135.411 207.525 134.879 206.683 134.879L204.311 134.879L204.311 135.08L204.467 135.08C204.966 135.08 204.979 135.151 204.979 135.385L204.979 138.799C204.979 139.033 204.966 139.104 204.467 139.104L204.311 139.104L204.311 139.305L206.851 139.305C207.713 139.305 208.296 138.728 208.296 138.119ZM207.493 135.974C207.493 136.389 207.175 136.933 206.456 136.933L205.517 136.933L205.517 135.339C205.517 135.125 205.53 135.08 205.834 135.08L206.638 135.08C207.266 135.08 207.493 135.631 207.493 135.974ZM207.648 138.112C207.648 138.573 207.311 139.104 206.644 139.104L205.834 139.104C205.53 139.104 205.517 139.058 205.517 138.845L205.517 137.076L206.735 137.076C207.376 137.076 207.648 137.678 207.648 138.112Z" fill="#000000" opacity="1" stroke="none" vectornator:layerName="tspan"/>
<path d="M214.642 134.442C214.642 133.546 213.918 132.822 213.022 132.822C212.125 132.822 211.402 133.546 211.402 134.442C211.402 135.339 212.125 136.062 213.022 136.062C213.918 136.062 214.642 135.339 214.642 134.442ZM214.21 134.442C214.21 135.101 213.681 135.63 213.022 135.63C212.363 135.63 211.834 135.101 211.834 134.442C211.834 133.783 212.363 133.254 213.022 133.254C213.681 133.254 214.21 133.783 214.21 134.442Z" fill="#000000" opacity="1" stroke="none" vectornator:layerName="tspan"/>
<g fill="#000000" opacity="1" stroke="none" vectornator:layerName="tspan">
<path d="M223.995 132.228L223.693 129.798L217.763 129.798L217.763 130.133L218.023 130.133C218.854 130.133 218.876 130.251 218.876 130.64L218.876 136.3C218.876 136.689 218.854 136.808 218.023 136.808L217.763 136.808L217.763 137.142C218.141 137.11 218.984 137.11 219.405 137.11C219.848 137.11 220.831 137.11 221.22 137.142L221.22 136.808L220.863 136.808C219.837 136.808 219.837 136.667 219.837 136.289L219.837 133.632L220.766 133.632C221.803 133.632 221.911 133.978 221.911 134.896L222.181 134.896L222.181 132.034L221.911 132.034C221.911 132.941 221.803 133.297 220.766 133.297L219.837 133.297L219.837 130.565C219.837 130.208 219.859 130.133 220.366 130.133L221.662 130.133C223.283 130.133 223.553 130.737 223.725 132.228L223.995 132.228Z"/>
<path d="M228.316 130.284C228.316 129.884 227.916 129.528 227.344 129.528C226.588 129.528 225.67 130.1 225.67 131.245L225.67 132.487L224.816 132.487L224.816 132.822L225.67 132.822L225.67 136.321C225.67 136.808 225.551 136.808 224.827 136.808L224.827 137.142L226.058 137.11C226.49 137.11 226.998 137.11 227.43 137.142L227.43 136.808L227.203 136.808C226.404 136.808 226.382 136.689 226.382 136.3L226.382 132.822L227.614 132.822L227.614 132.487L226.35 132.487L226.35 131.234C226.35 130.284 226.868 129.765 227.344 129.765C227.376 129.765 227.538 129.765 227.7 129.841C227.57 129.884 227.376 130.025 227.376 130.295C227.376 130.543 227.549 130.759 227.841 130.759C228.154 130.759 228.316 130.543 228.316 130.284Z"/>
</g>
</g>
</g>
</svg>
