<svg height="310" viewBox="0 0 413.4887225760508 310" width="413.4887225760508" xmlns="http://www.w3.org/2000/svg" version="1.1"><polygon points="25.31758213136368 288.8654494839171 397.6533632717392 288.8654494839171 397.6533632717392 40.64159539033341 25.31758213136368 40.64159539033341 " style="stroke: lightgrey; fill: white; stroke-width: 0; fill-opacity: 0; " /><polyline points="25.317582131363704 288.8654494839171 397.6533632717392 288.8654494839171 " style="stroke: black; fill: none; " /><polygon points="101.88858687889054 293.82992656578875 103.12970614935846 293.82992656578875 103.12970614935846 288.8654494839171 101.88858687889054 288.8654494839171 " style="" /><text x="102.50914651412451" style="text-anchor: middle; font-size: 8.687834893275436pt; " transform="rotate(-0.0, 102.50914651412451, 305.0)" y="305.0">-2</text><polygon points="192.7021920350797 293.82992656578875 193.94331130554764 293.82992656578875 193.94331130554764 288.8654494839171 192.7021920350797 288.8654494839171 " style="" /><text x="193.32275167031366" style="text-anchor: middle; font-size: 8.687834893275436pt; " transform="rotate(-0.0, 193.32275167031366, 305.0)" y="305.0">0</text><polygon points="283.5157971912688 293.82992656578875 284.75691646173675 293.82992656578875 284.75691646173675 288.8654494839171 283.5157971912688 288.8654494839171 " style="" /><text x="284.1363568265028" style="text-anchor: middle; font-size: 8.687834893275408pt; " transform="rotate(-0.0, 284.1363568265028, 305.0)" y="305.0">2</text><polygon points="374.329402347458 293.82992656578875 375.5705216179259 293.82992656578875 375.5705216179259 288.8654494839171 374.329402347458 288.8654494839171 " style="" /><text x="374.94996198269195" style="text-anchor: middle; font-size: 8.687834893275408pt; " transform="rotate(-0.0, 374.94996198269195, 305.0)" y="305.0">4</text><text x="25.317582131363704" style="text-anchor: middle; font-size: 12.411192704679188pt; " transform="rotate(-0.0, 25.317582131363704, 295.07104583625664)" y="295.07104583625664"></text><polyline points="25.317582131363704 288.8654494839171 25.317582131363718 40.64159539033341 " style="stroke: black; fill: none; " /><polygon points="25.317582131363707 238.02496619731048 25.317582131363707 236.78384692684256 20.35310504949203 236.78384692684256 20.35310504949203 238.02496619731048 " style="" /><text x="17.870866508556187" style="text-anchor: end; font-size: 8.68783489327543pt; " transform="rotate(-0.0, 17.870866508556187, 241.74832400871423)" y="241.74832400871423">-2</text><polygon points="25.317582131363714 177.48256275985108 25.317582131363714 176.24144348938316 20.353105049492036 176.24144348938316 20.353105049492036 177.48256275985108 " style="" /><text x="17.8708665085562" style="text-anchor: end; font-size: 8.68783489327543pt; " transform="rotate(-0.0, 17.8708665085562, 181.20592057125478)" y="181.20592057125478">0</text><polygon points="25.317582131363714 116.94015932239165 25.317582131363714 115.69904005192373 20.353105049492044 115.69904005192373 20.353105049492044 116.94015932239165 " style="" /><text x="17.870866508556205" style="text-anchor: end; font-size: 8.68783489327543pt; " transform="rotate(-0.0, 17.870866508556205, 120.66351713379538)" y="120.66351713379538">2</text><polygon points="25.317582131363714 56.397755884932224 25.317582131363714 55.156636614464304 20.353105049492044 55.156636614464304 20.353105049492044 56.397755884932224 " style="" /><text x="17.870866508556208" style="text-anchor: end; font-size: 8.687834893275431pt; " transform="rotate(-0.0, 17.870866508556208, 60.121113696335925)" y="60.121113696335925">4</text><text x="31.523178483703298" style="text-anchor: middle; font-size: 12.411192704679182pt; " transform="rotate(-90.0, 31.523178483703298, 288.8654494839171)" y="288.8654494839171"></text><text x="25.3175821313637" style="font-family: Helvetica; text-anchor: start; font-size: 16.134550516082935pt; " transform="rotate(-0.0, 25.3175821313637, 296.9327247419585)" y="296.9327247419585"></text><circle cy="198.24269158991544" style="stroke-opacity: 1; stroke: white; fill: steelblue; opacity: 0.9; " r="3.723357811403744" cx="249.8959871419974" /><circle cy="188.57761051904433" style="stroke-opacity: 1; stroke: white; fill: steelblue; opacity: 0.9; " r="3.723357811403744" cx="200.1118331837198" /><circle cy="178.9060801467516" style="stroke-opacity: 1; stroke: white; fill: steelblue; opacity: 0.9; " r="3.7233578114037584" cx="254.39043040222944" /><circle cy="166.2628605153902" style="stroke-opacity: 1; stroke: white; fill: steelblue; opacity: 0.9; " r="3.7233578114037584" cx="221.9651834096058" /><circle cy="241.57234494729613" style="stroke-opacity: 1; stroke: white; fill: steelblue; opacity: 0.9; " r="3.723357811403744" cx="190.66200123001016" /><circle cy="124.75897028873177" style="stroke-opacity: 1; stroke: white; fill: steelblue; opacity: 0.9; " r="3.723357811403744" cx="253.41609392671052" /><circle cy="203.67809257065198" style="stroke-opacity: 1; stroke: white; fill: steelblue; opacity: 0.9; " r="3.7233578114037584" cx="176.20288387285723" /><circle cy="193.0964809072586" style="stroke-opacity: 1; stroke: white; fill: steelblue; opacity: 0.9; " r="3.7233578114037584" cx="267.91962500141483" /><circle cy="261.6217770500008" style="stroke-opacity: 1; stroke: white; fill: steelblue; opacity: 0.9; " r="3.7233578114037584" cx="148.48460172749392" /><circle cy="137.78622980867092" style="stroke-opacity: 1; stroke: white; fill: steelblue; opacity: 0.9; " r="3.7233578114037584" cx="146.99744881688736" /><circle cy="183.93212225526312" style="stroke-opacity: 1; stroke: white; fill: steelblue; opacity: 0.9; " r="3.7233578114037584" cx="193.63686385272106" /><circle cy="191.21887967809107" style="stroke-opacity: 1; stroke: white; fill: steelblue; opacity: 0.9; " r="3.7233578114037584" cx="134.87432956273406" /><circle cy="192.78202971181108" style="stroke-opacity: 1; stroke: white; fill: steelblue; opacity: 0.9; " r="3.7233578114037584" cx="212.1095637379791" /><circle cy="190.31169171501435" style="stroke-opacity: 1; stroke: white; fill: steelblue; opacity: 0.9; " r="3.7233578114037584" cx="163.7272401663991" /><circle cy="212.9538734079507" style="stroke-opacity: 1; stroke: white; fill: steelblue; opacity: 0.9; " r="3.723357811403744" cx="232.4743697166199" /><circle cy="211.30373576068862" style="stroke-opacity: 1; stroke: white; fill: steelblue; opacity: 0.9; " r="3.7233578114037584" cx="164.01488325012892" /><circle cy="184.99733965592768" style="stroke-opacity: 1; stroke: white; fill: steelblue; opacity: 0.9; " r="3.7233578114037584" cx="220.78302502120988" /><circle cy="230.76179380332286" style="stroke-opacity: 1; stroke: white; fill: steelblue; opacity: 0.9; " r="3.7233578114037584" cx="157.853473775351" /><circle cy="190.26629594007403" style="stroke-opacity: 1; stroke: white; fill: steelblue; opacity: 0.9; " r="3.723357811403744" cx="178.16926733570125" /><circle cy="237.4312380416663" style="stroke-opacity: 1; stroke: white; fill: steelblue; opacity: 0.9; " r="3.7233578114037584" cx="67.49399048087677" /><circle cy="149.93482776697644" style="stroke-opacity: 1; stroke: white; fill: steelblue; opacity: 0.9; " r="3.7233578114037584" cx="227.2833926688691" /><circle cy="207.9515261531471" style="stroke-opacity: 1; stroke: white; fill: steelblue; opacity: 0.9; " r="3.7233578114037584" cx="169.99414989097139" /><circle cy="220.83433290724258" style="stroke-opacity: 1; stroke: white; fill: steelblue; opacity: 0.9; " r="3.7233578114037584" cx="159.96183104796336" /><circle cy="157.91090457188815" style="stroke-opacity: 1; stroke: white; fill: steelblue; opacity: 0.9; " r="3.723357811403744" cx="206.9582805561712" /><circle cy="228.76649128476552" style="stroke-opacity: 1; stroke: white; fill: steelblue; opacity: 0.9; " r="3.7233578114037584" cx="145.55297365357376" /><circle cy="165.8800969506916" style="stroke-opacity: 1; stroke: white; fill: steelblue; opacity: 0.9; " r="3.723357811403744" cx="249.84890330179178" /><circle cy="214.47448338320794" style="stroke-opacity: 1; stroke: white; fill: steelblue; opacity: 0.9; " r="3.723357811403744" cx="167.24128146994934" /><circle cy="181.96162308476275" style="stroke-opacity: 1; stroke: white; fill: steelblue; opacity: 0.9; " r="3.7233578114037584" cx="230.7032690060651" /><circle cy="197.8605126024665" style="stroke-opacity: 1; stroke: white; fill: steelblue; opacity: 0.9; " r="3.723357811403744" cx="165.21542129069525" /><circle cy="141.45709224578823" style="stroke-opacity: 1; stroke: white; fill: steelblue; opacity: 0.9; " r="3.7233578114037584" cx="164.21337768836474" /><circle cy="157.87171664766348" style="stroke-opacity: 1; stroke: white; fill: steelblue; opacity: 0.9; " r="3.723357811403744" cx="205.5443844333899" /><circle cy="117.045117736072" style="stroke-opacity: 1; stroke: white; fill: steelblue; opacity: 0.9; " r="3.7233578114037584" cx="192.69132587426571" /><circle cy="184.55275529029342" style="stroke-opacity: 1; stroke: white; fill: steelblue; opacity: 0.9; " r="3.7233578114037584" cx="151.5488489776112" /><circle cy="197.16044796835084" style="stroke-opacity: 1; stroke: white; fill: steelblue; opacity: 0.9; " r="3.7233578114037584" cx="185.26728090780443" /><circle cy="177.8078230624953" style="stroke-opacity: 1; stroke: white; fill: steelblue; opacity: 0.9; " r="3.723357811403744" cx="127.06927731143965" /><circle cy="147.8224244352527" style="stroke-opacity: 1; stroke: white; fill: steelblue; opacity: 0.9; " r="3.723357811403744" cx="199.53057394645862" /><circle cy="169.01196092748444" style="stroke-opacity: 1; stroke: white; fill: steelblue; opacity: 0.9; " r="3.7233578114037584" cx="164.5258283753813" /><circle cy="165.50185013369634" style="stroke-opacity: 1; stroke: white; fill: steelblue; opacity: 0.9; " r="3.7233578114037584" cx="276.3927723217711" /><circle cy="204.8049395467142" style="stroke-opacity: 1; stroke: white; fill: steelblue; opacity: 0.9; " r="3.7233578114037584" cx="162.39561789931443" /><circle cy="184.36716354187118" style="stroke-opacity: 1; stroke: white; fill: steelblue; opacity: 0.9; " r="3.7233578114037584" cx="214.39904754319195" /><circle cy="181.7147566120469" style="stroke-opacity: 1; stroke: white; fill: steelblue; opacity: 0.9; " r="3.7233578114037584" cx="195.11982476853197" /><circle cy="140.2558375098456" style="stroke-opacity: 1; stroke: white; fill: steelblue; opacity: 0.9; " r="3.7233578114037584" cx="188.12653139567877" /><circle cy="107.96962897986421" style="stroke-opacity: 1; stroke: white; fill: steelblue; opacity: 0.9; " r="3.7233578114037584" cx="200.64084227055332" /><circle cy="181.19168726772725" style="stroke-opacity: 1; stroke: white; fill: steelblue; opacity: 0.9; " r="3.7233578114037584" cx="229.73065446261916" /><circle cy="193.6510927782656" style="stroke-opacity: 1; stroke: white; fill: steelblue; opacity: 0.9; " r="3.723357811403744" cx="135.69900331344564" /><circle cy="183.7379542421072" style="stroke-opacity: 1; stroke: white; fill: steelblue; opacity: 0.9; " r="3.723357811403744" cx="147.7713905589236" /><circle cy="169.12712195463746" style="stroke-opacity: 1; stroke: white; fill: steelblue; opacity: 0.9; " r="3.7233578114037584" cx="188.0285517570465" /><circle cy="199.45848479189027" style="stroke-opacity: 1; stroke: white; fill: steelblue; opacity: 0.9; " r="3.7233578114037584" cx="233.44874013555435" /><circle cy="210.6435530423525" style="stroke-opacity: 1; stroke: white; fill: steelblue; opacity: 0.9; " r="3.7233578114037584" cx="242.00375233657894" /><circle cy="171.75683984489498" style="stroke-opacity: 1; stroke: white; fill: steelblue; opacity: 0.9; " r="3.7233578114037584" cx="168.2243088170774" /><circle cy="157.29634871673855" style="stroke-opacity: 1; stroke: white; fill: steelblue; opacity: 0.9; " r="3.7233578114037584" cx="198.42008588289704" /><circle cy="157.82405576666957" style="stroke-opacity: 1; stroke: white; fill: steelblue; opacity: 0.9; " r="3.7233578114037584" cx="203.65286003469356" /><circle cy="146.22704158127732" style="stroke-opacity: 1; stroke: white; fill: steelblue; opacity: 0.9; " r="3.7233578114037584" cx="272.05666794068793" /><circle cy="187.8520068673127" style="stroke-opacity: 1; stroke: white; fill: steelblue; opacity: 0.9; " r="3.7233578114037584" cx="169.50732527465053" /><circle cy="186.2784964060463" style="stroke-opacity: 1; stroke: white; fill: steelblue; opacity: 0.9; " r="3.7233578114037584" cx="149.7416173210593" /><circle cy="126.9356418262688" style="stroke-opacity: 1; stroke: white; fill: steelblue; opacity: 0.9; " r="3.7233578114037584" cx="223.56107451897086" /><circle cy="140.8430787938838" style="stroke-opacity: 1; stroke: white; fill: steelblue; opacity: 0.9; " r="3.7233578114037584" cx="226.5198197811697" /><circle cy="183.70483514091828" style="stroke-opacity: 1; stroke: white; fill: steelblue; opacity: 0.9; " r="3.723357811403744" cx="125.4511535196517" /><circle cy="125.9134828786554" style="stroke-opacity: 1; stroke: white; fill: steelblue; opacity: 0.9; " r="3.7233578114037584" cx="262.1342385523601" /><circle cy="151.6683293745061" style="stroke-opacity: 1; stroke: white; fill: steelblue; opacity: 0.9; " r="3.723357811403744" cx="186.4797706829807" /><circle cy="183.22442509552295" style="stroke-opacity: 1; stroke: white; fill: steelblue; opacity: 0.9; " r="3.7233578114037584" cx="205.43347032888335" /><circle cy="220.4408288681035" style="stroke-opacity: 1; stroke: white; fill: steelblue; opacity: 0.9; " r="3.7233578114037584" cx="175.10404594823254" /><circle cy="210.25851774771476" style="stroke-opacity: 1; stroke: white; fill: steelblue; opacity: 0.9; " r="3.723357811403744" cx="201.56019685745804" /><circle cy="184.86357137798205" style="stroke-opacity: 1; stroke: white; fill: steelblue; opacity: 0.9; " r="3.7233578114037513" cx="89.25538721505296" /><circle cy="260.7098468409777" style="stroke-opacity: 1; stroke: white; fill: steelblue; opacity: 0.9; " r="3.7233578114037584" cx="156.46773094549474" /><circle cy="191.42273507392605" style="stroke-opacity: 1; stroke: white; fill: steelblue; opacity: 0.9; " r="3.7233578114037584" cx="225.81066478253163" /><circle cy="210.7470769473614" style="stroke-opacity: 1; stroke: white; fill: steelblue; opacity: 0.9; " r="3.7233578114037584" cx="208.7124784182041" /><circle cy="247.79872065406997" style="stroke-opacity: 1; stroke: white; fill: steelblue; opacity: 0.9; " r="3.7233578114037584" cx="78.80702002204741" /><circle cy="151.8131776983727" style="stroke-opacity: 1; stroke: white; fill: steelblue; opacity: 0.9; " r="3.723357811403744" cx="230.679236496957" /><circle cy="210.6284338715805" style="stroke-opacity: 1; stroke: white; fill: steelblue; opacity: 0.9; " r="3.7233578114037584" cx="199.37592868871823" /><circle cy="173.6914241510344" style="stroke-opacity: 1; stroke: white; fill: steelblue; opacity: 0.9; " r="3.7233578114037584" cx="237.66584135372966" /><circle cy="178.14558019671736" style="stroke-opacity: 1; stroke: white; fill: steelblue; opacity: 0.9; " r="3.723357811403744" cx="235.90982801725687" /><circle cy="211.6384365599376" style="stroke-opacity: 1; stroke: white; fill: steelblue; opacity: 0.9; " r="3.7233578114037513" cx="121.63079868132854" /><circle cy="168.86269898978446" style="stroke-opacity: 1; stroke: white; fill: steelblue; opacity: 0.9; " r="3.7233578114037584" cx="232.70538696794895" /><circle cy="152.42035152984883" style="stroke-opacity: 1; stroke: white; fill: steelblue; opacity: 0.9; " r="3.7233578114037584" cx="221.45454901817698" /><circle cy="180.7630563369549" style="stroke-opacity: 1; stroke: white; fill: steelblue; opacity: 0.9; " r="3.723357811403744" cx="144.3716012641168" /><circle cy="227.85759699348583" style="stroke-opacity: 1; stroke: white; fill: steelblue; opacity: 0.9; " r="3.7233578114037584" cx="231.55562917252487" /><circle cy="239.93953846751464" style="stroke-opacity: 1; stroke: white; fill: steelblue; opacity: 0.9; " r="3.7233578114037513" cx="77.19229688267893" /><circle cy="198.88943343803604" style="stroke-opacity: 1; stroke: white; fill: steelblue; opacity: 0.9; " r="3.7233578114037584" cx="182.15317534163677" /><circle cy="197.1165751601061" style="stroke-opacity: 1; stroke: white; fill: steelblue; opacity: 0.9; " r="3.7233578114037584" cx="237.7781721444835" /><circle cy="158.50887828799875" style="stroke-opacity: 1; stroke: white; fill: steelblue; opacity: 0.9; " r="3.7233578114037584" cx="215.88389657815316" /><circle cy="169.14443687071056" style="stroke-opacity: 1; stroke: white; fill: steelblue; opacity: 0.9; " r="3.7233578114037584" cx="165.43792106207783" /><circle cy="184.28044166420767" style="stroke-opacity: 1; stroke: white; fill: steelblue; opacity: 0.9; " r="3.7233578114037584" cx="162.27603962952526" /><circle cy="148.74547882703018" style="stroke-opacity: 1; stroke: white; fill: steelblue; opacity: 0.9; " r="3.7233578114037584" cx="215.51310146330076" /><circle cy="86.05547654436674" style="stroke-opacity: 1; stroke: white; fill: steelblue; opacity: 0.9; " r="3.723357811403744" cx="245.19115727865778" /><circle cy="155.28492888695794" style="stroke-opacity: 1; stroke: white; fill: steelblue; opacity: 0.9; " r="3.7233578114037584" cx="297.14518084452186" /><circle cy="163.8596855318968" style="stroke-opacity: 1; stroke: white; fill: steelblue; opacity: 0.9; " r="3.7233578114037584" cx="121.57633280490965" /><circle cy="141.11784725244593" style="stroke-opacity: 1; stroke: white; fill: steelblue; opacity: 0.9; " r="3.7233578114037584" cx="281.71467239614776" /><circle cy="173.87855162517565" style="stroke-opacity: 1; stroke: white; fill: steelblue; opacity: 0.9; " r="3.723357811403744" cx="190.15760087242245" /><circle cy="216.69383123227692" style="stroke-opacity: 1; stroke: white; fill: steelblue; opacity: 0.9; " r="3.7233578114037584" cx="57.804198074463415" /><circle cy="103.27574824022716" style="stroke-opacity: 1; stroke: white; fill: steelblue; opacity: 0.9; " r="3.7233578114037584" cx="236.10252233910126" /><circle cy="179.0730013554383" style="stroke-opacity: 1; stroke: white; fill: steelblue; opacity: 0.9; " r="3.7233578114037584" cx="267.4050067966791" /><circle cy="180.01535948038992" style="stroke-opacity: 1; stroke: white; fill: steelblue; opacity: 0.9; " r="3.7233578114037584" cx="242.1171498828624" /><circle cy="162.32252473703116" style="stroke-opacity: 1; stroke: white; fill: steelblue; opacity: 0.9; " r="3.7233578114037584" cx="146.84199668927226" /><circle cy="178.0075949422349" style="stroke-opacity: 1; stroke: white; fill: steelblue; opacity: 0.9; " r="3.7233578114037584" cx="168.27441514688712" /><circle cy="161.2127006856307" style="stroke-opacity: 1; stroke: white; fill: steelblue; opacity: 0.9; " r="3.7233578114037584" cx="234.74717900031968" /><circle cy="152.3339281077301" style="stroke-opacity: 1; stroke: white; fill: steelblue; opacity: 0.9; " r="3.7233578114037584" cx="229.8431431889553" /><circle cy="226.23098156049542" style="stroke-opacity: 1; stroke: white; fill: steelblue; opacity: 0.9; " r="3.7233578114037513" cx="112.36010998943081" /><circle cy="146.56284081837438" style="stroke-opacity: 1; stroke: white; fill: steelblue; opacity: 0.9; " r="3.7233578114037584" cx="227.29828669248488" /><circle cy="188.11350593390338" style="stroke-opacity: 1; stroke: white; fill: steelblue; opacity: 0.9; " r="3.723357811403744" cx="127.9560797786334" /><polygon points="272.10179901649394 51.1634007960879 341.3469002106258 151.8761343442254 408.4887225760508 105.71273354813749 339.24362138191896 5.0 " style="stroke: lightgrey; fill: white; stroke-width: 0; fill-opacity: 0; " /><polyline points="272.101799016494 51.1634007960879 341.3469002106258 151.8761343442254 " style="stroke: black; fill: none; " /><polygon points="270.6435540671953 51.91881425609603 270.8743710711757 52.254523367923184 272.2172075184843 51.33125535200156 271.9863905145039 50.995546240174406 " style="" /><text x="270.92681712509903" style="text-anchor: middle; font-size: 2.8518200780243568pt; " transform="rotate(55.48950807907917, 270.92681712509903, 51.97126031001949)" y="51.97126031001949"></text><polygon points="287.9548293657282 77.09699764313041 288.18564636970865 77.43270675495756 289.5284828170171 76.50943873903586 289.29766581303664 76.1737296272087 " style="" /><text x="288.238092423632" style="text-anchor: middle; font-size: 2.851820078024436pt; " transform="rotate(55.48950807907888, 288.238092423632, 77.14944369705378)" y="77.14944369705378"></text><polygon points="305.26610466426115 102.27518103016482 305.49692166824155 102.61089014199197 306.8397581155502 101.68762212607035 306.6089411115698 101.3519130142432 " style="" /><text x="305.5493677221649" style="text-anchor: middle; font-size: 2.8518200780243657pt; " transform="rotate(55.489508079077915, 305.5493677221649, 102.32762708408819)" y="102.32762708408819"></text><polygon points="322.57737996279417 127.45336441719928 322.8081969667746 127.78907352902638 324.1510334140831 126.86580551310468 323.9202164101027 126.53009640127758 " style="" /><text x="322.86064302069786" style="text-anchor: middle; font-size: 2.8518200780243803pt; " transform="rotate(55.4895080790795, 322.86064302069786, 127.50581047112252)" y="127.50581047112252"></text><polygon points="339.88865526132696 152.63154780423363 340.11947226530737 152.96725691606076 341.462308712616 152.04398890013906 341.2314917086356 151.70827978831193 " style="" /><text x="340.1719183192308" style="text-anchor: middle; font-size: 2.8518200780243657pt; " transform="rotate(55.489508079077915, 340.1719183192308, 152.68399385815695)" y="152.68399385815695"></text><text x="270.4232534573583" style="text-anchor: middle; font-size: 4.074028682891934pt; " transform="rotate(55.48950807907885, 270.4232534573583, 52.317485815990096)" y="52.317485815990096"></text><text x="270.92681712509903" style="text-anchor: end; font-size: 2.8518200780243568pt; " transform="rotate(55.48950807907917, 270.92681712509903, 51.97126031001949)" y="51.97126031001949"></text><text x="284.355181598184" style="text-anchor: end; font-size: 2.8518200780244034pt; " transform="rotate(55.489508079079826, 284.355181598184, 42.73858015080185)" y="42.73858015080185"></text><text x="297.78354607126903" style="text-anchor: end; font-size: 2.8518200780244034pt; " transform="rotate(55.489508079079826, 297.78354607126903, 33.50589999158427)" y="33.50589999158427"></text><text x="311.21191054435405" style="text-anchor: end; font-size: 2.851820078024436pt; " transform="rotate(55.48950807907888, 311.21191054435405, 24.273219832366692)" y="24.273219832366692"></text><text x="324.64027501743897" style="text-anchor: end; font-size: 2.851820078024325pt; " transform="rotate(55.48950807908012, 324.64027501743897, 15.04053967314917)" y="15.04053967314917"></text><text x="338.068639490524" style="text-anchor: end; font-size: 2.851820078024436pt; " transform="rotate(55.48950807907888, 338.068639490524, 5.807859513931589)" y="5.807859513931589"></text><text x="273.2558840363962" style="text-anchor: middle; font-size: 4.0740286828919805pt; " transform="rotate(-34.51049192092069, 273.2558840363962, 52.84194635522351)" y="52.84194635522351"></text><text x="269.9196897896177" style="font-family: Helvetica; text-anchor: start; font-size: 5.296237287759535pt; " transform="rotate(55.48950807907886, 269.9196897896177, 52.66371132196076)" y="52.66371132196076"></text><polygon points="332.90765350259096 139.60176994304612 341.1305092693941 151.56140705188744 349.1875279532451 146.02179895635692 340.96467218644193 134.0621618475156 " style="fill: steelblue; fill-opacity: 0.9; " /><text x="346.418936517152" style="font-family: monospace; text-anchor: middle; font-size: 8.148057365783915pt; fill: steelblue; fill-opacity: 0.9; " transform="rotate(55.48950807907908, 346.418936517152, 139.1187123860145)" y="139.1187123860145">3</text><polygon points="324.25201585332445 127.01267824952893 332.4748716201276 138.97231535837025 353.9602547770636 124.20002710362215 345.73739901026045 112.24038999478083 " style="fill: steelblue; fill-opacity: 0.9; " /><text x="351.19166334097054" style="font-family: monospace; text-anchor: middle; font-size: 8.148057365783915pt; fill: steelblue; fill-opacity: 0.9; " transform="rotate(55.48950807907908, 351.19166334097054, 117.29694053327975)" y="117.29694053327975">8</text><polygon points="315.59637820405794 114.42358655601177 323.81923397086115 126.38322366485312 366.7900002847331 96.83864715535677 358.5671445179299 84.87901004651542 " style="fill: steelblue; fill-opacity: 0.9; " /><text x="364.0214088486401" style="font-family: monospace; text-anchor: middle; font-size: 8.148057365783915pt; fill: steelblue; fill-opacity: 0.9; " transform="rotate(55.48950807907908, 364.0214088486401, 89.93556058501446)" y="89.93556058501446">16</text><polygon points="306.94074055479155 101.83449486249458 315.1635963215947 113.7941319713359 382.3054186870197 67.630731175248 374.08256292021656 55.67109406640668 " style="fill: steelblue; fill-opacity: 0.9; " /><text x="379.5368272509266" style="font-family: monospace; text-anchor: middle; font-size: 8.148057365783915pt; fill: steelblue; fill-opacity: 0.9; " transform="rotate(55.48950807907908, 379.5368272509266, 60.727644604905635)" y="60.727644604905635">25</text><polygon points="298.2851029055251 89.24540316897739 306.50795867232824 101.20504027781871 357.5357436700512 66.12085567279195 349.31288790324805 54.16121856395063 " style="fill: steelblue; fill-opacity: 0.9; " /><text x="354.7671522339581" style="font-family: monospace; text-anchor: middle; font-size: 8.148057365783915pt; fill: steelblue; fill-opacity: 0.9; " transform="rotate(55.48950807907908, 354.7671522339581, 59.21776910244952)" y="59.21776910244952">19</text><polygon points="289.6294652562586 76.65631147546017 297.85232102306173 88.61594858430152 343.50876023155075 57.22483604296181 335.2859044647476 45.26519893412046 " style="fill: steelblue; fill-opacity: 0.9; " /><text x="340.7401687954577" style="font-family: monospace; text-anchor: middle; font-size: 8.148057365783915pt; fill: steelblue; fill-opacity: 0.9; " transform="rotate(55.48950807907908, 340.7401687954577, 50.32174947261933)" y="50.32174947261933">17</text><polygon points="280.97382760699213 64.06721978194301 289.1966833737953 76.02685689078436 318.73908521458225 55.71496054050576 310.5162294477791 43.75532343166441 " style="fill: steelblue; fill-opacity: 0.9; " /><text x="315.9704937784892" style="font-family: monospace; text-anchor: middle; font-size: 8.148057365783915pt; fill: steelblue; fill-opacity: 0.9; " transform="rotate(55.48950807907908, 315.9704937784892, 48.81187397016322)" y="48.81187397016322">11</text><polygon points="272.3181899577256 51.47812808842582 280.54104572452883 63.43776519726714 283.22671861914574 61.59122916542367 275.00386285234254 49.63159205658235 " style="fill: steelblue; fill-opacity: 0.9; " /><text x="280.4581271830527" style="font-family: monospace; text-anchor: middle; font-size: 8.148057365783892pt; fill: steelblue; fill-opacity: 0.9; " transform="rotate(55.489508079078966, 280.4581271830527, 54.68814259508122)" y="54.68814259508122">1</text><polyline points="34.398942646982626 289.0044704719229 374.94996198269195 54.85841003960701 " style="stroke: grey; fill: none; stroke-width: 2; stroke-dasharray: 5; " /></svg>