<svg height="410" width="2113.06461352657" xmlns="http://www.w3.org/2000/svg" version="1.1"><text x="11.25" style="font-family: Helvetica; text-anchor: start; font-size: 37.5pt; font-weight: bold; " transform="rotate(-0.0, 11.25, 42.5)" y="42.5">Topic</text><text x="261.25" style="font-family: Helvetica; text-anchor: start; font-size: 37.5pt; font-weight: bold; " transform="rotate(-0.0, 261.25, 42.5)" y="42.5">Value</text><text x="511.25" style="font-family: Helvetica; text-anchor: start; font-size: 37.5pt; font-weight: bold; " transform="rotate(-0.0, 511.25, 42.5)" y="42.5">Country</text><polyline points="5.0 76.875 767.5 76.875 " style="stroke: black; fill: none; " /><text x="11.25" style="font-family: Helvetica; text-anchor: start; font-size: 37.5pt; font-weight: nothing; " transform="rotate(-0.0, 11.25, 142.5)" y="142.5">JE</text><text x="261.25" style="font-family: Helvetica; text-anchor: start; font-size: 37.5pt; font-weight: nothing; " transform="rotate(-0.0, 261.25, 142.5)" y="142.5">0.42</text><text x="511.25" style="font-family: Helvetica; text-anchor: start; font-size: 37.5pt; font-weight: nothing; " transform="rotate(-0.0, 511.25, 142.5)" y="142.5">Australia</text><text x="11.25" style="font-family: Helvetica; text-anchor: start; font-size: 37.5pt; font-weight: nothing; " transform="rotate(-0.0, 11.25, 208.125)" y="208.125">CG</text><text x="261.25" style="font-family: Helvetica; text-anchor: start; font-size: 37.5pt; font-weight: nothing; " transform="rotate(-0.0, 261.25, 208.125)" y="208.125">0.88</text><text x="511.25" style="font-family: Helvetica; text-anchor: start; font-size: 37.5pt; font-weight: nothing; " transform="rotate(-0.0, 511.25, 208.125)" y="208.125">Australia</text><text x="11.25" style="font-family: Helvetica; text-anchor: start; font-size: 37.5pt; font-weight: nothing; " transform="rotate(-0.0, 11.25, 273.75)" y="273.75">⋅⋅⋅</text><text x="261.25" style="font-family: Helvetica; text-anchor: start; font-size: 37.5pt; font-weight: nothing; " transform="rotate(-0.0, 261.25, 273.75)" y="273.75">⋅⋅⋅</text><text x="511.25" style="font-family: Helvetica; text-anchor: start; font-size: 37.5pt; font-weight: nothing; " transform="rotate(-0.0, 511.25, 273.75)" y="273.75">⋅⋅⋅</text><text x="11.25" style="font-family: Helvetica; text-anchor: start; font-size: 37.5pt; font-weight: nothing; " transform="rotate(-0.0, 11.25, 339.375)" y="339.375">SW</text><text x="261.25" style="font-family: Helvetica; text-anchor: start; font-size: 37.5pt; font-weight: nothing; " transform="rotate(-0.0, 261.25, 339.375)" y="339.375">0.53</text><text x="511.25" style="font-family: Helvetica; text-anchor: start; font-size: 37.5pt; font-weight: nothing; " transform="rotate(-0.0, 511.25, 339.375)" y="339.375">Costa Rica</text><text x="11.25" style="font-family: Helvetica; text-anchor: start; font-size: 37.5pt; font-weight: nothing; " transform="rotate(-0.0, 11.25, 405.0)" y="405.0">WL</text><text x="261.25" style="font-family: Helvetica; text-anchor: start; font-size: 37.5pt; font-weight: nothing; " transform="rotate(-0.0, 261.25, 405.0)" y="405.0">0.63</text><text x="511.25" style="font-family: Helvetica; text-anchor: start; font-size: 37.5pt; font-weight: nothing; " transform="rotate(-0.0, 511.25, 405.0)" y="405.0">Costa Rica</text><polyline points="892.4396135265702 242.5 1204.9396135265702 242.5 " style="stroke: black; fill: none; " /><polygon points="1251.8146135265702 242.5 1204.9396135265706 215.43670613173649 1204.9396135265704 269.5632938682635 " style="" /><text x="1048.6896135265702" style="font-family: monospace; text-anchor: middle; font-size: 31.25pt; " transform="rotate(-0.0, 1048.6896135265702, 226.875)" y="226.875">encoding</text><text x="892.4396135265702" style="font-family: monospace; text-anchor: start; font-size: 25.0pt; fill: grey; " transform="rotate(-0.0, 892.4396135265702, 286.25)" y="286.25">Topic &#61;&#62; color</text><text x="892.4396135265702" style="font-family: monospace; text-anchor: start; font-size: 25.0pt; fill: grey; " transform="rotate(-0.0, 892.4396135265702, 333.125)" y="333.125">Value &#61;&#62; y</text><text x="892.4396135265702" style="font-family: monospace; text-anchor: start; font-size: 25.0pt; fill: grey; " transform="rotate(-0.0, 892.4396135265702, 380.0)" y="380.0">Country &#61;&#62; x</text><text x="1351.8146135265702" style="font-family: Helvetica; text-anchor: start; font-size: 37.5pt; font-weight: bold; " transform="rotate(-0.0, 1351.8146135265702, 42.5)" y="42.5">x</text><text x="1601.8146135265702" style="font-family: Helvetica; text-anchor: start; font-size: 37.5pt; font-weight: bold; " transform="rotate(-0.0, 1601.8146135265702, 42.5)" y="42.5">y</text><text x="1851.8146135265702" style="font-family: Helvetica; text-anchor: start; font-size: 37.5pt; font-weight: bold; " transform="rotate(-0.0, 1851.8146135265702, 42.5)" y="42.5">color</text><polyline points="1345.5646135265702 76.875 2108.06461352657 76.875 " style="stroke: black; fill: none; " /><text x="1351.8146135265702" style="font-family: Helvetica; text-anchor: start; font-size: 37.5pt; font-weight: nothing; " transform="rotate(-0.0, 1351.8146135265702, 142.5)" y="142.5">22.73</text><text x="1601.8146135265702" style="font-family: Helvetica; text-anchor: start; font-size: 37.5pt; font-weight: nothing; " transform="rotate(-0.0, 1601.8146135265702, 142.5)" y="142.5">84.0</text><text x="1851.8146135265702" style="font-family: Helvetica; text-anchor: start; font-size: 37.5pt; font-weight: nothing; " transform="rotate(-0.0, 1851.8146135265702, 142.5)" y="142.5">#E69537</text><text x="1351.8146135265702" style="font-family: Helvetica; text-anchor: start; font-size: 37.5pt; font-weight: nothing; " transform="rotate(-0.0, 1351.8146135265702, 208.125)" y="208.125">22.73</text><text x="1601.8146135265702" style="font-family: Helvetica; text-anchor: start; font-size: 37.5pt; font-weight: nothing; " transform="rotate(-0.0, 1601.8146135265702, 208.125)" y="208.125">176.0</text><text x="1851.8146135265702" style="font-family: Helvetica; text-anchor: start; font-size: 37.5pt; font-weight: nothing; " transform="rotate(-0.0, 1851.8146135265702, 208.125)" y="208.125">#6EB38A</text><text x="1351.8146135265702" style="font-family: Helvetica; text-anchor: start; font-size: 37.5pt; font-weight: nothing; " transform="rotate(-0.0, 1351.8146135265702, 273.75)" y="273.75">⋅⋅⋅</text><text x="1601.8146135265702" style="font-family: Helvetica; text-anchor: start; font-size: 37.5pt; font-weight: nothing; " transform="rotate(-0.0, 1601.8146135265702, 273.75)" y="273.75">⋅⋅⋅</text><text x="1851.8146135265702" style="font-family: Helvetica; text-anchor: start; font-size: 37.5pt; font-weight: nothing; " transform="rotate(-0.0, 1851.8146135265702, 273.75)" y="273.75">⋅⋅⋅</text><text x="1351.8146135265702" style="font-family: Helvetica; text-anchor: start; font-size: 37.5pt; font-weight: nothing; " transform="rotate(-0.0, 1351.8146135265702, 339.375)" y="339.375">185.7</text><text x="1601.8146135265702" style="font-family: Helvetica; text-anchor: start; font-size: 37.5pt; font-weight: nothing; " transform="rotate(-0.0, 1601.8146135265702, 339.375)" y="339.375">106.0</text><text x="1851.8146135265702" style="font-family: Helvetica; text-anchor: start; font-size: 37.5pt; font-weight: nothing; " transform="rotate(-0.0, 1851.8146135265702, 339.375)" y="339.375">#447CCD</text><text x="1351.8146135265702" style="font-family: Helvetica; text-anchor: start; font-size: 37.5pt; font-weight: nothing; " transform="rotate(-0.0, 1351.8146135265702, 405.0)" y="405.0">185.7</text><text x="1601.8146135265702" style="font-family: Helvetica; text-anchor: start; font-size: 37.5pt; font-weight: nothing; " transform="rotate(-0.0, 1601.8146135265702, 405.0)" y="405.0">126.0</text><text x="1851.8146135265702" style="font-family: Helvetica; text-anchor: start; font-size: 37.5pt; font-weight: nothing; " transform="rotate(-0.0, 1851.8146135265702, 405.0)" y="405.0">#4039C4</text></svg>