<svg height="310" viewBox="0 0 1095.2222222222222 310" width="1095.2222222222222" xmlns="http://www.w3.org/2000/svg" version="1.1"><text x="27.222222222222214" style="text-anchor: middle; font-size: 60.0pt; " transform="rotate(-0.0, 27.222222222222214, 65.0)" y="65.0">&#91;</text><polygon points="48.22222222222223 14.0 48.22222222222223 74.0 108.22222222222223 74.0 108.22222222222223 14.0 " style="fill: blue; " /><text x="130.44444444444443" style="text-anchor: middle; font-size: 60.0pt; " transform="rotate(-0.0, 130.44444444444443, 74.0)" y="74.0">,</text><circle cy="44.0" style="fill: red; " r="30.0" cx="182.66666666666663" /><text x="234.88888888888886" style="text-anchor: middle; font-size: 60.0pt; " transform="rotate(-0.0, 234.88888888888886, 65.0)" y="65.0">&#93;</text><polyline points="135.22222222222223 104.0 135.22222222222223 152.0 " style="stroke: black; fill: none; " /><polygon points="135.22222222222223 161.0 140.41837464492886 152.0 130.0260697995156 152.0 " style="" /><polygon points="75.22222222222223 185.0 75.22222222222223 305.0 195.22222222222223 305.0 195.22222222222223 185.0 " style="fill: blue; " /><circle cy="245.0" style="fill: red; " r="60.00000000000001" cx="135.22222222222223" /><text x="279.3333333333333" style="font-family: Courier New; text-anchor: middle; font-size: 60.0pt; " transform="rotate(-0.0, 279.3333333333333, 65.0)" y="65.0">&#43;</text><text x="323.77777777777777" style="text-anchor: middle; font-size: 60.0pt; " transform="rotate(-0.0, 323.77777777777777, 65.0)" y="65.0">&#91;</text><polygon points="344.77777777777777 74.0 374.77777777777777 14.0 404.77777777777777 74.0 " style="fill: green; " /><text x="427.0" style="text-anchor: middle; font-size: 60.0pt; " transform="rotate(-0.0, 427.0, 65.0)" y="65.0">&#93;</text><polyline points="377.7777777777777 104.0 377.7777777777777 152.0 " style="stroke: black; fill: none; " /><polygon points="377.7777777777777 161.0 382.97393020048446 152.00000000000006 372.5816253550712 151.99999999999994 " style="" /><polygon points="317.7777777777777 305.0 377.7777777777777 185.0 437.7777777777777 305.0 " style="fill: green; " /><text x="591.4444444444443" style="font-family: Courier New; text-anchor: middle; font-size: 59.999999999999886pt; " transform="rotate(-0.0, 591.4444444444443, 65.0)" y="65.0">&#61;</text><text x="755.8888888888888" style="text-anchor: middle; font-size: 60.0pt; " transform="rotate(-0.0, 755.8888888888888, 65.0)" y="65.0">&#91;</text><polygon points="776.8888888888888 14.0 776.8888888888888 74.0 836.8888888888888 74.0 836.8888888888888 14.0 " style="fill: blue; " /><text x="859.111111111111" style="text-anchor: middle; font-size: 60.0pt; " transform="rotate(-0.0, 859.111111111111, 74.0)" y="74.0">,</text><circle cy="44.0" style="fill: red; " r="30.0" cx="911.3333333333333" /><text x="963.5555555555554" style="text-anchor: middle; font-size: 60.0pt; " transform="rotate(-0.0, 963.5555555555554, 74.0)" y="74.0">,</text><polygon points="985.7777777777776 74.0 1015.7777777777776 14.0 1045.7777777777776 74.0 " style="fill: green; " /><text x="1068.0" style="text-anchor: middle; font-size: 60.0pt; " transform="rotate(-0.0, 1068.0, 65.0)" y="65.0">&#93;</text><polyline points="911.8888888888888 104.0 911.8888888888888 152.0 " style="stroke: black; fill: none; " /><polygon points="911.8888888888888 161.0 917.0850413115958 152.0000000000002 906.6927364661825 151.9999999999998 " style="" /><polygon points="851.8888888888888 185.0 851.8888888888888 305.0 971.8888888888888 305.0 971.8888888888888 185.0 " style="fill: blue; " /><circle cy="245.0" style="fill: red; " r="60.0" cx="911.8888888888888" /><polygon points="851.8888888888888 305.0 911.8888888888888 185.0 971.8888888888888 305.0 " style="fill: green; " /></svg>