<?xml version="1.0" encoding="UTF-8"?>
<svg xmlns="http://www.w3.org/2000/svg" xmlns:xlink="http://www.w3.org/1999/xlink" width="619.046753" height="197.542999" viewBox="0 0 619.046753 197.542999">
<path fill-rule="nonzero" fill="rgb(0%, 0%, 0%)" fill-opacity="1" d="M 14.726562 81.785156 C 14.726562 81.730469 14.691406 81.675781 14.652344 81.640625 C 12.78125 80.234375 11.539062 76.636719 11.539062 73.757812 L 11.539062 72.242188 C 11.539062 69.363281 12.78125 65.765625 14.652344 64.359375 C 14.691406 64.324219 14.726562 64.269531 14.726562 64.214844 C 14.726562 64.125 14.636719 64.035156 14.546875 64.035156 C 14.511719 64.035156 14.472656 64.054688 14.4375 64.070312 C 12.457031 65.566406 10.566406 69.164062 10.566406 72.242188 L 10.566406 73.757812 C 10.566406 76.835938 12.457031 80.433594 14.4375 81.929688 C 14.472656 81.945312 14.511719 81.964844 14.546875 81.964844 C 14.636719 81.964844 14.726562 81.875 14.726562 81.785156 Z M 8.75 62.992188 "/>
<path fill-rule="nonzero" fill="rgb(0%, 0%, 0%)" fill-opacity="1" d="M 28.210938 77.175781 C 28.210938 76.941406 28.066406 76.941406 27.777344 76.941406 C 26.84375 76.941406 26.789062 76.796875 26.75 76.328125 L 25.976562 65.0625 C 25.960938 64.664062 25.941406 64.613281 25.652344 64.613281 C 25.367188 64.613281 25.292969 64.738281 25.1875 64.9375 L 19.210938 75.464844 C 18.4375 76.835938 17.660156 76.90625 17.03125 76.941406 C 16.832031 76.960938 16.816406 77.285156 16.816406 77.285156 C 16.816406 77.339844 16.832031 77.5 17.03125 77.5 C 17.480469 77.5 18.003906 77.445312 18.472656 77.445312 C 19.03125 77.445312 19.605469 77.5 20.144531 77.5 C 20.234375 77.5 20.46875 77.5 20.46875 77.15625 C 20.46875 76.960938 20.324219 76.960938 20.183594 76.941406 C 20.074219 76.925781 19.425781 76.886719 19.425781 76.328125 C 19.425781 76.167969 19.515625 75.953125 19.679688 75.644531 L 20.972656 73.378906 L 25.078125 73.378906 L 25.277344 76.367188 C 25.277344 76.726562 24.84375 76.941406 24.070312 76.941406 C 23.871094 76.941406 23.65625 76.941406 23.65625 77.285156 C 23.65625 77.5 23.871094 77.5 23.925781 77.5 C 24.59375 77.5 25.3125 77.445312 25.996094 77.445312 C 26.625 77.445312 27.273438 77.5 27.886719 77.5 C 27.992188 77.5 28.210938 77.5 28.210938 77.175781 Z M 25.042969 72.820312 L 21.28125 72.820312 L 24.628906 66.933594 Z M 15.753906 57.25 "/>
<path fill-rule="nonzero" fill="rgb(0%, 0%, 0%)" fill-opacity="1" d="M 32.78125 77.480469 C 32.78125 76.292969 32.332031 75.59375 31.632812 75.59375 C 31.035156 75.59375 30.675781 76.042969 30.675781 76.546875 C 30.675781 77.03125 31.035156 77.5 31.632812 77.5 C 31.847656 77.5 32.082031 77.429688 32.261719 77.265625 C 32.316406 77.230469 32.351562 77.210938 32.351562 77.210938 C 32.351562 77.210938 32.386719 77.230469 32.386719 77.480469 C 32.386719 78.8125 31.757812 79.894531 31.164062 80.488281 C 30.964844 80.6875 30.964844 80.722656 30.964844 80.777344 C 30.964844 80.902344 31.054688 80.972656 31.144531 80.972656 C 31.34375 80.972656 32.78125 79.589844 32.78125 77.480469 Z M 29.128906 62.992188 "/>
<path fill-rule="nonzero" fill="rgb(0%, 0%, 0%)" fill-opacity="1" d="M 48.269531 65.996094 C 48.269531 65.222656 47.53125 64.808594 46.792969 64.808594 C 45.027344 64.808594 44.578125 67.148438 44.453125 67.761719 L 44.074219 69.742188 L 42.886719 69.742188 C 42.597656 69.742188 42.402344 69.742188 42.402344 70.101562 C 42.402344 70.300781 42.582031 70.300781 42.851562 70.300781 L 43.96875 70.300781 L 42.652344 77.015625 C 42.4375 78.128906 42.257812 78.867188 42.148438 79.246094 C 42.003906 79.859375 41.769531 80.792969 41.121094 80.792969 C 40.941406 80.792969 40.601562 80.738281 40.402344 80.46875 C 40.941406 80.378906 41.195312 79.949219 41.195312 79.589844 C 41.195312 79.191406 40.871094 79.011719 40.582031 79.011719 C 40.132812 79.011719 39.683594 79.371094 39.683594 80.003906 C 39.683594 80.8125 40.457031 81.191406 41.121094 81.191406 C 42.996094 81.191406 43.734375 77.410156 43.859375 76.761719 L 45.117188 70.300781 L 46.59375 70.300781 C 46.902344 70.300781 47.082031 70.300781 47.082031 69.976562 C 47.082031 69.742188 46.9375 69.742188 46.628906 69.742188 L 45.226562 69.742188 L 45.804688 66.824219 C 45.945312 66.160156 46.144531 65.207031 46.792969 65.207031 C 46.9375 65.207031 47.316406 65.242188 47.546875 65.53125 C 47.007812 65.621094 46.757812 66.050781 46.757812 66.410156 C 46.757812 66.808594 47.082031 66.988281 47.367188 66.988281 C 47.820312 66.988281 48.269531 66.628906 48.269531 65.996094 Z M 40.132812 57.25 "/>
<path fill-rule="nonzero" fill="rgb(0%, 0%, 0%)" fill-opacity="1" d="M 56.839844 73.757812 L 56.839844 72.242188 C 56.839844 69.164062 54.949219 65.566406 52.96875 64.070312 C 52.933594 64.054688 52.898438 64.035156 52.863281 64.035156 C 52.773438 64.035156 52.683594 64.125 52.683594 64.214844 C 52.683594 64.269531 52.71875 64.324219 52.753906 64.359375 C 54.625 65.765625 55.867188 69.363281 55.867188 72.242188 L 55.867188 73.757812 C 55.867188 76.636719 54.625 80.234375 52.753906 81.640625 C 52.71875 81.675781 52.683594 81.730469 52.683594 81.785156 C 52.683594 81.875 52.773438 81.964844 52.863281 81.964844 C 52.898438 81.964844 52.933594 81.945312 52.96875 81.929688 C 54.949219 80.433594 56.839844 76.835938 56.839844 73.757812 Z M 51.65625 62.992188 "/>
<path fill-rule="nonzero" fill="rgb(0%, 0%, 0%)" fill-opacity="1" d="M 229.703125 81.785156 C 229.703125 81.730469 229.667969 81.675781 229.628906 81.640625 C 227.757812 80.234375 226.515625 76.636719 226.515625 73.757812 L 226.515625 72.242188 C 226.515625 69.363281 227.757812 65.765625 229.628906 64.359375 C 229.667969 64.324219 229.703125 64.269531 229.703125 64.214844 C 229.703125 64.125 229.613281 64.035156 229.523438 64.035156 C 229.488281 64.035156 229.449219 64.054688 229.414062 64.070312 C 227.433594 65.566406 225.542969 69.164062 225.542969 72.242188 L 225.542969 73.757812 C 225.542969 76.835938 227.433594 80.433594 229.414062 81.929688 C 229.449219 81.945312 229.488281 81.964844 229.523438 81.964844 C 229.613281 81.964844 229.703125 81.875 229.703125 81.785156 Z M 223.726562 62.992188 "/>
<path fill-rule="nonzero" fill="rgb(0%, 0%, 0%)" fill-opacity="1" d="M 242.914062 73.558594 C 242.914062 72.0625 241.707031 71.234375 240.410156 71.074219 C 242.605469 70.589844 243.9375 69.039062 243.9375 67.652344 C 243.9375 66.359375 242.875 65.207031 240.914062 65.207031 L 235.316406 65.207031 C 235.027344 65.207031 234.832031 65.207031 234.832031 65.546875 C 234.832031 65.765625 234.972656 65.765625 235.316406 65.765625 C 235.875 65.765625 236.359375 65.765625 236.359375 66.070312 C 236.359375 66.125 236.359375 66.160156 236.289062 66.410156 L 233.859375 76.1875 C 233.714844 76.796875 233.605469 76.941406 232.382812 76.941406 C 232.09375 76.941406 231.898438 76.941406 231.898438 77.285156 C 231.898438 77.5 232.058594 77.5 232.347656 77.5 L 238.285156 77.5 C 240.84375 77.5 242.914062 75.429688 242.914062 73.558594 Z M 242.355469 67.546875 C 242.355469 69.074219 240.96875 70.910156 238.917969 70.910156 L 236.539062 70.910156 L 237.65625 66.410156 C 237.820312 65.765625 237.945312 65.765625 238.539062 65.765625 L 240.664062 65.765625 C 242.175781 65.765625 242.355469 66.988281 242.355469 67.546875 Z M 241.3125 73.324219 C 241.3125 75.070312 239.871094 76.941406 237.890625 76.941406 L 235.660156 76.941406 C 235.101562 76.941406 235.101562 76.886719 235.101562 76.761719 C 235.101562 76.652344 235.15625 76.472656 235.171875 76.367188 L 236.433594 71.308594 L 239.527344 71.308594 C 241.203125 71.308594 241.3125 72.855469 241.3125 73.324219 Z M 230.726562 57.25 "/>
<path fill-rule="nonzero" fill="rgb(0%, 0%, 0%)" fill-opacity="1" d="M 247.050781 77.480469 C 247.050781 76.292969 246.601562 75.59375 245.902344 75.59375 C 245.304688 75.59375 244.945312 76.042969 244.945312 76.546875 C 244.945312 77.03125 245.304688 77.5 245.902344 77.5 C 246.117188 77.5 246.351562 77.429688 246.53125 77.265625 C 246.585938 77.230469 246.621094 77.210938 246.621094 77.210938 C 246.621094 77.210938 246.65625 77.230469 246.65625 77.480469 C 246.65625 78.8125 246.027344 79.894531 245.433594 80.488281 C 245.234375 80.6875 245.234375 80.722656 245.234375 80.777344 C 245.234375 80.902344 245.324219 80.972656 245.414062 80.972656 C 245.613281 80.972656 247.050781 79.589844 247.050781 77.480469 Z M 243.398438 62.992188 "/>
<path fill-rule="nonzero" fill="rgb(0%, 0%, 0%)" fill-opacity="1" d="M 261.132812 78.632812 L 263.097656 70.75 C 263.167969 70.480469 263.167969 70.445312 263.167969 70.371094 C 263.167969 69.992188 262.863281 69.902344 262.683594 69.902344 C 262.464844 69.902344 262.050781 70.046875 261.980469 70.570312 C 261.726562 70.046875 261.242188 69.542969 260.46875 69.542969 C 258.453125 69.542969 256.382812 72.207031 256.382812 74.746094 C 256.382812 76.277344 257.226562 77.5 258.578125 77.5 C 259.496094 77.5 260.269531 76.761719 260.488281 76.546875 L 260.109375 78.058594 C 259.890625 78.957031 259.785156 79.335938 259.28125 79.949219 C 258.558594 80.792969 257.839844 80.792969 257.570312 80.792969 C 257.335938 80.792969 256.777344 80.792969 256.292969 80.597656 C 256.652344 80.453125 256.867188 80.074219 256.867188 79.769531 C 256.867188 79.535156 256.707031 79.191406 256.238281 79.191406 C 255.914062 79.191406 255.355469 79.445312 255.355469 80.144531 C 255.355469 80.867188 256.023438 81.191406 257.535156 81.191406 C 259.425781 81.191406 260.792969 80.003906 261.132812 78.632812 Z M 260.847656 75.125 C 260.703125 75.699219 259.605469 77.105469 258.613281 77.105469 C 257.640625 77.105469 257.605469 75.734375 257.605469 75.539062 C 257.605469 74.675781 258.144531 72.566406 258.523438 71.722656 C 258.972656 70.75 259.765625 69.941406 260.46875 69.941406 C 261.546875 69.941406 261.710938 71.453125 261.710938 71.597656 L 261.65625 71.847656 Z M 254.402344 57.25 "/>
<path fill-rule="nonzero" fill="rgb(0%, 0%, 0%)" fill-opacity="1" d="M 273.867188 73.757812 L 273.867188 72.242188 C 273.867188 69.164062 271.976562 65.566406 269.996094 64.070312 C 269.960938 64.054688 269.925781 64.035156 269.890625 64.035156 C 269.800781 64.035156 269.710938 64.125 269.710938 64.214844 C 269.710938 64.269531 269.746094 64.324219 269.78125 64.359375 C 271.652344 65.765625 272.894531 69.363281 272.894531 72.242188 L 272.894531 73.757812 C 272.894531 76.636719 271.652344 80.234375 269.78125 81.640625 C 269.746094 81.675781 269.710938 81.730469 269.710938 81.785156 C 269.710938 81.875 269.800781 81.964844 269.890625 81.964844 C 269.925781 81.964844 269.960938 81.945312 269.996094 81.929688 C 271.976562 80.433594 273.867188 76.835938 273.867188 73.757812 Z M 268.683594 62.992188 "/>
<path fill="none" stroke-width="1.012" stroke-linecap="round" stroke-linejoin="miter" stroke="rgb(0%, 0%, 0%)" stroke-opacity="1" stroke-miterlimit="4" d="M 65.84375 -73 C 115.886719 -73 165.929688 -73 215.972656 -73 " transform="matrix(1, 0, 0, -1, 0, 0)"/>
<path fill="none" stroke-width="1.012" stroke-linecap="round" stroke-linejoin="miter" stroke="rgb(0%, 0%, 0%)" stroke-opacity="1" stroke-miterlimit="4" d="M 210.574219 -78.398438 C 210.574219 -73 215.972656 -73 215.972656 -73 " transform="matrix(1, 0, 0, -1, 0, 0)"/>
<path fill="none" stroke-width="1.012" stroke-linecap="round" stroke-linejoin="miter" stroke="rgb(0%, 0%, 0%)" stroke-opacity="1" stroke-miterlimit="4" d="M 210.574219 -67.601562 C 210.574219 -73 215.972656 -73 215.972656 -73 " transform="matrix(1, 0, 0, -1, 0, 0)"/>
<path fill-rule="nonzero" fill="rgb(100%, 100%, 100%)" fill-opacity="1" d="M 129.792969 72.289062 L 153 72.289062 L 153 59.890625 L 129.792969 59.890625 Z M 129.792969 72.289062 "/>
<path fill-rule="nonzero" fill="rgb(0%, 0%, 0%)" fill-opacity="1" d="M 136.257812 65.355469 C 136.019531 64.40625 135.105469 63.304688 133.402344 63.183594 L 133.402344 60.460938 L 133.390625 60.292969 C 133.390625 60.292969 133.367188 60.171875 133.222656 60.171875 C 133.101562 60.171875 133.089844 60.207031 133.101562 60.410156 L 133.089844 63.183594 C 131.207031 63.242188 129.839844 64.839844 130.246094 66.472656 C 130.535156 67.613281 131.601562 68.558594 133.089844 68.644531 L 133.089844 70.828125 C 133.125 70.949219 133.210938 70.960938 133.269531 70.960938 C 133.332031 70.960938 133.355469 70.949219 133.378906 70.910156 C 133.402344 70.886719 133.402344 70.601562 133.390625 70.433594 L 133.402344 68.644531 C 135.320312 68.585938 136.652344 66.964844 136.257812 65.355469 Z M 133.089844 68.378906 C 132.359375 68.34375 131.386719 67.925781 131.085938 66.722656 C 130.726562 65.285156 131.339844 63.605469 133.089844 63.449219 Z M 135.40625 65.105469 C 135.765625 66.519531 135.167969 68.234375 133.402344 68.378906 L 133.402344 63.449219 C 134.328125 63.496094 135.140625 64.046875 135.40625 65.105469 Z M 129.40625 58.828125 "/>
<path fill-rule="nonzero" fill="rgb(0%, 0%, 0%)" fill-opacity="1" d="M 141.824219 70.773438 C 141.824219 70.679688 141.765625 70.679688 141.648438 70.679688 C 141.273438 70.679688 141.253906 70.621094 141.238281 70.433594 L 140.929688 65.925781 C 140.921875 65.769531 140.914062 65.746094 140.800781 65.746094 C 140.683594 65.746094 140.65625 65.796875 140.613281 65.875 L 138.222656 70.089844 C 137.914062 70.636719 137.601562 70.664062 137.351562 70.679688 C 137.273438 70.6875 137.265625 70.816406 137.265625 70.816406 C 137.265625 70.835938 137.273438 70.902344 137.351562 70.902344 C 137.53125 70.902344 137.738281 70.878906 137.925781 70.878906 C 138.148438 70.878906 138.378906 70.902344 138.597656 70.902344 C 138.632812 70.902344 138.726562 70.902344 138.726562 70.765625 C 138.726562 70.6875 138.667969 70.6875 138.609375 70.679688 C 138.566406 70.671875 138.308594 70.65625 138.308594 70.433594 C 138.308594 70.371094 138.34375 70.28125 138.410156 70.160156 L 138.929688 69.253906 L 140.570312 69.253906 L 140.648438 70.449219 C 140.648438 70.59375 140.476562 70.679688 140.167969 70.679688 C 140.085938 70.679688 140 70.679688 140 70.816406 C 140 70.902344 140.085938 70.902344 140.109375 70.902344 C 140.375 70.902344 140.664062 70.878906 140.9375 70.878906 C 141.1875 70.878906 141.449219 70.902344 141.691406 70.902344 C 141.734375 70.902344 141.824219 70.902344 141.824219 70.773438 Z M 140.554688 69.03125 L 139.050781 69.03125 L 140.390625 66.675781 Z M 136.839844 62.800781 "/>
<path fill-rule="nonzero" fill="rgb(0%, 0%, 0%)" fill-opacity="1" d="M 143.652344 70.894531 C 143.652344 70.421875 143.472656 70.140625 143.191406 70.140625 C 142.953125 70.140625 142.8125 70.320312 142.8125 70.519531 C 142.8125 70.714844 142.953125 70.902344 143.191406 70.902344 C 143.277344 70.902344 143.371094 70.875 143.445312 70.808594 C 143.464844 70.792969 143.480469 70.789062 143.480469 70.789062 C 143.480469 70.789062 143.496094 70.792969 143.496094 70.894531 C 143.496094 71.429688 143.242188 71.859375 143.003906 72.097656 C 142.925781 72.175781 142.925781 72.191406 142.925781 72.210938 C 142.925781 72.261719 142.960938 72.292969 142.996094 72.292969 C 143.078125 72.292969 143.652344 71.738281 143.652344 70.894531 Z M 142.191406 65.097656 "/>
<path fill-rule="nonzero" fill="rgb(0%, 0%, 0%)" fill-opacity="1" d="M 149.066406 69.324219 C 149.066406 68.726562 148.582031 68.398438 148.066406 68.332031 C 148.945312 68.136719 149.476562 67.519531 149.476562 66.964844 C 149.476562 66.445312 149.050781 65.984375 148.265625 65.984375 L 146.027344 65.984375 C 145.914062 65.984375 145.832031 65.984375 145.832031 66.121094 C 145.832031 66.207031 145.890625 66.207031 146.027344 66.207031 C 146.25 66.207031 146.445312 66.207031 146.445312 66.332031 C 146.445312 66.351562 146.445312 66.367188 146.417969 66.46875 L 145.445312 70.375 C 145.386719 70.621094 145.34375 70.679688 144.855469 70.679688 C 144.738281 70.679688 144.660156 70.679688 144.660156 70.816406 C 144.660156 70.902344 144.722656 70.902344 144.839844 70.902344 L 147.214844 70.902344 C 148.238281 70.902344 149.066406 70.074219 149.066406 69.324219 Z M 148.84375 66.921875 C 148.84375 67.53125 148.289062 68.265625 147.46875 68.265625 L 146.515625 68.265625 L 146.964844 66.46875 C 147.027344 66.207031 147.078125 66.207031 147.316406 66.207031 L 148.164062 66.207031 C 148.769531 66.207031 148.84375 66.699219 148.84375 66.921875 Z M 148.425781 69.230469 C 148.425781 69.929688 147.847656 70.679688 147.058594 70.679688 L 146.164062 70.679688 C 145.941406 70.679688 145.941406 70.65625 145.941406 70.605469 C 145.941406 70.5625 145.960938 70.492188 145.96875 70.449219 L 146.472656 68.425781 L 147.710938 68.425781 C 148.382812 68.425781 148.425781 69.042969 148.425781 69.230469 Z M 144.191406 62.800781 "/>
<path fill-rule="nonzero" fill="rgb(0%, 0%, 0%)" fill-opacity="1" d="M 137.792969 13.527344 C 137.953125 12.863281 137.972656 12.25 137.613281 11.78125 C 137.109375 11.097656 136.152344 10.953125 135.234375 10.953125 C 133.8125 10.953125 132.335938 11.332031 131.078125 12.339844 C 130.269531 12.96875 129.636719 13.726562 129.152344 14.589844 C 128.539062 15.632812 128.144531 16.75 127.875 17.847656 C 127.640625 18.765625 127.511719 19.703125 127.585938 20.566406 C 127.640625 21.304688 127.820312 21.988281 128.234375 22.527344 C 128.828125 23.339844 129.816406 23.769531 130.953125 23.769531 C 132.175781 23.769531 133.527344 23.464844 134.625 22.582031 C 134.964844 22.292969 135.253906 21.953125 135.488281 21.609375 L 134.875 20.765625 L 134.640625 20.890625 C 134.40625 21.429688 134.082031 21.988281 133.597656 22.382812 C 132.984375 22.871094 132.246094 23.15625 131.546875 23.15625 C 130.753906 23.15625 130.105469 22.78125 129.691406 22.222656 C 129.277344 21.664062 129.078125 20.945312 129.027344 20.207031 C 128.9375 19.304688 129.078125 18.351562 129.3125 17.398438 C 129.566406 16.371094 129.90625 15.363281 130.449219 14.375 C 130.824219 13.652344 131.328125 13.007812 131.996094 12.464844 C 132.839844 11.800781 133.8125 11.53125 134.769531 11.53125 C 135.398438 11.53125 135.992188 11.691406 136.332031 12.140625 C 136.65625 12.574219 136.640625 13.132812 136.496094 13.742188 C 136.332031 14.375 136.027344 15.058594 135.453125 15.527344 C 135.019531 15.867188 134.515625 16.101562 134.011719 16.101562 C 133.777344 16.101562 133.507812 16.101562 133.363281 15.921875 C 133.203125 15.707031 133.292969 15.382812 133.4375 15.09375 C 133.542969 14.84375 133.667969 14.554688 133.542969 14.355469 C 133.4375 14.210938 133.238281 14.15625 133.039062 14.15625 C 132.824219 14.15625 132.589844 14.195312 132.410156 14.355469 C 132.210938 14.519531 132.105469 14.769531 132.050781 15.003906 C 131.960938 15.398438 131.976562 15.777344 132.195312 16.046875 C 132.570312 16.535156 133.238281 16.640625 133.921875 16.640625 C 134.730469 16.640625 135.613281 16.390625 136.332031 15.796875 C 137.070312 15.203125 137.574219 14.375 137.792969 13.527344 Z M 126.847656 8.992188 "/>
<path fill-rule="nonzero" fill="rgb(0%, 0%, 0%)" fill-opacity="1" d="M 146.628906 10.359375 C 146.628906 10.160156 146.464844 10 146.265625 10 C 146.105469 10 145.980469 10.089844 145.925781 10.234375 L 139.644531 27.515625 C 139.625 27.550781 139.625 27.605469 139.625 27.640625 C 139.625 27.839844 139.789062 28 139.984375 28 C 140.148438 28 140.273438 27.910156 140.328125 27.765625 L 146.609375 10.484375 C 146.628906 10.449219 146.628906 10.394531 146.628906 10.359375 Z M 138.617188 8.992188 "/>
<path fill-rule="nonzero" fill="rgb(0%, 0%, 0%)" fill-opacity="1" d="M 157.300781 19.214844 C 157.300781 18.695312 157.175781 17.957031 156.707031 17.378906 C 156.257812 16.820312 156.042969 16.769531 154.332031 16.265625 C 153.988281 16.175781 153.429688 16.011719 153.339844 15.976562 C 152.730469 15.707031 152.421875 15.128906 152.421875 14.390625 C 152.421875 12.914062 153.808594 11.3125 155.339844 11.3125 C 157.03125 11.3125 157.535156 12.539062 157.535156 13.871094 C 157.535156 14.339844 157.515625 14.464844 157.445312 14.859375 L 157.425781 15.113281 C 157.425781 15.292969 157.605469 15.292969 157.695312 15.292969 C 157.894531 15.292969 157.949219 15.273438 158.019531 14.96875 L 158.957031 11.242188 C 158.976562 11.171875 158.992188 11.0625 158.992188 10.988281 C 158.992188 10.988281 158.976562 10.808594 158.796875 10.808594 C 158.707031 10.808594 158.6875 10.828125 158.523438 11.027344 L 157.714844 12.035156 C 157.011719 10.828125 155.734375 10.808594 155.375 10.808594 C 153.160156 10.808594 151.199219 13.023438 151.199219 15.09375 C 151.199219 16.03125 151.59375 16.984375 152.640625 17.46875 C 152.746094 17.523438 153.144531 17.632812 153.414062 17.703125 L 154.296875 17.957031 C 155.230469 18.226562 155.375 18.28125 155.679688 18.605469 C 155.878906 18.855469 156.078125 19.253906 156.078125 19.898438 C 156.078125 21.539062 154.671875 23.339844 153.070312 23.339844 C 151.722656 23.339844 150.371094 22.691406 150.371094 20.816406 C 150.371094 20.402344 150.460938 19.917969 150.515625 19.71875 L 150.53125 19.613281 C 150.53125 19.414062 150.371094 19.414062 150.261719 19.414062 C 150.046875 19.414062 150.011719 19.449219 149.9375 19.71875 L 149.003906 23.480469 C 148.96875 23.609375 148.949219 23.660156 148.949219 23.714844 C 148.949219 23.824219 149.039062 23.894531 149.148438 23.894531 C 149.273438 23.894531 149.292969 23.859375 149.433594 23.679688 C 149.632812 23.464844 150.101562 22.886719 150.28125 22.652344 C 150.945312 23.625 152.097656 23.894531 153.035156 23.894531 C 155.304688 23.894531 157.300781 21.484375 157.300781 19.214844 Z M 147.617188 3.25 "/>
<path fill-rule="nonzero" fill="rgb(0%, 0%, 0%)" fill-opacity="1" d="M 335.375 67.148438 C 335.375 66.953125 335.230469 66.835938 335.085938 66.835938 C 334.917969 66.835938 334.796875 66.953125 334.796875 67.097656 C 334.582031 69.1875 333.597656 70.171875 331.964844 70.652344 C 331.726562 70.722656 331.484375 70.746094 331.269531 70.746094 C 330.023438 70.746094 328.871094 69.8125 327.835938 68.921875 C 326.542969 67.84375 325.078125 66.8125 323.519531 66.8125 C 323.207031 66.8125 322.871094 66.859375 322.535156 66.953125 C 320.519531 67.554688 319.75 69.066406 319.484375 71.660156 C 319.484375 71.851562 319.628906 71.96875 319.773438 71.96875 C 319.941406 71.96875 320.0625 71.851562 320.0625 71.707031 C 320.277344 69.617188 321.261719 68.632812 322.894531 68.15625 C 323.132812 68.082031 323.375 68.058594 323.589844 68.058594 C 324.835938 68.058594 325.988281 68.996094 327.023438 69.882812 C 328.316406 70.960938 329.78125 71.996094 331.339844 71.996094 C 331.652344 71.996094 331.988281 71.945312 332.324219 71.851562 C 334.339844 71.25 335.109375 69.738281 335.375 67.148438 Z M 335.421875 74.058594 C 335.421875 73.792969 335.207031 73.578125 334.941406 73.578125 L 319.917969 73.578125 C 319.652344 73.578125 319.4375 73.792969 319.4375 74.058594 C 319.4375 74.324219 319.652344 74.539062 319.917969 74.539062 L 334.941406 74.539062 C 335.207031 74.539062 335.421875 74.324219 335.421875 74.058594 Z M 335.421875 78.714844 C 335.421875 78.449219 335.207031 78.234375 334.941406 78.234375 L 319.917969 78.234375 C 319.652344 78.234375 319.4375 78.449219 319.4375 78.714844 C 319.4375 78.980469 319.652344 79.195312 319.917969 79.195312 L 334.941406 79.195312 C 335.207031 79.195312 335.421875 78.980469 335.421875 78.714844 Z M 318.09375 60.714844 "/>
<path fill-rule="nonzero" fill="rgb(0%, 0%, 0%)" fill-opacity="1" d="M 608.023438 75.203125 C 608.023438 73.707031 606.816406 72.878906 605.519531 72.71875 C 607.714844 72.234375 609.046875 70.683594 609.046875 69.296875 C 609.046875 68.003906 607.984375 66.851562 606.023438 66.851562 L 600.425781 66.851562 C 600.136719 66.851562 599.941406 66.851562 599.941406 67.191406 C 599.941406 67.410156 600.082031 67.410156 600.425781 67.410156 C 600.984375 67.410156 601.46875 67.410156 601.46875 67.714844 C 601.46875 67.769531 601.46875 67.804688 601.398438 68.054688 L 598.96875 77.832031 C 598.824219 78.441406 598.714844 78.585938 597.492188 78.585938 C 597.203125 78.585938 597.007812 78.585938 597.007812 78.929688 C 597.007812 79.144531 597.167969 79.144531 597.457031 79.144531 L 603.394531 79.144531 C 605.953125 79.144531 608.023438 77.074219 608.023438 75.203125 Z M 607.464844 69.191406 C 607.464844 70.71875 606.078125 72.554688 604.027344 72.554688 L 601.648438 72.554688 L 602.765625 68.054688 C 602.929688 67.410156 603.054688 67.410156 603.648438 67.410156 L 605.773438 67.410156 C 607.285156 67.410156 607.464844 68.632812 607.464844 69.191406 Z M 606.421875 74.96875 C 606.421875 76.714844 604.980469 78.585938 603 78.585938 L 600.769531 78.585938 C 600.210938 78.585938 600.210938 78.53125 600.210938 78.40625 C 600.210938 78.296875 600.265625 78.117188 600.28125 78.011719 L 601.542969 72.953125 L 604.636719 72.953125 C 606.3125 72.953125 606.421875 74.5 606.421875 74.96875 Z M 595.835938 58.894531 "/>
<path fill-rule="nonzero" fill="rgb(0%, 0%, 0%)" fill-opacity="1" d="M 392.617188 79.117188 C 392.617188 78.882812 392.472656 78.882812 392.183594 78.882812 C 391.25 78.882812 391.195312 78.738281 391.15625 78.269531 L 390.382812 67.003906 C 390.367188 66.605469 390.347656 66.554688 390.058594 66.554688 C 389.773438 66.554688 389.699219 66.679688 389.59375 66.878906 L 383.617188 77.40625 C 382.84375 78.777344 382.066406 78.847656 381.4375 78.882812 C 381.238281 78.902344 381.222656 79.226562 381.222656 79.226562 C 381.222656 79.28125 381.238281 79.441406 381.4375 79.441406 C 381.886719 79.441406 382.410156 79.386719 382.878906 79.386719 C 383.4375 79.386719 384.011719 79.441406 384.550781 79.441406 C 384.640625 79.441406 384.875 79.441406 384.875 79.097656 C 384.875 78.902344 384.730469 78.902344 384.589844 78.882812 C 384.480469 78.867188 383.832031 78.828125 383.832031 78.269531 C 383.832031 78.109375 383.921875 77.894531 384.085938 77.585938 L 385.378906 75.320312 L 389.484375 75.320312 L 389.683594 78.308594 C 389.683594 78.667969 389.25 78.882812 388.476562 78.882812 C 388.277344 78.882812 388.0625 78.882812 388.0625 79.226562 C 388.0625 79.441406 388.277344 79.441406 388.332031 79.441406 C 389 79.441406 389.71875 79.386719 390.402344 79.386719 C 391.03125 79.386719 391.679688 79.441406 392.292969 79.441406 C 392.398438 79.441406 392.617188 79.441406 392.617188 79.117188 Z M 389.449219 74.761719 L 385.6875 74.761719 L 389.035156 68.875 Z M 380.160156 59.191406 "/>
<path fill-rule="nonzero" fill="rgb(0%, 0%, 0%)" fill-opacity="1" d="M 498.515625 182.859375 C 498.515625 182.339844 498.390625 181.601562 497.921875 181.023438 C 497.472656 180.464844 497.257812 180.414062 495.546875 179.910156 C 495.203125 179.820312 494.644531 179.65625 494.554688 179.621094 C 493.945312 179.351562 493.636719 178.773438 493.636719 178.035156 C 493.636719 176.558594 495.023438 174.957031 496.554688 174.957031 C 498.246094 174.957031 498.75 176.183594 498.75 177.515625 C 498.75 177.984375 498.730469 178.109375 498.660156 178.503906 L 498.640625 178.757812 C 498.640625 178.9375 498.820312 178.9375 498.910156 178.9375 C 499.109375 178.9375 499.164062 178.917969 499.234375 178.613281 L 500.171875 174.886719 C 500.191406 174.816406 500.207031 174.707031 500.207031 174.632812 C 500.207031 174.632812 500.191406 174.453125 500.011719 174.453125 C 499.921875 174.453125 499.902344 174.472656 499.738281 174.671875 L 498.929688 175.679688 C 498.226562 174.472656 496.949219 174.453125 496.589844 174.453125 C 494.375 174.453125 492.414062 176.667969 492.414062 178.738281 C 492.414062 179.675781 492.808594 180.628906 493.855469 181.113281 C 493.960938 181.167969 494.359375 181.277344 494.628906 181.347656 L 495.511719 181.601562 C 496.445312 181.871094 496.589844 181.925781 496.894531 182.25 C 497.09375 182.5 497.292969 182.898438 497.292969 183.542969 C 497.292969 185.183594 495.886719 186.984375 494.285156 186.984375 C 492.9375 186.984375 491.585938 186.335938 491.585938 184.460938 C 491.585938 184.046875 491.675781 183.5625 491.730469 183.363281 L 491.746094 183.257812 C 491.746094 183.058594 491.585938 183.058594 491.476562 183.058594 C 491.261719 183.058594 491.226562 183.09375 491.152344 183.363281 L 490.21875 187.125 C 490.183594 187.253906 490.164062 187.304688 490.164062 187.359375 C 490.164062 187.46875 490.253906 187.539062 490.363281 187.539062 C 490.488281 187.539062 490.507812 187.503906 490.648438 187.324219 C 490.847656 187.109375 491.316406 186.53125 491.496094 186.296875 C 492.160156 187.269531 493.3125 187.539062 494.25 187.539062 C 496.519531 187.539062 498.515625 185.128906 498.515625 182.859375 Z M 488.832031 166.894531 "/>
<path fill="none" stroke-width="1.012" stroke-linecap="round" stroke-linejoin="miter" stroke="rgb(0%, 0%, 0%)" stroke-opacity="1" stroke-miterlimit="4" d="M 401.613281 -73 C 463.746094 -73 525.875 -73 588.003906 -73 " transform="matrix(1, 0, 0, -1, 0, 0)"/>
<path fill="none" stroke-width="1.012" stroke-linecap="round" stroke-linejoin="miter" stroke="rgb(0%, 0%, 0%)" stroke-opacity="1" stroke-miterlimit="4" d="M 582.605469 -78.398438 C 582.605469 -73 588.003906 -73 588.003906 -73 " transform="matrix(1, 0, 0, -1, 0, 0)"/>
<path fill="none" stroke-width="1.012" stroke-linecap="round" stroke-linejoin="miter" stroke="rgb(0%, 0%, 0%)" stroke-opacity="1" stroke-miterlimit="4" d="M 582.605469 -67.601562 C 582.605469 -73 588.003906 -73 588.003906 -73 " transform="matrix(1, 0, 0, -1, 0, 0)"/>
<path fill-rule="nonzero" fill="rgb(100%, 100%, 100%)" fill-opacity="1" d="M 492.050781 70.960938 L 498.882812 70.960938 L 498.882812 59.890625 L 492.050781 59.890625 Z M 492.050781 70.960938 "/>
<path fill-rule="nonzero" fill="rgb(0%, 0%, 0%)" fill-opacity="1" d="M 498.515625 65.355469 C 498.277344 64.40625 497.363281 63.304688 495.660156 63.183594 L 495.660156 60.460938 L 495.648438 60.292969 C 495.648438 60.292969 495.625 60.171875 495.480469 60.171875 C 495.359375 60.171875 495.347656 60.207031 495.359375 60.410156 L 495.347656 63.183594 C 493.464844 63.242188 492.097656 64.839844 492.503906 66.472656 C 492.792969 67.613281 493.859375 68.558594 495.347656 68.644531 L 495.347656 70.828125 C 495.382812 70.949219 495.46875 70.960938 495.527344 70.960938 C 495.589844 70.960938 495.613281 70.949219 495.636719 70.910156 C 495.660156 70.886719 495.660156 70.601562 495.648438 70.433594 L 495.660156 68.644531 C 497.578125 68.585938 498.910156 66.964844 498.515625 65.355469 Z M 495.347656 68.378906 C 494.617188 68.34375 493.644531 67.925781 493.34375 66.722656 C 492.984375 65.285156 493.597656 63.605469 495.347656 63.449219 Z M 497.664062 65.105469 C 498.023438 66.519531 497.425781 68.234375 495.660156 68.378906 L 495.660156 63.449219 C 496.585938 63.496094 497.398438 64.046875 497.664062 65.105469 Z M 491.664062 58.828125 "/>
<path fill="none" stroke-width="1.012" stroke-linecap="round" stroke-linejoin="miter" stroke="rgb(0%, 0%, 0%)" stroke-opacity="1" stroke-miterlimit="4" d="M 401.613281 -88.445312 C 427.96875 -113.925781 454.324219 -139.402344 480.675781 -164.882812 " transform="matrix(1, 0, 0, -1, 0, 0)"/>
<path fill="none" stroke-width="1.012" stroke-linecap="round" stroke-linejoin="miter" stroke="rgb(0%, 0%, 0%)" stroke-opacity="1" stroke-miterlimit="4" d="M 473.042969 -165.011719 C 476.796875 -161.128906 480.675781 -164.882812 480.675781 -164.882812 " transform="matrix(1, 0, 0, -1, 0, 0)"/>
<path fill="none" stroke-width="1.012" stroke-linecap="round" stroke-linejoin="miter" stroke="rgb(0%, 0%, 0%)" stroke-opacity="1" stroke-miterlimit="4" d="M 480.546875 -157.25 C 476.796875 -161.128906 480.675781 -164.882812 480.675781 -164.882812 " transform="matrix(1, 0, 0, -1, 0, 0)"/>
<path fill-rule="nonzero" fill="rgb(100%, 100%, 100%)" fill-opacity="1" d="M 416.101562 134.890625 L 421.824219 134.890625 L 421.824219 123.699219 L 416.101562 123.699219 Z M 416.101562 134.890625 "/>
<path fill-rule="nonzero" fill="rgb(0%, 0%, 0%)" fill-opacity="1" d="M 421.828125 124.761719 C 421.828125 124.246094 421.335938 123.96875 420.84375 123.96875 C 419.667969 123.96875 419.367188 125.53125 419.28125 125.9375 L 419.03125 127.257812 L 418.238281 127.257812 C 418.046875 127.257812 417.914062 127.257812 417.914062 127.496094 C 417.914062 127.628906 418.035156 127.628906 418.214844 127.628906 L 418.957031 127.628906 L 418.082031 132.105469 C 417.9375 132.851562 417.816406 133.339844 417.746094 133.59375 C 417.648438 134 417.496094 134.625 417.0625 134.625 C 416.941406 134.625 416.714844 134.589844 416.582031 134.410156 C 416.941406 134.351562 417.109375 134.0625 417.109375 133.820312 C 417.109375 133.558594 416.894531 133.4375 416.703125 133.4375 C 416.402344 133.4375 416.101562 133.675781 416.101562 134.097656 C 416.101562 134.636719 416.617188 134.890625 417.0625 134.890625 C 418.308594 134.890625 418.800781 132.371094 418.886719 131.9375 L 419.726562 127.628906 L 420.710938 127.628906 C 420.914062 127.628906 421.035156 127.628906 421.035156 127.414062 C 421.035156 127.257812 420.9375 127.257812 420.734375 127.257812 L 419.796875 127.257812 L 420.183594 125.3125 C 420.277344 124.871094 420.410156 124.234375 420.84375 124.234375 C 420.9375 124.234375 421.191406 124.257812 421.347656 124.449219 C 420.988281 124.507812 420.816406 124.796875 420.816406 125.039062 C 420.816406 125.300781 421.035156 125.421875 421.226562 125.421875 C 421.527344 125.421875 421.828125 125.183594 421.828125 124.761719 Z M 416.402344 118.929688 "/>
<path fill="none" stroke-width="1.012" stroke-linecap="round" stroke-linejoin="miter" stroke="rgb(0%, 0%, 0%)" stroke-opacity="1" stroke-miterlimit="4" d="M 588.003906 -88.148438 C 561.738281 -113.726562 535.476562 -139.304688 509.210938 -164.882812 " transform="matrix(1, 0, 0, -1, 0, 0)"/>
<path fill="none" stroke-width="1.012" stroke-linecap="round" stroke-linejoin="miter" stroke="rgb(0%, 0%, 0%)" stroke-opacity="1" stroke-miterlimit="4" d="M 509.3125 -157.25 C 513.078125 -161.117188 509.210938 -164.882812 509.210938 -164.882812 " transform="matrix(1, 0, 0, -1, 0, 0)"/>
<path fill="none" stroke-width="1.012" stroke-linecap="round" stroke-linejoin="miter" stroke="rgb(0%, 0%, 0%)" stroke-opacity="1" stroke-miterlimit="4" d="M 516.847656 -164.984375 C 513.078125 -161.117188 509.210938 -164.882812 509.210938 -164.882812 " transform="matrix(1, 0, 0, -1, 0, 0)"/>
<path fill-rule="nonzero" fill="rgb(100%, 100%, 100%)" fill-opacity="1" d="M 560.417969 134.945312 L 565.921875 134.945312 L 565.921875 125.863281 L 560.417969 125.863281 Z M 560.417969 134.945312 "/>
<path fill-rule="nonzero" fill="rgb(0%, 0%, 0%)" fill-opacity="1" d="M 564.550781 133.046875 L 565.859375 127.789062 C 565.90625 127.609375 565.90625 127.585938 565.90625 127.535156 C 565.90625 127.285156 565.703125 127.226562 565.582031 127.226562 C 565.4375 127.226562 565.164062 127.320312 565.113281 127.667969 C 564.945312 127.320312 564.621094 126.984375 564.105469 126.984375 C 562.761719 126.984375 561.382812 128.761719 561.382812 130.453125 C 561.382812 131.472656 561.945312 132.289062 562.847656 132.289062 C 563.457031 132.289062 563.972656 131.796875 564.117188 131.652344 L 563.867188 132.660156 C 563.722656 133.261719 563.652344 133.511719 563.316406 133.921875 C 562.835938 134.484375 562.355469 134.484375 562.175781 134.484375 C 562.019531 134.484375 561.648438 134.484375 561.324219 134.351562 C 561.5625 134.257812 561.707031 134.003906 561.707031 133.800781 C 561.707031 133.644531 561.597656 133.417969 561.285156 133.417969 C 561.070312 133.417969 560.699219 133.585938 560.699219 134.054688 C 560.699219 134.53125 561.140625 134.75 562.152344 134.75 C 563.410156 134.75 564.324219 133.957031 564.550781 133.046875 Z M 564.359375 130.703125 C 564.261719 131.089844 563.53125 132.023438 562.871094 132.023438 C 562.222656 132.023438 562.199219 131.113281 562.199219 130.980469 C 562.199219 130.40625 562.558594 129 562.808594 128.4375 C 563.109375 127.789062 563.636719 127.25 564.105469 127.25 C 564.828125 127.25 564.933594 128.257812 564.933594 128.351562 L 564.898438 128.519531 Z M 560.0625 118.789062 "/>
<path fill-rule="nonzero" fill="rgb(0%, 0%, 0%)" fill-opacity="1" d="M 502.273438 15.167969 C 502.433594 14.503906 502.453125 13.890625 502.09375 13.421875 C 501.589844 12.738281 500.632812 12.59375 499.714844 12.59375 C 498.292969 12.59375 496.816406 12.972656 495.558594 13.980469 C 494.75 14.609375 494.117188 15.367188 493.632812 16.230469 C 493.019531 17.273438 492.625 18.390625 492.355469 19.488281 C 492.121094 20.40625 491.992188 21.34375 492.066406 22.207031 C 492.121094 22.945312 492.300781 23.628906 492.714844 24.167969 C 493.308594 24.980469 494.296875 25.410156 495.433594 25.410156 C 496.65625 25.410156 498.007812 25.105469 499.105469 24.222656 C 499.445312 23.933594 499.734375 23.59375 499.96875 23.25 L 499.355469 22.40625 L 499.121094 22.53125 C 498.886719 23.070312 498.5625 23.628906 498.078125 24.023438 C 497.464844 24.511719 496.726562 24.796875 496.027344 24.796875 C 495.234375 24.796875 494.585938 24.421875 494.171875 23.863281 C 493.757812 23.304688 493.558594 22.585938 493.507812 21.847656 C 493.417969 20.945312 493.558594 19.992188 493.792969 19.039062 C 494.046875 18.011719 494.386719 17.003906 494.929688 16.015625 C 495.304688 15.292969 495.808594 14.648438 496.476562 14.105469 C 497.320312 13.441406 498.292969 13.171875 499.25 13.171875 C 499.878906 13.171875 500.472656 13.332031 500.8125 13.78125 C 501.136719 14.214844 501.121094 14.773438 500.976562 15.382812 C 500.8125 16.015625 500.507812 16.699219 499.933594 17.167969 C 499.5 17.507812 498.996094 17.742188 498.492188 17.742188 C 498.257812 17.742188 497.988281 17.742188 497.84375 17.5625 C 497.683594 17.347656 497.773438 17.023438 497.917969 16.734375 C 498.023438 16.484375 498.148438 16.195312 498.023438 15.996094 C 497.917969 15.851562 497.71875 15.796875 497.519531 15.796875 C 497.304688 15.796875 497.070312 15.835938 496.890625 15.996094 C 496.691406 16.160156 496.585938 16.410156 496.53125 16.644531 C 496.441406 17.039062 496.457031 17.417969 496.675781 17.6875 C 497.050781 18.175781 497.71875 18.28125 498.402344 18.28125 C 499.210938 18.28125 500.09375 18.03125 500.8125 17.4375 C 501.550781 16.84375 502.054688 16.015625 502.273438 15.167969 Z M 491.328125 10.632812 "/>
</svg>
