<svg height="310" viewBox="0 0 498.67440415338666 310" width="498.67440415338666" xmlns="http://www.w3.org/2000/svg" version="1.1"><polygon points="56.72890733056704 263.92116182572613 430.17289073305665 263.92116182572613 430.17289073305665 14.958506224066412 56.72890733056704 14.958506224066412 " style="stroke: lightgrey; fill: white; fill-opacity: 0; " /><polyline points="56.72890733056707 263.92116182572613 430.17289073305665 263.92116182572613 " style="stroke: black; fill: none; " /><polygon points="102.78699861687413 268.90041493775936 104.03181189488244 268.90041493775936 104.03181189488244 263.92116182572613 102.78699861687413 263.92116182572613 " style="" /><text x="103.40940525587827" style="text-anchor: middle; font-size: 8.713692946058103pt; " transform="rotate(-0.0, 103.40940525587827, 280.103734439834)" y="280.103734439834">3</text><polygon points="158.80359612724754 268.90041493775936 160.04840940525588 268.90041493775936 160.04840940525588 263.92116182572613 158.80359612724754 263.92116182572613 " style="" /><text x="159.4260027662517" style="text-anchor: middle; font-size: 8.713692946058103pt; " transform="rotate(-0.0, 159.4260027662517, 280.103734439834)" y="280.103734439834">4</text><polygon points="214.820193637621 268.90041493775936 216.06500691562934 268.90041493775936 216.06500691562934 263.92116182572613 214.820193637621 263.92116182572613 " style="" /><text x="215.44260027662517" style="text-anchor: middle; font-size: 8.713692946058103pt; " transform="rotate(-0.0, 215.44260027662517, 280.103734439834)" y="280.103734439834">5</text><polygon points="270.8367911479945 268.90041493775936 272.08160442600274 268.90041493775936 272.08160442600274 263.92116182572613 270.8367911479945 263.92116182572613 " style="" /><text x="271.45919778699863" style="text-anchor: middle; font-size: 8.713692946058075pt; " transform="rotate(-0.0, 271.45919778699863, 280.103734439834)" y="280.103734439834">6</text><polygon points="326.85338865836786 268.90041493775936 328.0982019363762 268.90041493775936 328.0982019363762 263.92116182572613 326.85338865836786 263.92116182572613 " style="" /><text x="327.47579529737203" style="text-anchor: middle; font-size: 8.713692946058131pt; " transform="rotate(-0.0, 327.47579529737203, 280.103734439834)" y="280.103734439834">7</text><polygon points="382.8699861687414 268.90041493775936 384.1147994467497 268.90041493775936 384.1147994467497 263.92116182572613 382.8699861687414 263.92116182572613 " style="" /><text x="383.4923928077455" style="text-anchor: middle; font-size: 8.713692946058131pt; " transform="rotate(-0.0, 383.4923928077455, 280.103734439834)" y="280.103734439834">8</text><text x="243.4508990318119" style="text-anchor: middle; font-size: 12.448132780083pt; " transform="rotate(-0.0, 243.4508990318119, 305.0)" y="305.0">Cylinders</text><polyline points="56.72890733056707 263.92116182572613 56.72890733056708 14.958506224066412 " style="stroke: black; fill: none; " /><polygon points="56.72890733056706 264.5435684647303 56.72890733056706 263.298755186722 51.74965421853387 263.298755186722 51.74965421853387 264.5435684647303 " style="" /><text x="49.260027662517274" style="text-anchor: end; font-size: 8.713692946058089pt; " transform="rotate(-0.0, 49.260027662517274, 268.2780082987552)" y="268.2780082987552">0</text><polygon points="56.72890733056708 202.30290456431533 56.72890733056708 201.05809128630705 51.74965421853388 201.05809128630705 51.74965421853388 202.30290456431533 " style="" /><text x="49.26002766251728" style="text-anchor: end; font-size: 8.713692946058089pt; " transform="rotate(-0.0, 49.26002766251728, 206.03734439834025)" y="206.03734439834025">25</text><polygon points="56.728907330567075 140.0622406639004 56.728907330567075 138.8174273858921 51.749654218533884 138.8174273858921 51.749654218533884 140.0622406639004 " style="" /><text x="49.26002766251728" style="text-anchor: end; font-size: 8.713692946058089pt; " transform="rotate(-0.0, 49.26002766251728, 143.7966804979253)" y="143.7966804979253">50</text><polygon points="56.72890733056708 77.8215767634855 56.72890733056708 76.57676348547719 51.74965421853389 76.57676348547719 51.74965421853389 77.8215767634855 " style="" /><text x="49.26002766251729" style="text-anchor: end; font-size: 8.713692946058096pt; " transform="rotate(-0.0, 49.26002766251729, 81.55601659751036)" y="81.55601659751036">75</text><polygon points="56.72890733056708 15.580912863070523 56.72890733056708 14.336099585062243 51.74965421853389 14.336099585062243 51.74965421853389 15.580912863070523 " style="" /><text x="49.26002766251729" style="text-anchor: end; font-size: 8.713692946058096pt; " transform="rotate(-0.0, 49.26002766251729, 19.31535269709542)" y="19.31535269709542">100</text><text x="17.448132780083" style="text-anchor: middle; font-size: 12.448132780083pt; " transform="rotate(-90.0, 17.448132780083, 139.43983402489624)" y="139.43983402489624">Miles_per_Gallon_mean</text><text x="56.72890733056707" style="font-family: Helvetica; text-anchor: start; font-size: 16.182572614107876pt; " transform="rotate(-0.0, 56.72890733056707, 272.0124481327801)" y="272.0124481327801"></text><text x="442.6210235131397" style="font-family: sans-serif; text-anchor: start; font-size: 9.958506224066468pt; font-weight: bold; " transform="rotate(-0.0, 442.6210235131397, 14.958506224066412)" y="14.958506224066412">Origin</text><circle cy="33.6307053941909" style="fill: #6388B4; " r="3.734439834024897" cx="446.3554633471646" /><text x="453.82434301521437" style="text-anchor: start; font-size: 8.713692946058018pt; " transform="rotate(-0.0, 453.82434301521437, 37.365145228215795)" y="37.365145228215795">USA</text><circle cy="48.56846473029043" style="fill: #FFAE34; " r="3.734439834024897" cx="446.3554633471646" /><text x="453.82434301521437" style="text-anchor: start; font-size: 8.713692946058018pt; " transform="rotate(-0.0, 453.82434301521437, 52.30290456431533)" y="52.30290456431533">Japan</text><circle cy="63.50622406639002" style="fill: #EF6F6A; " r="3.734439834024897" cx="446.3554633471646" /><text x="453.82434301521437" style="text-anchor: start; font-size: 8.713692946058018pt; " transform="rotate(-0.0, 453.82434301521437, 67.24066390041492)" y="67.24066390041492">Europe</text><polygon points="190.5463347164592 263.92116182572613 240.33886583679114 263.92116182572613 240.33886583679114 195.7053941908714 190.5463347164592 195.7053941908714 " style="fill: #EF6F6A; " /><text x="215.44260027662517" style="text-anchor: middle; font-size: 8.713692946058103pt; fill: white; " transform="rotate(-0.0, 215.44260027662517, 234.1701244813278)" y="234.1701244813278">27.4</text><polygon points="78.51313969571231 263.92116182572613 128.30567081604426 263.92116182572613 128.30567081604426 212.63485477178426 78.51313969571231 212.63485477178426 " style="fill: #FFAE34; " /><text x="103.40940525587827" style="text-anchor: middle; font-size: 8.713692946058103pt; fill: white; " transform="rotate(-0.0, 103.40940525587827, 242.63485477178423)" y="242.63485477178423">20.6</text><polygon points="246.56293222683266 263.92116182572613 296.3554633471646 263.92116182572613 296.3554633471646 204.41908713692948 246.56293222683266 204.41908713692948 " style="fill: #FFAE34; " /><text x="271.45919778699863" style="text-anchor: middle; font-size: 8.713692946058075pt; fill: white; " transform="rotate(-0.0, 271.45919778699863, 238.52697095435684)" y="238.52697095435684">23.9</text><polygon points="246.56293222683266 204.41908713692948 296.3554633471646 204.41908713692948 296.3554633471646 154.37759336099583 246.56293222683266 154.37759336099583 " style="fill: #EF6F6A; " /><text x="271.45919778699863" style="text-anchor: middle; font-size: 8.713692946058075pt; fill: white; " transform="rotate(-0.0, 271.45919778699863, 183.7551867219917)" y="183.7551867219917">20.1</text><polygon points="246.56293222683266 154.37759336099583 296.3554633471646 154.37759336099583 296.3554633471646 105.58091286307058 246.56293222683266 105.58091286307058 " style="fill: #6388B4; " /><text x="271.45919778699863" style="text-anchor: middle; font-size: 8.713692946058075pt; fill: white; " transform="rotate(-0.0, 271.45919778699863, 134.33609958506224)" y="134.33609958506224">19.6</text><polygon points="134.5297372060857 263.92116182572613 184.3222683264177 263.92116182572613 184.3222683264177 185.24896265560164 134.5297372060857 185.24896265560164 " style="fill: #FFAE34; " /><text x="159.4260027662517" style="text-anchor: middle; font-size: 8.713692946058103pt; fill: white; " transform="rotate(-0.0, 159.4260027662517, 228.94190871369295)" y="228.94190871369295">31.6</text><polygon points="134.5297372060857 185.24896265560164 184.3222683264177 185.24896265560164 184.3222683264177 115.29045643153529 134.5297372060857 115.29045643153529 " style="fill: #EF6F6A; " /><text x="159.4260027662517" style="text-anchor: middle; font-size: 8.713692946058103pt; fill: white; " transform="rotate(-0.0, 159.4260027662517, 154.6265560165975)" y="154.6265560165975">28.1</text><polygon points="134.5297372060857 115.29045643153523 184.3222683264177 115.29045643153523 184.3222683264177 45.58091286307052 134.5297372060857 45.58091286307052 " style="fill: #6388B4; " /><text x="159.4260027662517" style="text-anchor: middle; font-size: 8.713692946058103pt; fill: white; " transform="rotate(-0.0, 159.4260027662517, 84.79253112033194)" y="84.79253112033194">28.0</text><polygon points="358.5961272475795 263.92116182572613 408.3886583679115 263.92116182572613 408.3886583679115 226.57676348547716 358.5961272475795 226.57676348547716 " style="fill: #6388B4; " /><text x="383.4923928077455" style="text-anchor: middle; font-size: 8.713692946058131pt; fill: white; " transform="rotate(-0.0, 383.4923928077455, 249.6058091286307)" y="249.6058091286307">15.0</text></svg>